<svg width="506" height="581" viewBox="0 0 506 581" fill="none" xmlns="http://www.w3.org/2000/svg">
<mask id="mask0_1852_3737" style="mask-type:alpha" maskUnits="userSpaceOnUse" x="0" y="0" width="506" height="581">
<rect opacity="0.05" x="506" y="580.994" width="505.276" height="580" transform="rotate(180 506 580.994)" fill="#D9D9D9"/>
</mask>
<g mask="url(#mask0_1852_3737)">
<path d="M-50.0547 1149.69L25.7659 389.342L590.672 -70.6905" stroke="white" stroke-width="2" stroke-miterlimit="10"/>
<path d="M-35.2515 1158.71L40.5777 398.362L604.743 -61.0668" stroke="white" stroke-width="1.98" stroke-miterlimit="10"/>
<path d="M-20.4341 1167.74L55.3865 407.392L618.829 -51.4374" stroke="white" stroke-width="1.96" stroke-miterlimit="10"/>
<path d="M-5.62109 1176.76L70.1995 416.418L632.901 -41.8075" stroke="white" stroke-width="1.95" stroke-miterlimit="10"/>
<path d="M9.18359 1185.79L85.0127 425.445L646.971 -32.1859" stroke="white" stroke-width="1.93" stroke-miterlimit="10"/>
<path d="M23.9961 1194.82L99.8166 434.47L661.051 -22.5619" stroke="white" stroke-width="1.91" stroke-miterlimit="10"/>
<path d="M38.814 1203.84L114.634 443.496L675.128 -12.932" stroke="white" stroke-width="1.89" stroke-miterlimit="10"/>
<path d="M53.6323 1212.88L129.451 452.521L689.21 -3.3139" stroke="white" stroke-width="1.87" stroke-miterlimit="10"/>
<path d="M68.4358 1221.9L144.263 461.547L703.29 6.31321" stroke="white" stroke-width="1.86" stroke-miterlimit="10"/>
<path d="M83.2498 1230.93L159.07 470.58L717.363 15.9395" stroke="white" stroke-width="1.84" stroke-miterlimit="10"/>
<path d="M98.0623 1239.95L173.883 479.607L731.443 25.5675" stroke="white" stroke-width="1.82" stroke-miterlimit="10"/>
<path d="M112.871 1248.98L188.7 488.633L745.518 35.1887" stroke="white" stroke-width="1.8" stroke-miterlimit="10"/>
<path d="M127.684 1258L203.504 497.655L759.59 44.8121" stroke="white" stroke-width="1.79" stroke-miterlimit="10"/>
<path d="M142.497 1267.03L218.318 506.684L773.671 54.4425" stroke="white" stroke-width="1.77" stroke-miterlimit="10"/>
<path d="M157.314 1276.06L233.134 515.71L787.747 64.0724" stroke="white" stroke-width="1.75" stroke-miterlimit="10"/>
<path d="M172.12 1285.09L247.947 524.735L801.825 73.69" stroke="white" stroke-width="1.73" stroke-miterlimit="10"/>
<path d="M186.937 1294.12L262.755 533.763L815.901 83.32" stroke="white" stroke-width="1.71" stroke-miterlimit="10"/>
<path d="M201.75 1303.14L277.569 542.787L829.983 92.9444" stroke="white" stroke-width="1.7" stroke-miterlimit="10"/>
<path d="M216.554 1312.17L292.384 551.821L844.052 102.565" stroke="white" stroke-width="1.68" stroke-miterlimit="10"/>
<path d="M231.371 1321.2L307.191 560.85L858.136 112.194" stroke="white" stroke-width="1.66" stroke-miterlimit="10"/>
<path d="M246.186 1330.22L322.006 569.878L872.21 121.825" stroke="white" stroke-width="1.64" stroke-miterlimit="10"/>
<path d="M260.999 1339.25L336.819 578.899L886.291 131.448" stroke="white" stroke-width="1.62" stroke-miterlimit="10"/>
<path d="M275.806 1348.27L351.626 587.927L900.363 141.069" stroke="white" stroke-width="1.61" stroke-miterlimit="10"/>
<path d="M290.619 1357.3L366.44 596.953L914.445 150.696" stroke="white" stroke-width="1.59" stroke-miterlimit="10"/>
<path d="M305.435 1366.33L381.253 605.979L928.517 160.325" stroke="white" stroke-width="1.57" stroke-miterlimit="10"/>
<path d="M320.243 1375.36L396.069 615.001L942.601 169.949" stroke="white" stroke-width="1.55" stroke-miterlimit="10"/>
<path d="M335.056 1384.38L410.874 624.03L956.671 179.57" stroke="white" stroke-width="1.54" stroke-miterlimit="10"/>
<path d="M349.869 1393.41L425.69 633.065L970.753 189.199" stroke="white" stroke-width="1.52" stroke-miterlimit="10"/>
<path d="M364.684 1402.43L440.504 642.087L984.826 198.824" stroke="white" stroke-width="1.5" stroke-miterlimit="10"/>
<path d="M379.49 1411.46L455.319 651.113L998.908 208.443" stroke="white" stroke-width="1.48" stroke-miterlimit="10"/>
<path d="M394.304 1420.49L470.125 660.142L1012.98 218.074" stroke="white" stroke-width="1.46" stroke-miterlimit="10"/>
<path d="M409.119 1429.52L484.94 669.17L1027.06 227.703" stroke="white" stroke-width="1.45" stroke-miterlimit="10"/>
<path d="M423.926 1438.54L499.755 678.19L1041.14 237.327" stroke="white" stroke-width="1.43" stroke-miterlimit="10"/>
<path d="M438.741 1447.57L514.56 687.218L1055.22 246.945" stroke="white" stroke-width="1.41" stroke-miterlimit="10"/>
<path d="M453.555 1456.6L529.375 696.253L1069.29 256.575" stroke="white" stroke-width="1.39" stroke-miterlimit="10"/>
<path d="M468.369 1465.63L544.189 705.28L1083.37 266.204" stroke="white" stroke-width="1.38" stroke-miterlimit="10"/>
<path d="M483.175 1474.65L559.004 714.302L1097.44 275.829" stroke="white" stroke-width="1.36" stroke-miterlimit="10"/>
<path d="M497.99 1483.68L573.81 723.33L1111.53 285.448" stroke="white" stroke-width="1.34" stroke-miterlimit="10"/>
<path d="M512.803 1492.7L588.624 732.357L1125.6 295.078" stroke="white" stroke-width="1.32" stroke-miterlimit="10"/>
<path d="M527.61 1501.73L603.439 741.385L1139.68 304.708" stroke="white" stroke-width="1.3" stroke-miterlimit="10"/>
<path d="M542.423 1510.75L618.244 750.407L1153.75 314.323" stroke="white" stroke-width="1.29" stroke-miterlimit="10"/>
<path d="M557.238 1519.79L633.056 759.432L1167.83 323.949" stroke="white" stroke-width="1.27" stroke-miterlimit="10"/>
<path d="M572.047 1528.82L647.874 768.459L1181.91 333.58" stroke="white" stroke-width="1.25" stroke-miterlimit="10"/>
<path d="M586.858 1537.84L662.679 777.497L1195.98 343.2" stroke="white" stroke-width="1.23" stroke-miterlimit="10"/>
<path d="M601.673 1546.86L677.494 786.518L1210.06 352.825" stroke="white" stroke-width="1.21" stroke-miterlimit="10"/>
<path d="M616.486 1555.89L692.307 795.545L1224.14 362.453" stroke="white" stroke-width="1.2" stroke-miterlimit="10"/>
<path d="M631.293 1564.92L707.123 804.571L1238.22 372.082" stroke="white" stroke-width="1.18" stroke-miterlimit="10"/>
<path d="M646.107 1573.94L721.927 813.596L1252.29 381.698" stroke="white" stroke-width="1.16" stroke-miterlimit="10"/>
<path d="M660.921 1582.97L736.742 822.622L1266.37 391.327" stroke="white" stroke-width="1.14" stroke-miterlimit="10"/>
<path d="M675.73 1592L751.557 831.647L1280.44 400.957" stroke="white" stroke-width="1.13" stroke-miterlimit="10"/>
<path d="M690.543 1601.03L766.37 840.673L1294.52 410.584" stroke="white" stroke-width="1.11" stroke-miterlimit="10"/>
<path d="M705.364 1610.06L781.182 849.704L1308.6 420.208" stroke="white" stroke-width="1.09" stroke-miterlimit="10"/>
<path d="M720.177 1619.08L795.998 858.733L1322.68 429.829" stroke="white" stroke-width="1.07" stroke-miterlimit="10"/>
<path d="M734.978 1628.11L810.807 867.759L1336.75 439.459" stroke="white" stroke-width="1.05" stroke-miterlimit="10"/>
<path d="M749.792 1637.13L825.613 876.788L1350.83 449.079" stroke="white" stroke-width="1.04" stroke-miterlimit="10"/>
</g>
</svg>
