<svg width="506" height="580" viewBox="0 0 506 580" fill="none" xmlns="http://www.w3.org/2000/svg">
<mask id="mask0_1852_3677" style="mask-type:alpha" maskUnits="userSpaceOnUse" x="0" y="0" width="506" height="580">
<rect opacity="0.05" width="505.276" height="580" fill="#D9D9D9"/>
</mask>
<g mask="url(#mask0_1852_3677)">
<path d="M556.052 -568.693L480.232 191.653L-84.6744 651.685" stroke="white" stroke-width="2" stroke-miterlimit="10"/>
<path d="M541.246 -577.716L465.417 182.632L-98.7488 642.061" stroke="white" stroke-width="1.98" stroke-miterlimit="10"/>
<path d="M526.431 -586.744L450.611 173.602L-112.831 632.432" stroke="white" stroke-width="1.96" stroke-miterlimit="10"/>
<path d="M511.618 -595.771L435.798 164.576L-126.904 622.802" stroke="white" stroke-width="1.95" stroke-miterlimit="10"/>
<path d="M496.811 -604.799L420.982 155.549L-140.976 613.18" stroke="white" stroke-width="1.93" stroke-miterlimit="10"/>
<path d="M481.998 -613.822L406.177 146.525L-155.057 603.556" stroke="white" stroke-width="1.91" stroke-miterlimit="10"/>
<path d="M467.183 -622.848L391.363 137.498L-169.131 593.926" stroke="white" stroke-width="1.89" stroke-miterlimit="10"/>
<path d="M452.365 -631.882L376.547 128.473L-183.213 584.308" stroke="white" stroke-width="1.87" stroke-miterlimit="10"/>
<path d="M437.561 -640.91L361.734 119.447L-197.293 574.681" stroke="white" stroke-width="1.86" stroke-miterlimit="10"/>
<path d="M422.745 -649.933L346.924 110.414L-211.369 565.055" stroke="white" stroke-width="1.84" stroke-miterlimit="10"/>
<path d="M407.932 -658.959L332.111 101.387L-225.449 555.427" stroke="white" stroke-width="1.82" stroke-miterlimit="10"/>
<path d="M393.126 -667.987L317.297 92.3613L-239.52 545.805" stroke="white" stroke-width="1.8" stroke-miterlimit="10"/>
<path d="M378.314 -677.007L302.494 83.3391L-253.592 536.182" stroke="white" stroke-width="1.79" stroke-miterlimit="10"/>
<path d="M363.497 -686.036L287.676 74.3102L-267.677 526.552" stroke="white" stroke-width="1.77" stroke-miterlimit="10"/>
<path d="M348.683 -695.062L272.863 65.2841L-281.75 516.922" stroke="white" stroke-width="1.75" stroke-miterlimit="10"/>
<path d="M333.875 -704.098L258.048 56.2592L-295.83 507.304" stroke="white" stroke-width="1.73" stroke-miterlimit="10"/>
<path d="M319.06 -713.125L243.242 47.2307L-309.904 497.674" stroke="white" stroke-width="1.71" stroke-miterlimit="10"/>
<path d="M304.247 -722.147L228.428 38.2075L-323.986 488.05" stroke="white" stroke-width="1.7" stroke-miterlimit="10"/>
<path d="M289.439 -731.175L213.61 29.1734L-338.058 478.429" stroke="white" stroke-width="1.68" stroke-miterlimit="10"/>
<path d="M275.03 -739.006L199.21 21.3404L-351.735 469.997" stroke="white" stroke-width="1.66" stroke-miterlimit="10"/>
<path d="M259.812 -749.23L183.991 11.116L-366.213 459.169" stroke="white" stroke-width="1.64" stroke-miterlimit="10"/>
<path d="M244.999 -758.251L169.178 2.0953L-380.293 449.547" stroke="white" stroke-width="1.62" stroke-miterlimit="10"/>
<path d="M230.191 -767.279L154.371 -6.93294L-394.366 439.926" stroke="white" stroke-width="1.61" stroke-miterlimit="10"/>
<path d="M215.378 -776.306L139.558 -15.9591L-408.448 430.298" stroke="white" stroke-width="1.59" stroke-miterlimit="10"/>
<path d="M200.562 -785.34L124.744 -24.9846L-422.52 420.669" stroke="white" stroke-width="1.57" stroke-miterlimit="10"/>
<path d="M185.755 -794.364L109.928 -34.0069L-436.604 411.045" stroke="white" stroke-width="1.55" stroke-miterlimit="10"/>
<path d="M170.942 -803.391L95.1234 -43.0357L-450.674 401.424" stroke="white" stroke-width="1.54" stroke-miterlimit="10"/>
<path d="M156.128 -812.417L80.3078 -52.0708L-464.755 391.796" stroke="white" stroke-width="1.52" stroke-miterlimit="10"/>
<path d="M141.314 -821.439L65.4934 -61.093L-478.829 382.17" stroke="white" stroke-width="1.5" stroke-miterlimit="10"/>
<path d="M126.508 -830.468L50.6791 -70.119L-492.909 372.551" stroke="white" stroke-width="1.48" stroke-miterlimit="10"/>
<path d="M111.693 -839.494L35.8728 -79.1478L-506.983 362.921" stroke="white" stroke-width="1.46" stroke-miterlimit="10"/>
<path d="M96.8789 -848.516L21.0583 -88.169L-521.065 353.298" stroke="white" stroke-width="1.45" stroke-miterlimit="10"/>
<path d="M82.0732 -857.545L6.2441 -97.1962L-535.139 343.667" stroke="white" stroke-width="1.43" stroke-miterlimit="10"/>
<path d="M67.2568 -866.579L-8.56149 -106.224L-549.218 334.049" stroke="white" stroke-width="1.41" stroke-miterlimit="10"/>
<path d="M52.4438 -875.605L-23.3767 -115.259L-563.29 324.419" stroke="white" stroke-width="1.39" stroke-miterlimit="10"/>
<path d="M37.6289 -884.631L-38.1916 -124.285L-577.373 314.791" stroke="white" stroke-width="1.38" stroke-miterlimit="10"/>
<path d="M22.8235 -893.656L-53.0056 -133.308L-591.446 305.165" stroke="white" stroke-width="1.36" stroke-miterlimit="10"/>
<path d="M8.00879 -902.683L-67.8119 -142.336L-605.527 295.546" stroke="white" stroke-width="1.34" stroke-miterlimit="10"/>
<path d="M-6.80371 -911.709L-82.6242 -151.363L-619.598 285.916" stroke="white" stroke-width="1.32" stroke-miterlimit="10"/>
<path d="M-21.6116 -920.739L-97.4407 -160.39L-633.683 276.287" stroke="white" stroke-width="1.3" stroke-miterlimit="10"/>
<path d="M-36.4248 -929.76L-112.245 -169.413L-647.753 266.671" stroke="white" stroke-width="1.29" stroke-miterlimit="10"/>
<path d="M-51.2429 -938.793L-127.061 -178.438L-661.836 257.045" stroke="white" stroke-width="1.27" stroke-miterlimit="10"/>
<path d="M-66.0479 -947.822L-141.875 -187.464L-675.909 247.415" stroke="white" stroke-width="1.25" stroke-miterlimit="10"/>
<path d="M-80.8622 -956.848L-156.683 -196.502L-689.989 237.795" stroke="white" stroke-width="1.23" stroke-miterlimit="10"/>
<path d="M-95.678 -965.871L-171.498 -205.524L-704.064 228.169" stroke="white" stroke-width="1.21" stroke-miterlimit="10"/>
<path d="M-110.491 -974.897L-186.311 -214.55L-718.145 218.541" stroke="white" stroke-width="1.2" stroke-miterlimit="10"/>
<path d="M-125.297 -983.925L-201.126 -223.577L-732.219 208.912" stroke="white" stroke-width="1.18" stroke-miterlimit="10"/>
<path d="M-140.111 -992.948L-215.932 -232.601L-746.299 199.296" stroke="white" stroke-width="1.16" stroke-miterlimit="10"/>
<path d="M-154.926 -1001.97L-230.747 -241.628L-760.373 189.667" stroke="white" stroke-width="1.14" stroke-miterlimit="10"/>
<path d="M-169.735 -1011.01L-245.562 -250.653L-774.447 180.037" stroke="white" stroke-width="1.13" stroke-miterlimit="10"/>
<path d="M-184.548 -1020.04L-260.375 -259.679L-788.528 170.41" stroke="white" stroke-width="1.11" stroke-miterlimit="10"/>
<path d="M-199.363 -1029.06L-275.181 -268.703L-802.599 160.794" stroke="white" stroke-width="1.09" stroke-miterlimit="10"/>
<path d="M-214.176 -1038.08L-289.996 -277.739L-816.68 151.165" stroke="white" stroke-width="1.07" stroke-miterlimit="10"/>
<path d="M-228.983 -1047.11L-304.812 -286.765L-830.755 141.535" stroke="white" stroke-width="1.05" stroke-miterlimit="10"/>
<path d="M-243.796 -1056.14L-319.617 -295.793L-844.834 131.916" stroke="white" stroke-width="1.04" stroke-miterlimit="10"/>
</g>
</svg>
