<svg width="349" height="401" viewBox="0 0 349 401" fill="none" xmlns="http://www.w3.org/2000/svg">
<mask id="mask0_1870_485" style="mask-type:alpha" maskUnits="userSpaceOnUse" x="0" y="0" width="349" height="401">
<rect opacity="0.05" width="348.466" height="400" transform="matrix(1 0 0 -1 0 400.814)" fill="#D9D9D9"/>
</mask>
<g mask="url(#mask0_1870_485)">
<path d="M383.484 793.021L331.194 268.645L-58.397 -48.619" stroke="white" stroke-width="2" stroke-miterlimit="10"/>
<path d="M373.274 799.236L320.978 274.858L-68.1016 -41.9893" stroke="white" stroke-width="1.98" stroke-miterlimit="10"/>
<path d="M363.055 805.468L310.766 281.091L-77.8149 -35.3432" stroke="white" stroke-width="1.96" stroke-miterlimit="10"/>
<path d="M352.839 811.693L300.549 287.317L-87.5204 -28.701" stroke="white" stroke-width="1.95" stroke-miterlimit="10"/>
<path d="M342.629 817.912L290.333 293.534L-97.2241 -22.0733" stroke="white" stroke-width="1.93" stroke-miterlimit="10"/>
<path d="M332.412 824.144L280.122 299.766L-106.936 -15.4277" stroke="white" stroke-width="1.91" stroke-miterlimit="10"/>
<path d="M322.195 830.365L269.905 305.989L-116.642 -8.78882" stroke="white" stroke-width="1.89" stroke-miterlimit="10"/>
<path d="M311.978 836.595L259.689 312.212L-126.352 -2.15714" stroke="white" stroke-width="1.87" stroke-miterlimit="10"/>
<path d="M301.765 842.826L249.471 318.442L-136.065 4.48792" stroke="white" stroke-width="1.86" stroke-miterlimit="10"/>
<path d="M291.55 849.039L239.26 324.662L-145.769 11.1168" stroke="white" stroke-width="1.84" stroke-miterlimit="10"/>
<path d="M281.334 855.271L229.045 330.894L-155.48 17.7629" stroke="white" stroke-width="1.82" stroke-miterlimit="10"/>
<path d="M271.121 861.498L218.825 337.119L-165.187 24.3991" stroke="white" stroke-width="1.8" stroke-miterlimit="10"/>
<path d="M260.906 867.715L208.616 343.338L-174.891 31.033" stroke="white" stroke-width="1.79" stroke-miterlimit="10"/>
<path d="M250.689 873.945L198.399 349.568L-184.603 37.6776" stroke="white" stroke-width="1.77" stroke-miterlimit="10"/>
<path d="M240.473 880.17L188.183 355.793L-194.308 44.3192" stroke="white" stroke-width="1.75" stroke-miterlimit="10"/>
<path d="M230.261 886.399L177.967 362.015L-204.018 50.9495" stroke="white" stroke-width="1.73" stroke-miterlimit="10"/>
<path d="M220.042 892.629L167.754 368.246L-213.726 57.5955" stroke="white" stroke-width="1.71" stroke-miterlimit="10"/>
<path d="M209.826 898.841L157.538 374.458L-223.437 64.2221" stroke="white" stroke-width="1.7" stroke-miterlimit="10"/>
<path d="M199.616 905.074L147.32 380.696L-233.141 70.8646" stroke="white" stroke-width="1.68" stroke-miterlimit="10"/>
<path d="M189.399 911.304L137.109 386.927L-242.852 77.5084" stroke="white" stroke-width="1.66" stroke-miterlimit="10"/>
<path d="M179.181 917.517L126.891 393.14L-252.56 84.1382" stroke="white" stroke-width="1.64" stroke-miterlimit="10"/>
<path d="M168.964 923.747L116.674 399.37L-262.272 90.7829" stroke="white" stroke-width="1.62" stroke-miterlimit="10"/>
<path d="M158.754 929.976L106.464 405.599L-271.976 97.4202" stroke="white" stroke-width="1.61" stroke-miterlimit="10"/>
<path d="M148.538 936.192L96.2475 411.816L-281.687 104.052" stroke="white" stroke-width="1.59" stroke-miterlimit="10"/>
<path d="M138.317 942.433L86.0289 418.05L-291.395 110.703" stroke="white" stroke-width="1.57" stroke-miterlimit="10"/>
<path d="M128.108 948.647L75.8133 424.263L-301.105 117.331" stroke="white" stroke-width="1.55" stroke-miterlimit="10"/>
<path d="M117.891 954.876L65.6025 430.493L-310.809 123.97" stroke="white" stroke-width="1.54" stroke-miterlimit="10"/>
<path d="M107.674 961.106L55.3841 436.729L-320.521 130.615" stroke="white" stroke-width="1.52" stroke-miterlimit="10"/>
<path d="M97.4556 967.319L45.1656 442.943L-330.229 137.244" stroke="white" stroke-width="1.5" stroke-miterlimit="10"/>
<path d="M87.2473 973.552L34.9513 449.174L-339.937 143.884" stroke="white" stroke-width="1.48" stroke-miterlimit="10"/>
<path d="M77.0288 979.778L24.7388 455.401L-349.645 150.526" stroke="white" stroke-width="1.46" stroke-miterlimit="10"/>
<path d="M66.8105 985.994L14.5205 461.617L-359.358 157.157" stroke="white" stroke-width="1.45" stroke-miterlimit="10"/>
<path d="M56.6025 992.228L4.30672 467.849L-369.06 163.805" stroke="white" stroke-width="1.43" stroke-miterlimit="10"/>
<path d="M46.3823 998.45L-5.90608 474.067L-378.773 170.431" stroke="white" stroke-width="1.41" stroke-miterlimit="10"/>
<path d="M36.166 1004.68L-16.1239 480.302L-388.478 177.076" stroke="white" stroke-width="1.39" stroke-miterlimit="10"/>
<path d="M25.9504 1010.91L-26.3395 486.532L-398.189 183.721" stroke="white" stroke-width="1.38" stroke-miterlimit="10"/>
<path d="M15.7388 1017.12L-36.5573 492.744L-407.896 190.349" stroke="white" stroke-width="1.36" stroke-miterlimit="10"/>
<path d="M5.52148 1023.35L-46.7687 498.978L-417.607 196.99" stroke="white" stroke-width="1.34" stroke-miterlimit="10"/>
<path d="M-4.69336 1029.58L-56.9834 505.208L-427.31 203.636" stroke="white" stroke-width="1.32" stroke-miterlimit="10"/>
<path d="M-14.9062 1035.8L-67.2022 511.421L-437.024 210.264" stroke="white" stroke-width="1.3" stroke-miterlimit="10"/>
<path d="M-25.123 1042.03L-77.413 517.654L-446.728 216.906" stroke="white" stroke-width="1.29" stroke-miterlimit="10"/>
<path d="M-35.3384 1048.26L-87.6268 523.874L-456.437 223.541" stroke="white" stroke-width="1.27" stroke-miterlimit="10"/>
<path d="M-45.5527 1054.48L-97.8471 530.099L-466.147 230.182" stroke="white" stroke-width="1.25" stroke-miterlimit="10"/>
<path d="M-55.7676 1060.71L-108.058 536.337L-475.855 236.822" stroke="white" stroke-width="1.23" stroke-miterlimit="10"/>
<path d="M-65.9836 1066.93L-118.274 542.552L-485.56 243.452" stroke="white" stroke-width="1.21" stroke-miterlimit="10"/>
<path d="M-76.2003 1073.16L-128.49 548.78L-495.272 250.096" stroke="white" stroke-width="1.2" stroke-miterlimit="10"/>
<path d="M-86.4124 1079.39L-138.708 555.009L-504.978 256.741" stroke="white" stroke-width="1.18" stroke-miterlimit="10"/>
<path d="M-96.6272 1085.6L-148.917 561.224L-514.687 263.363" stroke="white" stroke-width="1.16" stroke-miterlimit="10"/>
<path d="M-106.845 1091.83L-159.135 567.455L-524.394 270.011" stroke="white" stroke-width="1.14" stroke-miterlimit="10"/>
<path d="M-117.057 1098.06L-169.351 573.675L-534.099 276.647" stroke="white" stroke-width="1.13" stroke-miterlimit="10"/>
<path d="M-127.274 1104.29L-179.568 579.901L-543.812 283.288" stroke="white" stroke-width="1.11" stroke-miterlimit="10"/>
<path d="M-137.492 1110.52L-189.781 586.134L-553.517 289.93" stroke="white" stroke-width="1.09" stroke-miterlimit="10"/>
<path d="M-147.709 1116.73L-199.999 592.354L-563.229 296.559" stroke="white" stroke-width="1.07" stroke-miterlimit="10"/>
<path d="M-157.919 1122.96L-210.215 598.583L-572.935 303.204" stroke="white" stroke-width="1.05" stroke-miterlimit="10"/>
<path d="M-168.136 1129.19L-220.426 604.816L-582.644 309.844" stroke="white" stroke-width="1.04" stroke-miterlimit="10"/>
</g>
</svg>
