<svg width="349" height="401" viewBox="0 0 349 401" fill="none" xmlns="http://www.w3.org/2000/svg">
<mask id="mask0_1870_545" style="mask-type:alpha" maskUnits="userSpaceOnUse" x="0" y="0" width="349" height="401">
<rect opacity="0.05" width="348.466" height="400" transform="matrix(-1 0 0 1 349 0.785156)" fill="#D9D9D9"/>
</mask>
<g mask="url(#mask0_1870_545)">
<path d="M-34.4871 -391.422L17.8031 132.955L407.394 450.219" stroke="white" stroke-width="2" stroke-miterlimit="10"/>
<path d="M-24.2754 -397.636L28.0205 126.743L417.1 443.59" stroke="white" stroke-width="1.98" stroke-miterlimit="10"/>
<path d="M-14.0591 -403.867L38.2308 120.51L426.811 436.944" stroke="white" stroke-width="1.96" stroke-miterlimit="10"/>
<path d="M-3.84277 -410.094L48.4472 114.283L436.517 430.301" stroke="white" stroke-width="1.95" stroke-miterlimit="10"/>
<path d="M6.36914 -416.312L58.665 108.067L446.222 423.674" stroke="white" stroke-width="1.93" stroke-miterlimit="10"/>
<path d="M16.585 -422.543L68.8749 101.834L455.933 417.028" stroke="white" stroke-width="1.91" stroke-miterlimit="10"/>
<path d="M26.802 -428.766L79.092 95.6109L465.639 410.388" stroke="white" stroke-width="1.89" stroke-miterlimit="10"/>
<path d="M37.0193 -434.994L89.3077 89.3888L475.349 403.758" stroke="white" stroke-width="1.87" stroke-miterlimit="10"/>
<path d="M47.2307 -441.227L99.525 83.1576L485.061 397.112" stroke="white" stroke-width="1.86" stroke-miterlimit="10"/>
<path d="M57.4473 -447.438L109.737 76.9393L494.767 390.485" stroke="white" stroke-width="1.84" stroke-miterlimit="10"/>
<path d="M67.6633 -453.67L119.953 70.707L504.477 383.838" stroke="white" stroke-width="1.82" stroke-miterlimit="10"/>
<path d="M77.8757 -459.898L130.172 64.4803L514.184 377.201" stroke="white" stroke-width="1.8" stroke-miterlimit="10"/>
<path d="M88.0911 -466.114L140.381 58.2624L523.888 370.568" stroke="white" stroke-width="1.79" stroke-miterlimit="10"/>
<path d="M98.3081 -472.345L150.598 52.0322L533.6 363.923" stroke="white" stroke-width="1.77" stroke-miterlimit="10"/>
<path d="M108.524 -478.57L160.814 45.8063L543.305 357.28" stroke="white" stroke-width="1.75" stroke-miterlimit="10"/>
<path d="M118.737 -484.799L171.031 39.5856L553.016 350.651" stroke="white" stroke-width="1.73" stroke-miterlimit="10"/>
<path d="M128.954 -491.028L181.242 33.3545L562.722 344.005" stroke="white" stroke-width="1.71" stroke-miterlimit="10"/>
<path d="M139.17 -497.241L191.458 27.1415L572.433 337.378" stroke="white" stroke-width="1.7" stroke-miterlimit="10"/>
<path d="M149.382 -503.474L201.677 20.9046L582.138 330.736" stroke="white" stroke-width="1.68" stroke-miterlimit="10"/>
<path d="M159.598 -509.704L211.888 14.6729L591.849 324.091" stroke="white" stroke-width="1.66" stroke-miterlimit="10"/>
<path d="M169.815 -515.916L222.105 8.46061L601.556 317.462" stroke="white" stroke-width="1.64" stroke-miterlimit="10"/>
<path d="M180.032 -522.146L232.322 2.23049L611.268 310.818" stroke="white" stroke-width="1.62" stroke-miterlimit="10"/>
<path d="M190.243 -528.376L242.533 -3.999L620.972 304.179" stroke="white" stroke-width="1.61" stroke-miterlimit="10"/>
<path d="M200.459 -534.592L252.749 -10.2152L630.684 297.548" stroke="white" stroke-width="1.59" stroke-miterlimit="10"/>
<path d="M210.679 -540.832L262.967 -16.4493L640.391 290.898" stroke="white" stroke-width="1.57" stroke-miterlimit="10"/>
<path d="M220.89 -547.048L273.184 -22.6635L650.103 284.269" stroke="white" stroke-width="1.55" stroke-miterlimit="10"/>
<path d="M231.106 -553.275L283.394 -28.8928L659.806 277.631" stroke="white" stroke-width="1.54" stroke-miterlimit="10"/>
<path d="M241.323 -559.507L293.613 -35.1298L669.518 270.985" stroke="white" stroke-width="1.52" stroke-miterlimit="10"/>
<path d="M251.541 -565.72L303.831 -41.3431L679.226 264.355" stroke="white" stroke-width="1.5" stroke-miterlimit="10"/>
<path d="M261.75 -571.951L314.046 -47.573L688.934 257.717" stroke="white" stroke-width="1.48" stroke-miterlimit="10"/>
<path d="M271.968 -578.179L324.258 -53.8017L698.642 251.073" stroke="white" stroke-width="1.46" stroke-miterlimit="10"/>
<path d="M282.187 -584.394L334.477 -60.0169L708.355 244.443" stroke="white" stroke-width="1.45" stroke-miterlimit="10"/>
<path d="M292.395 -590.627L344.691 -66.2485L718.058 237.795" stroke="white" stroke-width="1.43" stroke-miterlimit="10"/>
<path d="M302.615 -596.851L354.904 -72.4678L727.77 231.169" stroke="white" stroke-width="1.41" stroke-miterlimit="10"/>
<path d="M312.832 -603.078L365.121 -78.7014L737.475 224.525" stroke="white" stroke-width="1.39" stroke-miterlimit="10"/>
<path d="M323.048 -609.309L375.338 -84.9315L747.187 217.88" stroke="white" stroke-width="1.38" stroke-miterlimit="10"/>
<path d="M333.259 -615.522L385.555 -91.1442L756.894 211.251" stroke="white" stroke-width="1.36" stroke-miterlimit="10"/>
<path d="M343.476 -621.755L395.766 -97.3783L766.604 204.609" stroke="white" stroke-width="1.34" stroke-miterlimit="10"/>
<path d="M353.692 -627.985L405.982 -103.608L776.309 197.963" stroke="white" stroke-width="1.32" stroke-miterlimit="10"/>
<path d="M363.904 -634.198L416.2 -109.82L786.022 191.336" stroke="white" stroke-width="1.3" stroke-miterlimit="10"/>
<path d="M374.12 -640.43L426.41 -116.053L795.725 184.695" stroke="white" stroke-width="1.29" stroke-miterlimit="10"/>
<path d="M384.338 -646.657L436.627 -122.275L805.437 178.058" stroke="white" stroke-width="1.27" stroke-miterlimit="10"/>
<path d="M394.55 -652.883L446.845 -128.498L815.144 171.418" stroke="white" stroke-width="1.25" stroke-miterlimit="10"/>
<path d="M404.766 -659.113L457.056 -134.737L824.854 164.779" stroke="white" stroke-width="1.23" stroke-miterlimit="10"/>
<path d="M414.983 -665.329L467.273 -140.952L834.56 158.147" stroke="white" stroke-width="1.21" stroke-miterlimit="10"/>
<path d="M425.2 -671.556L477.49 -147.179L844.272 151.505" stroke="white" stroke-width="1.2" stroke-miterlimit="10"/>
<path d="M435.411 -677.788L487.707 -153.41L853.977 144.858" stroke="white" stroke-width="1.18" stroke-miterlimit="10"/>
<path d="M445.627 -684.001L497.917 -159.624L863.687 138.237" stroke="white" stroke-width="1.16" stroke-miterlimit="10"/>
<path d="M455.845 -690.231L508.135 -165.855L873.394 131.589" stroke="white" stroke-width="1.14" stroke-miterlimit="10"/>
<path d="M466.057 -696.46L518.351 -172.076L883.099 124.952" stroke="white" stroke-width="1.13" stroke-miterlimit="10"/>
<path d="M476.273 -702.685L528.567 -178.3L892.811 118.313" stroke="white" stroke-width="1.11" stroke-miterlimit="10"/>
<path d="M486.49 -708.916L538.779 -184.533L902.515 111.671" stroke="white" stroke-width="1.09" stroke-miterlimit="10"/>
<path d="M496.707 -715.132L548.997 -190.755L912.227 105.041" stroke="white" stroke-width="1.07" stroke-miterlimit="10"/>
<path d="M506.918 -721.36L559.215 -196.982L921.934 98.397" stroke="white" stroke-width="1.05" stroke-miterlimit="10"/>
<path d="M517.135 -727.592L569.425 -203.215L931.643 91.7565" stroke="white" stroke-width="1.04" stroke-miterlimit="10"/>
</g>
</svg>
