<svg width="82" height="80" viewBox="0 0 82 80" fill="none" xmlns="http://www.w3.org/2000/svg">
<path d="M56.7579 54.1103C56.2184 53.1221 55.365 52.3417 54.3327 51.8923C53.3003 51.443 52.1477 51.3502 51.0567 51.6286C49.9658 51.907 48.9986 52.5409 48.3079 53.43C47.6171 54.3192 47.2422 55.4131 47.2422 56.539C47.2422 57.6649 47.6171 58.7588 48.3079 59.648C48.9986 60.5371 49.9658 61.171 51.0567 61.4494C52.1477 61.7278 53.3003 61.6351 54.3327 61.1857C55.365 60.7363 56.2184 59.9559 56.7579 58.9677H63.7039V64.6345H68.5613V54.1103H56.7579ZM52.3054 57.891C52.038 57.891 51.7766 57.8117 51.5543 57.6631C51.332 57.5146 51.1587 57.3034 51.0564 57.0564C50.954 56.8093 50.9273 56.5375 50.9794 56.2752C51.0316 56.013 51.1604 55.7721 51.3494 55.583C51.5385 55.3939 51.7794 55.2652 52.0416 55.213C52.3039 55.1609 52.5757 55.1876 52.8228 55.29C53.0698 55.3923 53.281 55.5656 53.4295 55.7879C53.5781 56.0102 53.6574 56.2716 53.6574 56.539C53.6584 56.7155 53.6247 56.8904 53.5582 57.0539C53.4916 57.2173 53.3935 57.3661 53.2695 57.4916C53.1454 57.6172 52.9979 57.7171 52.8352 57.7856C52.6726 57.8541 52.4981 57.8899 52.3216 57.891H52.3054Z" fill="white"/>
<path d="M40.4128 7.49649H72.2283C72.7679 8.48471 73.6212 9.26507 74.6536 9.71446C75.6859 10.1639 76.8385 10.2567 77.9295 9.97822C79.0205 9.69978 79.9876 9.06595 80.6784 8.17678C81.3691 7.28762 81.7441 6.19376 81.7441 5.06783C81.7441 3.94189 81.3691 2.84801 80.6784 1.95884C79.9876 1.06968 79.0205 0.435848 77.9295 0.157407C76.8385 -0.121034 75.6859 -0.028224 74.6536 0.421165C73.6212 0.870553 72.7679 1.65094 72.2283 2.63916H40.4128C30.1565 2.64986 20.3229 6.72665 13.0676 13.9759C5.81233 21.2251 1.72729 31.0553 1.70801 41.3116C1.70801 41.5787 1.70801 41.8378 1.70801 42.1211C2.36719 41.5577 3.16131 41.175 4.0127 41.0104C4.8641 40.8458 5.74364 40.9049 6.56533 41.182C6.61664 32.2359 10.2043 23.6731 16.5455 17.3623C22.8866 11.0514 31.4665 7.50489 40.4128 7.49649ZM78.0328 5.06783C78.0328 5.33522 77.9535 5.5966 77.805 5.81893C77.6564 6.04125 77.4453 6.21454 77.1982 6.31687C76.9512 6.4192 76.6793 6.44597 76.4171 6.3938C76.1548 6.34164 75.9139 6.21286 75.7249 6.02379C75.5358 5.83471 75.407 5.59381 75.3549 5.33156C75.3027 5.0693 75.3295 4.79748 75.4318 4.55044C75.5341 4.3034 75.7074 4.09225 75.9297 3.94369C76.1521 3.79514 76.4135 3.71586 76.6808 3.71586C77.0394 3.71586 77.3833 3.8583 77.6368 4.11184C77.8904 4.36538 78.0328 4.70927 78.0328 5.06783Z" fill="white"/>
<path d="M63.7203 75.1749H40.4132C32.9902 75.1627 25.7764 72.7143 19.8796 68.2054C13.9829 63.6965 9.72923 57.3767 7.77198 50.2163C7.04813 50.6905 6.2146 50.9708 5.3513 51.0304C4.48801 51.0899 3.62389 50.9267 2.8418 50.5563C4.91988 58.9533 9.7476 66.4136 16.5562 71.7493C23.3649 77.085 31.7629 79.9893 40.4132 79.9998H68.5776V72.4224H63.7203V75.1749Z" fill="white"/>
<path d="M1.70809 42.1212C0.756832 42.9636 0.156711 44.1325 0.026637 45.3965C-0.103437 46.6604 0.246029 47.9271 1.00579 48.9455C1.76555 49.964 2.88016 50.6599 4.12877 50.8953C5.37739 51.1307 6.66889 50.8886 7.74737 50.2167C8.44869 49.7618 9.02483 49.1383 9.42314 48.4034H74.228V64.5944H40.3886C35.9865 64.5949 31.6741 63.35 27.9496 61.0035C24.225 58.6571 21.2403 55.3048 19.3402 51.3339H14.1024C16.141 56.6605 19.747 61.2436 24.4444 64.4782C29.1417 67.7129 34.7095 69.447 40.4129 69.4518H79.1096V43.546H65.8491L52.7667 30.4636H46.6222C46.0826 29.4754 45.2293 28.695 44.1969 28.2456C43.1645 27.7962 42.0119 27.7034 40.921 27.9819C39.83 28.2603 38.8628 28.8941 38.1721 29.7833C37.4814 30.6725 37.1064 31.7664 37.1064 32.8923C37.1064 34.0182 37.4814 35.1121 38.1721 36.0012C38.8628 36.8904 39.83 37.5242 40.921 37.8027C42.0119 38.0811 43.1645 37.9883 44.1969 37.5389C45.2293 37.0896 46.0826 36.3092 46.6222 35.3209H50.7509L58.976 43.546H17.2111C17.1463 42.8093 17.1058 42.0564 17.1058 41.3035C17.1144 35.1248 19.5727 29.2015 23.9418 24.8324C28.3108 20.4633 34.2341 18.0051 40.4129 17.9965H51.5524C52.0919 18.9847 52.9453 19.7651 53.9776 20.2145C55.01 20.6639 56.1626 20.7567 57.2536 20.4782C58.3445 20.1998 59.3117 19.566 60.0024 18.6768C60.6932 17.7876 61.0681 16.6938 61.0681 15.5678C61.0681 14.4419 60.6932 13.348 60.0024 12.4588C59.3117 11.5697 58.3445 10.9358 57.2536 10.6574C56.1626 10.379 55.01 10.4718 53.9776 10.9212C52.9453 11.3706 52.0919 12.1509 51.5524 13.1392H40.4129C32.9416 13.1435 25.7775 16.1127 20.4938 21.3949C15.2101 26.6771 12.2387 33.8404 12.2323 41.3116C12.2323 42.0645 12.2323 42.8174 12.3213 43.5541H9.45553C8.82684 42.4281 7.79374 41.5831 6.56542 41.1902C5.74441 40.912 4.86527 40.8516 4.0139 41.0147C3.16253 41.1779 2.36805 41.5591 1.70809 42.1212ZM40.7934 32.9166C40.7934 32.6492 40.8727 32.3878 41.0212 32.1655C41.1698 31.9431 41.3809 31.7699 41.628 31.6675C41.875 31.5652 42.1468 31.5384 42.4091 31.5906C42.6713 31.6428 42.9122 31.7715 43.1013 31.9606C43.2904 32.1497 43.4191 32.3906 43.4713 32.6528C43.5235 32.9151 43.4967 33.1869 43.3944 33.4339C43.292 33.681 43.1188 33.8921 42.8964 34.0407C42.6741 34.1892 42.4127 34.2685 42.1453 34.2685C41.7924 34.2622 41.4559 34.1181 41.2078 33.8669C40.9597 33.6158 40.8197 33.2777 40.8177 32.9247L40.7934 32.9166ZM57.3326 15.6002C57.3326 15.8676 57.2533 16.129 57.1047 16.3513C56.9562 16.5736 56.745 16.7469 56.498 16.8492C56.2509 16.9516 55.9791 16.9783 55.7169 16.9262C55.4546 16.874 55.2137 16.7452 55.0246 16.5562C54.8356 16.3671 54.7068 16.1262 54.6546 15.8639C54.6025 15.6017 54.6292 15.3299 54.7316 15.0828C54.8339 14.8358 55.0072 14.6246 55.2295 14.4761C55.4518 14.3275 55.7132 14.2482 55.9806 14.2482C56.1612 14.2439 56.3408 14.276 56.5086 14.3426C56.6765 14.4091 56.8293 14.5089 56.9577 14.6359C57.0862 14.7628 57.1877 14.9143 57.2563 15.0814C57.3249 15.2485 57.3591 15.4277 57.3569 15.6083L57.3326 15.6002ZM6.33065 45.999C6.33064 46.2667 6.25114 46.5284 6.10222 46.7509C5.95331 46.9734 5.74168 47.1467 5.49417 47.2488C5.24666 47.3508 4.97442 47.3772 4.71194 47.3243C4.44947 47.2715 4.20859 47.1419 4.01985 46.952C3.8311 46.7622 3.70298 46.5205 3.65173 46.2577C3.60048 45.9949 3.62841 45.7228 3.73198 45.476C3.83555 45.2291 4.0101 45.0185 4.23349 44.8709C4.45688 44.7233 4.71906 44.6454 4.98679 44.647C5.166 44.6448 5.34382 44.6785 5.50981 44.7461C5.6758 44.8137 5.8266 44.9138 5.95333 45.0405C6.08006 45.1672 6.18015 45.318 6.24773 45.484C6.31531 45.65 6.34901 45.8278 6.34684 46.007L6.33065 45.999Z" fill="#050D36"/>
</svg>
