<svg width="110" height="80" viewBox="0 0 110 80" fill="none" xmlns="http://www.w3.org/2000/svg">
<path d="M57.2303 10.8843H82.7415C80.7257 7.56019 77.8867 4.81207 74.4988 2.90544C71.1109 0.998806 67.2885 -0.00189866 63.4009 2.70442e-06H32.4224C30.5274 0.0119782 28.6874 0.637684 27.178 1.78334C25.6685 2.92899 24.571 4.53293 24.0498 6.35481H52.7175L57.2303 10.8843Z" fill="#050D36"/>
<path d="M59.1474 66.6875C59.1474 66.2039 59.004 65.7312 58.7354 65.3292C58.4668 64.9272 58.0849 64.6138 57.6382 64.4288C57.1915 64.2437 56.6999 64.1953 56.2257 64.2897C55.7514 64.384 55.3158 64.6168 54.9739 64.9587C54.632 65.3006 54.3991 65.7363 54.3048 66.2105C54.2105 66.6848 54.2589 67.1763 54.4439 67.6231C54.6289 68.0698 54.9423 68.4516 55.3444 68.7202C55.7464 68.9889 56.2191 69.1322 56.7026 69.1322C57.024 69.1334 57.3424 69.0709 57.6395 68.9484C57.9366 68.8259 58.2066 68.6459 58.4338 68.4187C58.661 68.1914 58.8411 67.9215 58.9636 67.6244C59.086 67.3272 59.1485 67.0088 59.1474 66.6875Z" fill="white"/>
<path d="M53.2782 23.4179C53.2782 22.934 53.1347 22.461 52.8656 22.0588C52.5966 21.6566 52.2143 21.3432 51.7671 21.1584C51.3199 20.9736 50.8279 20.9257 50.3534 21.0207C49.8789 21.1158 49.4433 21.3494 49.1018 21.6922C48.7602 22.0349 48.528 22.4713 48.4346 22.9461C48.3412 23.4209 48.3909 23.9127 48.5772 24.3593C48.7635 24.8059 49.0782 25.1871 49.4813 25.4548C49.8844 25.7224 50.358 25.8644 50.8418 25.8627C51.1625 25.8627 51.48 25.7994 51.7761 25.6764C52.0723 25.5535 52.3413 25.3733 52.5676 25.1461C52.794 24.919 52.9732 24.6494 53.0952 24.3529C53.2171 24.0563 53.2793 23.7386 53.2782 23.4179Z" fill="#050D36"/>
<path d="M108.914 33.0299C108.579 31.8504 107.849 30.8218 106.846 30.1162C105.945 29.4786 104.869 29.1362 103.765 29.1362C102.661 29.1362 101.585 29.4786 100.684 30.1162C99.681 30.8218 98.9509 31.8504 98.6158 33.0299H67.1014L52.4662 47.6652H57.3139L61.8435 52.1947H69.0857C69.4384 50.9504 70.2292 49.8755 71.3123 49.1686C72.3954 48.4616 73.6976 48.1703 74.9787 48.3483C76.2598 48.5263 77.4333 49.1617 78.2825 50.1372C79.1318 51.1126 79.5996 52.3624 79.5996 53.6557C79.5996 54.9491 79.1318 56.1989 78.2825 57.1743C77.4333 58.1498 76.2598 58.7852 74.9787 58.9632C73.6976 59.1412 72.3954 58.8499 71.3123 58.1429C70.2292 57.436 69.4384 56.3611 69.0857 55.1168H60.6295L56.1083 50.5872H49.5526L40.4264 59.7049H11.1224C10.7707 58.4599 9.98038 57.3842 8.89741 56.6764C7.81445 55.9686 6.51199 55.6765 5.23048 55.854C3.94896 56.0316 2.77493 56.6668 1.92519 57.6423C1.07546 58.6179 0.607422 59.868 0.607422 61.1618C0.607422 62.4555 1.07546 63.7056 1.92519 64.6812C2.77493 65.6567 3.94896 66.292 5.23048 66.4695C6.51199 66.647 7.81445 66.3549 8.89741 65.6471C9.98038 64.9393 10.7707 63.8636 11.1224 62.6186H23.6813V69.7604H42.8628L47.3924 65.2308H51.5787C51.9305 63.9858 52.7208 62.9101 53.8038 62.2023C54.8867 61.4945 56.1892 61.2024 57.4707 61.3799C58.7522 61.5575 59.9262 62.1926 60.776 63.1682C61.6257 64.1438 62.0938 65.3939 62.0938 66.6877C62.0938 67.9814 61.6257 69.2315 60.776 70.2071C59.9262 71.1826 58.7522 71.8179 57.4707 71.9954C56.1892 72.173 54.8867 71.8809 53.8038 71.173C52.7208 70.4652 51.9305 69.3895 51.5787 68.1445H48.6399L44.1104 72.674H23.8488C24.1879 74.7207 25.2426 76.5806 26.825 77.9222C28.4074 79.2639 30.4147 80.0002 32.4893 80H63.4678C67.546 80.0028 71.549 78.9023 75.0526 76.8152C78.5562 74.7281 81.4299 71.732 83.3694 68.1445H74.2265V65.2308H89.2971C89.4107 65.6504 89.5797 66.0531 89.7995 66.4281C90.4133 67.5026 91.38 68.3316 92.5355 68.7742C93.6911 69.2169 94.9642 69.246 96.1388 68.8565C97.3134 68.4671 98.3169 67.6831 98.9791 66.6378C99.6413 65.5924 99.9212 64.3501 99.7714 63.1217C99.6217 61.8934 99.0513 60.7547 98.1573 59.8991C97.2633 59.0436 96.1008 58.5237 94.867 58.428C93.6333 58.3322 92.4045 58.6665 91.3892 59.3739C90.3739 60.0813 89.6347 61.1183 89.2971 62.3088H85.3872C85.6073 61.2047 85.7389 60.0848 85.7807 58.9598C85.9168 55.2443 85.1024 51.5557 83.4146 48.243C81.7267 44.9303 79.2213 42.1032 76.1355 40.0294C77.8189 38.8892 79.3374 37.5229 80.6483 35.9687H98.6242C98.9759 37.2161 99.7684 38.2934 100.854 39.0005C101.941 39.7076 103.247 39.9964 104.53 39.8133C105.813 39.6302 106.985 38.9875 107.83 38.0048C108.675 37.022 109.135 35.766 109.123 34.47C109.12 33.9826 109.05 33.498 108.914 33.0299ZM5.99844 63.6065C5.51455 63.6082 5.04104 63.4662 4.6379 63.1986C4.23475 62.931 3.92012 62.5497 3.7338 62.1032C3.54747 61.6566 3.49784 61.1647 3.59122 60.69C3.68461 60.2152 3.91679 59.7788 4.25836 59.436C4.59994 59.0933 5.03554 58.8596 5.51001 58.7646C5.98448 58.6695 6.47648 58.7175 6.9237 58.9023C7.37091 59.0871 7.75323 59.4004 8.02224 59.8026C8.29125 60.2049 8.43483 60.6779 8.43484 61.1618C8.43484 61.8087 8.17843 62.4293 7.72176 62.8875C7.26508 63.3458 6.64539 63.6043 5.99844 63.6065ZM94.4379 61.3292C94.9214 61.3292 95.3941 61.4726 95.7962 61.7412C96.1982 62.0099 96.5115 62.3917 96.6966 62.8384C96.8816 63.2851 96.9301 63.7767 96.8357 64.251C96.7414 64.7252 96.5086 65.1608 96.1666 65.5027C95.8247 65.8446 95.3891 66.0775 94.9149 66.1718C94.4406 66.2661 93.9491 66.2177 93.5023 66.0327C93.0556 65.8476 92.6738 65.5343 92.4051 65.1322C92.1365 64.7302 91.9931 64.2575 91.9931 63.774C91.9931 63.1256 92.2507 62.5037 92.7092 62.0453C93.1677 61.5868 93.7895 61.3292 94.4379 61.3292ZM103.765 36.9315C103.281 36.9315 102.808 36.7879 102.406 36.5189C102.004 36.2499 101.69 35.8676 101.505 35.4204C101.321 34.9731 101.273 34.4812 101.368 34.0067C101.463 33.5322 101.696 33.0966 102.039 32.7551C102.382 32.4135 102.818 32.1813 103.293 32.0879C103.768 31.9945 104.26 32.0441 104.706 32.2305C105.153 32.4168 105.534 32.7314 105.802 33.1346C106.069 33.5377 106.211 34.0112 106.21 34.4951C106.208 35.1421 105.949 35.7617 105.491 36.2184C105.032 36.6751 104.412 36.9315 103.765 36.9315Z" fill="#050D36"/>
<path d="M76.6796 53.6518C76.6796 53.1683 76.5363 52.6956 76.2676 52.2936C75.999 51.8915 75.6171 51.5782 75.1704 51.3931C74.7237 51.2081 74.2321 51.1597 73.7579 51.254C73.2837 51.3483 72.848 51.5812 72.5061 51.9231C72.1642 52.265 71.9314 52.7006 71.837 53.1749C71.7427 53.6491 71.7911 54.1407 71.9761 54.5874C72.1612 55.0341 72.4745 55.4159 72.8766 55.6846C73.2786 55.9532 73.7513 56.0966 74.2348 56.0966C74.5562 56.0977 74.8746 56.0352 75.1717 55.9128C75.4689 55.7903 75.7388 55.6102 75.966 55.383C76.1933 55.1558 76.3733 54.8858 76.4958 54.5887C76.6183 54.2916 76.6807 53.9732 76.6796 53.6518Z" fill="white"/>
<path d="M36.5497 42.918C36.5514 42.4345 36.4096 41.9613 36.1423 41.5583C35.8751 41.1554 35.4943 40.8407 35.0483 40.6542C34.6022 40.4676 34.1108 40.4175 33.6362 40.5102C33.1616 40.6029 32.7252 40.8343 32.3821 41.175C32.0391 41.5157 31.8047 41.9505 31.7088 42.4245C31.6128 42.8984 31.6596 43.3901 31.8431 43.8375C32.0266 44.2848 32.3386 44.6677 32.7398 44.9377C33.1409 45.2077 33.613 45.3527 34.0966 45.3544C34.4179 45.3566 34.7366 45.2952 35.0341 45.1738C35.3316 45.0523 35.6022 44.8732 35.8302 44.6467C36.0582 44.4203 36.2392 44.1509 36.3627 43.8542C36.4862 43.5576 36.5497 43.2394 36.5497 42.918Z" fill="#050D36"/>
<path d="M14.4885 36.2282C15.6552 36.2247 16.7888 35.8412 17.7179 35.1356C18.6471 34.4301 19.321 33.4411 19.6377 32.3182H23.6984V41.4611H28.9563C29.3081 40.2161 30.0984 39.1403 31.1814 38.4325C32.2643 37.7247 33.5668 37.4326 34.8483 37.6102C36.1298 37.7877 37.3039 38.4229 38.1536 39.3985C39.0033 40.3741 39.4714 41.6242 39.4714 42.9179C39.4714 44.2117 39.0033 45.4617 38.1536 46.4373C37.3039 47.4129 36.1298 48.0481 34.8483 48.2257C33.5668 48.4032 32.2643 48.1111 31.1814 47.4033C30.0984 46.6955 29.3081 45.6198 28.9563 44.3747H23.6984V56.7913H39.2211L65.9129 30.1163H84.1902C85.9268 25.8675 86.2727 21.1777 85.1782 16.7201H87.7737C88.1264 17.9668 88.9182 19.0438 90.0029 19.7524C91.0876 20.4609 92.392 20.7531 93.6753 20.575C94.9586 20.397 96.1342 19.7607 96.9851 18.7837C97.8359 17.8066 98.3046 16.5547 98.3046 15.2591C98.3046 13.9635 97.8359 12.7116 96.9851 11.7346C96.1342 10.7575 94.9586 10.1213 93.6753 9.94323C92.392 9.76519 91.0876 10.0574 90.0029 10.7659C88.9182 11.4744 88.1264 12.5514 87.7737 13.7981H56.0416L51.512 9.26855H23.7151V26.4909H35.1102L39.6397 21.9614H45.7015C46.0541 20.717 46.845 19.6422 47.928 18.9352C49.0111 18.2283 50.3133 17.9369 51.5944 18.1149C52.8755 18.293 54.049 18.9283 54.8983 19.9038C55.7476 20.8793 56.2154 22.129 56.2154 23.4224C56.2154 24.7158 55.7476 25.9655 54.8983 26.941C54.049 27.9164 52.8755 28.5518 51.5944 28.7298C50.3133 28.9078 49.0111 28.6165 47.928 27.9096C46.845 27.2026 46.0541 26.1278 45.7015 24.8834H40.7952L36.2739 29.4046H19.6377C19.3651 28.4457 18.8304 27.5818 18.0938 26.9102C17.3571 26.2385 16.4477 25.7857 15.4677 25.6025C14.4878 25.4194 13.4762 25.5133 12.5467 25.8736C11.6172 26.2339 10.8066 26.8464 10.2061 27.6421C9.60566 28.4379 9.23909 29.3854 9.14761 30.3781C9.05613 31.3708 9.24338 32.3693 9.68832 33.2614C10.1333 34.1535 10.8182 34.9038 11.6662 35.4279C12.5142 35.952 13.4917 36.2292 14.4885 36.2282ZM92.906 12.785C93.3903 12.7834 93.8641 12.9256 94.2674 13.1936C94.6708 13.4616 94.9854 13.8433 95.1715 14.2904C95.3576 14.7375 95.4067 15.2297 95.3126 15.7047C95.2186 16.1797 94.9856 16.6161 94.6432 16.9586C94.3007 17.301 93.8643 17.534 93.3893 17.628C92.9143 17.7221 92.422 17.673 91.975 17.4869C91.5279 17.3008 91.1461 16.9862 90.8782 16.5829C90.6102 16.1795 90.468 15.7057 90.4696 15.2215C90.4806 14.5818 90.7418 13.9719 91.1973 13.5227C91.6528 13.0734 92.2663 12.8206 92.906 12.8185V12.785ZM14.4885 28.3915C14.9724 28.3915 15.4454 28.5351 15.8477 28.8041C16.2499 29.0731 16.5632 29.4555 16.748 29.9027C16.9328 30.3499 16.9807 30.8419 16.8857 31.3163C16.7907 31.7908 16.557 32.2264 16.2143 32.568C15.8715 32.9096 15.4351 33.1418 14.9603 33.2351C14.4855 33.3285 13.9937 33.2789 13.5471 33.0926C13.1006 32.9063 12.7193 32.5916 12.4517 32.1885C12.184 31.7853 12.0421 31.3118 12.0437 30.8279C12.0525 30.1861 12.3143 29.5737 12.7721 29.1238C13.2299 28.6739 13.8467 28.4227 14.4885 28.425V28.3915Z" fill="white"/>
</svg>
