<svg width="82" height="80" viewBox="0 0 82 80" fill="none" xmlns="http://www.w3.org/2000/svg">
<path d="M56.7578 54.1103C56.2182 53.1221 55.3649 52.3417 54.3325 51.8923C53.3002 51.443 52.1475 51.3502 51.0566 51.6286C49.9656 51.907 48.9984 52.5409 48.3077 53.43C47.617 54.3192 47.242 55.4131 47.242 56.539C47.242 57.6649 47.617 58.7588 48.3077 59.648C48.9984 60.5371 49.9656 61.171 51.0566 61.4494C52.1475 61.7278 53.3002 61.6351 54.3325 61.1857C55.3649 60.7363 56.2182 59.9559 56.7578 58.9677H63.7038V64.6345H68.5611V54.1103H56.7578ZM52.3052 57.891C52.0379 57.891 51.7765 57.8117 51.5541 57.6631C51.3318 57.5146 51.1585 57.3034 51.0562 57.0564C50.9539 56.8093 50.9271 56.5375 50.9793 56.2752C51.0314 56.013 51.1602 55.7721 51.3493 55.583C51.5383 55.3939 51.7792 55.2652 52.0415 55.213C52.3037 55.1609 52.5756 55.1876 52.8226 55.29C53.0697 55.3923 53.2808 55.5656 53.4294 55.7879C53.5779 56.0102 53.6572 56.2716 53.6572 56.539C53.6583 56.7155 53.6246 56.8904 53.558 57.0539C53.4915 57.2173 53.3934 57.3661 53.2693 57.4916C53.1453 57.6172 52.9977 57.7171 52.8351 57.7856C52.6725 57.8541 52.4979 57.8899 52.3214 57.891H52.3052Z" fill="url(#paint0_linear_1730_43)"/>
<path d="M40.4129 7.49649H72.2284C72.768 8.48471 73.6213 9.26507 74.6537 9.71446C75.686 10.1639 76.8386 10.2567 77.9296 9.97822C79.0206 9.69978 79.9877 9.06595 80.6785 8.17678C81.3692 7.28762 81.7441 6.19376 81.7441 5.06783C81.7441 3.94189 81.3692 2.84801 80.6785 1.95884C79.9877 1.06968 79.0206 0.435848 77.9296 0.157407C76.8386 -0.121034 75.686 -0.028224 74.6537 0.421165C73.6213 0.870553 72.768 1.65094 72.2284 2.63916H40.4129C30.1566 2.64986 20.323 6.72665 13.0677 13.9759C5.81242 21.2251 1.72738 31.0553 1.7081 41.3116C1.7081 41.5787 1.7081 41.8378 1.7081 42.1211C2.36728 41.5577 3.1614 41.175 4.0128 41.0104C4.86419 40.8458 5.74373 40.9049 6.56543 41.182C6.61673 32.2359 10.2044 23.6731 16.5456 17.3623C22.8867 11.0514 31.4666 7.50489 40.4129 7.49649ZM78.0329 5.06783C78.0329 5.33522 77.9536 5.5966 77.805 5.81893C77.6565 6.04125 77.4454 6.21454 77.1983 6.31687C76.9513 6.4192 76.6794 6.44597 76.4172 6.3938C76.1549 6.34164 75.914 6.21286 75.725 6.02379C75.5359 5.83471 75.4071 5.59381 75.355 5.33156C75.3028 5.0693 75.3296 4.79748 75.4319 4.55044C75.5342 4.3034 75.7075 4.09225 75.9298 3.94369C76.1522 3.79514 76.4135 3.71586 76.6809 3.71586C77.0395 3.71586 77.3834 3.8583 77.6369 4.11184C77.8904 4.36538 78.0329 4.70927 78.0329 5.06783Z" fill="url(#paint1_linear_1730_43)"/>
<path d="M63.72 75.1749H40.4129C32.9899 75.1627 25.776 72.7143 19.8793 68.2054C13.9825 63.6965 9.72889 57.3767 7.77165 50.2163C7.04779 50.6905 6.21426 50.9708 5.35097 51.0304C4.48767 51.0899 3.62356 50.9267 2.84146 50.5563C4.91955 58.9533 9.74727 66.4136 16.5559 71.7493C23.3645 77.085 31.7626 79.9893 40.4129 79.9998H68.5773V72.4224H63.72V75.1749Z" fill="url(#paint2_linear_1730_43)"/>
<path d="M1.70809 42.121C0.756832 42.9633 0.156711 44.1323 0.026637 45.3962C-0.103437 46.6602 0.246029 47.9268 1.00579 48.9453C1.76555 49.9637 2.88016 50.6596 4.12877 50.8951C5.37739 51.1305 6.66889 50.8883 7.74737 50.2165C8.44869 49.7615 9.02483 49.1381 9.42314 48.4031H74.228V64.5942H40.3886C35.9865 64.5947 31.6741 63.3498 27.9496 61.0033C24.225 58.6568 21.2403 55.3045 19.3402 51.3337H14.1024C16.141 56.6602 19.747 61.2433 24.4444 64.478C29.1417 67.7126 34.7095 69.4468 40.4129 69.4515H79.1096V43.5458H65.8491L52.7667 30.4634H46.6222C46.0826 29.4752 45.2293 28.6948 44.1969 28.2454C43.1645 27.796 42.0119 27.7032 40.921 27.9816C39.83 28.2601 38.8628 28.8939 38.1721 29.7831C37.4814 30.6722 37.1064 31.7661 37.1064 32.892C37.1064 34.018 37.4814 35.1118 38.1721 36.001C38.8628 36.8902 39.83 37.524 40.921 37.8024C42.0119 38.0809 43.1645 37.9881 44.1969 37.5387C45.2293 37.0893 46.0826 36.3089 46.6222 35.3207H50.7509L58.976 43.5458H17.2111C17.1463 42.8091 17.1058 42.0562 17.1058 41.3033C17.1144 35.1245 19.5727 29.2012 23.9418 24.8322C28.3108 20.4631 34.2341 18.0048 40.4129 17.9962H51.5524C52.0919 18.9845 52.9453 19.7648 53.9776 20.2142C55.01 20.6636 56.1626 20.7564 57.2536 20.478C58.3445 20.1995 59.3117 19.5657 60.0024 18.6765C60.6932 17.7874 61.0681 16.6935 61.0681 15.5676C61.0681 14.4416 60.6932 13.3478 60.0024 12.4586C59.3117 11.5694 58.3445 10.9356 57.2536 10.6572C56.1626 10.3787 55.01 10.4715 53.9776 10.9209C52.9453 11.3703 52.0919 12.1507 51.5524 13.1389H40.4129C32.9416 13.1432 25.7775 16.1125 20.4938 21.3947C15.2101 26.6769 12.2387 33.8402 12.2323 41.3114C12.2323 42.0643 12.2323 42.8172 12.3213 43.5539H9.45553C8.82684 42.4279 7.79374 41.5829 6.56542 41.19C5.74441 40.9118 4.86527 40.8513 4.0139 41.0145C3.16253 41.1777 2.36805 41.5589 1.70809 42.121ZM40.7934 32.9163C40.7934 32.6489 40.8727 32.3876 41.0212 32.1652C41.1698 31.9429 41.3809 31.7696 41.628 31.6673C41.875 31.565 42.1468 31.5382 42.4091 31.5904C42.6713 31.6425 42.9122 31.7713 43.1013 31.9603C43.2904 32.1494 43.4191 32.3903 43.4713 32.6526C43.5235 32.9148 43.4967 33.1866 43.3944 33.4337C43.292 33.6807 43.1188 33.8919 42.8964 34.0404C42.6741 34.189 42.4127 34.2683 42.1453 34.2683C41.7924 34.2619 41.4559 34.1178 41.2078 33.8667C40.9597 33.6156 40.8197 33.2774 40.8177 32.9244L40.7934 32.9163ZM57.3326 15.5999C57.3326 15.8673 57.2533 16.1287 57.1047 16.3511C56.9562 16.5734 56.745 16.7467 56.498 16.849C56.2509 16.9513 55.9791 16.9781 55.7169 16.9259C55.4546 16.8738 55.2137 16.745 55.0246 16.5559C54.8356 16.3669 54.7068 16.126 54.6546 15.8637C54.6025 15.6014 54.6292 15.3296 54.7316 15.0826C54.8339 14.8355 55.0072 14.6244 55.2295 14.4758C55.4518 14.3273 55.7132 14.248 55.9806 14.248C56.1612 14.2436 56.3408 14.2757 56.5086 14.3423C56.6765 14.4089 56.8293 14.5087 56.9577 14.6356C57.0862 14.7626 57.1877 14.9141 57.2563 15.0812C57.3249 15.2483 57.3591 15.4275 57.3569 15.608L57.3326 15.5999ZM6.33065 45.9987C6.33064 46.2665 6.25114 46.5282 6.10222 46.7507C5.95331 46.9732 5.74168 47.1464 5.49417 47.2485C5.24666 47.3506 4.97442 47.3769 4.71194 47.3241C4.44947 47.2713 4.20859 47.1417 4.01985 46.9518C3.8311 46.7619 3.70298 46.5203 3.65173 46.2575C3.60048 45.9947 3.62841 45.7226 3.73198 45.4757C3.83555 45.2288 4.0101 45.0182 4.23349 44.8707C4.45688 44.7231 4.71906 44.6452 4.98679 44.6468C5.166 44.6446 5.34382 44.6783 5.50981 44.7459C5.6758 44.8134 5.8266 44.9135 5.95333 45.0403C6.08006 45.167 6.18015 45.3178 6.24773 45.4838C6.31531 45.6498 6.34901 45.8276 6.34684 46.0068L6.33065 45.9987Z" fill="white" fill-opacity="0.2"/>
<defs>
<linearGradient id="paint0_linear_1730_43" x1="47.242" y1="51.4712" x2="69.6262" y2="53.6396" gradientUnits="userSpaceOnUse">
<stop stop-color="#FF5C65"/>
<stop offset="0.53125" stop-color="#FD008B"/>
<stop offset="1" stop-color="#6500FC"/>
</linearGradient>
<linearGradient id="paint1_linear_1730_43" x1="1.7081" y1="0" x2="85.4496" y2="9.51735" gradientUnits="userSpaceOnUse">
<stop stop-color="#FF5C65"/>
<stop offset="0.53125" stop-color="#FD008B"/>
<stop offset="1" stop-color="#6500FC"/>
</linearGradient>
<linearGradient id="paint2_linear_1730_43" x1="2.84146" y1="50.2163" x2="71.3158" y2="59.2558" gradientUnits="userSpaceOnUse">
<stop stop-color="#FF5C65"/>
<stop offset="0.53125" stop-color="#FD008B"/>
<stop offset="1" stop-color="#6500FC"/>
</linearGradient>
</defs>
</svg>
