<svg width="64" height="80" viewBox="0 0 64 80" fill="none" xmlns="http://www.w3.org/2000/svg">
<path d="M39.6321 36.9109C39.8332 37.3954 39.9842 37.899 40.083 38.4141C40.2096 39.0364 40.4917 39.6164 40.9031 40.1001C41.3145 40.5837 41.8417 40.9553 42.4356 41.18C43.5629 41.6084 44.6903 42.0444 45.9155 42.4728C46.4383 44.1143 47.4712 45.5462 48.8639 46.5602C50.2567 47.5741 51.9366 48.1173 53.6593 48.1108C55.3821 48.1042 57.0578 47.5481 58.4427 46.5235C59.8277 45.4989 60.8496 44.0592 61.3599 42.4137C61.8701 40.7683 61.8421 39.0029 61.2799 37.3745C60.7177 35.7461 59.6506 34.3395 58.2339 33.3593C56.8172 32.3791 55.1247 31.8765 53.4026 31.9246C51.6805 31.9726 50.0187 32.5688 48.6588 33.6265C3.81095 18.1887 24.6979 6.56896 35.9342 0C11.6877 6.71928 1.59374 19.0831 24.6603 32.8448C25.2256 33.185 25.8705 33.3703 26.5302 33.3822C27.1899 33.3941 27.8411 33.2321 28.4183 32.9124C29.3517 32.4154 30.3727 32.104 31.4247 31.9955C33.1373 31.8376 34.8558 32.2288 36.3313 33.1125C37.8068 33.9962 38.9629 35.3266 39.6321 36.9109ZM56.776 39.1657C56.9487 39.7843 56.9341 40.4403 56.734 41.0506C56.5338 41.6608 56.1572 42.1981 55.6517 42.5943C55.1462 42.9905 54.5346 43.2279 53.8942 43.2764C53.2537 43.325 52.6133 43.1825 52.0539 42.867C51.4944 42.5515 51.0411 42.0772 50.7512 41.5041C50.4614 40.931 50.3481 40.2847 50.4255 39.6472C50.503 39.0096 50.7678 38.4093 51.1865 37.9223C51.6051 37.4352 52.1588 37.0833 52.7775 36.9109C53.5977 36.6774 54.4768 36.7758 55.225 37.1851C55.9732 37.5943 56.5303 38.2815 56.776 39.0981V39.1657Z" fill="url(#paint0_linear_2085_288)"/>
<path d="M15.6935 46.3735C60.5413 61.8113 39.6544 73.431 28.418 80C52.6646 73.2807 62.7585 60.9245 39.692 47.1552C39.1246 46.8208 38.4804 46.6388 37.8219 46.6269C37.1634 46.6151 36.513 46.7738 35.934 47.0876C34.9408 47.6232 33.8462 47.9443 32.7211 48.03C31.5959 48.1157 30.4653 47.9641 29.4025 47.585C28.3397 47.2059 27.3683 46.6078 26.5514 45.8294C25.7344 45.0511 25.09 44.1098 24.66 43.0665C24.4594 42.5819 24.3083 42.0783 24.2091 41.5633C24.0793 40.9424 23.796 40.364 23.385 39.8808C22.9741 39.3976 22.4486 39.0252 21.8566 38.7974C20.7292 38.3715 19.5692 37.9406 18.3767 37.5047C17.8967 35.987 16.9807 34.6442 15.7429 33.6435C14.505 32.6428 13.0001 32.0284 11.4156 31.8771C9.83104 31.7257 8.237 32.044 6.8321 32.7923C5.4272 33.5405 4.27356 34.6857 3.51494 36.085C2.75633 37.4844 2.42629 39.076 2.56595 40.6616C2.7056 42.2472 3.30879 43.7567 4.30032 45.0019C5.29186 46.247 6.6279 47.1729 8.14196 47.6641C9.65603 48.1552 11.2812 48.19 12.8148 47.764C13.8585 47.5 14.8378 47.0269 15.6935 46.3735ZM7.5762 40.8343C7.40351 40.2157 7.41816 39.5597 7.61829 38.9494C7.81842 38.3392 8.19506 37.8019 8.70055 37.4057C9.20604 37.0095 9.81767 36.7721 10.4581 36.7236C11.0985 36.675 11.7389 36.8175 12.2984 37.133C12.8578 37.4485 13.3112 37.9228 13.601 38.4959C13.8908 39.069 14.0042 39.7153 13.9267 40.3528C13.8493 40.9904 13.5845 41.5907 13.1658 42.0777C12.7471 42.5648 12.1934 42.9167 11.5747 43.0891C10.7455 43.32 9.85846 43.2122 9.10866 42.7894C8.35887 42.3666 7.80766 41.6634 7.5762 40.8343Z" fill="#050D36"/>
<path d="M33.0403 43.0969C33.6598 42.9258 34.2146 42.5748 34.6344 42.0882C35.0542 41.6017 35.3202 41.0015 35.3987 40.3636C35.4772 39.7258 35.3646 39.079 35.0753 38.5052C34.7859 37.9314 34.3328 37.4563 33.7732 37.1402C33.2137 36.8241 32.573 36.6811 31.9321 36.7294C31.2913 36.7777 30.6792 37.015 30.1734 37.4115C29.6675 37.8079 29.2907 38.3455 29.0906 38.9562C28.8905 39.5669 28.8761 40.2232 29.0493 40.8421C29.2809 41.6695 29.8309 42.3714 30.579 42.794C31.327 43.2167 32.2121 43.3256 33.0403 43.0969Z" fill="url(#paint1_linear_2085_288)"/>
<path d="M47.2079 26.8019C53.2207 22.157 60.1955 25.4415 63.6078 31.101C59.2936 19.9623 50.9659 20.759 45.9979 23.3821C27.0426 16.9559 30.3496 10.6049 37.2793 6.18555C23.495 13.2957 28.8539 20.8718 47.2079 26.8019Z" fill="#050D36"/>
<path d="M17.144 53.1304C11.1312 57.7753 4.15639 54.4983 0.744141 48.8313C5.08086 59.97 13.4386 59.1733 18.3766 56.5652C37.3319 62.9914 34.0249 69.3424 27.0952 73.7543C40.8494 66.6367 35.498 59.0605 17.144 53.1304Z" fill="url(#paint2_linear_2085_288)"/>
<defs>
<linearGradient id="paint0_linear_2085_288" x1="11.6758" y1="0" x2="64.512" y2="3.28745" gradientUnits="userSpaceOnUse">
<stop stop-color="#FF5C65"/>
<stop offset="0.53125" stop-color="#FD008B"/>
<stop offset="1" stop-color="#6500FC"/>
</linearGradient>
<linearGradient id="paint1_linear_2085_288" x1="28.9292" y1="36.7202" x2="35.7869" y2="37.1304" gradientUnits="userSpaceOnUse">
<stop stop-color="#FF5C65"/>
<stop offset="0.53125" stop-color="#FD008B"/>
<stop offset="1" stop-color="#6500FC"/>
</linearGradient>
<linearGradient id="paint2_linear_2085_288" x1="0.744141" y1="48.8313" x2="36.6327" y2="51.7674" gradientUnits="userSpaceOnUse">
<stop stop-color="#FF5C65"/>
<stop offset="0.53125" stop-color="#FD008B"/>
<stop offset="1" stop-color="#6500FC"/>
</linearGradient>
</defs>
</svg>
