<svg width="94" height="80" viewBox="0 0 94 80" fill="none" xmlns="http://www.w3.org/2000/svg">
<path d="M93.0823 69.0065L62.8855 4.45173C62.2633 3.12296 61.2751 1.99922 60.0367 1.21236C58.7983 0.425509 57.3612 0.0081917 55.894 0.00937255H28.0683C27.743 -0.0197525 27.4152 0.0191788 27.1058 0.123692C26.7963 0.228205 26.512 0.396007 26.271 0.616413C26.03 0.836819 25.8375 1.105 25.7059 1.40388C25.5742 1.70275 25.5062 2.02578 25.5062 2.35239C25.5062 2.67899 25.5742 3.00201 25.7059 3.30089C25.8375 3.59977 26.03 3.86795 26.271 4.08836C26.512 4.30876 26.7963 4.47656 27.1058 4.58108C27.4152 4.68559 27.743 4.72453 28.0683 4.6954H50.8143C51.3847 4.7677 51.9091 5.04557 52.2892 5.47692C52.6694 5.90827 52.8791 6.46347 52.8791 7.03842C52.8791 7.61336 52.6694 8.16856 52.2892 8.59991C51.9091 9.03126 51.3847 9.30914 50.8143 9.38143H10.5144C10.1891 9.35231 9.86135 9.39124 9.55192 9.49575C9.24249 9.60027 8.95819 9.76807 8.71717 9.98847C8.47614 10.2089 8.2837 10.4771 8.15201 10.7759C8.02031 11.0748 7.95225 11.3978 7.95225 11.7244C7.95225 12.0511 8.02031 12.3741 8.15201 12.673C8.2837 12.9718 8.47614 13.24 8.71717 13.4604C8.95819 13.6808 9.24249 13.8486 9.55192 13.9531C9.86135 14.0577 10.1891 14.0966 10.5144 14.0675H27.1873C27.6975 13.2385 28.4643 12.5987 29.3712 12.2452C30.2781 11.8917 31.2756 11.8439 32.2121 12.109C33.1487 12.3741 33.9732 12.9376 34.5603 13.714C35.1474 14.4903 35.4651 15.4371 35.4651 16.4105C35.4651 17.3838 35.1474 18.3306 34.5603 19.107C33.9732 19.8833 33.1487 20.4469 32.2121 20.712C31.2756 20.9771 30.2781 20.9292 29.3712 20.5758C28.4643 20.2223 27.6975 19.5825 27.1873 18.7535H23.5604C23.2351 18.7244 22.9072 18.7633 22.5978 18.8678C22.2884 18.9723 22.0041 19.1401 21.7631 19.3605C21.522 19.5809 21.3296 19.8491 21.1979 20.148C21.0662 20.4469 20.9982 20.7699 20.9982 21.0965C20.9982 21.4231 21.0662 21.7461 21.1979 22.045C21.3296 22.3439 21.522 22.6121 21.7631 22.8325C22.0041 23.0529 22.2884 23.2207 22.5978 23.3252C22.9072 23.4297 23.2351 23.4687 23.5604 23.4395H50.8518C51.437 23.4919 51.9814 23.7614 52.378 24.195C52.7745 24.6287 52.9944 25.195 52.9944 25.7825C52.9944 26.3701 52.7745 26.9364 52.378 27.37C51.9814 27.8036 51.437 28.0732 50.8518 28.1256H13.1855C12.8602 28.0964 12.5324 28.1354 12.2229 28.2399C11.9135 28.3444 11.6293 28.5122 11.3882 28.7326C11.1472 28.953 10.9547 29.2212 10.823 29.5201C10.6913 29.8189 10.6233 30.142 10.6233 30.4686C10.6233 30.7952 10.6913 31.1182 10.823 31.4171C10.9547 31.716 11.1472 31.9841 11.3882 32.2045C11.6293 32.4249 11.9135 32.5928 12.2229 32.6973C12.5324 32.8018 12.8602 32.8407 13.1855 32.8116H57.2342C57.729 31.9793 58.4816 31.331 59.3781 30.965C60.2745 30.599 61.2658 30.5353 62.2017 30.7834C63.1376 31.0316 63.9671 31.5781 64.5644 32.3402C65.1618 33.1022 65.4944 34.0383 65.5118 35.0064C65.5292 35.9745 65.2305 36.9218 64.661 37.7049C64.0915 38.488 63.2822 39.064 62.3558 39.3457C61.4294 39.6274 60.4365 39.5993 59.5275 39.2658C58.6185 38.9323 57.8429 38.3116 57.3185 37.4976H38.5557C38.246 37.4951 37.939 37.5543 37.6525 37.6716C37.366 37.7889 37.1057 37.9621 36.8867 38.181C36.6678 38.4 36.4946 38.6603 36.3772 38.9468C36.2599 39.2334 36.2008 39.5404 36.2033 39.85C36.2033 40.1589 36.2641 40.4648 36.3823 40.7502C36.5005 41.0356 36.6738 41.295 36.8923 41.5134C37.1107 41.7318 37.37 41.9051 37.6554 42.0233C37.9408 42.1415 38.2467 42.2024 38.5557 42.2024H50.8143C51.1235 42.2012 51.43 42.2612 51.716 42.3789C52.0019 42.4967 52.2618 42.6699 52.4805 42.8886C52.6992 43.1073 52.8724 43.3671 52.9901 43.6531C53.1079 43.9391 53.1679 44.2455 53.1667 44.5548C53.1637 45.1758 52.9182 45.7711 52.4825 46.2136C52.2639 46.4335 52.004 46.6079 51.7177 46.7269C51.4314 46.846 51.1243 46.9072 50.8143 46.9072H16.222C15.8967 46.878 15.5689 46.917 15.2595 47.0215C14.95 47.126 14.6658 47.2938 14.4248 47.5142C14.1838 47.7346 13.9912 48.0028 13.8596 48.3017C13.7279 48.6006 13.6599 48.9236 13.6599 49.2502C13.6599 49.5768 13.7279 49.8998 13.8596 50.1987C13.9912 50.4976 14.1838 50.7658 14.4248 50.9862C14.6658 51.2066 14.95 51.3744 15.2595 51.4789C15.5689 51.5834 15.8967 51.6223 16.222 51.5932H36.8406C37.3507 50.7642 38.1175 50.1244 39.0244 49.7709C39.9313 49.4175 40.9288 49.3696 41.8654 49.6347C42.802 49.8998 43.6264 50.4633 44.2135 51.2397C44.8006 52.0161 45.1183 52.9628 45.1183 53.9362C45.1183 54.9096 44.8006 55.8563 44.2135 56.6327C43.6264 57.4091 42.802 57.9726 41.8654 58.2377C40.9288 58.5028 39.9313 58.455 39.0244 58.1015C38.1175 57.748 37.3507 57.1082 36.8406 56.2792H2.69814C2.37284 56.2501 2.04503 56.289 1.7356 56.3935C1.42617 56.4981 1.14192 56.6659 0.900898 56.8863C0.659877 57.1067 0.467371 57.3749 0.33568 57.6737C0.20399 57.9726 0.135986 58.2956 0.135986 58.6222C0.135986 58.9488 0.20399 59.2719 0.33568 59.5707C0.467371 59.8696 0.659877 60.1378 0.900898 60.3582C1.14192 60.5786 1.42617 60.7464 1.7356 60.8509C2.04503 60.9554 2.37284 60.9944 2.69814 60.9653H63.9633C64.5337 61.0375 65.0581 61.3154 65.4382 61.7468C65.8183 62.1781 66.0281 62.7333 66.0281 63.3083C66.0281 63.8832 65.8183 64.4384 65.4382 64.8698C65.0581 65.3011 64.5337 65.579 63.9633 65.6513H28.0683C27.4444 65.6513 26.8461 65.8991 26.4049 66.3403C25.9638 66.7814 25.7159 67.3798 25.7159 68.0037C25.7159 68.3122 25.7768 68.6176 25.8951 68.9025C26.0135 69.1874 26.1869 69.4461 26.4055 69.6638C26.6241 69.8814 26.8835 70.0538 27.1688 70.171C27.4542 70.2882 27.7598 70.3479 28.0683 70.3467H47.8433C48.3538 69.5149 49.1218 68.8726 50.0308 68.5173C50.9397 68.162 51.9398 68.1132 52.8789 68.3784C53.8181 68.6436 54.645 69.2082 55.2339 69.9864C55.8228 70.7646 56.1415 71.7138 56.1415 72.6897C56.1415 73.6656 55.8228 74.6148 55.2339 75.393C54.645 76.1712 53.8181 76.7358 52.8789 77.001C51.9398 77.2662 50.9397 77.2174 50.0308 76.8621C49.1218 76.5069 48.3538 75.8645 47.8433 75.0327H19.9334C19.6081 75.0036 19.2803 75.0425 18.9708 75.147C18.6614 75.2516 18.3771 75.4194 18.1361 75.6398C17.8951 75.8602 17.7026 76.1283 17.5709 76.4272C17.4392 76.7261 17.3712 77.0491 17.3712 77.3757C17.3712 77.7023 17.4392 78.0254 17.5709 78.3242C17.7026 78.6231 17.8951 78.8913 18.1361 79.1117C18.3771 79.3321 18.6614 79.4999 18.9708 79.6044C19.2803 79.7089 19.6081 79.7479 19.9334 79.7188H86.0907C87.3538 79.7 88.5929 79.3714 89.6992 78.7617C90.8055 78.152 91.7452 77.2799 92.4356 76.2221C93.126 75.1643 93.546 73.9531 93.6588 72.6949C93.7716 71.4368 93.5736 70.1702 93.0823 69.0065Z" fill="url(#paint0_linear_1730_46)"/>
<path d="M50.1113 72.9334C50.1113 73.2356 50.2009 73.5309 50.3688 73.7821C50.5367 74.0333 50.7752 74.2291 51.0544 74.3448C51.3335 74.4604 51.6407 74.4906 51.937 74.4317C52.2333 74.3728 52.5055 74.2273 52.7192 74.0136C52.9328 73.8 53.0783 73.5278 53.1373 73.2314C53.1962 72.9351 53.166 72.6279 53.0503 72.3488C52.9347 72.0697 52.7389 71.8311 52.4877 71.6632C52.2365 71.4954 51.9411 71.4058 51.639 71.4058C51.2338 71.4058 50.8453 71.5667 50.5588 71.8532C50.2723 72.1397 50.1113 72.5283 50.1113 72.9334Z" fill="white" fill-opacity="0.2"/>
<path d="M61.0861 33.6831C60.784 33.6831 60.4886 33.7727 60.2374 33.9406C59.9862 34.1084 59.7904 34.347 59.6748 34.6262C59.5591 34.9053 59.5289 35.2124 59.5878 35.5088C59.6468 35.8051 59.7923 36.0773 60.0059 36.291C60.2196 36.5046 60.4918 36.6501 60.7881 36.709C61.0844 36.768 61.3916 36.7377 61.6707 36.6221C61.9499 36.5065 62.1884 36.3107 62.3563 36.0595C62.5242 35.8082 62.6138 35.5129 62.6138 35.2108C62.6138 34.8056 62.4528 34.417 62.1663 34.1305C61.8799 33.8441 61.4913 33.6831 61.0861 33.6831Z" fill="white" fill-opacity="0.2"/>
<path d="M30.9361 17.9943C31.2387 17.9943 31.5344 17.9044 31.7858 17.7361C32.0372 17.5679 32.233 17.3287 32.3483 17.049C32.4637 16.7693 32.4934 16.4617 32.4337 16.1651C32.374 15.8685 32.2275 15.5964 32.013 15.3831C31.7984 15.1698 31.5253 15.0251 31.2284 14.9672C30.9314 14.9093 30.624 14.9409 30.345 15.058C30.066 15.175 29.8281 15.3723 29.6614 15.6247C29.4946 15.8772 29.4066 16.1735 29.4085 16.476C29.411 16.8795 29.573 17.2657 29.8592 17.5501C30.1455 17.8346 30.5326 17.9943 30.9361 17.9943Z" fill="white" fill-opacity="0.2"/>
<path d="M39.1273 54.1141C39.1273 54.4166 39.2171 54.7124 39.3854 54.9638C39.5537 55.2152 39.7928 55.411 40.0725 55.5263C40.3522 55.6417 40.6599 55.6714 40.9565 55.6117C41.2531 55.552 41.5252 55.4055 41.7385 55.191C41.9518 54.9764 42.0965 54.7033 42.1544 54.4064C42.2123 54.1094 42.1807 53.8019 42.0636 53.523C41.9466 53.244 41.7493 53.0061 41.4968 52.8393C41.2444 52.6726 40.9481 52.5846 40.6456 52.5865C40.2421 52.5889 39.8559 52.751 39.5714 53.0372C39.287 53.3234 39.1273 53.7106 39.1273 54.1141Z" fill="white" fill-opacity="0.2"/>
<path d="M8.1995 75.3048H4.56313C4.23783 75.2757 3.91002 75.3146 3.60059 75.4191C3.29116 75.5236 3.00691 75.6914 2.76589 75.9118C2.52487 76.1322 2.33236 76.4004 2.20067 76.6993C2.06898 76.9982 2.00098 77.3212 2.00098 77.6478C2.00098 77.9744 2.06898 78.2974 2.20067 78.5963C2.33236 78.8952 2.52487 79.1634 2.76589 79.3838C3.00691 79.6042 3.29116 79.772 3.60059 79.8765C3.91002 79.981 4.23783 80.0199 4.56313 79.9908H8.1995C8.5248 80.0199 8.85261 79.981 9.16205 79.8765C9.47148 79.772 9.75572 79.6042 9.99674 79.3838C10.2378 79.1634 10.4303 78.8952 10.562 78.5963C10.6937 78.2974 10.7617 77.9744 10.7617 77.6478C10.7617 77.3212 10.6937 76.9982 10.562 76.6993C10.4303 76.4004 10.2378 76.1322 9.99674 75.9118C9.75572 75.6914 9.47148 75.5236 9.16205 75.4191C8.85261 75.3146 8.5248 75.2757 8.1995 75.3048Z" fill="white" fill-opacity="0.2"/>
<path d="M32.492 39.9999C32.492 39.376 32.2441 38.7776 31.803 38.3365C31.3618 37.8953 30.7635 37.6475 30.1396 37.6475C29.6743 37.6475 29.2195 37.7854 28.8327 38.0439C28.4458 38.3024 28.1443 38.6698 27.9663 39.0996C27.7882 39.5295 27.7417 40.0025 27.8324 40.4588C27.9232 40.9151 28.1472 41.3342 28.4762 41.6632C28.8052 41.9922 29.2244 42.2163 29.6807 42.307C30.137 42.3978 30.61 42.3512 31.0398 42.1732C31.4697 41.9951 31.8371 41.6936 32.0956 41.3068C32.3541 40.9199 32.492 40.4651 32.492 39.9999Z" fill="white" fill-opacity="0.2"/>
<path d="M15.2286 21.1716C15.2267 20.7064 15.0869 20.2521 14.8269 19.8663C14.5669 19.4805 14.1983 19.1804 13.7677 19.0041C13.3372 18.8278 12.864 18.7831 12.4081 18.8757C11.9521 18.9682 11.5339 19.194 11.2062 19.5243C10.8785 19.8545 10.6561 20.2746 10.5672 20.7313C10.4782 21.1879 10.5267 21.6607 10.7065 22.0899C10.8862 22.519 11.1892 22.8852 11.5771 23.1421C11.965 23.3991 12.4203 23.5352 12.8856 23.5334C13.1945 23.5321 13.5001 23.4701 13.7851 23.3507C14.07 23.2314 14.3286 23.0571 14.5462 22.8378C14.7638 22.6184 14.936 22.3584 15.0531 22.0725C15.1702 21.7867 15.2298 21.4805 15.2286 21.1716Z" fill="white" fill-opacity="0.2"/>
<defs>
<linearGradient id="paint0_linear_1730_46" x1="0.135986" y1="0" x2="98.7992" y2="6.92458" gradientUnits="userSpaceOnUse">
<stop stop-color="#FF5C65"/>
<stop offset="0.53125" stop-color="#FD008B"/>
<stop offset="1" stop-color="#6500FC"/>
</linearGradient>
</defs>
</svg>
