<svg width="94" height="80" viewBox="0 0 94 80" fill="none" xmlns="http://www.w3.org/2000/svg">
<path d="M93.0821 69.0065L62.8853 4.45173C62.2631 3.12296 61.2748 1.99922 60.0365 1.21236C58.7981 0.425509 57.361 0.0081917 55.8937 0.00937255H28.0681C27.7428 -0.0197525 27.415 0.0191788 27.1055 0.123692C26.7961 0.228205 26.5118 0.396007 26.2708 0.616413C26.0298 0.836819 25.8373 1.105 25.7056 1.40388C25.5739 1.70275 25.5059 2.02578 25.5059 2.35239C25.5059 2.67899 25.5739 3.00201 25.7056 3.30089C25.8373 3.59977 26.0298 3.86795 26.2708 4.08836C26.5118 4.30876 26.7961 4.47656 27.1055 4.58108C27.415 4.68559 27.7428 4.72453 28.0681 4.6954H50.814C51.3844 4.7677 51.9089 5.04557 52.289 5.47692C52.6691 5.90827 52.8789 6.46347 52.8789 7.03842C52.8789 7.61336 52.6691 8.16856 52.289 8.59991C51.9089 9.03126 51.3844 9.30914 50.814 9.38143H10.5142C10.1889 9.35231 9.86111 9.39124 9.55168 9.49575C9.24225 9.60027 8.95794 9.76807 8.71692 9.98847C8.4759 10.2089 8.28345 10.4771 8.15176 10.7759C8.02007 11.0748 7.95201 11.3978 7.95201 11.7244C7.95201 12.0511 8.02007 12.3741 8.15176 12.673C8.28345 12.9718 8.4759 13.24 8.71692 13.4604C8.95794 13.6808 9.24225 13.8486 9.55168 13.9531C9.86111 14.0577 10.1889 14.0966 10.5142 14.0675H27.1871C27.6973 13.2385 28.464 12.5987 29.3709 12.2452C30.2778 11.8917 31.2753 11.8439 32.2119 12.109C33.1485 12.3741 33.9729 12.9376 34.5601 13.714C35.1472 14.4903 35.4648 15.4371 35.4648 16.4105C35.4648 17.3838 35.1472 18.3306 34.5601 19.107C33.9729 19.8833 33.1485 20.4469 32.2119 20.712C31.2753 20.9771 30.2778 20.9292 29.3709 20.5758C28.464 20.2223 27.6973 19.5825 27.1871 18.7535H23.5601C23.2348 18.7244 22.907 18.7633 22.5976 18.8678C22.2881 18.9723 22.0038 19.1401 21.7628 19.3605C21.5218 19.5809 21.3293 19.8491 21.1977 20.148C21.066 20.4469 20.998 20.7699 20.998 21.0965C20.998 21.4231 21.066 21.7461 21.1977 22.045C21.3293 22.3439 21.5218 22.6121 21.7628 22.8325C22.0038 23.0529 22.2881 23.2207 22.5976 23.3252C22.907 23.4297 23.2348 23.4687 23.5601 23.4395H50.8516C51.4368 23.4919 51.9812 23.7614 52.3777 24.195C52.7742 24.6287 52.9941 25.195 52.9941 25.7825C52.9941 26.3701 52.7742 26.9364 52.3777 27.37C51.9812 27.8036 51.4368 28.0732 50.8516 28.1256H13.1852C12.8599 28.0964 12.5321 28.1354 12.2227 28.2399C11.9133 28.3444 11.629 28.5122 11.388 28.7326C11.147 28.953 10.9545 29.2212 10.8228 29.5201C10.6911 29.8189 10.6231 30.142 10.6231 30.4686C10.6231 30.7952 10.6911 31.1182 10.8228 31.4171C10.9545 31.716 11.147 31.9841 11.388 32.2045C11.629 32.4249 11.9133 32.5928 12.2227 32.6973C12.5321 32.8018 12.8599 32.8407 13.1852 32.8116H57.2339C57.7287 31.9793 58.4814 31.331 59.3778 30.965C60.2742 30.599 61.2655 30.5353 62.2015 30.7834C63.1374 31.0316 63.9669 31.5781 64.5642 32.3402C65.1615 33.1022 65.4941 34.0383 65.5115 35.0064C65.529 35.9745 65.2303 36.9218 64.6608 37.7049C64.0912 38.488 63.2819 39.064 62.3556 39.3457C61.4292 39.6274 60.4362 39.5993 59.5272 39.2658C58.6182 38.9323 57.8427 38.3116 57.3182 37.4976H38.5554C38.2458 37.4951 37.9388 37.5543 37.6522 37.6716C37.3657 37.7889 37.1054 37.9621 36.8865 38.181C36.6675 38.4 36.4943 38.6603 36.377 38.9468C36.2596 39.2334 36.2005 39.5404 36.203 39.85C36.203 40.1589 36.2638 40.4648 36.3821 40.7502C36.5003 41.0356 36.6736 41.295 36.892 41.5134C37.1105 41.7318 37.3698 41.9051 37.6552 42.0233C37.9406 42.1415 38.2465 42.2024 38.5554 42.2024H50.814C51.1233 42.2012 51.4298 42.2612 51.7157 42.3789C52.0017 42.4967 52.2615 42.6699 52.4802 42.8886C52.6989 43.1073 52.8721 43.3671 52.9899 43.6531C53.1077 43.9391 53.1677 44.2455 53.1664 44.5548C53.1635 45.1758 52.918 45.7711 52.4823 46.2136C52.2636 46.4335 52.0037 46.6079 51.7174 46.7269C51.4311 46.846 51.1241 46.9072 50.814 46.9072H16.2218C15.8965 46.878 15.5687 46.917 15.2592 47.0215C14.9498 47.126 14.6656 47.2938 14.4245 47.5142C14.1835 47.7346 13.991 48.0028 13.8593 48.3017C13.7276 48.6006 13.6596 48.9236 13.6596 49.2502C13.6596 49.5768 13.7276 49.8998 13.8593 50.1987C13.991 50.4976 14.1835 50.7658 14.4245 50.9862C14.6656 51.2066 14.9498 51.3744 15.2592 51.4789C15.5687 51.5834 15.8965 51.6223 16.2218 51.5932H36.8403C37.3505 50.7642 38.1172 50.1244 39.0241 49.7709C39.931 49.4175 40.9286 49.3696 41.8652 49.6347C42.8017 49.8998 43.6261 50.4633 44.2133 51.2397C44.8004 52.0161 45.1181 52.9628 45.1181 53.9362C45.1181 54.9096 44.8004 55.8563 44.2133 56.6327C43.6261 57.4091 42.8017 57.9726 41.8652 58.2377C40.9286 58.5028 39.931 58.455 39.0241 58.1015C38.1172 57.748 37.3505 57.1082 36.8403 56.2792H2.6979C2.3726 56.2501 2.04478 56.289 1.73535 56.3935C1.42592 56.4981 1.14168 56.6659 0.900654 56.8863C0.659633 57.1067 0.467126 57.3749 0.335436 57.6737C0.203746 57.9726 0.135742 58.2956 0.135742 58.6222C0.135742 58.9488 0.203746 59.2719 0.335436 59.5707C0.467126 59.8696 0.659633 60.1378 0.900654 60.3582C1.14168 60.5786 1.42592 60.7464 1.73535 60.8509C2.04478 60.9554 2.3726 60.9944 2.6979 60.9653H63.9631C64.5334 61.0375 65.0578 61.3154 65.438 61.7468C65.8181 62.1781 66.0278 62.7333 66.0278 63.3083C66.0278 63.8832 65.8181 64.4384 65.438 64.8698C65.0578 65.3011 64.5334 65.579 63.9631 65.6513H28.0681C27.4442 65.6513 26.8458 65.8991 26.4047 66.3403C25.9635 66.7814 25.7157 67.3798 25.7157 68.0037C25.7157 68.3122 25.7766 68.6176 25.8949 68.9025C26.0132 69.1874 26.1867 69.4461 26.4053 69.6638C26.6238 69.8814 26.8832 70.0538 27.1686 70.171C27.4539 70.2882 27.7596 70.3479 28.0681 70.3467H47.8431C48.3535 69.5149 49.1216 68.8726 50.0305 68.5173C50.9395 68.162 51.9395 68.1132 52.8787 68.3784C53.8179 68.6436 54.6448 69.2082 55.2337 69.9864C55.8226 70.7646 56.1412 71.7138 56.1412 72.6897C56.1412 73.6656 55.8226 74.6148 55.2337 75.393C54.6448 76.1712 53.8179 76.7358 52.8787 77.001C51.9395 77.2662 50.9395 77.2174 50.0305 76.8621C49.1216 76.5069 48.3535 75.8645 47.8431 75.0327H19.9331C19.6078 75.0036 19.28 75.0425 18.9706 75.147C18.6612 75.2516 18.3769 75.4194 18.1358 75.6398C17.8948 75.8602 17.7024 76.1283 17.5707 76.4272C17.439 76.7261 17.371 77.0491 17.371 77.3757C17.371 77.7023 17.439 78.0254 17.5707 78.3242C17.7024 78.6231 17.8948 78.8913 18.1358 79.1117C18.3769 79.3321 18.6612 79.4999 18.9706 79.6044C19.28 79.7089 19.6078 79.7479 19.9331 79.7188H86.0905C87.3535 79.7 88.5927 79.3714 89.699 78.7617C90.8053 78.152 91.7449 77.2799 92.4353 76.2221C93.1257 75.1643 93.5458 73.9531 93.6586 72.6949C93.7713 71.4368 93.5734 70.1702 93.0821 69.0065Z" fill="url(#paint0_linear_2085_279)"/>
<path d="M50.1108 72.9334C50.1108 73.2356 50.2004 73.5309 50.3683 73.7821C50.5362 74.0333 50.7747 74.2291 51.0539 74.3448C51.333 74.4604 51.6402 74.4906 51.9365 74.4317C52.2328 74.3728 52.5051 74.2273 52.7187 74.0136C52.9323 73.8 53.0779 73.5278 53.1368 73.2314C53.1957 72.9351 53.1655 72.6279 53.0498 72.3488C52.9342 72.0697 52.7384 71.8311 52.4872 71.6632C52.236 71.4954 51.9406 71.4058 51.6385 71.4058C51.2333 71.4058 50.8448 71.5667 50.5583 71.8532C50.2718 72.1397 50.1108 72.5283 50.1108 72.9334Z" fill="#050D36"/>
<path d="M61.0858 33.6831C60.7836 33.6831 60.4883 33.7727 60.237 33.9406C59.9858 34.1084 59.79 34.347 59.6744 34.6262C59.5588 34.9053 59.5285 35.2124 59.5875 35.5088C59.6464 35.8051 59.7919 36.0773 60.0055 36.291C60.2192 36.5046 60.4914 36.6501 60.7877 36.709C61.0841 36.768 61.3912 36.7377 61.6704 36.6221C61.9495 36.5065 62.1881 36.3107 62.3559 36.0595C62.5238 35.8082 62.6134 35.5129 62.6134 35.2108C62.6134 34.8056 62.4525 34.417 62.166 34.1305C61.8795 33.8441 61.4909 33.6831 61.0858 33.6831Z" fill="#050D36"/>
<path d="M30.9359 17.9943C31.2384 17.9943 31.5341 17.9044 31.7856 17.7361C32.037 17.5679 32.2328 17.3287 32.3481 17.049C32.4634 16.7693 32.4932 16.4617 32.4334 16.1651C32.3737 15.8685 32.2273 15.5964 32.0127 15.3831C31.7981 15.1698 31.5251 15.0251 31.2281 14.9672C30.9312 14.9093 30.6237 14.9409 30.3448 15.058C30.0658 15.175 29.8279 15.3723 29.6611 15.6247C29.4944 15.8772 29.4064 16.1735 29.4082 16.476C29.4107 16.8795 29.5728 17.2657 29.859 17.5501C30.1452 17.8346 30.5323 17.9943 30.9359 17.9943Z" fill="#050D36"/>
<path d="M39.127 54.1141C39.127 54.4166 39.2168 54.7124 39.3851 54.9638C39.5533 55.2152 39.7925 55.411 40.0722 55.5263C40.3519 55.6417 40.6595 55.6714 40.9561 55.6117C41.2527 55.552 41.5249 55.4055 41.7381 55.191C41.9514 54.9764 42.0962 54.7033 42.1541 54.4064C42.2119 54.1094 42.1803 53.8019 42.0633 53.523C41.9462 53.244 41.7489 53.0061 41.4965 52.8393C41.244 52.6726 40.9478 52.5846 40.6452 52.5865C40.2417 52.5889 39.8555 52.751 39.5711 53.0372C39.2866 53.3234 39.1269 53.7106 39.127 54.1141Z" fill="#050D36"/>
<path d="M8.1995 75.3048H4.56313C4.23783 75.2757 3.91002 75.3146 3.60059 75.4191C3.29116 75.5236 3.00691 75.6914 2.76589 75.9118C2.52487 76.1322 2.33236 76.4004 2.20067 76.6993C2.06898 76.9982 2.00098 77.3212 2.00098 77.6478C2.00098 77.9744 2.06898 78.2974 2.20067 78.5963C2.33236 78.8952 2.52487 79.1634 2.76589 79.3838C3.00691 79.6042 3.29116 79.772 3.60059 79.8765C3.91002 79.981 4.23783 80.0199 4.56313 79.9908H8.1995C8.5248 80.0199 8.85261 79.981 9.16205 79.8765C9.47148 79.772 9.75572 79.6042 9.99674 79.3838C10.2378 79.1634 10.4303 78.8952 10.562 78.5963C10.6937 78.2974 10.7617 77.9744 10.7617 77.6478C10.7617 77.3212 10.6937 76.9982 10.562 76.6993C10.4303 76.4004 10.2378 76.1322 9.99674 75.9118C9.75572 75.6914 9.47148 75.5236 9.16205 75.4191C8.85261 75.3146 8.5248 75.2757 8.1995 75.3048Z" fill="#050D36"/>
<path d="M32.4919 39.9999C32.4919 39.376 32.244 38.7776 31.8029 38.3365C31.3617 37.8953 30.7634 37.6475 30.1395 37.6475C29.6742 37.6475 29.2194 37.7854 28.8326 38.0439C28.4457 38.3024 28.1442 38.6698 27.9662 39.0996C27.7881 39.5295 27.7415 40.0025 27.8323 40.4588C27.9231 40.9151 28.1471 41.3342 28.4761 41.6632C28.8051 41.9922 29.2243 42.2163 29.6806 42.307C30.1369 42.3978 30.6099 42.3512 31.0397 42.1732C31.4696 41.9951 31.837 41.6936 32.0954 41.3068C32.3539 40.9199 32.4919 40.4651 32.4919 39.9999Z" fill="#050D36"/>
<path d="M15.2282 21.1716C15.2263 20.7064 15.0866 20.2521 14.8265 19.8663C14.5665 19.4805 14.1979 19.1804 13.7674 19.0041C13.3368 18.8278 12.8637 18.7831 12.4077 18.8757C11.9518 18.9682 11.5335 19.194 11.2058 19.5243C10.8782 19.8545 10.6558 20.2746 10.5668 20.7313C10.4779 21.1879 10.5264 21.6607 10.7061 22.0899C10.8859 22.519 11.1889 22.8852 11.5767 23.1421C11.9646 23.3991 12.4199 23.5352 12.8852 23.5334C13.1941 23.5321 13.4998 23.4701 13.7847 23.3507C14.0696 23.2314 14.3283 23.0571 14.5458 22.8378C14.7634 22.6184 14.9356 22.3584 15.0527 22.0725C15.1698 21.7867 15.2294 21.4805 15.2282 21.1716Z" fill="#050D36"/>
<defs>
<linearGradient id="paint0_linear_2085_279" x1="0.135742" y1="0" x2="98.799" y2="6.92458" gradientUnits="userSpaceOnUse">
<stop stop-color="#FF5C65"/>
<stop offset="0.53125" stop-color="#FD008B"/>
<stop offset="1" stop-color="#6500FC"/>
</linearGradient>
</defs>
</svg>
