<svg width="64" height="80" viewBox="0 0 64 80" fill="none" xmlns="http://www.w3.org/2000/svg">
<path d="M39.6319 36.9109C39.8329 37.3954 39.984 37.899 40.0828 38.4141C40.2093 39.0364 40.4915 39.6164 40.9028 40.1001C41.3142 40.5837 41.8414 40.9553 42.4353 41.18C43.5627 41.6084 44.6901 42.0444 45.9152 42.4728C46.438 44.1143 47.471 45.5462 48.8637 46.5602C50.2564 47.5741 51.9363 48.1173 53.6591 48.1108C55.3818 48.1042 57.0575 47.5481 58.4425 46.5235C59.8274 45.4989 60.8493 44.0592 61.3596 42.4137C61.8699 40.7683 61.8419 39.0029 61.2797 37.3745C60.7175 35.7461 59.6504 34.3395 58.2337 33.3593C56.8169 32.3791 55.1244 31.8765 53.4023 31.9246C51.6802 31.9726 50.0184 32.5688 48.6585 33.6265C3.8107 18.1887 24.6976 6.56896 35.934 0C11.6875 6.71928 1.59349 19.0831 24.66 32.8448C25.2254 33.185 25.8703 33.3703 26.53 33.3822C27.1896 33.3941 27.8408 33.2321 28.418 32.9124C29.3515 32.4154 30.3724 32.104 31.4244 31.9955C33.1371 31.8376 34.8555 32.2288 36.3311 33.1125C37.8066 33.9962 38.9626 35.3266 39.6319 36.9109ZM56.7758 39.1657C56.9485 39.7843 56.9338 40.4403 56.7337 41.0506C56.5336 41.6608 56.1569 42.1981 55.6515 42.5943C55.146 42.9905 54.5343 43.2279 53.8939 43.2764C53.2535 43.325 52.6131 43.1825 52.0536 42.867C51.4942 42.5515 51.0408 42.0772 50.751 41.5041C50.4612 40.931 50.3478 40.2847 50.4253 39.6472C50.5027 39.0096 50.7675 38.4093 51.1862 37.9223C51.6049 37.4352 52.1586 37.0833 52.7773 36.9109C53.5975 36.6774 54.4766 36.7758 55.2248 37.1851C55.9729 37.5943 56.5301 38.2815 56.7758 39.0981V39.1657Z" fill="url(#paint0_linear_1730_44)"/>
<path d="M15.6934 46.3735C60.5412 61.8113 39.6543 73.431 28.418 80C52.6645 73.2807 62.7584 60.9245 39.6919 47.1552C39.1245 46.8208 38.4803 46.6388 37.8218 46.6269C37.1633 46.6151 36.513 46.7738 35.9339 47.0876C34.9408 47.6232 33.8462 47.9443 32.721 48.03C31.5959 48.1157 30.4653 47.9641 29.4024 47.585C28.3396 47.2059 27.3683 46.6078 26.5513 45.8294C25.7343 45.0511 25.09 44.1098 24.66 43.0665C24.4594 42.5819 24.3083 42.0783 24.209 41.5633C24.0792 40.9424 23.7959 40.364 23.3849 39.8808C22.974 39.3976 22.4485 39.0252 21.8565 38.7974C20.7291 38.3715 19.5692 37.9406 18.3766 37.5047C17.8966 35.987 16.9806 34.6442 15.7428 33.6435C14.505 32.6428 13 32.0284 11.4155 31.8771C9.83098 31.7257 8.23694 32.044 6.83204 32.7923C5.42714 33.5405 4.27349 34.6857 3.51488 36.085C2.75626 37.4844 2.42623 39.076 2.56589 40.6616C2.70554 42.2472 3.30873 43.7567 4.30026 45.0019C5.2918 46.247 6.62784 47.1729 8.1419 47.6641C9.65597 48.1552 11.2811 48.19 12.8148 47.764C13.8585 47.5 14.8378 47.0269 15.6934 46.3735ZM7.57614 40.8343C7.40344 40.2157 7.4181 39.5597 7.61823 38.9494C7.81836 38.3392 8.195 37.8019 8.70049 37.4057C9.20598 37.0095 9.81761 36.7721 10.458 36.7236C11.0985 36.675 11.7389 36.8175 12.2983 37.133C12.8578 37.4485 13.3111 37.9228 13.6009 38.4959C13.8908 39.069 14.0041 39.7153 13.9267 40.3528C13.8492 40.9904 13.5844 41.5907 13.1657 42.0777C12.7471 42.5648 12.1934 42.9167 11.5746 43.0891C10.7454 43.32 9.8584 43.2122 9.1086 42.7894C8.35881 42.3666 7.8076 41.6634 7.57614 40.8343Z" fill="white" fill-opacity="0.2"/>
<path d="M33.0403 43.0969C33.6598 42.9258 34.2146 42.5748 34.6344 42.0882C35.0542 41.6017 35.3202 41.0015 35.3987 40.3636C35.4772 39.7258 35.3646 39.079 35.0753 38.5052C34.7859 37.9314 34.3328 37.4563 33.7732 37.1402C33.2137 36.8241 32.573 36.6811 31.9321 36.7294C31.2913 36.7777 30.6792 37.015 30.1734 37.4115C29.6675 37.8079 29.2907 38.3455 29.0906 38.9562C28.8905 39.5669 28.8761 40.2232 29.0493 40.8421C29.2809 41.6695 29.8309 42.3714 30.579 42.794C31.327 43.2167 32.2121 43.3256 33.0403 43.0969Z" fill="url(#paint1_linear_1730_44)"/>
<path d="M47.2079 26.8019C53.2207 22.157 60.1955 25.4415 63.6078 31.101C59.2936 19.9623 50.9659 20.759 45.9979 23.3821C27.0426 16.9559 30.3496 10.6049 37.2793 6.18555C23.495 13.2957 28.8539 20.8718 47.2079 26.8019Z" fill="white" fill-opacity="0.2"/>
<path d="M17.144 53.1304C11.1312 57.7753 4.15639 54.4983 0.744141 48.8313C5.08086 59.97 13.4386 59.1733 18.3766 56.5652C37.3319 62.9914 34.0249 69.3424 27.0952 73.7543C40.8494 66.6367 35.498 59.0605 17.144 53.1304Z" fill="url(#paint2_linear_1730_44)"/>
<defs>
<linearGradient id="paint0_linear_1730_44" x1="11.6755" y1="0" x2="64.5117" y2="3.28745" gradientUnits="userSpaceOnUse">
<stop stop-color="#FF5C65"/>
<stop offset="0.53125" stop-color="#FD008B"/>
<stop offset="1" stop-color="#6500FC"/>
</linearGradient>
<linearGradient id="paint1_linear_1730_44" x1="28.9292" y1="36.7202" x2="35.7869" y2="37.1304" gradientUnits="userSpaceOnUse">
<stop stop-color="#FF5C65"/>
<stop offset="0.53125" stop-color="#FD008B"/>
<stop offset="1" stop-color="#6500FC"/>
</linearGradient>
<linearGradient id="paint2_linear_1730_44" x1="0.744141" y1="48.8313" x2="36.6327" y2="51.7674" gradientUnits="userSpaceOnUse">
<stop stop-color="#FF5C65"/>
<stop offset="0.53125" stop-color="#FD008B"/>
<stop offset="1" stop-color="#6500FC"/>
</linearGradient>
</defs>
</svg>
