<svg width="68" height="80" viewBox="0 0 68 80" fill="none" xmlns="http://www.w3.org/2000/svg">
<path d="M67.1357 23.4912C48.7858 21.65 33.8999 11.6948 33.8999 11.6948C33.8999 11.6948 19.014 21.65 0.664062 23.4912C0.664062 48.3556 8.1148 62.5004 20.036 72.4243V59.0051L12.8973 51.8743V46.2882C11.8457 45.9914 10.937 45.3242 10.339 44.4097C9.74092 43.4952 9.49399 42.3952 9.64377 41.3129C9.79354 40.2305 10.3299 39.2389 11.1538 38.5212C11.9777 37.8034 13.0335 37.4081 14.1261 37.4081C15.2188 37.4081 16.2746 37.8034 17.0985 38.5212C17.9223 39.2389 18.4587 40.2305 18.6085 41.3129C18.7582 42.3952 18.5113 43.4952 17.9133 44.4097C17.3153 45.3242 16.4065 45.9914 15.3549 46.2882V50.8522L22.4936 57.9909V74.3748C25.2693 76.4349 28.175 78.3139 31.1926 79.9999V46.1555C28.6832 45.4975 26.4994 43.948 25.0495 41.7967C23.5996 39.6455 22.9828 37.0398 23.3146 34.4669C23.6463 31.8939 24.9038 29.5299 26.852 27.8168C28.8002 26.1037 31.3056 25.1588 33.8999 25.1588C36.4941 25.1588 38.9995 26.1037 40.9477 27.8168C42.8959 29.5299 44.1534 31.8939 44.4852 34.4669C44.8169 37.0398 44.2002 39.6455 42.7503 41.7967C41.3003 43.948 39.1165 45.4975 36.6071 46.1555V79.9921C39.7221 78.2549 42.717 76.3104 45.5714 74.1719V57.9597L52.7101 50.821V46.257C51.6606 45.9603 50.7539 45.294 50.1573 44.381C49.5608 43.468 49.3147 42.37 49.4644 41.2898C49.6142 40.2095 50.1497 39.2199 50.9721 38.5036C51.7945 37.7873 52.8483 37.3928 53.9389 37.3928C55.0295 37.3928 56.0833 37.7873 56.9057 38.5036C57.7281 39.2199 58.2636 40.2095 58.4134 41.2898C58.5631 42.37 58.317 43.468 57.7204 44.381C57.1239 45.294 56.2171 45.9603 55.1677 46.257V51.8431L48.0602 59.0051V72.2293C59.763 62.2975 67.1357 48.1684 67.1357 23.4912Z" fill="white"/>
<path d="M34.9418 42.3058C38.5062 41.7291 40.9283 38.372 40.3516 34.8076C39.7749 31.2431 36.4179 28.821 32.8534 29.3977C29.289 29.9744 26.8669 33.3315 27.4436 36.8959C28.0203 40.4604 31.3773 42.8824 34.9418 42.3058Z" fill="#050D36"/>
<path d="M14.13 43.9787C14.5374 43.9787 14.9356 43.8579 15.2743 43.6316C15.613 43.4053 15.877 43.0836 16.0329 42.7073C16.1888 42.3309 16.2296 41.9168 16.1501 41.5172C16.0706 41.1177 15.8745 40.7507 15.5864 40.4626C15.2984 40.1746 14.9314 39.9784 14.5318 39.899C14.1323 39.8195 13.7182 39.8603 13.3418 40.0162C12.9654 40.1721 12.6437 40.436 12.4174 40.7748C12.1911 41.1135 12.0703 41.5117 12.0703 41.9191C12.0703 42.4653 12.2873 42.9892 12.6736 43.3755C13.0599 43.7617 13.5837 43.9787 14.13 43.9787Z" fill="#050D36"/>
<path d="M53.9347 43.9787C54.342 43.9787 54.7403 43.8579 55.079 43.6316C55.4177 43.4053 55.6817 43.0836 55.8376 42.7073C55.9935 42.3309 56.0342 41.9168 55.9548 41.5172C55.8753 41.1177 55.6791 40.7507 55.3911 40.4626C55.103 40.1746 54.736 39.9784 54.3365 39.899C53.937 39.8195 53.5228 39.8603 53.1465 40.0162C52.7701 40.1721 52.4484 40.436 52.2221 40.7748C51.9958 41.1135 51.875 41.5117 51.875 41.9191C51.875 42.4653 52.092 42.9892 52.4783 43.3755C52.8645 43.7617 53.3884 43.9787 53.9347 43.9787Z" fill="#050D36"/>
<path d="M33.8997 5.82797C33.8997 5.82797 43.3165 13.7546 54.9569 15.315C54.9959 14.4412 55.0349 13.5362 55.0583 12.6234C55.0856 11.7913 54.8214 10.9758 54.3115 10.3177C53.8015 9.65962 53.0778 9.20025 52.2653 9.01892C41.8966 6.73298 33.8997 0 33.8997 0C33.8997 0 25.9029 6.73299 15.5342 9.02672C14.7217 9.20805 13.9979 9.66742 13.488 10.3255C12.9781 10.9836 12.7139 11.7991 12.7412 12.6312C12.7412 13.5518 12.8036 14.449 12.8426 15.3228C24.4829 13.7546 33.8997 5.82797 33.8997 5.82797Z" fill="#050D36"/>
</svg>
