<svg width="64" height="80" viewBox="0 0 64 80" fill="none" xmlns="http://www.w3.org/2000/svg">
<path d="M39.6321 36.9109C39.8332 37.3954 39.9842 37.899 40.083 38.4141C40.2096 39.0364 40.4917 39.6164 40.9031 40.1001C41.3145 40.5837 41.8417 40.9553 42.4356 41.18C43.5629 41.6084 44.6903 42.0444 45.9155 42.4728C46.4383 44.1143 47.4712 45.5462 48.8639 46.5602C50.2567 47.5741 51.9366 48.1173 53.6593 48.1108C55.3821 48.1042 57.0578 47.5481 58.4427 46.5235C59.8277 45.4989 60.8496 44.0592 61.3599 42.4137C61.8701 40.7683 61.8421 39.0029 61.2799 37.3745C60.7177 35.7461 59.6506 34.3395 58.2339 33.3593C56.8172 32.3791 55.1247 31.8765 53.4026 31.9246C51.6805 31.9726 50.0187 32.5688 48.6588 33.6265C3.81095 18.1887 24.6979 6.56896 35.9342 0C11.6877 6.71928 1.59374 19.0831 24.6603 32.8448C25.2256 33.185 25.8705 33.3703 26.5302 33.3822C27.1899 33.3941 27.8411 33.2321 28.4183 32.9124C29.3517 32.4154 30.3727 32.104 31.4247 31.9955C33.1373 31.8376 34.8558 32.2288 36.3313 33.1125C37.8068 33.9962 38.9629 35.3266 39.6321 36.9109ZM56.776 39.1657C56.9487 39.7843 56.9341 40.4403 56.734 41.0506C56.5338 41.6608 56.1572 42.1981 55.6517 42.5943C55.1462 42.9905 54.5346 43.2279 53.8942 43.2764C53.2537 43.325 52.6133 43.1825 52.0539 42.867C51.4944 42.5515 51.0411 42.0772 50.7512 41.5041C50.4614 40.931 50.3481 40.2847 50.4255 39.6472C50.503 39.0096 50.7678 38.4093 51.1865 37.9223C51.6051 37.4352 52.1588 37.0833 52.7775 36.9109C53.5977 36.6774 54.4768 36.7758 55.225 37.1851C55.9732 37.5943 56.5303 38.2815 56.776 39.0981V39.1657Z" fill="white"/>
<path d="M15.693 46.3735C60.5408 61.8113 39.6539 73.431 28.4175 80C52.6641 73.2807 62.758 60.9245 39.6915 47.1552C39.1241 46.8208 38.4799 46.6388 37.8214 46.6269C37.1629 46.6151 36.5125 46.7738 35.9335 47.0876C34.9403 47.6232 33.8457 47.9443 32.7206 48.03C31.5954 48.1157 30.4648 47.9641 29.402 47.585C28.3392 47.2059 27.3678 46.6078 26.5509 45.8294C25.7339 45.0511 25.0895 44.1098 24.6595 43.0665C24.4589 42.5819 24.3078 42.0783 24.2086 41.5633C24.0788 40.9424 23.7955 40.364 23.3845 39.8808C22.9736 39.3976 22.4481 39.0252 21.8561 38.7974C20.7287 38.3715 19.5687 37.9406 18.3762 37.5047C17.8962 35.987 16.9802 34.6442 15.7424 33.6435C14.5046 32.6428 12.9996 32.0284 11.4151 31.8771C9.83055 31.7257 8.23652 32.044 6.83162 32.7923C5.42671 33.5405 4.27307 34.6857 3.51445 36.085C2.75584 37.4844 2.4258 39.076 2.56546 40.6616C2.70512 42.2472 3.3083 43.7567 4.29984 45.0019C5.29137 46.247 6.62741 47.1729 8.14148 47.6641C9.65554 48.1552 11.2807 48.19 12.8144 47.764C13.8581 47.5 14.8374 47.0269 15.693 46.3735ZM7.57571 40.8343C7.40302 40.2157 7.41767 39.5597 7.6178 38.9494C7.81794 38.3392 8.19457 37.8019 8.70006 37.4057C9.20555 37.0095 9.81718 36.7721 10.4576 36.7236C11.098 36.675 11.7385 36.8175 12.2979 37.133C12.8573 37.4485 13.3107 37.9228 13.6005 38.4959C13.8904 39.069 14.0037 39.7153 13.9262 40.3528C13.8488 40.9904 13.584 41.5907 13.1653 42.0777C12.7466 42.5648 12.1929 42.9167 11.5742 43.0891C10.745 43.32 9.85797 43.2122 9.10818 42.7894C8.35838 42.3666 7.80717 41.6634 7.57571 40.8343Z" fill="#050D36"/>
<path d="M33.0408 43.0969C33.6603 42.9258 34.215 42.5748 34.6349 42.0882C35.0547 41.6017 35.3207 41.0015 35.3992 40.3636C35.4777 39.7258 35.3651 39.079 35.0757 38.5052C34.7864 37.9314 34.3333 37.4563 33.7737 37.1402C33.2142 36.8241 32.5734 36.6811 31.9326 36.7294C31.2918 36.7777 30.6797 37.015 30.1739 37.4115C29.668 37.8079 29.2912 38.3455 29.0911 38.9562C28.891 39.5669 28.8766 40.2232 29.0498 40.8421C29.2813 41.6695 29.8314 42.3714 30.5794 42.794C31.3275 43.2167 32.2126 43.3256 33.0408 43.0969Z" fill="white"/>
<path d="M47.2074 26.8019C53.2202 22.157 60.1951 25.4415 63.6073 31.101C59.2931 19.9623 50.9654 20.759 45.9974 23.3821C27.0421 16.9559 30.3491 10.6049 37.2788 6.18555C23.4945 13.2957 28.8534 20.8718 47.2074 26.8019Z" fill="#050D36"/>
<path d="M17.144 53.1302C11.1312 57.7751 4.15639 54.4981 0.744141 48.8311C5.08086 59.9697 13.4386 59.173 18.3766 56.565C37.3319 62.9912 34.0249 69.3422 27.0952 73.754C40.8494 66.6364 35.498 59.0603 17.144 53.1302Z" fill="white"/>
</svg>
