<svg width="80" height="80" viewBox="0 0 80 80" fill="none" xmlns="http://www.w3.org/2000/svg">
<path d="M25.0894 79.6597C25.1652 79.7094 25.2484 79.7468 25.336 79.7703L25.0894 79.6597Z" fill="#050D36"/>
<path d="M43.8797 73.008C43.5225 73.008 43.1652 73.008 42.808 73.008C33.3832 71.3833 38.2572 56.2424 47.1461 43.1856C47.5094 43.2644 47.8801 43.3043 48.2519 43.3047C49.4435 43.307 50.6014 42.9096 51.5404 42.176C52.4795 41.4424 53.1453 40.415 53.4314 39.2583C53.7175 38.1015 53.6073 36.8822 53.1185 35.7955C52.6296 34.7088 51.7904 33.8174 50.7351 33.264C49.6798 32.7107 48.4693 32.5273 47.2975 32.7432C46.1256 32.9591 45.06 33.5618 44.2712 34.455C43.4824 35.3481 43.0159 36.48 42.9465 37.6696C42.8771 38.8592 43.2087 40.0377 43.8882 41.0165C35.8585 52.3467 31.2907 63.4216 31.3162 70.8644H31.2567C31.0695 75.9681 32.8218 79.3705 36.8452 79.8809L38.002 79.9575C38.6315 79.9575 39.2694 80 39.9159 80C49.4926 79.9945 58.7539 76.5768 66.0385 70.3601C73.323 64.1434 78.1541 55.5344 79.6649 46.0777C77.4235 53.8377 72.7219 60.6597 66.268 65.5167C59.814 70.3736 51.957 73.0026 43.8797 73.008ZM48.2519 34.9857C48.8407 34.9857 49.4163 35.1603 49.9059 35.4874C50.3955 35.8146 50.777 36.2795 51.0024 36.8235C51.2277 37.3675 51.2867 37.9661 51.1718 38.5436C51.0569 39.1211 50.7734 39.6516 50.357 40.068C49.9407 40.4843 49.4102 40.7679 48.8327 40.8828C48.2552 40.9976 47.6566 40.9387 47.1126 40.7133C46.5686 40.488 46.1036 40.1064 45.7765 39.6168C45.4493 39.1273 45.2747 38.5517 45.2747 37.9628C45.2736 37.5716 45.3498 37.1839 45.4991 36.8222C45.6483 36.4605 45.8675 36.1319 46.1442 35.8552C46.4209 35.5785 46.7495 35.3592 47.1112 35.21C47.4729 35.0608 47.8606 34.9846 48.2519 34.9857Z" fill="#050D36"/>
<path d="M0.124023 33.7693L0.209083 33.2419C0.183565 33.4206 0.149542 33.5907 0.124023 33.7693Z" fill="#050D36"/>
<path d="M25.0893 77.108C23.7794 75.4493 23.3881 73.0336 23.8049 70.082C24.8511 55.4005 42.2206 29.9417 56.5874 11.4409C24.0431 42.9135 6.31634 55.5621 0.311035 46.6051C1.23064 51.9182 3.2155 56.9903 6.14622 61.5163C6.88909 62.6505 7.68016 63.7478 8.51942 64.8082C12.883 70.2753 18.5931 74.5139 25.0893 77.108Z" fill="url(#paint0_linear_2085_267)"/>
<path d="M43.2501 17.395C43.7169 17.6862 44.2565 17.8396 44.8067 17.8373C45.4073 17.8373 45.9944 17.6592 46.4938 17.3255C46.9931 16.9918 47.3824 16.5176 47.6122 15.9627C47.842 15.4078 47.9022 14.7972 47.785 14.2082C47.6678 13.6191 47.3786 13.078 46.9539 12.6534C46.5293 12.2287 45.9882 11.9395 45.3991 11.8223C44.8101 11.7051 44.1995 11.7653 43.6446 11.9951C43.0897 12.2249 42.6154 12.6141 42.2818 13.1135C41.9481 13.6129 41.77 14.2 41.77 14.8006C41.769 15.1822 41.8412 15.5605 41.9827 15.9149C23.9667 29.8734 4.67489 41.4332 7.37983 28.2488C8.76012 21.6047 11.9268 15.4631 16.5388 10.4853C21.1509 5.50756 27.0335 1.88231 33.5531 0C25.2856 1.32856 17.6381 5.20194 11.6753 11.0809C5.71255 16.9598 1.73126 24.5517 0.285748 32.7995C-0.301173 39.6129 3.60313 50.186 43.2501 17.395ZM43.1565 14.8431C43.1565 14.5168 43.2533 14.1977 43.4346 13.9264C43.6159 13.655 43.8736 13.4435 44.1752 13.3186C44.4767 13.1937 44.8085 13.161 45.1286 13.2247C45.4487 13.2883 45.7428 13.4455 45.9735 13.6763C46.2043 13.9071 46.3615 14.2011 46.4252 14.5212C46.4888 14.8413 46.4562 15.1731 46.3313 15.4746C46.2064 15.7762 45.9948 16.0339 45.7235 16.2152C45.4521 16.3965 45.1331 16.4933 44.8067 16.4933C44.586 16.4946 44.3674 16.4513 44.1638 16.3662C43.9602 16.281 43.7759 16.1557 43.6219 15.9977C43.4678 15.8396 43.3472 15.6522 43.2673 15.4465C43.1873 15.2409 43.1496 15.0212 43.1565 14.8006V14.8431Z" fill="#050D36"/>
<defs>
<linearGradient id="paint0_linear_2085_267" x1="0.311035" y1="11.4409" x2="59.7971" y2="14.4901" gradientUnits="userSpaceOnUse">
<stop stop-color="#FF5C65"/>
<stop offset="0.53125" stop-color="#FD008B"/>
<stop offset="1" stop-color="#6500FC"/>
</linearGradient>
</defs>
</svg>
