<svg width="94" height="80" viewBox="0 0 94 80" fill="none" xmlns="http://www.w3.org/2000/svg">
<path d="M93.083 69.0065L62.8862 4.45173C62.264 3.12296 61.2758 1.99922 60.0374 1.21236C58.799 0.425509 57.3619 0.0081917 55.8947 0.00937255H28.0691C27.7438 -0.0197525 27.4159 0.0191788 27.1065 0.123692C26.7971 0.228205 26.5128 0.396007 26.2718 0.616413C26.0307 0.836819 25.8383 1.105 25.7066 1.40388C25.5749 1.70275 25.5069 2.02578 25.5069 2.35239C25.5069 2.67899 25.5749 3.00201 25.7066 3.30089C25.8383 3.59977 26.0307 3.86795 26.2718 4.08836C26.5128 4.30876 26.7971 4.47656 27.1065 4.58108C27.4159 4.68559 27.7438 4.72453 28.0691 4.6954H50.815C51.3854 4.7677 51.9098 5.04557 52.29 5.47692C52.6701 5.90827 52.8798 6.46347 52.8798 7.03842C52.8798 7.61336 52.6701 8.16856 52.29 8.59991C51.9098 9.03126 51.3854 9.30914 50.815 9.38143H10.5151C10.1898 9.35231 9.86209 9.39124 9.55265 9.49575C9.24322 9.60027 8.95892 9.76807 8.7179 9.98847C8.47688 10.2089 8.28443 10.4771 8.15274 10.7759C8.02105 11.0748 7.95299 11.3978 7.95299 11.7244C7.95299 12.0511 8.02105 12.3741 8.15274 12.673C8.28443 12.9718 8.47688 13.24 8.7179 13.4604C8.95892 13.6808 9.24322 13.8486 9.55265 13.9531C9.86209 14.0577 10.1898 14.0966 10.5151 14.0675H27.1881C27.6982 13.2385 28.465 12.5987 29.3719 12.2452C30.2788 11.8917 31.2763 11.8439 32.2129 12.109C33.1494 12.3741 33.9739 12.9376 34.561 13.714C35.1481 14.4903 35.4658 15.4371 35.4658 16.4105C35.4658 17.3838 35.1481 18.3306 34.561 19.107C33.9739 19.8833 33.1494 20.4469 32.2129 20.712C31.2763 20.9771 30.2788 20.9292 29.3719 20.5758C28.465 20.2223 27.6982 19.5825 27.1881 18.7535H23.5611C23.2358 18.7244 22.908 18.7633 22.5985 18.8678C22.2891 18.9723 22.0048 19.1401 21.7638 19.3605C21.5228 19.5809 21.3303 19.8491 21.1986 20.148C21.0669 20.4469 20.9989 20.7699 20.9989 21.0965C20.9989 21.4231 21.0669 21.7461 21.1986 22.045C21.3303 22.3439 21.5228 22.6121 21.7638 22.8325C22.0048 23.0529 22.2891 23.2207 22.5985 23.3252C22.908 23.4297 23.2358 23.4687 23.5611 23.4395H50.8525C51.4378 23.4919 51.9822 23.7614 52.3787 24.195C52.7752 24.6287 52.9951 25.195 52.9951 25.7825C52.9951 26.3701 52.7752 26.9364 52.3787 27.37C51.9822 27.8036 51.4378 28.0732 50.8525 28.1256H13.1862C12.8609 28.0964 12.5331 28.1354 12.2237 28.2399C11.9142 28.3444 11.63 28.5122 11.389 28.7326C11.1479 28.953 10.9554 29.2212 10.8238 29.5201C10.6921 29.8189 10.6241 30.142 10.6241 30.4686C10.6241 30.7952 10.6921 31.1182 10.8238 31.4171C10.9554 31.716 11.1479 31.9841 11.389 32.2045C11.63 32.4249 11.9142 32.5928 12.2237 32.6973C12.5331 32.8018 12.8609 32.8407 13.1862 32.8116H57.2349C57.7297 31.9793 58.4824 31.331 59.3788 30.965C60.2752 30.599 61.2665 30.5353 62.2024 30.7834C63.1383 31.0316 63.9679 31.5781 64.5652 32.3402C65.1625 33.1022 65.4951 34.0383 65.5125 35.0064C65.5299 35.9745 65.2312 36.9218 64.6617 37.7049C64.0922 38.488 63.2829 39.064 62.3565 39.3457C61.4302 39.6274 60.4372 39.5993 59.5282 39.2658C58.6192 38.9323 57.8436 38.3116 57.3192 37.4976H38.5564C38.2468 37.4951 37.9398 37.5543 37.6532 37.6716C37.3667 37.7889 37.1064 37.9621 36.8875 38.181C36.6685 38.4 36.4953 38.6603 36.3779 38.9468C36.2606 39.2334 36.2015 39.5404 36.204 39.85C36.204 40.1589 36.2648 40.4648 36.383 40.7502C36.5013 41.0356 36.6746 41.295 36.893 41.5134C37.1114 41.7318 37.3707 41.9051 37.6561 42.0233C37.9415 42.1415 38.2475 42.2024 38.5564 42.2024H50.815C51.1243 42.2012 51.4307 42.2612 51.7167 42.3789C52.0027 42.4967 52.2625 42.6699 52.4812 42.8886C52.6999 43.1073 52.8731 43.3671 52.9909 43.6531C53.1087 43.9391 53.1686 44.2455 53.1674 44.5548C53.1645 45.1758 52.919 45.7711 52.4833 46.2136C52.2646 46.4335 52.0047 46.6079 51.7184 46.7269C51.4321 46.846 51.1251 46.9072 50.815 46.9072H16.2228C15.8975 46.878 15.5696 46.917 15.2602 47.0215C14.9508 47.126 14.6665 47.2938 14.4255 47.5142C14.1845 47.7346 13.992 48.0028 13.8603 48.3017C13.7286 48.6006 13.6606 48.9236 13.6606 49.2502C13.6606 49.5768 13.7286 49.8998 13.8603 50.1987C13.992 50.4976 14.1845 50.7658 14.4255 50.9862C14.6665 51.2066 14.9508 51.3744 15.2602 51.4789C15.5696 51.5834 15.8975 51.6223 16.2228 51.5932H36.8413C37.3514 50.7642 38.1182 50.1244 39.0251 49.7709C39.932 49.4175 40.9296 49.3696 41.8661 49.6347C42.8027 49.8998 43.6271 50.4633 44.2142 51.2397C44.8013 52.0161 45.1191 52.9628 45.1191 53.9362C45.1191 54.9096 44.8013 55.8563 44.2142 56.6327C43.6271 57.4091 42.8027 57.9726 41.8661 58.2377C40.9296 58.5028 39.932 58.455 39.0251 58.1015C38.1182 57.748 37.3514 57.1082 36.8413 56.2792H2.69888C2.37357 56.2501 2.04576 56.289 1.73633 56.3935C1.4269 56.4981 1.14265 56.6659 0.901631 56.8863C0.660609 57.1067 0.468103 57.3749 0.336413 57.6737C0.204723 57.9726 0.136719 58.2956 0.136719 58.6222C0.136719 58.9488 0.204723 59.2719 0.336413 59.5707C0.468103 59.8696 0.660609 60.1378 0.901631 60.3582C1.14265 60.5786 1.4269 60.7464 1.73633 60.8509C2.04576 60.9554 2.37357 60.9944 2.69888 60.9653H63.964C64.5344 61.0375 65.0588 61.3154 65.4389 61.7468C65.8191 62.1781 66.0288 62.7333 66.0288 63.3083C66.0288 63.8832 65.8191 64.4384 65.4389 64.8698C65.0588 65.3011 64.5344 65.579 63.964 65.6513H28.0691C27.4452 65.6513 26.8468 65.8991 26.4057 66.3403C25.9645 66.7814 25.7167 67.3798 25.7167 68.0037C25.7167 68.3122 25.7775 68.6176 25.8959 68.9025C26.0142 69.1874 26.1877 69.4461 26.4062 69.6638C26.6248 69.8814 26.8842 70.0538 27.1695 70.171C27.4549 70.2882 27.7606 70.3479 28.0691 70.3467H47.8441C48.3545 69.5149 49.1226 68.8726 50.0315 68.5173C50.9404 68.162 51.9405 68.1132 52.8797 68.3784C53.8189 68.6436 54.6458 69.2082 55.2346 69.9864C55.8235 70.7646 56.1422 71.7138 56.1422 72.6897C56.1422 73.6656 55.8235 74.6148 55.2346 75.393C54.6458 76.1712 53.8189 76.7358 52.8797 77.001C51.9405 77.2662 50.9404 77.2174 50.0315 76.8621C49.1226 76.5069 48.3545 75.8645 47.8441 75.0327H19.9341C19.6088 75.0036 19.281 75.0425 18.9716 75.147C18.6621 75.2516 18.3778 75.4194 18.1368 75.6398C17.8958 75.8602 17.7033 76.1283 17.5716 76.4272C17.44 76.7261 17.372 77.0491 17.372 77.3757C17.372 77.7023 17.44 78.0254 17.5716 78.3242C17.7033 78.6231 17.8958 78.8913 18.1368 79.1117C18.3778 79.3321 18.6621 79.4999 18.9716 79.6044C19.281 79.7089 19.6088 79.7479 19.9341 79.7188H86.0915C87.3545 79.7 88.5937 79.3714 89.7 78.7617C90.8063 78.152 91.7459 77.2799 92.4363 76.2221C93.1267 75.1643 93.5468 73.9531 93.6595 72.6949C93.7723 71.4368 93.5743 70.1702 93.083 69.0065Z" fill="white"/>
<path d="M50.1123 72.9334C50.1123 73.2356 50.2019 73.5309 50.3698 73.7821C50.5376 74.0333 50.7762 74.2291 51.0553 74.3448C51.3345 74.4604 51.6416 74.4906 51.938 74.4317C52.2343 74.3728 52.5065 74.2273 52.7202 74.0136C52.9338 73.8 53.0793 73.5278 53.1383 73.2314C53.1972 72.9351 53.1669 72.6279 53.0513 72.3488C52.9357 72.0697 52.7399 71.8311 52.4887 71.6632C52.2374 71.4954 51.9421 71.4058 51.64 71.4058C51.2348 71.4058 50.8462 71.5667 50.5597 71.8532C50.2733 72.1397 50.1123 72.5283 50.1123 72.9334Z" fill="#050D36"/>
<path d="M61.0872 33.6831C60.7851 33.6831 60.4897 33.7727 60.2385 33.9406C59.9873 34.1084 59.7915 34.347 59.6759 34.6262C59.5602 34.9053 59.53 35.2124 59.5889 35.5088C59.6479 35.8051 59.7934 36.0773 60.007 36.291C60.2207 36.5046 60.4929 36.6501 60.7892 36.709C61.0855 36.768 61.3927 36.7377 61.6718 36.6221C61.951 36.5065 62.1895 36.3107 62.3574 36.0595C62.5253 35.8082 62.6149 35.5129 62.6149 35.2108C62.6149 34.8056 62.4539 34.417 62.1674 34.1305C61.8809 33.8441 61.4924 33.6831 61.0872 33.6831Z" fill="#050D36"/>
<path d="M30.9369 17.9943C31.2394 17.9943 31.5351 17.9044 31.7865 17.7361C32.038 17.5679 32.2337 17.3287 32.3491 17.049C32.4644 16.7693 32.4941 16.4617 32.4344 16.1651C32.3747 15.8685 32.2283 15.5964 32.0137 15.3831C31.7991 15.1698 31.5261 15.0251 31.2291 14.9672C30.9322 14.9093 30.6247 14.9409 30.3457 15.058C30.0668 15.175 29.8288 15.3723 29.6621 15.6247C29.4954 15.8772 29.4074 16.1735 29.4092 16.476C29.4117 16.8795 29.5737 17.2657 29.86 17.5501C30.1462 17.8346 30.5333 17.9943 30.9369 17.9943Z" fill="#050D36"/>
<path d="M39.1279 54.1141C39.1279 54.4166 39.2177 54.7124 39.386 54.9638C39.5543 55.2152 39.7935 55.411 40.0731 55.5263C40.3528 55.6417 40.6605 55.6714 40.9571 55.6117C41.2537 55.552 41.5258 55.4055 41.7391 55.191C41.9524 54.9764 42.0971 54.7033 42.155 54.4064C42.2129 54.1094 42.1813 53.8019 42.0642 53.523C41.9472 53.244 41.7499 53.0061 41.4974 52.8393C41.245 52.6726 40.9487 52.5846 40.6462 52.5865C40.2427 52.5889 39.8565 52.751 39.5721 53.0372C39.2876 53.3234 39.1279 53.7106 39.1279 54.1141Z" fill="#050D36"/>
<path d="M8.20048 75.3048H4.56411C4.23881 75.2757 3.911 75.3146 3.60156 75.4191C3.29213 75.5236 3.00789 75.6914 2.76687 75.9118C2.52584 76.1322 2.33334 76.4004 2.20165 76.6993C2.06996 76.9982 2.00195 77.3212 2.00195 77.6478C2.00195 77.9744 2.06996 78.2974 2.20165 78.5963C2.33334 78.8952 2.52584 79.1634 2.76687 79.3838C3.00789 79.6042 3.29213 79.772 3.60156 79.8765C3.911 79.981 4.23881 80.0199 4.56411 79.9908H8.20048C8.52578 80.0199 8.85359 79.981 9.16302 79.8765C9.47245 79.772 9.7567 79.6042 9.99772 79.3838C10.2387 79.1634 10.4312 78.8952 10.5629 78.5963C10.6946 78.2974 10.7626 77.9744 10.7626 77.6478C10.7626 77.3212 10.6946 76.9982 10.5629 76.6993C10.4312 76.4004 10.2387 76.1322 9.99772 75.9118C9.7567 75.6914 9.47245 75.5236 9.16302 75.4191C8.85359 75.3146 8.52578 75.2757 8.20048 75.3048Z" fill="#050D36"/>
<path d="M32.4928 39.9999C32.4928 39.376 32.245 38.7776 31.8038 38.3365C31.3627 37.8953 30.7643 37.6475 30.1404 37.6475C29.6752 37.6475 29.2204 37.7854 28.8335 38.0439C28.4467 38.3024 28.1452 38.6698 27.9671 39.0996C27.7891 39.5295 27.7425 40.0025 27.8333 40.4588C27.9241 40.9151 28.1481 41.3342 28.477 41.6632C28.806 41.9922 29.2252 42.2163 29.6816 42.307C30.1379 42.3978 30.6109 42.3512 31.0407 42.1732C31.4705 41.9951 31.8379 41.6936 32.0964 41.3068C32.3549 40.9199 32.4928 40.4651 32.4928 39.9999Z" fill="#050D36"/>
<path d="M15.2292 21.1716C15.2273 20.7064 15.0875 20.2521 14.8275 19.8663C14.5675 19.4805 14.1989 19.1804 13.7683 19.0041C13.3378 18.8278 12.8646 18.7831 12.4087 18.8757C11.9527 18.9682 11.5345 19.194 11.2068 19.5243C10.8791 19.8545 10.6568 20.2746 10.5678 20.7313C10.4789 21.1879 10.5273 21.6607 10.7071 22.0899C10.8868 22.519 11.1898 22.8852 11.5777 23.1421C11.9656 23.3991 12.4209 23.5352 12.8862 23.5334C13.1951 23.5321 13.5007 23.4701 13.7857 23.3507C14.0706 23.2314 14.3292 23.0571 14.5468 22.8378C14.7644 22.6184 14.9366 22.3584 15.0537 22.0725C15.1708 21.7867 15.2304 21.4805 15.2292 21.1716Z" fill="#050D36"/>
</svg>
