<svg width="110" height="80" viewBox="0 0 110 80" fill="none" xmlns="http://www.w3.org/2000/svg">
<path d="M57.2304 10.8843H82.7416C80.7258 7.56019 77.8869 4.81207 74.4989 2.90544C71.111 0.998806 67.2886 -0.00189866 63.401 2.70442e-06H32.4225C30.5276 0.0119782 28.6875 0.637684 27.1781 1.78334C25.6687 2.92899 24.5711 4.53293 24.0499 6.35481H52.7176L57.2304 10.8843Z" fill="white" fill-opacity="0.2"/>
<path d="M59.1478 66.6875C59.1478 66.2039 59.0044 65.7312 58.7358 65.3292C58.4671 64.9272 58.0853 64.6138 57.6386 64.4288C57.1918 64.2437 56.7003 64.1953 56.226 64.2897C55.7518 64.384 55.3162 64.6168 54.9742 64.9587C54.6323 65.3006 54.3995 65.7363 54.3052 66.2105C54.2108 66.6848 54.2592 67.1763 54.4443 67.6231C54.6293 68.0698 54.9427 68.4516 55.3447 68.7202C55.7468 68.9889 56.2194 69.1322 56.703 69.1322C57.0243 69.1334 57.3428 69.0709 57.6399 68.9484C57.937 68.8259 58.2069 68.6459 58.4342 68.4187C58.6614 68.1914 58.8415 67.9215 58.9639 67.6244C59.0864 67.3272 59.1489 67.0088 59.1478 66.6875Z" fill="url(#paint0_linear_1730_45)"/>
<path d="M53.2786 23.4179C53.2786 22.934 53.135 22.461 52.866 22.0588C52.597 21.6566 52.2147 21.3432 51.7675 21.1584C51.3202 20.9736 50.8282 20.9257 50.3538 21.0207C49.8793 21.1158 49.4437 21.3494 49.1021 21.6922C48.7606 22.0349 48.5284 22.4713 48.435 22.9461C48.3416 23.4209 48.3912 23.9127 48.5776 24.3593C48.7639 24.8059 49.0785 25.1871 49.4817 25.4548C49.8848 25.7224 50.3583 25.8644 50.8422 25.8627C51.1629 25.8627 51.4804 25.7994 51.7765 25.6764C52.0727 25.5535 52.3416 25.3733 52.568 25.1461C52.7943 24.919 52.9736 24.6494 53.0956 24.3529C53.2175 24.0563 53.2797 23.7386 53.2786 23.4179Z" fill="white" fill-opacity="0.2"/>
<path d="M108.914 33.0299C108.579 31.8504 107.849 30.8218 106.846 30.1162C105.945 29.4786 104.869 29.1362 103.765 29.1362C102.662 29.1362 101.585 29.4786 100.684 30.1162C99.6813 30.8218 98.9511 31.8504 98.6161 33.0299H67.1017L52.4665 47.6652H57.3142L61.8437 52.1947H69.086C69.4386 50.9504 70.2295 49.8755 71.3126 49.1686C72.3956 48.4616 73.6979 48.1703 74.9789 48.3483C76.26 48.5263 77.4335 49.1617 78.2828 50.1372C79.1321 51.1126 79.5999 52.3624 79.5999 53.6557C79.5999 54.9491 79.1321 56.1989 78.2828 57.1743C77.4335 58.1498 76.26 58.7852 74.9789 58.9632C73.6979 59.1412 72.3956 58.8499 71.3126 58.1429C70.2295 57.436 69.4386 56.3611 69.086 55.1168H60.6297L56.1085 50.5872H49.5528L40.4267 59.7049H11.1227C10.771 58.4599 9.98062 57.3842 8.89766 56.6764C7.81469 55.9686 6.51224 55.6765 5.23072 55.854C3.94921 56.0316 2.77517 56.6668 1.92544 57.6423C1.0757 58.6179 0.607666 59.868 0.607666 61.1618C0.607666 62.4555 1.0757 63.7056 1.92544 64.6812C2.77517 65.6567 3.94921 66.292 5.23072 66.4695C6.51224 66.647 7.81469 66.3549 8.89766 65.6471C9.98062 64.9393 10.771 63.8636 11.1227 62.6186H23.6816V69.7604H42.8631L47.3927 65.2308H51.579C51.9307 63.9858 52.721 62.9101 53.804 62.2023C54.887 61.4945 56.1894 61.2024 57.4709 61.3799C58.7525 61.5575 59.9265 62.1926 60.7762 63.1682C61.626 64.1438 62.094 65.3939 62.094 66.6877C62.094 67.9814 61.626 69.2315 60.7762 70.2071C59.9265 71.1826 58.7525 71.8179 57.4709 71.9954C56.1894 72.173 54.887 71.8809 53.804 71.173C52.721 70.4652 51.9307 69.3895 51.579 68.1445H48.6402L44.1106 72.674H23.849C24.1882 74.7207 25.2429 76.5806 26.8253 77.9222C28.4076 79.2639 30.4149 80.0002 32.4895 80H63.468C67.5462 80.0028 71.5492 78.9023 75.0528 76.8152C78.5565 74.7281 81.4302 71.732 83.3696 68.1445H74.2268V65.2308H89.2974C89.411 65.6504 89.5799 66.0531 89.7998 66.4281C90.4135 67.5026 91.3802 68.3316 92.5358 68.7742C93.6913 69.2169 94.9645 69.246 96.139 68.8565C97.3136 68.4671 98.3172 67.6831 98.9793 66.6378C99.6415 65.5924 99.9215 64.3501 99.7717 63.1217C99.6219 61.8934 99.0516 60.7547 98.1576 59.8991C97.2636 59.0436 96.101 58.5237 94.8673 58.428C93.6335 58.3322 92.4047 58.6665 91.3894 59.3739C90.3741 60.0813 89.6349 61.1183 89.2974 62.3088H85.3874C85.6076 61.2047 85.7392 60.0848 85.7809 58.9598C85.9171 55.2443 85.1027 51.5557 83.4148 48.243C81.727 44.9303 79.2216 42.1032 76.1357 40.0294C77.8191 38.8892 79.3376 37.5229 80.6485 35.9687H98.6244C98.9761 37.2161 99.7686 38.2934 100.855 39.0005C101.941 39.7076 103.247 39.9964 104.53 39.8133C105.813 39.6302 106.986 38.9875 107.831 38.0048C108.676 37.022 109.135 35.766 109.124 34.47C109.12 33.9826 109.05 33.498 108.914 33.0299ZM5.99868 63.6065C5.5148 63.6082 5.04129 63.4662 4.63814 63.1986C4.235 62.931 3.92037 62.5497 3.73404 62.1032C3.54772 61.6566 3.49808 61.1647 3.59147 60.69C3.68485 60.2152 3.91703 59.7788 4.25861 59.436C4.60018 59.0933 5.03578 58.8596 5.51025 58.7646C5.98472 58.6695 6.47672 58.7175 6.92394 58.9023C7.37115 59.0871 7.75347 59.4004 8.02248 59.8026C8.29149 60.2049 8.43508 60.6779 8.43508 61.1618C8.43508 61.8087 8.17868 62.4293 7.722 62.8875C7.26532 63.3458 6.64563 63.6043 5.99868 63.6065ZM94.4382 61.3292C94.9217 61.3292 95.3944 61.4726 95.7964 61.7412C96.1984 62.0099 96.5118 62.3917 96.6968 62.8384C96.8819 63.2851 96.9303 63.7767 96.836 64.251C96.7416 64.7252 96.5088 65.1608 96.1669 65.5027C95.825 65.8446 95.3893 66.0775 94.9151 66.1718C94.4409 66.2661 93.9493 66.2177 93.5026 66.0327C93.0559 65.8476 92.674 65.5343 92.4054 65.1322C92.1367 64.7302 91.9934 64.2575 91.9934 63.774C91.9934 63.1256 92.2509 62.5037 92.7094 62.0453C93.1679 61.5868 93.7898 61.3292 94.4382 61.3292ZM103.765 36.9315C103.281 36.9315 102.808 36.7879 102.406 36.5189C102.004 36.2499 101.691 35.8676 101.506 35.4204C101.321 34.9731 101.273 34.4812 101.368 34.0067C101.463 33.5322 101.697 33.0966 102.039 32.7551C102.382 32.4135 102.819 32.1813 103.293 32.0879C103.768 31.9945 104.26 32.0441 104.707 32.2305C105.153 32.4168 105.534 32.7314 105.802 33.1346C106.07 33.5377 106.212 34.0112 106.21 34.4951C106.208 35.1421 105.949 35.7617 105.491 36.2184C105.033 36.6751 104.412 36.9315 103.765 36.9315Z" fill="white" fill-opacity="0.2"/>
<path d="M76.6799 53.6516C76.6799 53.168 76.5366 52.6954 76.2679 52.2933C75.9993 51.8913 75.6174 51.5779 75.1707 51.3929C74.724 51.2078 74.2324 51.1594 73.7582 51.2538C73.284 51.3481 72.8483 51.5809 72.5064 51.9228C72.1645 52.2648 71.9317 52.7004 71.8373 53.1746C71.743 53.6489 71.7914 54.1404 71.9764 54.5872C72.1615 55.0339 72.4749 55.4157 72.8769 55.6843C73.2789 55.953 73.7516 56.0964 74.2351 56.0964C74.5565 56.0975 74.8749 56.035 75.172 55.9125C75.4692 55.79 75.7391 55.61 75.9663 55.3828C76.1936 55.1555 76.3736 54.8856 76.4961 54.5885C76.6186 54.2913 76.681 53.9729 76.6799 53.6516Z" fill="url(#paint1_linear_1730_45)"/>
<path d="M36.5502 42.9177C36.5519 42.4342 36.4101 41.961 36.1428 41.5581C35.8756 41.1551 35.4948 40.8405 35.0487 40.6539C34.6026 40.4673 34.1112 40.4172 33.6367 40.51C33.1621 40.6027 32.7257 40.834 32.3826 41.1747C32.0396 41.5155 31.8052 41.9503 31.7093 42.4242C31.6133 42.8981 31.6601 43.3899 31.8436 43.8372C32.0271 44.2846 32.3391 44.6675 32.7403 44.9375C33.1414 45.2075 33.6135 45.3525 34.0971 45.3542C34.4184 45.3564 34.737 45.295 35.0346 45.1735C35.3321 45.0521 35.6027 44.873 35.8307 44.6465C36.0587 44.42 36.2397 44.1507 36.3632 43.854C36.4867 43.5573 36.5502 43.2391 36.5502 42.9177Z" fill="white" fill-opacity="0.2"/>
<path d="M14.4885 36.2282C15.6551 36.2247 16.7888 35.8412 17.7179 35.1356C18.647 34.4301 19.3209 33.4411 19.6376 32.3182H23.6983V41.4611H28.9563C29.308 40.2161 30.0983 39.1403 31.1813 38.4325C32.2643 37.7247 33.5667 37.4326 34.8482 37.6102C36.1298 37.7877 37.3038 38.4229 38.1535 39.3985C39.0033 40.3741 39.4713 41.6242 39.4713 42.9179C39.4713 44.2117 39.0033 45.4617 38.1535 46.4373C37.3038 47.4129 36.1298 48.0481 34.8482 48.2257C33.5667 48.4032 32.2643 48.1111 31.1813 47.4033C30.0983 46.6955 29.308 45.6198 28.9563 44.3747H23.6983V56.7913H39.2211L65.9128 30.1163H84.1902C85.9268 25.8675 86.2726 21.1777 85.1781 16.7201H87.7736C88.1263 17.9668 88.9181 19.0438 90.0028 19.7524C91.0875 20.4609 92.3919 20.7531 93.6752 20.575C94.9585 20.397 96.1341 19.7607 96.985 18.7837C97.8359 17.8066 98.3046 16.5547 98.3046 15.2591C98.3046 13.9635 97.8359 12.7116 96.985 11.7346C96.1341 10.7575 94.9585 10.1213 93.6752 9.94323C92.3919 9.76519 91.0875 10.0574 90.0028 10.7659C88.9181 11.4744 88.1263 12.5514 87.7736 13.7981H56.0416L51.512 9.26855H23.715V26.4909H35.1101L39.6397 21.9614H45.7014C46.0541 20.717 46.8449 19.6422 47.928 18.9352C49.0111 18.2283 50.3133 17.9369 51.5944 18.1149C52.8754 18.293 54.0489 18.9283 54.8982 19.9038C55.7475 20.8793 56.2153 22.129 56.2153 23.4224C56.2153 24.7158 55.7475 25.9655 54.8982 26.941C54.0489 27.9164 52.8754 28.5518 51.5944 28.7298C50.3133 28.9078 49.0111 28.6165 47.928 27.9096C46.8449 27.2026 46.0541 26.1278 45.7014 24.8834H40.7951L36.2739 29.4046H19.6376C19.365 28.4457 18.8304 27.5818 18.0937 26.9102C17.357 26.2385 16.4476 25.7857 15.4677 25.6025C14.4877 25.4194 13.4761 25.5133 12.5466 25.8736C11.6171 26.2339 10.8066 26.8464 10.2061 27.6421C9.6056 28.4379 9.23903 29.3854 9.14755 30.3781C9.05607 31.3708 9.24332 32.3693 9.68826 33.2614C10.1332 34.1535 10.8182 34.9038 11.6662 35.4279C12.5142 35.952 13.4916 36.2292 14.4885 36.2282ZM92.906 12.785C93.3902 12.7834 93.8641 12.9256 94.2674 13.1936C94.6707 13.4616 94.9854 13.8433 95.1714 14.2904C95.3575 14.7375 95.4066 15.2297 95.3126 15.7047C95.2185 16.1797 94.9855 16.6161 94.6431 16.9586C94.3007 17.301 93.8643 17.534 93.3893 17.628C92.9142 17.7221 92.422 17.673 91.9749 17.4869C91.5278 17.3008 91.1461 16.9862 90.8781 16.5829C90.6101 16.1795 90.4679 15.7057 90.4696 15.2215C90.4805 14.5818 90.7418 13.9719 91.1973 13.5227C91.6528 13.0734 92.2662 12.8206 92.906 12.8185V12.785ZM14.4885 28.3915C14.9724 28.3915 15.4454 28.5351 15.8476 28.8041C16.2498 29.0731 16.5632 29.4555 16.748 29.9027C16.9328 30.3499 16.9807 30.8419 16.8856 31.3163C16.7906 31.7908 16.557 32.2264 16.2142 32.568C15.8715 32.9096 15.4351 33.1418 14.9603 33.2351C14.4855 33.3285 13.9937 33.2789 13.5471 33.0926C13.1005 32.9063 12.7192 32.5916 12.4516 32.1885C12.184 31.7853 12.042 31.3118 12.0437 30.8279C12.0525 30.1861 12.3142 29.5737 12.772 29.1238C13.2298 28.6739 13.8466 28.4227 14.4885 28.425V28.3915Z" fill="url(#paint2_linear_1730_45)"/>
<defs>
<linearGradient id="paint0_linear_1730_45" x1="54.2582" y1="64.2427" x2="59.4218" y2="64.5515" gradientUnits="userSpaceOnUse">
<stop stop-color="#FF5C65"/>
<stop offset="0.53125" stop-color="#FD008B"/>
<stop offset="1" stop-color="#6500FC"/>
</linearGradient>
<linearGradient id="paint1_linear_1730_45" x1="71.7903" y1="51.2068" x2="76.9539" y2="51.5156" gradientUnits="userSpaceOnUse">
<stop stop-color="#FF5C65"/>
<stop offset="0.53125" stop-color="#FD008B"/>
<stop offset="1" stop-color="#6500FC"/>
</linearGradient>
<linearGradient id="paint2_linear_1730_45" x1="9.12494" y1="9.26855" x2="102.463" y2="19.7449" gradientUnits="userSpaceOnUse">
<stop stop-color="#FF5C65"/>
<stop offset="0.53125" stop-color="#FD008B"/>
<stop offset="1" stop-color="#6500FC"/>
</linearGradient>
</defs>
</svg>
