<svg width="80" height="80" viewBox="0 0 80 80" fill="none" xmlns="http://www.w3.org/2000/svg">
<path d="M25.0908 79.6597C25.1666 79.7094 25.2499 79.7468 25.3375 79.7703L25.0908 79.6597Z" fill="#050D36"/>
<path d="M43.8807 73.0082C43.5234 73.0082 43.1662 73.0082 42.8089 73.0082C33.3842 71.3836 38.2582 56.2427 47.147 43.1858C47.5104 43.2646 47.8811 43.3046 48.2528 43.3049C49.4444 43.3072 50.6024 42.9098 51.5414 42.1762C52.4804 41.4426 53.1463 40.4153 53.4323 39.2585C53.7184 38.1018 53.6082 36.8825 53.1194 35.7958C52.6306 34.709 51.7914 33.8177 50.7361 33.2643C49.6808 32.7109 48.4703 32.5275 47.2984 32.7434C46.1266 32.9593 45.061 33.5621 44.2722 34.4552C43.4833 35.3484 43.0169 36.4803 42.9475 37.6699C42.8781 38.8594 43.2097 40.0379 43.8892 41.0168C35.8595 52.3469 31.2917 63.4218 31.3172 70.8647H31.2576C31.0705 75.9683 32.8228 79.3708 36.8462 79.8811L38.003 79.9577C38.6324 79.9577 39.2704 80.0002 39.9169 80.0002C49.4935 79.9948 58.7549 76.5771 66.0394 70.3604C73.324 64.1436 78.155 55.5346 79.6659 46.0779C77.4244 53.838 72.7229 60.66 66.2689 65.5169C59.815 70.3738 51.958 73.0029 43.8807 73.0082ZM48.2528 34.9859C48.8417 34.9859 49.4173 35.1605 49.9068 35.4877C50.3964 35.8148 50.778 36.2798 51.0033 36.8238C51.2287 37.3678 51.2876 37.9664 51.1728 38.5439C51.0579 39.1214 50.7744 39.6519 50.358 40.0682C49.9416 40.4846 49.4111 40.7681 48.8336 40.883C48.2561 40.9979 47.6575 40.9389 47.1135 40.7136C46.5695 40.4883 46.1046 40.1067 45.7774 39.6171C45.4503 39.1275 45.2757 38.5519 45.2757 37.9631C45.2746 37.5718 45.3508 37.1842 45.5 36.8225C45.6492 36.4607 45.8685 36.1321 46.1452 35.8554C46.4219 35.5787 46.7505 35.3595 47.1122 35.2103C47.4739 35.0611 47.8616 34.9848 48.2528 34.9859Z" fill="#050D36"/>
<path d="M0.125 33.7696L0.21006 33.2422C0.184541 33.4208 0.150518 33.5909 0.125 33.7696Z" fill="#050D36"/>
<path d="M25.0908 77.108C23.7808 75.4493 23.3896 73.0336 23.8064 70.082C24.8526 55.4005 42.2221 29.9417 56.5889 11.4409C24.0445 42.9135 6.31781 55.5621 0.3125 46.6051C1.2321 51.9182 3.21697 56.9903 6.14769 61.5163C6.89055 62.6505 7.68162 63.7478 8.52089 64.8082C12.8845 70.2753 18.5946 74.5139 25.0908 77.108Z" fill="white"/>
<path d="M43.2506 17.395C43.7173 17.6862 44.257 17.8396 44.8072 17.8373C45.4078 17.8373 45.9949 17.6592 46.4943 17.3255C46.9936 16.9918 47.3829 16.5176 47.6127 15.9627C47.8425 15.4078 47.9027 14.7972 47.7855 14.2082C47.6683 13.6191 47.3791 13.078 46.9544 12.6534C46.5297 12.2287 45.9887 11.9395 45.3996 11.8223C44.8105 11.7051 44.2 11.7653 43.6451 11.9951C43.0902 12.2249 42.6159 12.6141 42.2823 13.1135C41.9486 13.6129 41.7705 14.2 41.7705 14.8006C41.7695 15.1822 41.8417 15.5605 41.9831 15.9149C23.9672 29.8734 4.67538 41.4332 7.38032 28.2488C8.76061 21.6047 11.9273 15.4631 16.5393 10.4853C21.1513 5.50756 27.034 1.88231 33.5536 0C25.2861 1.32856 17.6386 5.20194 11.6758 11.0809C5.71304 16.9598 1.73175 24.5517 0.286237 32.7995C-0.300684 39.6129 3.60362 50.186 43.2506 17.395ZM43.157 14.8431C43.157 14.5168 43.2538 14.1977 43.4351 13.9264C43.6164 13.655 43.8741 13.4435 44.1757 13.3186C44.4772 13.1937 44.809 13.161 45.1291 13.2247C45.4492 13.2883 45.7432 13.4455 45.974 13.6763C46.2048 13.9071 46.362 14.2011 46.4256 14.5212C46.4893 14.8413 46.4566 15.1731 46.3317 15.4746C46.2068 15.7762 45.9953 16.0339 45.724 16.2152C45.4526 16.3965 45.1335 16.4933 44.8072 16.4933C44.5865 16.4946 44.3679 16.4513 44.1643 16.3662C43.9607 16.281 43.7764 16.1557 43.6223 15.9977C43.4683 15.8396 43.3477 15.6522 43.2677 15.4465C43.1878 15.2409 43.1501 15.0212 43.157 14.8006V14.8431Z" fill="#050D36"/>
</svg>
