<svg width="80" height="80" viewBox="0 0 80 80" fill="none" xmlns="http://www.w3.org/2000/svg">
<path d="M25.0894 79.6597C25.1652 79.7094 25.2484 79.7468 25.336 79.7703L25.0894 79.6597Z" fill="white" fill-opacity="0.2"/>
<path d="M43.8792 73.008C43.522 73.008 43.1647 73.008 42.8075 73.008C33.3827 71.3833 38.2567 56.2424 47.1456 43.1856C47.5089 43.2644 47.8796 43.3043 48.2514 43.3047C49.443 43.307 50.6009 42.9096 51.5399 42.176C52.479 41.4424 53.1448 40.415 53.4309 39.2583C53.717 38.1015 53.6068 36.8822 53.118 35.7955C52.6291 34.7088 51.7899 33.8174 50.7346 33.264C49.6793 32.7107 48.4689 32.5273 47.297 32.7432C46.1251 32.9591 45.0595 33.5618 44.2707 34.455C43.4819 35.3481 43.0154 36.48 42.946 37.6696C42.8766 38.8592 43.2082 40.0377 43.8877 41.0165C35.858 52.3467 31.2902 63.4216 31.3157 70.8644H31.2562C31.069 75.9681 32.8213 79.3705 36.8447 79.8809L38.0015 79.9575C38.631 79.9575 39.2689 80 39.9154 80C49.4921 79.9945 58.7534 76.5768 66.038 70.3601C73.3225 64.1434 78.1536 55.5344 79.6644 46.0777C77.423 53.8377 72.7214 60.6597 66.2675 65.5167C59.8136 70.3736 51.9565 73.0026 43.8792 73.008ZM48.2514 34.9857C48.8402 34.9857 49.4158 35.1603 49.9054 35.4874C50.395 35.8146 50.7766 36.2795 51.0019 36.8235C51.2272 37.3675 51.2862 37.9661 51.1713 38.5436C51.0564 39.1211 50.7729 39.6516 50.3565 40.068C49.9402 40.4843 49.4097 40.7679 48.8322 40.8828C48.2547 40.9976 47.6561 40.9387 47.1121 40.7133C46.5681 40.488 46.1031 40.1064 45.776 39.6168C45.4488 39.1273 45.2742 38.5517 45.2742 37.9628C45.2731 37.5716 45.3493 37.1839 45.4986 36.8222C45.6478 36.4605 45.867 36.1319 46.1437 35.8552C46.4204 35.5785 46.749 35.3592 47.1107 35.21C47.4725 35.0608 47.8601 34.9846 48.2514 34.9857Z" fill="white" fill-opacity="0.2"/>
<path d="M0.123779 33.7693L0.208839 33.2419C0.183321 33.4206 0.149298 33.5907 0.123779 33.7693Z" fill="white" fill-opacity="0.2"/>
<path d="M25.0892 77.108C23.7792 75.4493 23.388 73.0336 23.8048 70.082C24.851 55.4005 42.2205 29.9417 56.5873 11.4409C24.0429 42.9135 6.31622 55.5621 0.310913 46.6051C1.23051 51.9182 3.21538 56.9903 6.1461 61.5163C6.88896 62.6505 7.68003 63.7478 8.5193 64.8082C12.8829 70.2753 18.593 74.5139 25.0892 77.108Z" fill="url(#paint0_linear_1730_42)"/>
<path d="M43.2496 17.395C43.7164 17.6862 44.256 17.8396 44.8062 17.8373C45.4068 17.8373 45.9939 17.6592 46.4933 17.3255C46.9927 16.9918 47.3819 16.5176 47.6117 15.9627C47.8416 15.4078 47.9017 14.7972 47.7845 14.2082C47.6674 13.6191 47.3781 13.078 46.9534 12.6534C46.5288 12.2287 45.9877 11.9395 45.3986 11.8223C44.8096 11.7051 44.199 11.7653 43.6441 11.9951C43.0892 12.2249 42.615 12.6141 42.2813 13.1135C41.9476 13.6129 41.7695 14.2 41.7695 14.8006C41.7685 15.1822 41.8407 15.5605 41.9822 15.9149C23.9662 29.8734 4.67441 41.4332 7.37935 28.2488C8.75963 21.6047 11.9263 15.4631 16.5383 10.4853C21.1504 5.50756 27.033 1.88231 33.5526 0C25.2851 1.32856 17.6376 5.20194 11.6748 11.0809C5.71206 16.9598 1.73077 24.5517 0.28526 32.7995C-0.301661 39.6129 3.60264 50.186 43.2496 17.395ZM43.156 14.8431C43.156 14.5168 43.2528 14.1977 43.4341 13.9264C43.6154 13.655 43.8732 13.4435 44.1747 13.3186C44.4762 13.1937 44.808 13.161 45.1281 13.2247C45.4482 13.2883 45.7423 13.4455 45.973 13.6763C46.2038 13.9071 46.361 14.2011 46.4247 14.5212C46.4883 14.8413 46.4557 15.1731 46.3308 15.4746C46.2059 15.7762 45.9944 16.0339 45.723 16.2152C45.4516 16.3965 45.1326 16.4933 44.8062 16.4933C44.5855 16.4946 44.3669 16.4513 44.1633 16.3662C43.9597 16.281 43.7754 16.1557 43.6214 15.9977C43.4673 15.8396 43.3467 15.6522 43.2668 15.4465C43.1868 15.2409 43.1491 15.0212 43.156 14.8006V14.8431Z" fill="white" fill-opacity="0.2"/>
<defs>
<linearGradient id="paint0_linear_1730_42" x1="0.310913" y1="11.4409" x2="59.797" y2="14.4901" gradientUnits="userSpaceOnUse">
<stop stop-color="#FF5C65"/>
<stop offset="0.53125" stop-color="#FD008B"/>
<stop offset="1" stop-color="#6500FC"/>
</linearGradient>
</defs>
</svg>
