<svg width="110" height="80" viewBox="0 0 110 80" fill="none" xmlns="http://www.w3.org/2000/svg">
<path d="M57.2303 10.8843H82.7415C80.7257 7.56019 77.8867 4.81207 74.4988 2.90544C71.1109 0.998806 67.2885 -0.00189866 63.4009 2.70442e-06H32.4224C30.5274 0.0119782 28.6874 0.637684 27.178 1.78334C25.6685 2.92899 24.571 4.53293 24.0498 6.35481H52.7175L57.2303 10.8843Z" fill="#050D36"/>
<path d="M59.1474 66.6875C59.1474 66.2039 59.004 65.7312 58.7354 65.3292C58.4668 64.9272 58.0849 64.6138 57.6382 64.4288C57.1915 64.2437 56.6999 64.1953 56.2257 64.2897C55.7514 64.384 55.3158 64.6168 54.9739 64.9587C54.632 65.3006 54.3991 65.7363 54.3048 66.2105C54.2105 66.6848 54.2589 67.1763 54.4439 67.6231C54.6289 68.0698 54.9423 68.4516 55.3444 68.7202C55.7464 68.9889 56.2191 69.1322 56.7026 69.1322C57.024 69.1334 57.3424 69.0709 57.6395 68.9484C57.9366 68.8259 58.2066 68.6459 58.4338 68.4187C58.661 68.1914 58.8411 67.9215 58.9636 67.6244C59.086 67.3272 59.1485 67.0088 59.1474 66.6875Z" fill="url(#paint0_linear_2085_294)"/>
<path d="M53.2782 23.4179C53.2782 22.934 53.1347 22.461 52.8656 22.0588C52.5966 21.6566 52.2143 21.3432 51.7671 21.1584C51.3199 20.9736 50.8279 20.9257 50.3534 21.0207C49.8789 21.1158 49.4433 21.3494 49.1018 21.6922C48.7602 22.0349 48.528 22.4713 48.4346 22.9461C48.3412 23.4209 48.3909 23.9127 48.5772 24.3593C48.7635 24.8059 49.0782 25.1871 49.4813 25.4548C49.8844 25.7224 50.358 25.8644 50.8418 25.8627C51.1625 25.8627 51.48 25.7994 51.7761 25.6764C52.0723 25.5535 52.3413 25.3733 52.5676 25.1461C52.794 24.919 52.9732 24.6494 53.0952 24.3529C53.2171 24.0563 53.2793 23.7386 53.2782 23.4179Z" fill="#050D36"/>
<path d="M108.914 33.0299C108.579 31.8504 107.849 30.8218 106.846 30.1162C105.945 29.4786 104.869 29.1362 103.765 29.1362C102.661 29.1362 101.585 29.4786 100.684 30.1162C99.681 30.8218 98.9509 31.8504 98.6158 33.0299H67.1014L52.4662 47.6652H57.3139L61.8435 52.1947H69.0857C69.4384 50.9504 70.2292 49.8755 71.3123 49.1686C72.3954 48.4616 73.6976 48.1703 74.9787 48.3483C76.2598 48.5263 77.4333 49.1617 78.2825 50.1372C79.1318 51.1126 79.5996 52.3624 79.5996 53.6557C79.5996 54.9491 79.1318 56.1989 78.2825 57.1743C77.4333 58.1498 76.2598 58.7852 74.9787 58.9632C73.6976 59.1412 72.3954 58.8499 71.3123 58.1429C70.2292 57.436 69.4384 56.3611 69.0857 55.1168H60.6295L56.1083 50.5872H49.5526L40.4264 59.7049H11.1224C10.7707 58.4599 9.98038 57.3842 8.89741 56.6764C7.81445 55.9686 6.51199 55.6765 5.23048 55.854C3.94896 56.0316 2.77493 56.6668 1.92519 57.6423C1.07546 58.6179 0.607422 59.868 0.607422 61.1618C0.607422 62.4555 1.07546 63.7056 1.92519 64.6812C2.77493 65.6567 3.94896 66.292 5.23048 66.4695C6.51199 66.647 7.81445 66.3549 8.89741 65.6471C9.98038 64.9393 10.7707 63.8636 11.1224 62.6186H23.6813V69.7604H42.8628L47.3924 65.2308H51.5787C51.9305 63.9858 52.7208 62.9101 53.8038 62.2023C54.8867 61.4945 56.1892 61.2024 57.4707 61.3799C58.7522 61.5575 59.9262 62.1926 60.776 63.1682C61.6257 64.1438 62.0938 65.3939 62.0938 66.6877C62.0938 67.9814 61.6257 69.2315 60.776 70.2071C59.9262 71.1826 58.7522 71.8179 57.4707 71.9954C56.1892 72.173 54.8867 71.8809 53.8038 71.173C52.7208 70.4652 51.9305 69.3895 51.5787 68.1445H48.6399L44.1104 72.674H23.8488C24.1879 74.7207 25.2426 76.5806 26.825 77.9222C28.4074 79.2639 30.4147 80.0002 32.4893 80H63.4678C67.546 80.0028 71.549 78.9023 75.0526 76.8152C78.5562 74.7281 81.4299 71.732 83.3694 68.1445H74.2265V65.2308H89.2971C89.4107 65.6504 89.5797 66.0531 89.7995 66.4281C90.4133 67.5026 91.38 68.3316 92.5355 68.7742C93.6911 69.2169 94.9642 69.246 96.1388 68.8565C97.3134 68.4671 98.3169 67.6831 98.9791 66.6378C99.6413 65.5924 99.9212 64.3501 99.7714 63.1217C99.6217 61.8934 99.0513 60.7547 98.1573 59.8991C97.2633 59.0436 96.1008 58.5237 94.867 58.428C93.6333 58.3322 92.4045 58.6665 91.3892 59.3739C90.3739 60.0813 89.6347 61.1183 89.2971 62.3088H85.3872C85.6073 61.2047 85.7389 60.0848 85.7807 58.9598C85.9168 55.2443 85.1024 51.5557 83.4146 48.243C81.7267 44.9303 79.2213 42.1032 76.1355 40.0294C77.8189 38.8892 79.3374 37.5229 80.6483 35.9687H98.6242C98.9759 37.2161 99.7684 38.2934 100.854 39.0005C101.941 39.7076 103.247 39.9964 104.53 39.8133C105.813 39.6302 106.985 38.9875 107.83 38.0048C108.675 37.022 109.135 35.766 109.123 34.47C109.12 33.9826 109.05 33.498 108.914 33.0299ZM5.99844 63.6065C5.51455 63.6082 5.04104 63.4662 4.6379 63.1986C4.23475 62.931 3.92012 62.5497 3.7338 62.1032C3.54747 61.6566 3.49784 61.1647 3.59122 60.69C3.68461 60.2152 3.91679 59.7788 4.25836 59.436C4.59994 59.0933 5.03554 58.8596 5.51001 58.7646C5.98448 58.6695 6.47648 58.7175 6.9237 58.9023C7.37091 59.0871 7.75323 59.4004 8.02224 59.8026C8.29125 60.2049 8.43483 60.6779 8.43484 61.1618C8.43484 61.8087 8.17843 62.4293 7.72176 62.8875C7.26508 63.3458 6.64539 63.6043 5.99844 63.6065ZM94.4379 61.3292C94.9214 61.3292 95.3941 61.4726 95.7962 61.7412C96.1982 62.0099 96.5115 62.3917 96.6966 62.8384C96.8816 63.2851 96.9301 63.7767 96.8357 64.251C96.7414 64.7252 96.5086 65.1608 96.1666 65.5027C95.8247 65.8446 95.3891 66.0775 94.9149 66.1718C94.4406 66.2661 93.9491 66.2177 93.5023 66.0327C93.0556 65.8476 92.6738 65.5343 92.4051 65.1322C92.1365 64.7302 91.9931 64.2575 91.9931 63.774C91.9931 63.1256 92.2507 62.5037 92.7092 62.0453C93.1677 61.5868 93.7895 61.3292 94.4379 61.3292ZM103.765 36.9315C103.281 36.9315 102.808 36.7879 102.406 36.5189C102.004 36.2499 101.69 35.8676 101.505 35.4204C101.321 34.9731 101.273 34.4812 101.368 34.0067C101.463 33.5322 101.696 33.0966 102.039 32.7551C102.382 32.4135 102.818 32.1813 103.293 32.0879C103.768 31.9945 104.26 32.0441 104.706 32.2305C105.153 32.4168 105.534 32.7314 105.802 33.1346C106.069 33.5377 106.211 34.0112 106.21 34.4951C106.208 35.1421 105.949 35.7617 105.491 36.2184C105.032 36.6751 104.412 36.9315 103.765 36.9315Z" fill="#050D36"/>
<path d="M76.6796 53.6516C76.6796 53.168 76.5363 52.6954 76.2676 52.2933C75.999 51.8913 75.6171 51.5779 75.1704 51.3929C74.7237 51.2078 74.2321 51.1594 73.7579 51.2538C73.2837 51.3481 72.848 51.5809 72.5061 51.9228C72.1642 52.2648 71.9314 52.7004 71.837 53.1746C71.7427 53.6489 71.7911 54.1404 71.9761 54.5872C72.1612 55.0339 72.4745 55.4157 72.8766 55.6843C73.2786 55.953 73.7513 56.0964 74.2348 56.0964C74.5562 56.0975 74.8746 56.035 75.1717 55.9125C75.4689 55.79 75.7388 55.61 75.966 55.3828C76.1933 55.1555 76.3733 54.8856 76.4958 54.5885C76.6183 54.2913 76.6807 53.9729 76.6796 53.6516Z" fill="url(#paint1_linear_2085_294)"/>
<path d="M36.5497 42.918C36.5514 42.4345 36.4096 41.9613 36.1423 41.5583C35.8751 41.1554 35.4943 40.8407 35.0483 40.6542C34.6022 40.4676 34.1108 40.4175 33.6362 40.5102C33.1616 40.6029 32.7252 40.8343 32.3821 41.175C32.0391 41.5157 31.8047 41.9505 31.7088 42.4245C31.6128 42.8984 31.6596 43.3901 31.8431 43.8375C32.0266 44.2848 32.3386 44.6677 32.7398 44.9377C33.1409 45.2077 33.613 45.3527 34.0966 45.3544C34.4179 45.3566 34.7366 45.2952 35.0341 45.1738C35.3316 45.0523 35.6022 44.8732 35.8302 44.6467C36.0582 44.4203 36.2392 44.1509 36.3627 43.8542C36.4862 43.5576 36.5497 43.2394 36.5497 42.918Z" fill="#050D36"/>
<path d="M14.4881 36.2282C15.6547 36.2247 16.7883 35.8412 17.7175 35.1356C18.6466 34.4301 19.3205 33.4411 19.6372 32.3182H23.6979V41.4611H28.9558C29.3076 40.2161 30.0979 39.1403 31.1809 38.4325C32.2638 37.7247 33.5663 37.4326 34.8478 37.6102C36.1293 37.7877 37.3034 38.4229 38.1531 39.3985C39.0028 40.3741 39.4709 41.6242 39.4709 42.9179C39.4709 44.2117 39.0028 45.4617 38.1531 46.4373C37.3034 47.4129 36.1293 48.0481 34.8478 48.2257C33.5663 48.4032 32.2638 48.1111 31.1809 47.4033C30.0979 46.6955 29.3076 45.6198 28.9558 44.3747H23.6979V56.7913H39.2206L65.9124 30.1163H84.1897C85.9263 25.8675 86.2722 21.1777 85.1777 16.7201H87.7732C88.1259 17.9668 88.9177 19.0438 90.0024 19.7524C91.0871 20.4609 92.3915 20.7531 93.6748 20.575C94.9581 20.397 96.1337 19.7607 96.9846 18.7837C97.8354 17.8066 98.3041 16.5547 98.3041 15.2591C98.3041 13.9635 97.8354 12.7116 96.9846 11.7346C96.1337 10.7575 94.9581 10.1213 93.6748 9.94323C92.3915 9.76519 91.0871 10.0574 90.0024 10.7659C88.9177 11.4744 88.1259 12.5514 87.7732 13.7981H56.0411L51.5116 9.26855H23.7146V26.4909H35.1097L39.6393 21.9614H45.701C46.0536 20.717 46.8445 19.6422 47.9276 18.9352C49.0106 18.2283 50.3129 17.9369 51.5939 18.1149C52.875 18.293 54.0485 18.9283 54.8978 19.9038C55.7471 20.8793 56.2149 22.129 56.2149 23.4224C56.2149 24.7158 55.7471 25.9655 54.8978 26.941C54.0485 27.9164 52.875 28.5518 51.5939 28.7298C50.3129 28.9078 49.0106 28.6165 47.9276 27.9096C46.8445 27.2026 46.0536 26.1278 45.701 24.8834H40.7947L36.2735 29.4046H19.6372C19.3646 28.4457 18.8299 27.5818 18.0933 26.9102C17.3566 26.2385 16.4472 25.7857 15.4672 25.6025C14.4873 25.4194 13.4757 25.5133 12.5462 25.8736C11.6167 26.2339 10.8061 26.8464 10.2057 27.6421C9.60517 28.4379 9.2386 29.3854 9.14712 30.3781C9.05564 31.3708 9.24289 32.3693 9.68783 33.2614C10.1328 34.1535 10.8177 34.9038 11.6657 35.4279C12.5137 35.952 13.4912 36.2292 14.4881 36.2282ZM92.9055 12.785C93.3898 12.7834 93.8636 12.9256 94.267 13.1936C94.6703 13.4616 94.9849 13.8433 95.171 14.2904C95.3571 14.7375 95.4062 15.2297 95.3122 15.7047C95.2181 16.1797 94.9851 16.6161 94.6427 16.9586C94.3003 17.301 93.8638 17.534 93.3888 17.628C92.9138 17.7221 92.4215 17.673 91.9745 17.4869C91.5274 17.3008 91.1457 16.9862 90.8777 16.5829C90.6097 16.1795 90.4675 15.7057 90.4692 15.2215C90.4801 14.5818 90.7413 13.9719 91.1968 13.5227C91.6524 13.0734 92.2658 12.8206 92.9055 12.8185V12.785ZM14.4881 28.3915C14.972 28.3915 15.445 28.5351 15.8472 28.8041C16.2494 29.0731 16.5627 29.4555 16.7475 29.9027C16.9323 30.3499 16.9802 30.8419 16.8852 31.3163C16.7902 31.7908 16.5565 32.2264 16.2138 32.568C15.871 32.9096 15.4346 33.1418 14.9598 33.2351C14.485 33.3285 13.9932 33.2789 13.5467 33.0926C13.1001 32.9063 12.7188 32.5916 12.4512 32.1885C12.1836 31.7853 12.0416 31.3118 12.0432 30.8279C12.0521 30.1861 12.3138 29.5737 12.7716 29.1238C13.2294 28.6739 13.8462 28.4227 14.4881 28.425V28.3915Z" fill="url(#paint2_linear_2085_294)"/>
<defs>
<linearGradient id="paint0_linear_2085_294" x1="54.2578" y1="64.2427" x2="59.4214" y2="64.5515" gradientUnits="userSpaceOnUse">
<stop stop-color="#FF5C65"/>
<stop offset="0.53125" stop-color="#FD008B"/>
<stop offset="1" stop-color="#6500FC"/>
</linearGradient>
<linearGradient id="paint1_linear_2085_294" x1="71.79" y1="51.2068" x2="76.9536" y2="51.5156" gradientUnits="userSpaceOnUse">
<stop stop-color="#FF5C65"/>
<stop offset="0.53125" stop-color="#FD008B"/>
<stop offset="1" stop-color="#6500FC"/>
</linearGradient>
<linearGradient id="paint2_linear_2085_294" x1="9.12451" y1="9.26855" x2="102.462" y2="19.7449" gradientUnits="userSpaceOnUse">
<stop stop-color="#FF5C65"/>
<stop offset="0.53125" stop-color="#FD008B"/>
<stop offset="1" stop-color="#6500FC"/>
</linearGradient>
</defs>
</svg>
