<svg width="68" height="80" viewBox="0 0 68 80" fill="none" xmlns="http://www.w3.org/2000/svg">
<path d="M67.1359 23.4912C48.786 21.65 33.9001 11.6948 33.9001 11.6948C33.9001 11.6948 19.0142 21.65 0.664307 23.4912C0.664307 48.3556 8.11505 62.5004 20.0362 72.4243V59.0051L12.8976 51.8743V46.2882C11.846 45.9914 10.9372 45.3242 10.3392 44.4097C9.74117 43.4952 9.49424 42.3952 9.64401 41.3129C9.79378 40.2305 10.3302 39.2389 11.154 38.5212C11.9779 37.8034 13.0337 37.4081 14.1264 37.4081C15.219 37.4081 16.2748 37.8034 17.0987 38.5212C17.9226 39.2389 18.4589 40.2305 18.6087 41.3129C18.7585 42.3952 18.5116 43.4952 17.9135 44.4097C17.3155 45.3242 16.4068 45.9914 15.3551 46.2882V50.8522L22.4938 57.9909V74.3748C25.2695 76.4349 28.1752 78.3139 31.1929 79.9999V46.1555C28.6835 45.4975 26.4997 43.948 25.0498 41.7967C23.5998 39.6455 22.9831 37.0398 23.3148 34.4669C23.6466 31.8939 24.9041 29.5299 26.8523 27.8168C28.8004 26.1037 31.3059 25.1588 33.9001 25.1588C36.4944 25.1588 38.9998 26.1037 40.948 27.8168C42.8961 29.5299 44.1537 31.8939 44.4854 34.4669C44.8172 37.0398 44.2004 39.6455 42.7505 41.7967C41.3006 43.948 39.1168 45.4975 36.6074 46.1555V79.9921C39.7224 78.2549 42.7172 76.3104 45.5717 74.1719V57.9597L52.7103 50.821V46.257C51.6609 45.9603 50.7542 45.294 50.1576 44.381C49.561 43.468 49.3149 42.37 49.4646 41.2898C49.6144 40.2095 50.1499 39.2199 50.9723 38.5036C51.7947 37.7873 52.8485 37.3928 53.9391 37.3928C55.0297 37.3928 56.0835 37.7873 56.9059 38.5036C57.7283 39.2199 58.2639 40.2095 58.4136 41.2898C58.5634 42.37 58.3172 43.468 57.7207 44.381C57.1241 45.294 56.2174 45.9603 55.1679 46.257V51.8431L48.0604 59.0051V72.2293C59.7632 62.2975 67.1359 48.1684 67.1359 23.4912Z" fill="url(#paint0_linear_1730_47)"/>
<path d="M34.9416 42.3058C38.5061 41.7291 40.9282 38.372 40.3515 34.8076C39.7748 31.2431 36.4178 28.821 32.8533 29.3977C29.2889 29.9744 26.8668 33.3315 27.4435 36.8959C28.0201 40.4604 31.3772 42.8824 34.9416 42.3058Z" fill="white" fill-opacity="0.2"/>
<path d="M14.1303 43.979C14.5376 43.979 14.9358 43.8582 15.2746 43.6319C15.6133 43.4056 15.8772 43.0839 16.0331 42.7075C16.189 42.3312 16.2298 41.917 16.1504 41.5175C16.0709 41.1179 15.8747 40.7509 15.5867 40.4629C15.2986 40.1748 14.9316 39.9787 14.5321 39.8992C14.1325 39.8197 13.7184 39.8605 13.342 40.0164C12.9657 40.1723 12.644 40.4363 12.4177 40.775C12.1914 41.1137 12.0706 41.5119 12.0706 41.9193C12.0706 42.4656 12.2876 42.9895 12.6738 43.3757C13.0601 43.762 13.584 43.979 14.1303 43.979Z" fill="white" fill-opacity="0.2"/>
<path d="M53.9352 43.979C54.3425 43.979 54.7407 43.8582 55.0795 43.6319C55.4182 43.4056 55.6822 43.0839 55.8381 42.7075C55.994 42.3312 56.0347 41.917 55.9553 41.5175C55.8758 41.1179 55.6796 40.7509 55.3916 40.4629C55.1035 40.1748 54.7365 39.9787 54.337 39.8992C53.9375 39.8197 53.5233 39.8605 53.147 40.0164C52.7706 40.1723 52.4489 40.4363 52.2226 40.775C51.9963 41.1137 51.8755 41.5119 51.8755 41.9193C51.8755 42.4656 52.0925 42.9895 52.4787 43.3757C52.865 43.762 53.3889 43.979 53.9352 43.979Z" fill="white" fill-opacity="0.2"/>
<path d="M33.9001 5.82797C33.9001 5.82797 43.3169 13.7546 54.9573 15.315C54.9963 14.4412 55.0353 13.5362 55.0587 12.6234C55.0859 11.7913 54.8218 10.9758 54.3119 10.3177C53.8019 9.65962 53.0782 9.20025 52.2656 9.01892C41.897 6.73298 33.9001 0 33.9001 0C33.9001 0 25.9032 6.73299 15.5346 9.02672C14.722 9.20805 13.9983 9.66742 13.4884 10.3255C12.9784 10.9836 12.7143 11.7991 12.7415 12.6312C12.7415 13.5518 12.8039 14.449 12.8429 15.3228C24.4833 13.7546 33.9001 5.82797 33.9001 5.82797Z" fill="white" fill-opacity="0.2"/>
<defs>
<linearGradient id="paint0_linear_1730_47" x1="0.664307" y1="11.6948" x2="70.8739" y2="15.7815" gradientUnits="userSpaceOnUse">
<stop stop-color="#FF5C65"/>
<stop offset="0.53125" stop-color="#FD008B"/>
<stop offset="1" stop-color="#6500FC"/>
</linearGradient>
</defs>
</svg>
