<svg width="54" height="69" viewBox="0 0 54 69" fill="none" xmlns="http://www.w3.org/2000/svg">
<path d="M50.0032 25.131L8.03763 0.899344C7.71983 0.67954 7.34962 0.547556 6.96441 0.51675C6.57919 0.485944 6.19263 0.557412 5.84392 0.723916L1.76367 3.07033L4.63742 4.12292V34.6482C4.65426 35.9126 4.96891 37.1552 5.55585 38.2753C6.1428 39.3955 6.98555 40.3616 8.01573 41.0954L48.1385 64.2525V67.8488L52.2407 65.4805C52.6452 65.1655 52.9625 64.7523 53.1621 64.2802C53.3618 63.8081 53.4373 63.2928 53.3815 62.7832V31.5781C53.3664 30.3134 53.0525 29.0702 52.4654 27.9498C51.8783 26.8294 51.0347 25.8635 50.0032 25.131Z" fill="url(#paint0_linear_2662_453)"/>
<path d="M45.857 67.7174L3.8915 43.5954C2.86132 42.8616 2.01857 41.8955 1.43162 40.7754C0.844676 39.6553 0.53003 38.4126 0.513184 37.1483V5.83353C0.513184 3.35554 2.02686 2.21523 3.8915 3.28975L45.857 27.4118C46.8872 28.1455 47.73 29.1116 48.3169 30.2318C48.9038 31.3519 49.2184 32.5945 49.2353 33.8589V65.1736C49.2353 67.6516 47.7217 68.7919 45.857 67.7174Z" fill="#D4ECFF"/>
<path d="M46.932 27.039L4.9665 2.91699C4.59252 2.63446 4.13186 2.49087 3.66352 2.51087C3.19518 2.53088 2.7484 2.71324 2.3999 3.02664C2.93874 2.98011 3.47798 3.11104 3.93545 3.39943L45.901 27.5214C46.9312 28.2552 47.7738 29.2213 48.3608 30.3414C48.9477 31.4616 49.2624 32.7042 49.2793 33.9686V65.1737C49.3431 66.0673 49.0514 66.95 48.4676 67.6297C49.5645 67.6297 50.3103 66.4456 50.3103 64.6912V33.4861C50.29 32.2224 49.9739 30.981 49.3872 29.8615C48.8005 28.7419 47.9597 27.7752 46.932 27.039Z" fill="white"/>
<path d="M17.9971 32.7404C17.9971 34.5386 16.7248 35.2841 15.1672 34.3851C14.3465 33.8421 13.6635 33.1155 13.1723 32.2629C12.6811 31.4103 12.3953 30.4551 12.3374 29.4729C12.3374 27.6747 13.6097 26.9292 15.1672 27.8282C15.988 28.3712 16.671 29.0978 17.1622 29.9504C17.6533 30.803 17.9392 31.7582 17.9971 32.7404Z" fill="white"/>
<path d="M26.5745 37.6964C26.5745 39.4946 25.3241 40.2402 23.7446 39.3192C22.9219 38.7835 22.237 38.0616 21.7454 37.212C21.2538 36.3624 20.9692 35.409 20.9148 34.429C20.9148 32.6089 22.1871 31.8852 23.7446 32.7843C24.5714 33.3209 25.2591 34.0459 25.751 34.8999C26.243 35.7538 26.5252 36.7122 26.5745 37.6964Z" fill="white"/>
<path d="M35.1739 42.6525C35.1739 44.4507 33.9015 45.1743 32.3221 44.2752C31.4994 43.7395 30.8145 43.0176 30.3229 42.168C29.8312 41.3184 29.5466 40.365 29.4922 39.385C29.4922 37.5649 30.7646 36.8413 32.3221 37.7404C33.153 38.2745 33.8449 38.9984 34.3407 39.8525C34.8366 40.7066 35.1222 41.6663 35.1739 42.6525Z" fill="white"/>
<defs>
<linearGradient id="paint0_linear_2662_453" x1="1.76367" y1="0.509766" x2="56.3729" y2="3.01436" gradientUnits="userSpaceOnUse">
<stop stop-color="#FF5C65"/>
<stop offset="0.53125" stop-color="#FD008B"/>
<stop offset="1" stop-color="#6500FC"/>
</linearGradient>
</defs>
</svg>
