<svg width="54" height="69" viewBox="0 0 54 69" fill="none" xmlns="http://www.w3.org/2000/svg">
<path d="M49.9147 25.3622L7.92734 1.13055C7.60955 0.91074 7.23927 0.778757 6.85406 0.747951C6.46884 0.717144 6.08235 0.788621 5.73364 0.955125L1.65332 3.30154L4.52706 4.35412V34.8794C4.52669 36.1654 4.83295 37.433 5.42046 38.5771C6.00797 39.7212 6.85983 40.7088 7.90538 41.4581L48.0282 64.6153V68.1897L52.1524 65.8214C52.5553 65.505 52.8714 65.0916 53.0709 64.6198C53.2704 64.1481 53.3469 63.6334 53.2931 63.1241V31.8093C53.2728 30.5456 52.9566 29.3042 52.3699 28.1847C51.7833 27.0651 50.9424 26.0984 49.9147 25.3622Z" fill="#D3008D"/>
<path d="M45.7685 67.9484L3.78108 43.8264C2.73813 43.0746 1.88827 42.0864 1.30105 40.9429C0.713835 39.7994 0.406019 38.5331 0.402832 37.2477V6.08646C0.402832 3.60848 1.91644 2.46816 3.78108 3.54268L45.7685 27.6647C46.7934 28.402 47.631 29.3694 48.2139 30.4892C48.7968 31.6089 49.1088 32.8497 49.1249 34.1118V65.3169C49.1249 67.8826 47.6331 69.0449 45.7685 67.9484Z" fill="#FF2C9C"/>
<path d="M46.7775 27.27L4.81204 3.14797C4.45234 2.85595 4.0031 2.69653 3.53972 2.69653C3.07634 2.69653 2.62703 2.85595 2.26733 3.14797C2.79809 3.11523 3.3262 3.24529 3.78099 3.52076L45.7684 27.6428C46.7933 28.3801 47.6309 29.3475 48.2138 30.4672C48.7967 31.587 49.1088 32.8277 49.1248 34.0899V65.295C49.1886 66.1886 48.8969 67.0713 48.3132 67.7511C49.41 67.7511 50.1558 66.5669 50.1558 64.8125V33.7171C50.1355 32.4534 49.8194 31.212 49.2327 30.0924C48.6461 28.9728 47.8052 28.0062 46.7775 27.27Z" fill="white"/>
<path d="M17.8866 32.9715C17.8866 34.7917 16.6362 35.5153 15.0567 34.6162C14.2335 34.0758 13.5487 33.3498 13.0572 32.4967C12.5657 31.6435 12.2813 30.6871 12.2268 29.7041C12.2268 27.9059 13.4992 27.1603 15.0567 28.0813C15.8818 28.6145 16.5686 29.3357 17.0606 30.1859C17.5526 31.036 17.8356 31.9907 17.8866 32.9715Z" fill="white"/>
<path d="M26.4858 37.9275C26.4858 39.7257 25.2134 40.4712 23.634 39.5722C22.7924 39.0299 22.0911 38.2962 21.5878 37.431C21.0845 36.5657 20.7934 35.5936 20.7383 34.5943C20.7383 32.7961 22.0106 32.0505 23.5681 32.9496C24.4162 33.4867 25.1236 34.2187 25.6311 35.0847C26.1387 35.9506 26.4317 36.9253 26.4858 37.9275Z" fill="white"/>
<path d="M35.0633 42.8834C35.0633 44.6816 33.7909 45.4272 32.2334 44.5062C31.4054 43.9742 30.7153 43.2537 30.2196 42.4037C29.7239 41.5537 29.4367 40.5984 29.3816 39.616C29.3816 37.7959 30.6539 37.0722 32.2334 37.9713C33.0565 38.5118 33.7415 39.2377 34.2329 40.0909C34.7244 40.944 35.0088 41.9005 35.0633 42.8834Z" fill="white"/>
</svg>
