<svg width="720" height="550" viewBox="0 0 720 550" fill="none" xmlns="http://www.w3.org/2000/svg">
<path opacity="0.05" fill-rule="evenodd" clip-rule="evenodd" d="M720 36C720 16.1177 703.882 0 684 0H238.817C218.935 0 202.817 16.1177 202.817 36V44C202.817 63.8823 186.699 80 166.817 80H36C16.1178 80 0 96.1177 0 116V475C0 488.807 11.1929 500 25 500V500C38.8071 500 50 511.193 50 525V525C50 538.807 61.1929 550 75 550H552C571.882 550 588 533.882 588 514V466C588 446.118 604.118 430 624 430H684C703.882 430 720 413.882 720 394V36Z" fill="white"/>
</svg>
