<svg width="523" height="600" viewBox="0 0 523 600" fill="none" xmlns="http://www.w3.org/2000/svg">
<mask id="mask0_1854_4202" style="mask-type:alpha" maskUnits="userSpaceOnUse" x="0" y="-1" width="523" height="601">
<rect opacity="0.05" width="522.699" height="600" transform="matrix(1 0 0 -1 0 599.999)" fill="#D9D9D9"/>
</mask>
<g mask="url(#mask0_1854_4202)">
<path d="M575.225 1188.3L496.79 401.737L-87.5958 -74.1588" stroke="white" stroke-width="2" stroke-miterlimit="10"/>
<path d="M559.91 1197.64L481.466 411.072L-102.153 -64.1988" stroke="white" stroke-width="1.98" stroke-miterlimit="10"/>
<path d="M544.584 1206.98L466.149 420.411L-116.722 -54.2398" stroke="white" stroke-width="1.96" stroke-miterlimit="10"/>
<path d="M529.26 1216.31L450.825 429.747L-131.28 -44.2792" stroke="white" stroke-width="1.95" stroke-miterlimit="10"/>
<path d="M513.943 1225.65L435.499 439.084L-145.837 -34.3272" stroke="white" stroke-width="1.93" stroke-miterlimit="10"/>
<path d="M498.618 1234.99L420.183 448.423L-160.404 -24.3682" stroke="white" stroke-width="1.91" stroke-miterlimit="10"/>
<path d="M483.292 1244.32L404.857 457.759L-174.964 -14.4077" stroke="white" stroke-width="1.89" stroke-miterlimit="10"/>
<path d="M467.965 1253.67L389.532 467.096L-189.529 -4.45764" stroke="white" stroke-width="1.87" stroke-miterlimit="10"/>
<path d="M452.649 1263.01L374.208 476.432L-204.096 5.50111" stroke="white" stroke-width="1.86" stroke-miterlimit="10"/>
<path d="M437.323 1272.34L358.888 485.78L-218.656 15.4615" stroke="white" stroke-width="1.84" stroke-miterlimit="10"/>
<path d="M421.999 1281.68L343.564 495.116L-233.223 25.4205" stroke="white" stroke-width="1.82" stroke-miterlimit="10"/>
<path d="M406.682 1291.02L328.238 504.452L-247.78 35.3718" stroke="white" stroke-width="1.8" stroke-miterlimit="10"/>
<path d="M391.358 1300.36L312.923 513.791L-262.338 45.3331" stroke="white" stroke-width="1.79" stroke-miterlimit="10"/>
<path d="M376.032 1309.69L297.597 523.127L-276.906 55.2912" stroke="white" stroke-width="1.77" stroke-miterlimit="10"/>
<path d="M360.708 1319.03L282.273 532.463L-291.464 65.2517" stroke="white" stroke-width="1.75" stroke-miterlimit="10"/>
<path d="M345.389 1328.38L266.947 541.8L-306.03 75.2022" stroke="white" stroke-width="1.73" stroke-miterlimit="10"/>
<path d="M330.062 1337.71L251.63 551.138L-320.59 85.1617" stroke="white" stroke-width="1.71" stroke-miterlimit="10"/>
<path d="M314.738 1347.05L236.306 560.476L-335.157 95.1218" stroke="white" stroke-width="1.7" stroke-miterlimit="10"/>
<path d="M299.421 1356.39L220.977 569.82L-349.714 105.073" stroke="white" stroke-width="1.68" stroke-miterlimit="10"/>
<path d="M284.097 1365.72L205.662 579.158L-364.28 115.031" stroke="white" stroke-width="1.66" stroke-miterlimit="10"/>
<path d="M268.771 1375.06L190.336 588.495L-378.84 124.992" stroke="white" stroke-width="1.64" stroke-miterlimit="10"/>
<path d="M253.447 1384.4L175.012 597.831L-393.407 134.951" stroke="white" stroke-width="1.62" stroke-miterlimit="10"/>
<path d="M238.13 1393.74L159.695 607.17L-407.964 144.903" stroke="white" stroke-width="1.61" stroke-miterlimit="10"/>
<path d="M222.805 1403.07L144.37 616.507L-422.531 154.862" stroke="white" stroke-width="1.59" stroke-miterlimit="10"/>
<path d="M207.478 1412.42L129.045 625.844L-437.09 164.823" stroke="white" stroke-width="1.57" stroke-miterlimit="10"/>
<path d="M192.161 1421.76L113.719 635.18L-451.659 174.782" stroke="white" stroke-width="1.55" stroke-miterlimit="10"/>
<path d="M176.836 1431.09L98.4038 644.518L-466.214 184.732" stroke="white" stroke-width="1.54" stroke-miterlimit="10"/>
<path d="M161.512 1440.43L83.0772 653.865L-480.781 194.692" stroke="white" stroke-width="1.52" stroke-miterlimit="10"/>
<path d="M146.186 1449.76L67.751 663.199L-495.341 204.652" stroke="white" stroke-width="1.5" stroke-miterlimit="10"/>
<path d="M130.871 1459.1L52.4267 672.536L-509.905 214.601" stroke="white" stroke-width="1.48" stroke-miterlimit="10"/>
<path d="M115.545 1468.44L37.1097 681.875L-524.465 224.563" stroke="white" stroke-width="1.46" stroke-miterlimit="10"/>
<path d="M100.219 1477.78L21.7838 691.211L-539.034 234.521" stroke="white" stroke-width="1.45" stroke-miterlimit="10"/>
<path d="M84.9033 1487.12L6.45942 700.548L-553.592 244.482" stroke="white" stroke-width="1.43" stroke-miterlimit="10"/>
<path d="M69.5757 1496.46L-8.85695 709.886L-568.157 254.431" stroke="white" stroke-width="1.41" stroke-miterlimit="10"/>
<path d="M54.2515 1505.8L-24.1836 719.232L-582.715 264.393" stroke="white" stroke-width="1.39" stroke-miterlimit="10"/>
<path d="M38.9253 1515.13L-39.5097 728.568L-597.284 274.351" stroke="white" stroke-width="1.38" stroke-miterlimit="10"/>
<path d="M23.6099 1524.47L-54.8341 737.904L-611.842 284.312" stroke="white" stroke-width="1.36" stroke-miterlimit="10"/>
<path d="M8.28418 1533.81L-70.1509 747.243L-626.408 294.262" stroke="white" stroke-width="1.34" stroke-miterlimit="10"/>
<path d="M-7.04028 1543.14L-85.4753 756.579L-640.966 304.222" stroke="white" stroke-width="1.32" stroke-miterlimit="10"/>
<path d="M-22.3574 1552.48L-100.801 765.916L-655.534 314.181" stroke="white" stroke-width="1.3" stroke-miterlimit="10"/>
<path d="M-37.6816 1561.82L-116.117 775.255L-670.09 324.133" stroke="white" stroke-width="1.29" stroke-miterlimit="10"/>
<path d="M-53.0093 1571.17L-131.442 784.591L-684.658 334.091" stroke="white" stroke-width="1.27" stroke-miterlimit="10"/>
<path d="M-68.3264 1580.5L-146.768 793.927L-699.217 344.052" stroke="white" stroke-width="1.25" stroke-miterlimit="10"/>
<path d="M-83.6506 1589.84L-162.086 803.275L-713.782 354.002" stroke="white" stroke-width="1.23" stroke-miterlimit="10"/>
<path d="M-98.9767 1599.18L-177.412 812.612L-728.342 363.963" stroke="white" stroke-width="1.21" stroke-miterlimit="10"/>
<path d="M-114.301 1608.51L-192.736 821.947L-742.908 373.921" stroke="white" stroke-width="1.2" stroke-miterlimit="10"/>
<path d="M-129.618 1617.85L-208.062 831.284L-757.468 383.882" stroke="white" stroke-width="1.18" stroke-miterlimit="10"/>
<path d="M-144.942 1627.19L-223.377 840.622L-772.032 393.831" stroke="white" stroke-width="1.16" stroke-miterlimit="10"/>
<path d="M-160.268 1636.52L-238.703 849.959L-786.592 403.793" stroke="white" stroke-width="1.14" stroke-miterlimit="10"/>
<path d="M-175.587 1645.87L-254.029 859.296L-801.151 413.754" stroke="white" stroke-width="1.13" stroke-miterlimit="10"/>
<path d="M-190.911 1655.21L-269.353 868.631L-815.718 423.712" stroke="white" stroke-width="1.11" stroke-miterlimit="10"/>
<path d="M-206.237 1664.54L-284.67 877.971L-830.275 433.664" stroke="white" stroke-width="1.09" stroke-miterlimit="10"/>
<path d="M-221.562 1673.88L-299.997 887.316L-844.842 443.622" stroke="white" stroke-width="1.07" stroke-miterlimit="10"/>
<path d="M-236.879 1683.22L-315.323 896.652L-859.402 453.583" stroke="white" stroke-width="1.05" stroke-miterlimit="10"/>
<path d="M-252.203 1692.56L-330.638 905.991L-873.966 463.534" stroke="white" stroke-width="1.04" stroke-miterlimit="10"/>
</g>
</svg>
