<svg width="520" height="600" viewBox="0 0 520 600" fill="none" xmlns="http://www.w3.org/2000/svg">
<mask id="mask0_1854_4262" style="mask-type:alpha" maskUnits="userSpaceOnUse" x="0" y="0" width="523" height="600">
<rect opacity="0.05" width="522.699" height="600" transform="matrix(-1 0 0 1 523 0)" fill="#D9D9D9"/>
</mask>
<g mask="url(#mask0_1854_4262)">
<path d="M-52.2251 -588.302L26.2099 198.263L610.596 674.158" stroke="white" stroke-width="2" stroke-miterlimit="10"/>
<path d="M-36.9097 -597.641L41.5342 188.927L625.154 664.198" stroke="white" stroke-width="1.98" stroke-miterlimit="10"/>
<path d="M-21.5837 -606.977L56.8512 179.588L639.722 654.239" stroke="white" stroke-width="1.96" stroke-miterlimit="10"/>
<path d="M-6.25952 -616.313L72.1755 170.252L654.28 644.278" stroke="white" stroke-width="1.95" stroke-miterlimit="10"/>
<path d="M9.05762 -625.652L87.5015 160.915L668.837 634.326" stroke="white" stroke-width="1.93" stroke-miterlimit="10"/>
<path d="M24.3818 -634.989L102.817 151.577L683.404 624.368" stroke="white" stroke-width="1.91" stroke-miterlimit="10"/>
<path d="M39.708 -644.325L118.143 142.24L697.964 614.407" stroke="white" stroke-width="1.89" stroke-miterlimit="10"/>
<path d="M55.0356 -653.67L133.468 132.904L712.53 604.457" stroke="white" stroke-width="1.87" stroke-miterlimit="10"/>
<path d="M70.3511 -663.009L148.793 123.567L727.096 594.498" stroke="white" stroke-width="1.86" stroke-miterlimit="10"/>
<path d="M85.677 -672.345L164.112 114.22L741.656 584.539" stroke="white" stroke-width="1.84" stroke-miterlimit="10"/>
<path d="M101.001 -681.682L179.436 104.883L756.223 574.579" stroke="white" stroke-width="1.82" stroke-miterlimit="10"/>
<path d="M116.318 -691.021L194.762 95.5471L770.78 564.627" stroke="white" stroke-width="1.8" stroke-miterlimit="10"/>
<path d="M131.643 -700.356L210.078 86.2088L785.338 554.667" stroke="white" stroke-width="1.79" stroke-miterlimit="10"/>
<path d="M146.969 -709.693L225.404 76.8724L799.907 544.708" stroke="white" stroke-width="1.77" stroke-miterlimit="10"/>
<path d="M162.293 -719.029L240.728 67.536L814.465 534.747" stroke="white" stroke-width="1.75" stroke-miterlimit="10"/>
<path d="M177.612 -728.377L256.053 58.1991L829.03 524.797" stroke="white" stroke-width="1.73" stroke-miterlimit="10"/>
<path d="M192.938 -737.713L271.37 48.8613L843.59 514.837" stroke="white" stroke-width="1.71" stroke-miterlimit="10"/>
<path d="M208.262 -747.05L286.695 39.5238L858.157 504.878" stroke="white" stroke-width="1.7" stroke-miterlimit="10"/>
<path d="M223.579 -756.388L302.023 30.1794L872.714 494.927" stroke="white" stroke-width="1.68" stroke-miterlimit="10"/>
<path d="M238.903 -765.725L317.338 20.8406L887.281 484.968" stroke="white" stroke-width="1.66" stroke-miterlimit="10"/>
<path d="M254.229 -775.061L332.664 11.5042L901.841 475.007" stroke="white" stroke-width="1.64" stroke-miterlimit="10"/>
<path d="M269.553 -784.397L347.989 2.16773L916.407 465.048" stroke="white" stroke-width="1.62" stroke-miterlimit="10"/>
<path d="M284.871 -793.736L363.306 -7.1711L930.965 455.096" stroke="white" stroke-width="1.61" stroke-miterlimit="10"/>
<path d="M300.195 -803.073L378.63 -16.5075L945.531 445.138" stroke="white" stroke-width="1.59" stroke-miterlimit="10"/>
<path d="M315.522 -812.418L393.955 -25.8438L960.09 435.177" stroke="white" stroke-width="1.57" stroke-miterlimit="10"/>
<path d="M330.84 -821.757L409.281 -35.1808L974.659 425.218" stroke="white" stroke-width="1.55" stroke-miterlimit="10"/>
<path d="M346.164 -831.093L424.597 -44.5187L989.215 415.267" stroke="white" stroke-width="1.54" stroke-miterlimit="10"/>
<path d="M361.488 -840.43L439.923 -53.8645L1003.78 405.308" stroke="white" stroke-width="1.52" stroke-miterlimit="10"/>
<path d="M376.814 -849.765L455.249 -63.2L1018.34 395.348" stroke="white" stroke-width="1.5" stroke-miterlimit="10"/>
<path d="M392.129 -859.104L470.573 -72.5369L1032.91 385.398" stroke="white" stroke-width="1.48" stroke-miterlimit="10"/>
<path d="M407.456 -868.441L485.891 -81.8756L1047.47 375.436" stroke="white" stroke-width="1.46" stroke-miterlimit="10"/>
<path d="M422.781 -877.777L501.216 -91.2116L1062.03 365.479" stroke="white" stroke-width="1.45" stroke-miterlimit="10"/>
<path d="M438.097 -887.116L516.541 -100.549L1076.59 355.517" stroke="white" stroke-width="1.43" stroke-miterlimit="10"/>
<path d="M453.425 -896.46L531.857 -109.886L1091.16 345.568" stroke="white" stroke-width="1.41" stroke-miterlimit="10"/>
<path d="M468.749 -905.798L547.184 -119.233L1105.72 335.606" stroke="white" stroke-width="1.39" stroke-miterlimit="10"/>
<path d="M484.075 -915.133L562.51 -128.568L1120.28 325.649" stroke="white" stroke-width="1.38" stroke-miterlimit="10"/>
<path d="M499.39 -924.472L577.834 -137.905L1134.84 315.688" stroke="white" stroke-width="1.36" stroke-miterlimit="10"/>
<path d="M514.716 -933.81L593.151 -147.244L1149.41 305.737" stroke="white" stroke-width="1.34" stroke-miterlimit="10"/>
<path d="M530.041 -943.145L608.476 -156.58L1163.97 295.777" stroke="white" stroke-width="1.32" stroke-miterlimit="10"/>
<path d="M545.357 -952.484L623.801 -165.916L1178.53 285.818" stroke="white" stroke-width="1.3" stroke-miterlimit="10"/>
<path d="M560.682 -961.82L639.117 -175.255L1193.09 275.867" stroke="white" stroke-width="1.29" stroke-miterlimit="10"/>
<path d="M576.009 -971.166L654.442 -184.592L1207.66 265.908" stroke="white" stroke-width="1.27" stroke-miterlimit="10"/>
<path d="M591.326 -980.505L669.768 -193.928L1222.22 255.947" stroke="white" stroke-width="1.25" stroke-miterlimit="10"/>
<path d="M606.65 -989.84L685.085 -203.275L1236.78 245.998" stroke="white" stroke-width="1.23" stroke-miterlimit="10"/>
<path d="M621.977 -999.178L700.412 -212.613L1251.34 236.036" stroke="white" stroke-width="1.21" stroke-miterlimit="10"/>
<path d="M637.301 -1008.51L715.736 -221.948L1265.91 226.078" stroke="white" stroke-width="1.2" stroke-miterlimit="10"/>
<path d="M652.618 -1017.85L731.062 -231.284L1280.47 216.117" stroke="white" stroke-width="1.18" stroke-miterlimit="10"/>
<path d="M667.942 -1027.19L746.377 -240.623L1295.03 206.168" stroke="white" stroke-width="1.16" stroke-miterlimit="10"/>
<path d="M683.269 -1036.52L761.704 -249.96L1309.59 196.207" stroke="white" stroke-width="1.14" stroke-miterlimit="10"/>
<path d="M698.587 -1045.87L777.028 -259.297L1324.15 186.245" stroke="white" stroke-width="1.13" stroke-miterlimit="10"/>
<path d="M713.911 -1055.21L792.353 -268.632L1338.72 176.288" stroke="white" stroke-width="1.11" stroke-miterlimit="10"/>
<path d="M729.237 -1064.55L807.67 -277.972L1353.28 166.335" stroke="white" stroke-width="1.09" stroke-miterlimit="10"/>
<path d="M744.562 -1073.88L822.997 -287.316L1367.84 156.377" stroke="white" stroke-width="1.07" stroke-miterlimit="10"/>
<path d="M759.879 -1083.22L838.323 -296.653L1382.4 146.416" stroke="white" stroke-width="1.05" stroke-miterlimit="10"/>
<path d="M775.203 -1092.56L853.638 -305.992L1396.97 136.465" stroke="white" stroke-width="1.04" stroke-miterlimit="10"/>
</g>
</svg>
