<svg width="545" height="628" viewBox="0 0 545 628" fill="none" xmlns="http://www.w3.org/2000/svg">
<mask id="mask0_2102_105" style="mask-type:alpha" maskUnits="userSpaceOnUse" x="0" y="0" width="541" height="620">
<rect opacity="0.05" width="540.123" height="620" transform="matrix(1 0 0 -1 0 620)" fill="#D9D9D9"/>
</mask>
<g mask="url(#mask0_2102_105)">
<path d="M594.399 1227.91L513.349 415.128L-90.5163 -76.6309" stroke="#050D36" stroke-width="2" stroke-miterlimit="10"/>
<path d="M578.576 1237.56L497.517 424.775L-105.557 -66.3378" stroke="#050D36" stroke-width="1.98" stroke-miterlimit="10"/>
<path d="M562.736 1247.21L481.686 434.424L-120.614 -56.0486" stroke="#050D36" stroke-width="1.96" stroke-miterlimit="10"/>
<path d="M546.904 1256.86L465.855 444.074L-135.654 -45.7538" stroke="#050D36" stroke-width="1.95" stroke-miterlimit="10"/>
<path d="M531.073 1266.51L450.014 453.721L-150.7 -35.4707" stroke="#050D36" stroke-width="1.93" stroke-miterlimit="10"/>
<path d="M515.241 1276.15L434.192 463.371L-165.749 -25.18" stroke="#050D36" stroke-width="1.91" stroke-miterlimit="10"/>
<path d="M499.401 1285.8L418.352 473.018L-180.797 -14.8875" stroke="#050D36" stroke-width="1.89" stroke-miterlimit="10"/>
<path d="M483.563 1295.46L402.516 482.666L-195.847 -4.60563" stroke="#050D36" stroke-width="1.87" stroke-miterlimit="10"/>
<path d="M467.737 1305.11L386.681 492.313L-210.9 5.68418" stroke="#050D36" stroke-width="1.86" stroke-miterlimit="10"/>
<path d="M451.9 1314.76L370.851 501.973L-225.945 15.978" stroke="#050D36" stroke-width="1.84" stroke-miterlimit="10"/>
<path d="M436.065 1324.4L355.016 511.62L-240.997 26.2676" stroke="#050D36" stroke-width="1.82" stroke-miterlimit="10"/>
<path d="M420.24 1334.05L339.181 521.267L-256.038 36.5511" stroke="#050D36" stroke-width="1.8" stroke-miterlimit="10"/>
<path d="M404.402 1343.7L323.353 530.918L-271.083 46.8443" stroke="#050D36" stroke-width="1.79" stroke-miterlimit="10"/>
<path d="M388.566 1353.35L307.517 540.565L-286.136 57.1344" stroke="#050D36" stroke-width="1.77" stroke-miterlimit="10"/>
<path d="M372.731 1363L291.681 550.213L-301.18 67.4283" stroke="#050D36" stroke-width="1.75" stroke-miterlimit="10"/>
<path d="M356.901 1372.66L275.845 559.86L-316.231 77.7087" stroke="#050D36" stroke-width="1.73" stroke-miterlimit="10"/>
<path d="M341.064 1382.3L260.017 569.511L-331.276 88.0021" stroke="#050D36" stroke-width="1.71" stroke-miterlimit="10"/>
<path d="M325.23 1391.95L244.183 579.157L-346.328 98.2917" stroke="#050D36" stroke-width="1.7" stroke-miterlimit="10"/>
<path d="M309.401 1401.6L228.343 588.814L-361.371 108.575" stroke="#050D36" stroke-width="1.68" stroke-miterlimit="10"/>
<path d="M293.567 1411.25L212.517 598.465L-376.423 118.867" stroke="#050D36" stroke-width="1.66" stroke-miterlimit="10"/>
<path d="M277.73 1420.9L196.681 608.113L-391.468 129.16" stroke="#050D36" stroke-width="1.64" stroke-miterlimit="10"/>
<path d="M261.896 1430.54L180.846 617.76L-406.52 139.45" stroke="#050D36" stroke-width="1.62" stroke-miterlimit="10"/>
<path d="M246.067 1440.19L165.018 627.41L-421.563 149.734" stroke="#050D36" stroke-width="1.61" stroke-miterlimit="10"/>
<path d="M230.232 1449.84L149.183 637.057L-436.615 160.024" stroke="#050D36" stroke-width="1.59" stroke-miterlimit="10"/>
<path d="M214.395 1459.5L133.348 646.705L-451.659 170.317" stroke="#050D36" stroke-width="1.57" stroke-miterlimit="10"/>
<path d="M198.566 1469.15L117.51 656.352L-466.713 180.607" stroke="#050D36" stroke-width="1.55" stroke-miterlimit="10"/>
<path d="M182.731 1478.8L101.684 666.003L-481.754 190.892" stroke="#050D36" stroke-width="1.54" stroke-miterlimit="10"/>
<path d="M166.896 1488.44L85.847 675.66L-496.806 201.182" stroke="#050D36" stroke-width="1.52" stroke-miterlimit="10"/>
<path d="M151.06 1498.09L70.0107 685.307L-511.851 211.475" stroke="#050D36" stroke-width="1.5" stroke-miterlimit="10"/>
<path d="M135.233 1507.74L54.1747 694.955L-526.902 221.756" stroke="#050D36" stroke-width="1.48" stroke-miterlimit="10"/>
<path d="M119.397 1517.39L38.3474 704.604L-541.947 232.048" stroke="#050D36" stroke-width="1.46" stroke-miterlimit="10"/>
<path d="M103.561 1527.04L22.5109 714.252L-557 242.339" stroke="#050D36" stroke-width="1.45" stroke-miterlimit="10"/>
<path d="M87.7344 1536.69L6.67566 723.9L-572.044 252.632" stroke="#050D36" stroke-width="1.43" stroke-miterlimit="10"/>
<path d="M71.8955 1546.34L-9.15159 733.55L-587.095 262.913" stroke="#050D36" stroke-width="1.41" stroke-miterlimit="10"/>
<path d="M56.0605 1555.99L-24.989 743.206L-602.138 273.206" stroke="#050D36" stroke-width="1.39" stroke-miterlimit="10"/>
<path d="M40.2246 1565.64L-40.8248 752.854L-617.191 283.496" stroke="#050D36" stroke-width="1.38" stroke-miterlimit="10"/>
<path d="M24.3984 1575.29L-56.6603 762.502L-632.235 293.79" stroke="#050D36" stroke-width="1.36" stroke-miterlimit="10"/>
<path d="M8.56152 1584.94L-72.488 772.152L-647.287 304.072" stroke="#050D36" stroke-width="1.34" stroke-miterlimit="10"/>
<path d="M-7.27344 1594.58L-88.323 781.8L-662.33 314.364" stroke="#050D36" stroke-width="1.32" stroke-miterlimit="10"/>
<path d="M-23.1016 1604.23L-104.16 791.447L-677.384 324.654" stroke="#050D36" stroke-width="1.3" stroke-miterlimit="10"/>
<path d="M-38.9365 1613.88L-119.986 801.097L-692.425 334.938" stroke="#050D36" stroke-width="1.29" stroke-miterlimit="10"/>
<path d="M-54.7773 1623.54L-135.824 810.744L-707.48 345.228" stroke="#050D36" stroke-width="1.27" stroke-miterlimit="10"/>
<path d="M-70.6025 1633.19L-151.659 820.392L-722.524 355.521" stroke="#050D36" stroke-width="1.25" stroke-miterlimit="10"/>
<path d="M-86.4375 1642.84L-167.487 830.052L-737.573 365.803" stroke="#050D36" stroke-width="1.23" stroke-miterlimit="10"/>
<path d="M-102.274 1652.48L-183.324 839.699L-752.618 376.096" stroke="#050D36" stroke-width="1.21" stroke-miterlimit="10"/>
<path d="M-118.112 1662.13L-199.162 849.346L-767.673 386.386" stroke="#050D36" stroke-width="1.2" stroke-miterlimit="10"/>
<path d="M-133.938 1671.78L-214.996 858.993L-782.716 396.678" stroke="#050D36" stroke-width="1.18" stroke-miterlimit="10"/>
<path d="M-149.771 1681.43L-230.821 868.643L-797.765 406.959" stroke="#050D36" stroke-width="1.16" stroke-miterlimit="10"/>
<path d="M-165.608 1691.08L-246.658 878.291L-812.81 417.253" stroke="#050D36" stroke-width="1.14" stroke-miterlimit="10"/>
<path d="M-181.438 1700.73L-262.495 887.939L-827.855 427.546" stroke="#050D36" stroke-width="1.13" stroke-miterlimit="10"/>
<path d="M-197.273 1710.38L-278.33 897.586L-842.907 437.836" stroke="#050D36" stroke-width="1.11" stroke-miterlimit="10"/>
<path d="M-213.113 1720.03L-294.16 907.237L-857.952 448.12" stroke="#050D36" stroke-width="1.09" stroke-miterlimit="10"/>
<path d="M-228.947 1729.68L-309.997 916.893L-873.004 458.41" stroke="#050D36" stroke-width="1.07" stroke-miterlimit="10"/>
<path d="M-244.775 1739.33L-325.834 926.541L-888.049 468.704" stroke="#050D36" stroke-width="1.05" stroke-miterlimit="10"/>
<path d="M-260.607 1748.98L-341.657 936.191L-903.096 478.985" stroke="#050D36" stroke-width="1.04" stroke-miterlimit="10"/>
</g>
</svg>
