<svg width="547" height="628" viewBox="0 0 547 628" fill="none" xmlns="http://www.w3.org/2000/svg">
<mask id="mask0_2102_105" style="mask-type:alpha" maskUnits="userSpaceOnUse" x="0" y="0" width="543" height="620">
<rect opacity="0.05" width="542.749" height="620" fill="#D9D9D9"/>
</mask>
<g mask="url(#mask0_2102_105)">
<path d="M597.289 -607.912L515.845 204.872L-90.9566 696.631" stroke="#050D36" stroke-width="2" stroke-miterlimit="10"/>
<path d="M581.389 -617.562L499.936 195.224L-106.07 686.337" stroke="#050D36" stroke-width="1.98" stroke-miterlimit="10"/>
<path d="M565.472 -627.209L484.029 185.575L-121.2 676.048" stroke="#050D36" stroke-width="1.96" stroke-miterlimit="10"/>
<path d="M549.564 -636.858L468.121 175.925L-136.312 665.753" stroke="#050D36" stroke-width="1.95" stroke-miterlimit="10"/>
<path d="M533.655 -646.507L452.202 166.279L-151.432 655.47" stroke="#050D36" stroke-width="1.93" stroke-miterlimit="10"/>
<path d="M517.746 -656.154L436.302 156.63L-166.555 645.18" stroke="#050D36" stroke-width="1.91" stroke-miterlimit="10"/>
<path d="M501.83 -665.802L420.386 146.982L-181.675 634.888" stroke="#050D36" stroke-width="1.89" stroke-miterlimit="10"/>
<path d="M485.915 -675.459L404.473 137.334L-196.799 624.606" stroke="#050D36" stroke-width="1.87" stroke-miterlimit="10"/>
<path d="M470.011 -685.109L388.56 127.687L-211.926 614.316" stroke="#050D36" stroke-width="1.86" stroke-miterlimit="10"/>
<path d="M454.098 -694.757L372.654 118.027L-227.043 604.022" stroke="#050D36" stroke-width="1.84" stroke-miterlimit="10"/>
<path d="M438.187 -704.404L356.743 108.38L-242.168 593.732" stroke="#050D36" stroke-width="1.82" stroke-miterlimit="10"/>
<path d="M422.284 -714.054L340.831 98.7323L-257.282 583.449" stroke="#050D36" stroke-width="1.8" stroke-miterlimit="10"/>
<path d="M406.368 -723.702L324.925 89.0819L-272.401 573.155" stroke="#050D36" stroke-width="1.79" stroke-miterlimit="10"/>
<path d="M390.456 -733.349L309.012 79.4357L-287.527 562.866" stroke="#050D36" stroke-width="1.77" stroke-miterlimit="10"/>
<path d="M374.543 -742.997L293.099 69.7873L-302.645 552.572" stroke="#050D36" stroke-width="1.75" stroke-miterlimit="10"/>
<path d="M358.637 -752.656L277.187 60.1398L-317.768 542.291" stroke="#050D36" stroke-width="1.73" stroke-miterlimit="10"/>
<path d="M342.723 -762.303L261.281 50.4896L-332.888 531.998" stroke="#050D36" stroke-width="1.71" stroke-miterlimit="10"/>
<path d="M326.812 -771.951L245.37 40.8421L-348.012 521.708" stroke="#050D36" stroke-width="1.7" stroke-miterlimit="10"/>
<path d="M310.906 -781.601L229.453 31.1852L-363.129 511.424" stroke="#050D36" stroke-width="1.68" stroke-miterlimit="10"/>
<path d="M294.994 -791.249L213.551 21.5355L-378.254 501.134" stroke="#050D36" stroke-width="1.66" stroke-miterlimit="10"/>
<path d="M279.081 -800.896L197.637 11.8876L-393.371 490.84" stroke="#050D36" stroke-width="1.64" stroke-miterlimit="10"/>
<path d="M263.168 -810.544L181.725 2.24033L-408.497 480.55" stroke="#050D36" stroke-width="1.62" stroke-miterlimit="10"/>
<path d="M247.264 -820.194L165.821 -7.40981L-423.613 470.266" stroke="#050D36" stroke-width="1.61" stroke-miterlimit="10"/>
<path d="M231.352 -829.841L149.908 -17.0565L-438.738 459.977" stroke="#050D36" stroke-width="1.59" stroke-miterlimit="10"/>
<path d="M215.438 -839.498L133.996 -26.7049L-453.854 449.683" stroke="#050D36" stroke-width="1.57" stroke-miterlimit="10"/>
<path d="M199.532 -849.148L118.082 -36.3524L-468.983 439.393" stroke="#050D36" stroke-width="1.55" stroke-miterlimit="10"/>
<path d="M183.619 -858.796L102.178 -46.0029L-484.097 429.108" stroke="#050D36" stroke-width="1.54" stroke-miterlimit="10"/>
<path d="M167.708 -868.444L86.2644 -55.6597L-499.222 418.818" stroke="#050D36" stroke-width="1.52" stroke-miterlimit="10"/>
<path d="M151.795 -878.091L70.3514 -65.3072L-514.339 408.525" stroke="#050D36" stroke-width="1.5" stroke-miterlimit="10"/>
<path d="M135.891 -887.741L54.4382 -74.9543L-529.464 398.245" stroke="#050D36" stroke-width="1.48" stroke-miterlimit="10"/>
<path d="M119.977 -897.389L38.5334 -84.6043L-544.582 387.952" stroke="#050D36" stroke-width="1.46" stroke-miterlimit="10"/>
<path d="M104.064 -907.036L22.6207 -94.2524L-559.709 377.661" stroke="#050D36" stroke-width="1.45" stroke-miterlimit="10"/>
<path d="M88.1606 -916.686L6.70775 -103.9L-574.826 367.368" stroke="#050D36" stroke-width="1.43" stroke-miterlimit="10"/>
<path d="M72.2456 -926.343L-9.1956 -113.55L-589.949 357.087" stroke="#050D36" stroke-width="1.41" stroke-miterlimit="10"/>
<path d="M56.333 -935.991L-25.1106 -123.207L-605.066 346.794" stroke="#050D36" stroke-width="1.39" stroke-miterlimit="10"/>
<path d="M40.4209 -945.638L-41.0227 -132.854L-620.192 336.504" stroke="#050D36" stroke-width="1.38" stroke-miterlimit="10"/>
<path d="M24.5171 -955.288L-56.9359 -142.502L-635.309 326.21" stroke="#050D36" stroke-width="1.36" stroke-miterlimit="10"/>
<path d="M8.60254 -964.936L-72.8412 -152.152L-650.435 315.928" stroke="#050D36" stroke-width="1.34" stroke-miterlimit="10"/>
<path d="M-7.30859 -974.584L-88.7522 -161.8L-665.55 305.636" stroke="#050D36" stroke-width="1.32" stroke-miterlimit="10"/>
<path d="M-23.2144 -984.234L-104.667 -171.447L-680.678 295.346" stroke="#050D36" stroke-width="1.3" stroke-miterlimit="10"/>
<path d="M-39.1255 -993.881L-120.569 -181.097L-695.791 285.062" stroke="#050D36" stroke-width="1.29" stroke-miterlimit="10"/>
<path d="M-55.0439 -1003.54L-136.485 -190.745L-710.921 274.772" stroke="#050D36" stroke-width="1.27" stroke-miterlimit="10"/>
<path d="M-70.9453 -1013.19L-152.396 -200.392L-726.036 264.478" stroke="#050D36" stroke-width="1.25" stroke-miterlimit="10"/>
<path d="M-86.8579 -1022.84L-168.302 -210.052L-741.16 254.197" stroke="#050D36" stroke-width="1.23" stroke-miterlimit="10"/>
<path d="M-102.772 -1032.48L-184.216 -219.699L-756.279 243.904" stroke="#050D36" stroke-width="1.21" stroke-miterlimit="10"/>
<path d="M-118.687 -1042.13L-200.13 -229.347L-771.406 233.614" stroke="#050D36" stroke-width="1.2" stroke-miterlimit="10"/>
<path d="M-134.588 -1051.78L-216.041 -238.994L-786.521 223.322" stroke="#050D36" stroke-width="1.18" stroke-miterlimit="10"/>
<path d="M-150.5 -1061.43L-231.943 -248.643L-801.643 213.041" stroke="#050D36" stroke-width="1.16" stroke-miterlimit="10"/>
<path d="M-166.414 -1071.08L-247.858 -258.291L-816.763 202.747" stroke="#050D36" stroke-width="1.14" stroke-miterlimit="10"/>
<path d="M-182.32 -1080.73L-263.771 -267.939L-831.88 192.455" stroke="#050D36" stroke-width="1.13" stroke-miterlimit="10"/>
<path d="M-198.233 -1090.38L-279.683 -277.586L-847.006 182.164" stroke="#050D36" stroke-width="1.11" stroke-miterlimit="10"/>
<path d="M-214.149 -1100.03L-295.591 -287.236L-862.124 171.88" stroke="#050D36" stroke-width="1.09" stroke-miterlimit="10"/>
<path d="M-230.061 -1109.68L-311.504 -296.893L-877.248 161.59" stroke="#050D36" stroke-width="1.07" stroke-miterlimit="10"/>
<path d="M-245.965 -1119.33L-327.418 -306.542L-892.367 151.296" stroke="#050D36" stroke-width="1.05" stroke-miterlimit="10"/>
<path d="M-261.875 -1128.98L-343.319 -316.192L-907.488 141.015" stroke="#050D36" stroke-width="1.04" stroke-miterlimit="10"/>
</g>
</svg>
