<svg width="540" height="620" viewBox="0 0 540 620" fill="none" xmlns="http://www.w3.org/2000/svg">
<mask id="mask0_2102_45" style="mask-type:alpha" maskUnits="userSpaceOnUse" x="0" y="0" width="541" height="620">
<rect opacity="0.05" width="540.123" height="620" transform="matrix(-1 0 0 1 540.246 0)" fill="#D9D9D9"/>
</mask>
<g mask="url(#mask0_2102_45)">
<path d="M-54.1519 -607.913L26.8978 204.871L630.763 696.629" stroke="#050D36" stroke-width="2" stroke-miterlimit="10"/>
<path d="M-38.3286 -617.562L42.7301 195.224L645.804 686.337" stroke="#050D36" stroke-width="1.98" stroke-miterlimit="10"/>
<path d="M-22.4888 -627.209L58.5607 185.575L660.861 676.048" stroke="#050D36" stroke-width="1.96" stroke-miterlimit="10"/>
<path d="M-6.65723 -636.858L74.3924 175.925L675.901 665.753" stroke="#050D36" stroke-width="1.95" stroke-miterlimit="10"/>
<path d="M9.17432 -646.508L90.2331 166.279L690.947 655.47" stroke="#050D36" stroke-width="1.93" stroke-miterlimit="10"/>
<path d="M25.0059 -656.156L106.055 156.628L705.996 645.179" stroke="#050D36" stroke-width="1.91" stroke-miterlimit="10"/>
<path d="M40.8457 -665.803L121.895 146.981L721.044 634.886" stroke="#050D36" stroke-width="1.89" stroke-miterlimit="10"/>
<path d="M56.6836 -675.46L137.731 137.333L736.094 624.605" stroke="#050D36" stroke-width="1.87" stroke-miterlimit="10"/>
<path d="M72.5103 -685.11L153.566 127.685L751.147 614.314" stroke="#050D36" stroke-width="1.86" stroke-miterlimit="10"/>
<path d="M88.3467 -694.758L169.396 118.026L766.192 604.021" stroke="#050D36" stroke-width="1.84" stroke-miterlimit="10"/>
<path d="M104.182 -704.405L185.231 108.379L781.244 593.731" stroke="#050D36" stroke-width="1.82" stroke-miterlimit="10"/>
<path d="M120.007 -714.055L201.066 98.7317L796.285 583.448" stroke="#050D36" stroke-width="1.8" stroke-miterlimit="10"/>
<path d="M135.845 -723.703L216.894 89.0814L811.33 573.155" stroke="#050D36" stroke-width="1.79" stroke-miterlimit="10"/>
<path d="M151.681 -733.351L232.73 79.4337L826.383 562.864" stroke="#050D36" stroke-width="1.77" stroke-miterlimit="10"/>
<path d="M167.516 -742.998L248.566 69.7858L841.427 552.571" stroke="#050D36" stroke-width="1.75" stroke-miterlimit="10"/>
<path d="M183.346 -752.657L264.402 60.1388L856.478 542.29" stroke="#050D36" stroke-width="1.73" stroke-miterlimit="10"/>
<path d="M199.183 -762.304L280.23 50.4887L871.524 531.997" stroke="#050D36" stroke-width="1.71" stroke-miterlimit="10"/>
<path d="M215.017 -771.952L296.064 40.8413L886.575 521.707" stroke="#050D36" stroke-width="1.7" stroke-miterlimit="10"/>
<path d="M230.846 -781.602L311.904 31.1847L901.619 511.423" stroke="#050D36" stroke-width="1.68" stroke-miterlimit="10"/>
<path d="M246.68 -791.25L327.73 21.5342L916.67 501.133" stroke="#050D36" stroke-width="1.66" stroke-miterlimit="10"/>
<path d="M262.517 -800.897L343.566 11.8864L931.715 490.839" stroke="#050D36" stroke-width="1.64" stroke-miterlimit="10"/>
<path d="M278.352 -810.545L359.401 2.23932L946.767 480.549" stroke="#050D36" stroke-width="1.62" stroke-miterlimit="10"/>
<path d="M294.18 -820.195L375.229 -7.41102L961.81 470.265" stroke="#050D36" stroke-width="1.61" stroke-miterlimit="10"/>
<path d="M310.015 -829.842L391.064 -17.0581L976.862 459.975" stroke="#050D36" stroke-width="1.59" stroke-miterlimit="10"/>
<path d="M325.853 -839.499L406.9 -26.7056L991.906 449.683" stroke="#050D36" stroke-width="1.57" stroke-miterlimit="10"/>
<path d="M341.681 -849.149L422.737 -36.3531L1006.96 439.392" stroke="#050D36" stroke-width="1.55" stroke-miterlimit="10"/>
<path d="M357.516 -858.797L438.563 -46.004L1022 429.108" stroke="#050D36" stroke-width="1.54" stroke-miterlimit="10"/>
<path d="M373.351 -868.445L454.4 -55.661L1037.05 418.817" stroke="#050D36" stroke-width="1.52" stroke-miterlimit="10"/>
<path d="M389.187 -878.092L470.236 -65.308L1052.1 408.525" stroke="#050D36" stroke-width="1.5" stroke-miterlimit="10"/>
<path d="M405.014 -887.742L486.072 -74.9553L1067.15 398.244" stroke="#050D36" stroke-width="1.48" stroke-miterlimit="10"/>
<path d="M420.85 -897.389L501.9 -84.6051L1082.19 387.951" stroke="#050D36" stroke-width="1.46" stroke-miterlimit="10"/>
<path d="M436.687 -907.037L517.736 -94.2532L1097.25 377.66" stroke="#050D36" stroke-width="1.45" stroke-miterlimit="10"/>
<path d="M452.514 -916.688L533.572 -103.901L1112.29 367.367" stroke="#050D36" stroke-width="1.43" stroke-miterlimit="10"/>
<path d="M468.352 -926.344L549.399 -113.551L1127.34 357.086" stroke="#050D36" stroke-width="1.41" stroke-miterlimit="10"/>
<path d="M484.187 -935.991L565.236 -123.207L1142.39 346.793" stroke="#050D36" stroke-width="1.39" stroke-miterlimit="10"/>
<path d="M500.022 -945.639L581.072 -132.855L1157.44 336.503" stroke="#050D36" stroke-width="1.38" stroke-miterlimit="10"/>
<path d="M515.85 -955.29L596.908 -142.503L1172.48 326.209" stroke="#050D36" stroke-width="1.36" stroke-miterlimit="10"/>
<path d="M531.686 -964.937L612.735 -152.153L1187.53 315.928" stroke="#050D36" stroke-width="1.34" stroke-miterlimit="10"/>
<path d="M547.521 -974.584L628.57 -161.8L1202.58 305.635" stroke="#050D36" stroke-width="1.32" stroke-miterlimit="10"/>
<path d="M563.349 -984.234L644.407 -171.448L1217.63 295.345" stroke="#050D36" stroke-width="1.3" stroke-miterlimit="10"/>
<path d="M579.184 -993.882L660.233 -181.098L1232.67 285.061" stroke="#050D36" stroke-width="1.29" stroke-miterlimit="10"/>
<path d="M595.025 -1003.54L676.072 -190.745L1247.73 274.771" stroke="#050D36" stroke-width="1.27" stroke-miterlimit="10"/>
<path d="M610.85 -1013.19L691.906 -200.393L1262.77 264.478" stroke="#050D36" stroke-width="1.25" stroke-miterlimit="10"/>
<path d="M626.685 -1022.84L707.734 -210.053L1277.82 254.196" stroke="#050D36" stroke-width="1.23" stroke-miterlimit="10"/>
<path d="M642.521 -1032.48L723.571 -219.7L1292.87 243.904" stroke="#050D36" stroke-width="1.21" stroke-miterlimit="10"/>
<path d="M658.359 -1042.13L739.409 -229.347L1307.92 233.613" stroke="#050D36" stroke-width="1.2" stroke-miterlimit="10"/>
<path d="M674.185 -1051.78L755.243 -238.995L1322.96 223.321" stroke="#050D36" stroke-width="1.18" stroke-miterlimit="10"/>
<path d="M690.02 -1061.43L771.069 -248.644L1338.01 213.04" stroke="#050D36" stroke-width="1.16" stroke-miterlimit="10"/>
<path d="M705.855 -1071.08L786.905 -258.292L1353.06 202.746" stroke="#050D36" stroke-width="1.14" stroke-miterlimit="10"/>
<path d="M721.686 -1080.74L802.742 -267.94L1368.1 192.453" stroke="#050D36" stroke-width="1.13" stroke-miterlimit="10"/>
<path d="M737.521 -1090.38L818.577 -277.587L1383.15 182.163" stroke="#050D36" stroke-width="1.11" stroke-miterlimit="10"/>
<path d="M753.36 -1100.03L834.407 -287.237L1398.2 171.879" stroke="#050D36" stroke-width="1.09" stroke-miterlimit="10"/>
<path d="M769.194 -1109.68L850.244 -296.894L1413.25 161.589" stroke="#050D36" stroke-width="1.07" stroke-miterlimit="10"/>
<path d="M785.023 -1119.33L866.082 -306.542L1428.3 151.295" stroke="#050D36" stroke-width="1.05" stroke-miterlimit="10"/>
<path d="M800.854 -1128.98L881.904 -316.192L1443.34 141.014" stroke="#050D36" stroke-width="1.04" stroke-miterlimit="10"/>
</g>
</svg>
