<svg width="132" height="51" viewBox="0 0 132 51" fill="none" xmlns="http://www.w3.org/2000/svg">
<path d="M101.429 7.73287C80.6852 -2.12066 40.7981 -0.453637 20.3238 8.16871C10.9993 12.0956 -6.19479 23.4739 4.2679 34.2165C6.11325 36.1113 8.35635 37.6506 10.6771 38.9826C36.2182 53.6411 71.8413 52.1483 99.2526 43.3773C103.341 42.0692 107.363 40.5164 111.065 38.4058C113.833 36.8273 116.509 34.8707 118.664 32.5875C124.974 25.9033 123.326 19.1765 116.537 13.5098C108.666 6.93959 97.9015 4.90353 87.745 3.78846C78.8637 2.81344 69.9934 2.62621 61.0702 3.02415C44.3352 3.77034 25.0493 4.95768 11.0136 13.9403C4.88321 17.8638 -1.70313 26.2476 3.55174 33.0331C9.24607 40.386 22.6727 42.7668 31.7035 44.3184C56.0659 48.5043 94.6139 46.4287 116.805 35.4444C119.198 34.2598 121.622 33.1559 123.763 31.5983C125.454 30.3675 127.074 28.9641 128.479 27.4452C138.435 16.6816 116.218 9.91385 108.383 8.75162C83.734 5.09542 47.2524 -0.180852 24.552 9.54533" stroke="url(#paint0_linear_2208_956)" stroke-width="2" stroke-miterlimit="1.5" stroke-linecap="round" stroke-linejoin="round"/>
<defs>
<linearGradient id="paint0_linear_2208_956" x1="1" y1="1" x2="135.391" y2="22.3259" gradientUnits="userSpaceOnUse">
<stop stop-color="#FF5C65"/>
<stop offset="0.53125" stop-color="#FD008B"/>
<stop offset="1" stop-color="#6500FC"/>
</linearGradient>
</defs>
</svg>
