<svg width="180" height="52" viewBox="0 0 180 52" fill="none" xmlns="http://www.w3.org/2000/svg">
<path d="M138.51 7.87028C110.107 -2.18435 55.4927 -0.483303 27.4588 8.31501C14.6914 12.3221 -8.85133 23.9326 5.47451 34.8944C8.00122 36.8279 11.0725 38.3986 14.2502 39.7578C49.2218 54.7154 97.9981 53.1921 135.53 44.2422C141.128 42.9074 146.636 41.3228 151.704 39.1692C155.494 37.5584 159.158 35.562 162.11 33.2321C170.75 26.4115 168.493 19.5475 159.197 13.7651C148.419 7.06081 133.681 4.98319 119.774 3.84537C107.613 2.85045 95.468 2.6594 83.25 3.06546C60.336 3.82688 33.9291 5.03845 14.711 14.2044C6.31701 18.2079 -2.70121 26.7629 4.49392 33.6869C12.2908 41.1897 30.6749 43.6192 43.0401 45.2025C76.3979 49.4737 129.179 47.3558 159.564 36.1473C162.84 34.9386 166.16 33.8122 169.091 32.2227C171.407 30.9668 173.624 29.5348 175.548 27.9849C189.181 17.0016 158.76 10.0958 148.032 8.90982C114.282 5.179 64.3302 -0.204951 33.2481 9.71972" stroke="url(#paint0_linear_2172_3471)" stroke-width="2" stroke-miterlimit="1.5" stroke-linecap="round" stroke-linejoin="round"/>
<defs>
<linearGradient id="paint0_linear_2172_3471" x1="1" y1="1" x2="181.464" y2="39.4265" gradientUnits="userSpaceOnUse">
<stop stop-color="#FF5C65"/>
<stop offset="0.53125" stop-color="#FD008B"/>
<stop offset="1" stop-color="#6500FC"/>
</linearGradient>
</defs>
</svg>
