<svg width="127" height="52" viewBox="0 0 127 52" fill="none" xmlns="http://www.w3.org/2000/svg">
<path d="M96.9223 7.87028C77.1096 -2.18435 39.0123 -0.483303 19.4567 8.31501C10.5506 12.3221 -5.87195 23.9326 4.12126 34.8944C5.88381 36.8279 8.02626 38.3986 10.2429 39.7578C34.6379 54.7154 68.6625 53.1921 94.8438 44.2422C98.7485 42.9074 102.591 41.3228 106.126 39.1692C108.77 37.5584 111.326 35.562 113.385 33.2321C119.411 26.4115 117.837 19.5475 111.353 13.7651C103.834 7.06081 93.5533 4.98319 83.8526 3.84537C75.3699 2.85045 66.8976 2.6594 58.3748 3.06546C42.3907 3.82688 23.9702 5.03845 10.5643 14.2044C4.70896 18.2079 -1.58184 26.7629 3.43724 33.6869C8.87605 41.1897 21.7002 43.6192 30.3258 45.2025C53.595 49.4737 90.4133 47.3558 111.609 36.1473C113.894 34.9386 116.21 33.8122 118.254 32.2227C119.87 30.9668 121.417 29.5348 122.759 27.9849C132.268 17.0016 111.048 10.0958 103.564 8.90982C80.0216 5.179 45.1769 -0.204951 23.4952 9.71972" stroke="url(#paint0_linear_2162_232)" stroke-width="2" stroke-miterlimit="1.5" stroke-linecap="round" stroke-linejoin="round"/>
<defs>
<linearGradient id="paint0_linear_2162_232" x1="1" y1="1" x2="129.753" y2="20.1241" gradientUnits="userSpaceOnUse">
<stop stop-color="#FF5C65"/>
<stop offset="0.53125" stop-color="#FD008B"/>
<stop offset="1" stop-color="#6500FC"/>
</linearGradient>
</defs>
</svg>
