<svg width="103" height="35" viewBox="0 0 103 35" fill="none" xmlns="http://www.w3.org/2000/svg">
<path d="M79.0254 5.50583C62.9093 -1.08844 31.92 0.0271846 16.0131 5.7975C8.7687 8.4255 -4.5898 16.0402 3.53891 23.2294C4.9726 24.4975 6.71532 25.5277 8.51838 26.4191C28.3618 36.229 56.0382 35.2299 77.3347 29.3601C80.5109 28.4847 83.6362 27.4455 86.5117 26.033C88.6623 24.9766 90.7414 23.6673 92.4162 22.1392C97.3186 17.666 96.038 13.1642 90.7634 9.37189C84.6479 4.97494 76.285 3.61235 68.3942 2.86612C61.4941 2.21361 54.6026 2.08831 47.6699 2.35462C34.6682 2.85399 19.6845 3.64859 8.77982 9.66002C4.01695 12.2857 -1.10013 17.8964 2.9825 22.4375C7.40656 27.3582 17.838 28.9516 24.8542 29.9899C43.782 32.7912 73.7308 31.4022 90.9716 24.0512C92.8307 23.2584 94.7142 22.5197 96.3773 21.4772C97.6914 20.6536 98.9497 19.7144 100.041 18.6979C107.777 11.4945 90.5157 6.9654 84.4282 6.18761C65.278 3.74077 36.9345 0.20974 19.2981 6.71878" stroke="url(#paint0_linear_2206_811)" stroke-width="2" stroke-miterlimit="1.5" stroke-linecap="round" stroke-linejoin="round"/>
<defs>
<linearGradient id="paint0_linear_2206_811" x1="1" y1="1" x2="104.528" y2="20.072" gradientUnits="userSpaceOnUse">
<stop stop-color="#FF5C65"/>
<stop offset="0.53125" stop-color="#FD008B"/>
<stop offset="1" stop-color="#6500FC"/>
</linearGradient>
</defs>
</svg>
