<svg width="146" height="52" viewBox="0 0 146 52" fill="none" xmlns="http://www.w3.org/2000/svg">
<path d="M112.244 7.87028C89.2667 -2.18435 45.084 -0.483303 22.4048 8.31501C12.0762 12.3221 -6.96961 23.9326 4.61983 34.8944C6.66391 36.8279 9.14858 38.3986 11.7193 39.7578C40.0109 54.7154 79.4704 53.1921 109.834 44.2422C114.362 42.9074 118.818 41.3228 122.918 39.1692C125.984 37.5584 128.948 35.562 131.336 33.2321C138.326 26.4115 136.5 19.5475 128.979 13.7651C120.26 7.06081 108.337 4.98319 97.0867 3.84537C87.2491 2.85045 77.4235 2.6594 67.5393 3.06546C49.0021 3.82688 27.6392 5.03845 12.092 14.2044C5.3014 18.2079 -1.99424 26.7629 3.82654 33.6869C10.1341 41.1897 25.0066 43.6192 35.01 45.2025C61.9961 49.4737 104.695 47.3558 129.276 36.1473C131.927 34.9386 134.612 33.8122 136.984 32.2227C138.857 30.9668 140.651 29.5348 142.207 27.9849C153.236 17.0016 128.626 10.0958 119.947 8.90982C92.6439 5.179 52.2334 -0.204951 27.0884 9.71972" stroke="url(#paint0_linear_2169_575)" stroke-width="2" stroke-miterlimit="1.5" stroke-linecap="round" stroke-linejoin="round"/>
<defs>
<linearGradient id="paint0_linear_2169_575" x1="1" y1="1" x2="149.215" y2="26.5314" gradientUnits="userSpaceOnUse">
<stop stop-color="#FF5C65"/>
<stop offset="0.53125" stop-color="#FD008B"/>
<stop offset="1" stop-color="#6500FC"/>
</linearGradient>
</defs>
</svg>
