<svg width="153" height="52" viewBox="0 0 153 52" fill="none" xmlns="http://www.w3.org/2000/svg">
<path d="M117.652 7.73644C93.5574 -2.12232 47.227 -0.454407 23.4454 8.1725C12.6146 12.1015 -7.35702 23.4859 4.79579 34.2341C6.93924 36.1299 9.54469 37.6701 12.2403 39.0028C41.9073 53.669 83.2849 52.1754 115.124 43.3998C119.873 42.091 124.545 40.5373 128.844 38.4256C132.059 36.8462 135.168 34.8887 137.672 32.6042C145.001 25.9165 143.087 19.1862 135.201 13.5164C126.058 6.94274 113.555 4.9056 101.758 3.78994C91.4417 2.8144 81.1385 2.62707 70.7739 3.02522C51.3356 3.77181 28.9342 4.95978 12.6312 13.9472C5.5105 17.8727 -2.13979 26.261 3.96394 33.0501C10.5781 40.4068 26.1736 42.789 36.6633 44.3414C64.9612 48.5294 109.736 46.4528 135.512 35.4626C138.291 34.2775 141.107 33.173 143.594 31.6145C145.559 30.3831 147.44 28.9789 149.072 27.4593C160.636 16.6899 134.83 9.91858 125.729 8.75573C97.0988 5.09759 54.7239 -0.181478 28.3566 9.54985" stroke="url(#paint0_linear_2206_881)" stroke-width="2" stroke-miterlimit="1.5" stroke-linecap="round" stroke-linejoin="round"/>
<defs>
<linearGradient id="paint0_linear_2206_881" x1="1" y1="1" x2="155.779" y2="29.5136" gradientUnits="userSpaceOnUse">
<stop stop-color="#FF5C65"/>
<stop offset="0.53125" stop-color="#FD008B"/>
<stop offset="1" stop-color="#6500FC"/>
</linearGradient>
</defs>
</svg>
