<svg width="81" height="122" viewBox="0 0 81 122" fill="none" xmlns="http://www.w3.org/2000/svg">
<path d="M0.132408 69.9293C0.132408 69.9293 2.67215 47.4815 13.8022 30.1368C24.9323 12.7921 40.2155 1.8975 54.4829 0.790078C68.7503 -0.317347 80.2688 12.7623 64.9407 21.8461C49.6126 30.93 22.5568 40.0737 10.0822 73.8502L0.132408 69.9293Z" fill="url(#paint0_linear_2104_329)"/>
<path d="M0.132408 69.9293C0.132408 69.9293 2.67215 47.4815 13.8022 30.1368C24.9323 12.7921 40.2155 1.8975 54.4829 0.790078C68.7503 -0.317347 80.2688 12.7623 64.9407 21.8461C49.6126 30.93 22.5568 40.0737 10.0822 73.8502L0.132408 69.9293Z" fill="#050D36"/>
<path d="M4.31553 64.1081C4.26685 64.1231 4.21481 64.1231 4.16613 64.1081C4.07304 64.0719 3.98813 64.0174 3.91644 63.9478C3.84474 63.8781 3.78771 63.7948 3.74871 63.7027C3.70971 63.6106 3.68954 63.5117 3.68938 63.4116C3.68923 63.3116 3.70911 63.2125 3.74783 63.1203C18.7921 25.9917 47.4464 10.4728 60.5186 7.46474C60.6167 7.44272 60.7182 7.44039 60.8172 7.45785C60.9162 7.47531 61.0108 7.51224 61.0956 7.5665C61.1803 7.62075 61.2534 7.69127 61.3108 7.77398C61.3682 7.85669 61.4087 7.94996 61.4299 8.04841C61.4708 8.24452 61.4346 8.44884 61.3288 8.61888C61.2231 8.78892 61.0559 8.91156 60.8622 8.96126C48.0738 11.9543 19.9872 27.144 5.16709 63.689C5.09557 63.8469 4.97157 63.975 4.81626 64.0514C4.66094 64.1278 4.48395 64.1478 4.31553 64.1081Z" fill="white"/>
<path d="M80.5078 64.557C79.2229 67.4752 76.0259 69.0466 73.0379 70.1839C70.05 71.3213 66.8678 72.6532 65.2693 75.4068C62.0573 80.9888 67.331 88.8755 63.8799 94.233C63.0728 95.3181 62.0542 96.2278 60.8857 96.9069C59.7173 97.586 58.4234 98.0204 57.0824 98.1838C54.8686 98.5027 52.6394 98.7025 50.4043 98.7825C49.3396 98.7714 48.2766 98.6914 47.2222 98.543C44.1311 97.8466 40.8972 98.1884 38.0193 99.5157C33.5374 102.015 32.2377 107.597 29.5635 111.907C27.8986 114.457 25.7003 116.615 23.1207 118.23C20.5411 119.845 17.6419 120.879 14.6238 121.26C12.6368 121.53 8.94673 121.889 6.92987 120.751C6.78455 120.677 6.64476 120.592 6.51157 120.497C6.22771 120.183 5.8841 119.779 5.73471 119.569C5.70425 119.528 5.67915 119.482 5.66 119.434C4.8682 116.546 6.15302 113.538 6.19783 110.56C6.2128 110.381 6.2128 110.201 6.19783 110.021C6.07832 106.549 5.97374 103.107 5.89905 99.6354C5.73969 93.2802 5.67494 86.9101 5.70482 80.5249C5.70482 76.3795 5.25664 71.8601 7.00458 67.9541C8.93179 63.6741 13.7573 63.5693 15.565 59.3641C16.2971 57.688 16.6855 55.8922 17.3876 54.2011C18.4835 51.7171 20.2385 49.5818 22.4618 48.0277C24.685 46.4735 27.2912 45.56 29.9967 45.3866C38.3928 44.9526 45.9374 51.7767 54.3335 51.1482C56.4957 50.8577 58.6403 50.4481 60.7575 49.921C67.57 48.649 75.4283 50.5945 79.2528 56.3561C80.1143 57.5166 80.6791 58.8708 80.8979 60.3003C81.1166 61.7298 80.9827 63.1913 80.5078 64.557Z" fill="#171F48"/>
<path d="M4.97296 106.13C4.88215 106.107 4.79676 106.067 4.72182 106.011C4.64689 105.955 4.58391 105.884 4.53658 105.803C4.48926 105.722 4.45856 105.633 4.44627 105.54C4.43398 105.447 4.44035 105.352 4.46501 105.262C16.0582 61.6085 61.9529 55.3082 72.6945 56.1612C72.7881 56.1668 72.8797 56.1912 72.9637 56.2329C73.0478 56.2746 73.1227 56.3327 73.184 56.4038C73.2453 56.475 73.2917 56.5577 73.3205 56.6471C73.3493 56.7365 73.36 56.8308 73.3518 56.9244C73.3366 57.1124 73.2481 57.2868 73.1055 57.41C72.963 57.5332 72.7778 57.5953 72.5899 57.5829C62.1321 56.8346 17.1936 63.0003 5.83946 105.681C5.77821 105.852 5.65487 105.993 5.49417 106.076C5.33347 106.159 5.14729 106.178 4.97296 106.13Z" fill="white"/>
<path d="M56.0067 84.0264C55.8627 83.9992 55.7316 83.9256 55.6332 83.8169C51.3899 80.1431 46.3919 77.4491 40.9934 75.9258C35.5949 74.4026 29.928 74.0873 24.3944 75.0024C24.2959 75.0318 24.1923 75.0397 24.0905 75.0254C23.9888 75.0112 23.8913 74.9753 23.8046 74.92C23.7179 74.8648 23.6441 74.7915 23.5882 74.7052C23.5322 74.6189 23.4954 74.5216 23.4803 74.4198C23.4651 74.318 23.472 74.2141 23.5004 74.1152C23.5289 74.0163 23.5782 73.9248 23.645 73.8466C23.7118 73.7685 23.7947 73.7056 23.8879 73.6623C23.9811 73.619 24.0825 73.5963 24.1852 73.5956C29.9402 72.6416 35.8346 72.9733 41.4467 74.5669C47.0588 76.1606 52.2501 78.9768 56.6491 82.8142C56.7806 82.9509 56.854 83.1333 56.854 83.323C56.854 83.5128 56.7806 83.6952 56.6491 83.8318C56.5667 83.9154 56.4648 83.977 56.3526 84.011C56.2404 84.045 56.1215 84.0503 56.0067 84.0264Z" fill="white"/>
<defs>
<linearGradient id="paint0_linear_2104_329" x1="72.2129" y1="0.724121" x2="-3.91427" y2="5.21234" gradientUnits="userSpaceOnUse">
<stop stop-color="#FF5C65"/>
<stop offset="0.53125" stop-color="#FD008B"/>
<stop offset="1" stop-color="#6500FC"/>
</linearGradient>
</defs>
</svg>
