<svg width="40" height="39" viewBox="0 0 40 39" fill="none" xmlns="http://www.w3.org/2000/svg">
<path d="M9.49532 29.9228C9.00717 29.4347 8.96649 28.6685 9.37328 28.134L9.49532 27.9943L26.4461 11.0451L14.224 11.0701C13.4709 11.0718 12.8591 10.4626 12.8575 9.70944C12.856 9.02479 13.3593 8.4569 14.0167 8.35809L14.2182 8.34287L29.7411 8.30944C29.8404 8.30923 29.9372 8.31963 30.0305 8.33956C30.0578 8.34625 30.0858 8.35314 30.1136 8.36092C30.138 8.36697 30.1622 8.37449 30.186 8.38265C30.2202 8.39505 30.2549 8.40847 30.2891 8.42336C30.3158 8.43444 30.3408 8.44629 30.3653 8.45887C30.3954 8.47477 30.4268 8.49238 30.4577 8.51133C30.4795 8.5243 30.4997 8.53752 30.5195 8.55127C30.5488 8.57196 30.5783 8.59416 30.6071 8.61772C30.6293 8.63542 30.6504 8.65383 30.6709 8.67287C30.6831 8.68468 30.6959 8.69699 30.7085 8.70961L30.7454 8.74745C30.7636 8.76711 30.7812 8.78731 30.7982 8.80802L30.7085 8.70961C30.7694 8.77046 30.8233 8.83562 30.8702 8.90412C30.8815 8.92041 30.8927 8.93754 30.9035 8.95493C30.9256 8.99081 30.9457 9.02668 30.964 9.0632C30.9731 9.08128 30.9824 9.10104 30.9913 9.12105C31.0091 9.16133 31.0245 9.20124 31.0379 9.24165C31.0443 9.26058 31.0506 9.28085 31.0564 9.30132C31.0658 9.33479 31.0737 9.36755 31.0804 9.40052C31.0852 9.42382 31.0895 9.44869 31.0932 9.47378L31.096 9.49324C31.1039 9.55316 31.1079 9.6135 31.1079 9.67385L31.1077 9.6759L31.0755 25.2001C31.074 25.9532 30.4622 26.5625 29.7091 26.5609C29.0244 26.5595 28.4587 26.0538 28.3626 25.396L28.3483 25.1945L28.372 12.9762L11.4238 29.9228C10.8913 30.4553 10.0279 30.4553 9.49532 29.9228Z" fill="url(#paint0_linear_2272_1119)"/>
<defs>
<linearGradient id="paint0_linear_2272_1119" x1="18.2051" y1="38.6326" x2="0.692902" y2="19.3113" gradientUnits="userSpaceOnUse">
<stop stop-color="#FF5C65"/>
<stop offset="0.53125" stop-color="#FD008B"/>
<stop offset="1" stop-color="#6500FC"/>
</linearGradient>
</defs>
</svg>
