<svg width="50" height="50" viewBox="0 0 50 50" fill="none" xmlns="http://www.w3.org/2000/svg">
<g clip-path="url(#clip0_2170_723)">
<path d="M9.76562 11.7188C10.8443 11.7188 11.7188 10.8443 11.7188 9.76562C11.7188 8.68694 10.8443 7.8125 9.76562 7.8125C8.68694 7.8125 7.8125 8.68694 7.8125 9.76562C7.8125 10.8443 8.68694 11.7188 9.76562 11.7188Z" fill="white"/>
<path d="M17.5781 11.7188C18.6568 11.7188 19.5312 10.8443 19.5312 9.76562C19.5312 8.68694 18.6568 7.8125 17.5781 7.8125C16.4994 7.8125 15.625 8.68694 15.625 9.76562C15.625 10.8443 16.4994 11.7188 17.5781 11.7188Z" fill="white"/>
<path d="M25.3906 11.7188C26.4693 11.7188 27.3438 10.8443 27.3438 9.76562C27.3438 8.68694 26.4693 7.8125 25.3906 7.8125C24.3119 7.8125 23.4375 8.68694 23.4375 9.76562C23.4375 10.8443 24.3119 11.7188 25.3906 11.7188Z" fill="white"/>
<path d="M40.2344 50H9.76562C4.38076 50 0 45.6191 0 40.2344V9.76562C0 4.38086 4.38076 0 9.76562 0H40.2344C45.6192 0 50 4.38086 50 9.76562C50 10.8443 49.1256 11.7188 48.0469 11.7188C46.9682 11.7188 46.0938 10.8443 46.0938 9.76562C46.0938 6.53477 43.4652 3.90625 40.2344 3.90625H9.76562C6.53477 3.90625 3.90625 6.53477 3.90625 9.76562V15.625H48.0469C49.1256 15.625 50 16.4994 50 17.5781V40.2344C50 45.6191 45.6192 50 40.2344 50ZM3.90625 19.5312V40.2344C3.90625 43.4652 6.53477 46.0938 9.76562 46.0938H40.2344C43.4652 46.0938 46.0938 43.4652 46.0938 40.2344V19.5312H3.90625Z" fill="white"/>
<path d="M17.5781 42.5781H13.6719C10.441 42.5781 7.8125 39.9496 7.8125 36.7188V28.9062C7.8125 25.6754 10.441 23.0469 13.6719 23.0469H17.5781C20.809 23.0469 23.4375 25.6754 23.4375 28.9062V36.7188C23.4375 39.9496 20.809 42.5781 17.5781 42.5781ZM13.6719 26.9531C12.5949 26.9531 11.7188 27.8293 11.7188 28.9062V36.7188C11.7188 37.7957 12.5949 38.6719 13.6719 38.6719H17.5781C18.6551 38.6719 19.5312 37.7957 19.5312 36.7188V28.9062C19.5312 27.8293 18.6551 26.9531 17.5781 26.9531H13.6719Z" fill="white"/>
<path d="M40.2344 26.9531H29.2969C28.2182 26.9531 27.3438 26.0787 27.3438 25C27.3438 23.9213 28.2182 23.0469 29.2969 23.0469H40.2344C41.3131 23.0469 42.1875 23.9213 42.1875 25C42.1875 26.0787 41.3131 26.9531 40.2344 26.9531Z" fill="white"/>
<path d="M40.2344 34.7656H29.2969C28.2182 34.7656 27.3438 33.8912 27.3438 32.8125C27.3438 31.7338 28.2182 30.8594 29.2969 30.8594H40.2344C41.3131 30.8594 42.1875 31.7338 42.1875 32.8125C42.1875 33.8912 41.3131 34.7656 40.2344 34.7656Z" fill="white"/>
<path d="M40.2344 42.5781H29.2969C28.2182 42.5781 27.3438 41.7037 27.3438 40.625C27.3438 39.5463 28.2182 38.6719 29.2969 38.6719H40.2344C41.3131 38.6719 42.1875 39.5463 42.1875 40.625C42.1875 41.7037 41.3131 42.5781 40.2344 42.5781Z" fill="white"/>
</g>
<defs>
<clipPath id="clip0_2170_723">
<rect width="50" height="50" fill="white"/>
</clipPath>
</defs>
</svg>
