<svg width="40" height="41" viewBox="0 0 40 41" fill="none" xmlns="http://www.w3.org/2000/svg">
<path fill-rule="evenodd" clip-rule="evenodd" d="M11.0959 4.14836C12.9576 4.17336 14.2843 5.56836 15.9626 7.33336C16.3776 7.76836 16.8259 8.24336 17.3276 8.74336C19.7593 11.1767 19.0676 13.1617 18.5093 14.755C17.9026 16.4934 17.3776 17.9934 20.5209 21.1367C23.6643 24.28 25.1626 23.755 26.8993 23.1434C28.4943 22.5867 30.4743 21.89 32.9109 24.3234C33.4059 24.8184 33.8726 25.2617 34.3059 25.6734C36.0776 27.36 37.4776 28.6917 37.5012 30.5584C37.5193 32.1484 36.5526 33.7717 34.1659 36.1584L33.1093 35.4417L34.0043 36.3134C33.4759 36.855 32.0709 38.2984 29.3193 38.315H29.2693C25.1159 38.315 19.7009 35.0084 13.1743 28.4834C6.62093 21.9317 3.30926 16.5 3.33412 12.3384C3.34926 9.58836 4.79093 8.18003 5.3326 7.65169L5.37883 7.6012L5.49093 7.48836C7.8826 5.09669 9.52593 4.11336 11.0959 4.14836ZM11.0643 6.64836H11.0509C10.3025 6.64836 9.16587 7.39836 7.58064 8.93819L7.26232 9.25079L7.26593 9.25003C7.26793 9.25003 7.23873 9.28123 7.19237 9.32851L7.08093 9.44003C6.6776 9.83169 5.8426 10.6467 5.83418 12.3517C5.82093 14.7367 7.38926 19.165 14.9409 26.715C22.4559 34.2284 26.8776 35.815 29.2693 35.815H29.3043C31.0093 35.805 31.8226 34.97 32.2143 34.5684C32.3326 34.4467 32.4293 34.355 32.4976 34.3C34.1593 32.6284 35.0093 31.3867 35.001 30.5884C34.9909 29.775 33.9793 28.815 32.5809 27.4834C32.1359 27.0617 31.6526 26.6 31.1426 26.09C29.8193 24.7717 29.1676 24.9967 27.7259 25.5034C25.7343 26.2017 23.0059 27.1584 18.7543 22.9034C14.5009 18.6517 15.4543 15.9234 16.1493 13.93C16.6526 12.49 16.8826 11.835 15.5609 10.5117C15.0443 9.99503 14.5793 9.50503 14.1509 9.05503C12.8276 7.66503 11.8726 6.66003 11.0643 6.64836ZM25.4111 10.0775C28.8794 10.7509 31.5578 13.4275 32.2328 16.8975C32.3644 17.5775 31.9228 18.2325 31.2461 18.3642C31.1644 18.3792 31.0844 18.3875 31.0044 18.3875C30.4178 18.3875 29.8961 17.9742 29.7794 17.3775C29.2994 14.9109 27.3978 13.0092 24.9344 12.5309C24.2561 12.3992 23.8144 11.7442 23.9461 11.0659C24.0778 10.3875 24.7444 9.94419 25.4111 10.0775ZM25.3113 4.15786C32.1079 4.91286 37.3863 10.1845 38.1479 16.9795C38.2246 17.6662 37.7313 18.2845 37.0463 18.3612C36.9996 18.3662 36.9513 18.3695 36.9046 18.3695C36.2763 18.3695 35.7363 17.8979 35.6646 17.2595C35.0329 11.6329 30.6629 7.26619 25.0346 6.64119C24.3496 6.56453 23.8546 5.94786 23.9313 5.26119C24.0063 4.57619 24.6179 4.07119 25.3113 4.15786Z" fill="url(#paint0_linear_1869_386)"/>
<defs>
<linearGradient id="paint0_linear_1869_386" x1="3.33398" y1="4.14746" x2="40.1019" y2="6.38874" gradientUnits="userSpaceOnUse">
<stop stop-color="#FF5C65"/>
<stop offset="0.53125" stop-color="#FD008B"/>
<stop offset="1" stop-color="#6500FC"/>
</linearGradient>
</defs>
</svg>
