<svg width="36" height="36" viewBox="0 0 36 36" fill="none" xmlns="http://www.w3.org/2000/svg">
<path opacity="0.4" d="M24.1135 3H29.1924C31.2958 3 33.0002 4.71878 33.0002 6.83995V11.9618C33.0002 14.083 31.2958 15.8017 29.1924 15.8017H24.1135C22.01 15.8017 20.3057 14.083 20.3057 11.9618V6.83995C20.3057 4.71878 22.01 3 24.1135 3Z" fill="#EB5757"/>
<path d="M11.8867 20.1983C13.9901 20.1983 15.6945 21.917 15.6945 24.0382V29.1601C15.6945 31.2798 13.9901 33 11.8867 33H6.80779C4.70438 33 3 31.2798 3 29.1601V24.0382C3 21.917 4.70438 20.1983 6.80779 20.1983H11.8867ZM29.1922 20.1983C31.2956 20.1983 33 21.917 33 24.0382V29.1601C33 31.2798 31.2956 33 29.1922 33H24.1133C22.0099 33 20.3055 31.2798 20.3055 29.1601V24.0382C20.3055 21.917 22.0099 20.1983 24.1133 20.1983H29.1922ZM11.8867 3C13.9901 3 15.6945 4.71878 15.6945 6.83995V11.9618C15.6945 14.083 13.9901 15.8017 11.8867 15.8017H6.80779C4.70438 15.8017 3 14.083 3 11.9618V6.83995C3 4.71878 4.70438 3 6.80779 3H11.8867Z" fill="#EB5757"/>
</svg>
