<svg width="50" height="50" viewBox="0 0 50 50" fill="none" xmlns="http://www.w3.org/2000/svg">
<g clip-path="url(#clip0_1738_61)">
<path d="M40.2344 11.7188C41.3131 11.7188 42.1875 10.8443 42.1875 9.76562C42.1875 8.68694 41.3131 7.8125 40.2344 7.8125C39.1557 7.8125 38.2812 8.68694 38.2812 9.76562C38.2812 10.8443 39.1557 11.7188 40.2344 11.7188Z" fill="white"/>
<path d="M32.4219 11.7188C33.5006 11.7188 34.375 10.8443 34.375 9.76562C34.375 8.68694 33.5006 7.8125 32.4219 7.8125C31.3432 7.8125 30.4688 8.68694 30.4688 9.76562C30.4688 10.8443 31.3432 11.7188 32.4219 11.7188Z" fill="white"/>
<path d="M40.2344 27.3438C41.3131 27.3438 42.1875 26.4693 42.1875 25.3906C42.1875 24.3119 41.3131 23.4375 40.2344 23.4375C39.1557 23.4375 38.2812 24.3119 38.2812 25.3906C38.2812 26.4693 39.1557 27.3438 40.2344 27.3438Z" fill="white"/>
<path d="M32.4219 27.3438C33.5006 27.3438 34.375 26.4693 34.375 25.3906C34.375 24.3119 33.5006 23.4375 32.4219 23.4375C31.3432 23.4375 30.4688 24.3119 30.4688 25.3906C30.4688 26.4693 31.3432 27.3438 32.4219 27.3438Z" fill="white"/>
<path d="M7.8125 35.1562H17.1875C18.2662 35.1562 19.1406 34.2818 19.1406 33.2031C19.1406 32.1244 18.2662 31.25 17.1875 31.25H7.8125C5.65859 31.25 3.90625 29.4977 3.90625 27.3438V23.4375C3.90625 21.2836 5.65859 19.5312 7.8125 19.5312H42.1875C44.3414 19.5312 46.0938 21.2836 46.0938 23.4375V27.3438C46.0938 29.4977 44.3414 31.25 42.1875 31.25H32.8125C31.7338 31.25 30.8594 32.1244 30.8594 33.2031C30.8594 34.2818 31.7338 35.1562 32.8125 35.1562H42.1875C46.4953 35.1562 50 31.6516 50 27.3438V23.4375C50 21.1058 48.9719 19.0108 47.3468 17.5781C48.9719 16.1454 50 14.0505 50 11.7188V7.8125C50 3.50469 46.4953 0 42.1875 0H7.8125C3.50469 0 0 3.50469 0 7.8125V11.7188C0 14.0505 1.02813 16.1454 2.65322 17.5781C1.02813 19.0108 0 21.1058 0 23.4375V27.3438C0 31.6516 3.50469 35.1562 7.8125 35.1562ZM3.90625 11.7188V7.8125C3.90625 5.65859 5.65859 3.90625 7.8125 3.90625H42.1875C44.3414 3.90625 46.0938 5.65859 46.0938 7.8125V11.7188C46.0938 13.8727 44.3414 15.625 42.1875 15.625H7.8125C5.65859 15.625 3.90625 13.8727 3.90625 11.7188Z" fill="white"/>
<path d="M44.5312 50C45.61 50 46.4844 49.1256 46.4844 48.0469V40.2344C46.4844 39.1557 45.61 38.2812 44.5312 38.2812C43.4525 38.2812 42.5781 39.1557 42.5781 40.2344V42.1875H26.9531V33.2031C26.9531 32.1244 26.0787 31.25 25 31.25C23.9213 31.25 23.0469 32.1244 23.0469 33.2031V42.1875H7.42188V40.2344C7.42188 39.1557 6.54746 38.2812 5.46875 38.2812C4.39004 38.2812 3.51562 39.1557 3.51562 40.2344V48.0469C3.51562 49.1256 4.39004 50 5.46875 50C6.54746 50 7.42188 49.1256 7.42188 48.0469V46.0938H42.5781V48.0469C42.5781 49.1256 43.4525 50 44.5312 50Z" fill="white"/>
<path d="M9.76562 11.7188H17.1875C18.2662 11.7188 19.1406 10.8443 19.1406 9.76562C19.1406 8.68691 18.2662 7.8125 17.1875 7.8125H9.76562C8.68691 7.8125 7.8125 8.68691 7.8125 9.76562C7.8125 10.8443 8.68691 11.7188 9.76562 11.7188Z" fill="url(#paint0_linear_1738_61)"/>
<path d="M9.76562 27.3438H17.1875C18.2662 27.3438 19.1406 26.4693 19.1406 25.3906C19.1406 24.3119 18.2662 23.4375 17.1875 23.4375H9.76562C8.68691 23.4375 7.8125 24.3119 7.8125 25.3906C7.8125 26.4693 8.68691 27.3438 9.76562 27.3438Z" fill="url(#paint1_linear_1738_61)"/>
</g>
<defs>
<linearGradient id="paint0_linear_1738_61" x1="7.8125" y1="7.8125" x2="19.4675" y2="9.83412" gradientUnits="userSpaceOnUse">
<stop stop-color="#FF5C65"/>
<stop offset="0.53125" stop-color="#FD008B"/>
<stop offset="1" stop-color="#6500FC"/>
</linearGradient>
<linearGradient id="paint1_linear_1738_61" x1="7.8125" y1="23.4375" x2="19.4675" y2="25.4591" gradientUnits="userSpaceOnUse">
<stop stop-color="#FF5C65"/>
<stop offset="0.53125" stop-color="#FD008B"/>
<stop offset="1" stop-color="#6500FC"/>
</linearGradient>
<clipPath id="clip0_1738_61">
<rect width="50" height="50" fill="white"/>
</clipPath>
</defs>
</svg>
