<svg width="50" height="50" viewBox="0 0 50 50" fill="none" xmlns="http://www.w3.org/2000/svg">
<g clip-path="url(#clip0_2170_691)">
<path d="M8.98604 34.9215C10.0436 35.1365 11.0742 34.4535 11.2891 33.3965C11.5039 32.3395 10.8211 31.3083 9.76406 31.0935C6.26025 30.3814 3.90625 27.3047 3.90625 23.4375C3.90625 15.8778 10.5667 15.625 11.3281 15.625H13.2812C14.36 15.625 15.2344 14.7506 15.2344 13.6719C15.2344 8.28711 19.6151 3.90625 25 3.90625C30.3849 3.90625 34.7656 8.28711 34.7656 13.6719C34.7656 14.7506 35.64 15.625 36.7188 15.625H38.6719C42.903 15.625 46.0938 18.9837 46.0938 23.4375C46.0938 28.2023 43.3837 30.4578 40.2379 31.0938C39.1807 31.3076 38.4969 32.338 38.7105 33.3953C38.8979 34.322 39.7126 34.9617 40.6229 34.9617C41.6186 34.9617 50 33.1795 50 23.4375C50 16.8662 45.0241 11.7188 38.6719 11.7188H38.5349C37.6024 5.13369 31.9523 0 25 0C18.0512 0 12.3981 5.13008 11.4651 11.7188H11.3281C6.88496 11.7188 0 14.5637 0 23.4375C0 29.0383 3.56348 33.8194 8.98604 34.9215Z" fill="white"/>
<path d="M28.9062 50C32.1371 50 34.7656 47.3715 34.7656 44.1406V28.5156C34.7656 25.2848 32.1371 22.6562 28.9062 22.6562H21.0938C17.8629 22.6562 15.2344 25.2848 15.2344 28.5156V44.1406C15.2344 47.3715 17.8629 50 21.0938 50H28.9062ZM19.1406 34.375H30.8594V38.2812H19.1406V34.375ZM21.0938 26.5625H28.9062C29.9832 26.5625 30.8594 27.4387 30.8594 28.5156V30.4688H19.1406V28.5156C19.1406 27.4387 20.0168 26.5625 21.0938 26.5625ZM19.1406 44.1406V42.1875H30.8594V44.1406C30.8594 45.2176 29.9832 46.0938 28.9062 46.0938H21.0938C20.0168 46.0938 19.1406 45.2176 19.1406 44.1406Z" fill="white"/>
<path d="M40.625 42.1875C41.7037 42.1875 42.5781 41.3131 42.5781 40.2344C42.5781 39.1557 41.7037 38.2812 40.625 38.2812C39.5463 38.2812 38.6719 39.1557 38.6719 40.2344C38.6719 41.3131 39.5463 42.1875 40.625 42.1875Z" fill="white"/>
<path d="M48.0469 42.1875C49.1256 42.1875 50 41.3131 50 40.2344C50 39.1557 49.1256 38.2812 48.0469 38.2812C46.9682 38.2812 46.0938 39.1557 46.0938 40.2344C46.0938 41.3131 46.9682 42.1875 48.0469 42.1875Z" fill="white"/>
<path d="M1.95312 42.1875C3.03181 42.1875 3.90625 41.3131 3.90625 40.2344C3.90625 39.1557 3.03181 38.2812 1.95312 38.2812C0.874444 38.2812 0 39.1557 0 40.2344C0 41.3131 0.874444 42.1875 1.95312 42.1875Z" fill="white"/>
<path d="M9.375 42.1875C10.4537 42.1875 11.3281 41.3131 11.3281 40.2344C11.3281 39.1557 10.4537 38.2812 9.375 38.2812C8.29632 38.2812 7.42188 39.1557 7.42188 40.2344C7.42188 41.3131 8.29632 42.1875 9.375 42.1875Z" fill="white"/>
<path d="M25 19.5312C26.0787 19.5312 26.9531 18.6568 26.9531 17.5781C26.9531 16.4994 26.0787 15.625 25 15.625C23.9213 15.625 23.0469 16.4994 23.0469 17.5781C23.0469 18.6568 23.9213 19.5312 25 19.5312Z" fill="white"/>
<path d="M25 11.7188C26.0787 11.7188 26.9531 10.8443 26.9531 9.76562C26.9531 8.68694 26.0787 7.8125 25 7.8125C23.9213 7.8125 23.0469 8.68694 23.0469 9.76562C23.0469 10.8443 23.9213 11.7188 25 11.7188Z" fill="white"/>
</g>
<defs>
<clipPath id="clip0_2170_691">
<rect width="50" height="50" fill="white"/>
</clipPath>
</defs>
</svg>
