<svg width="50" height="50" viewBox="0 0 50 50" fill="none" xmlns="http://www.w3.org/2000/svg">
<g clip-path="url(#clip0_1738_48)">
<path d="M44.1406 3.51562H42.1875C41.1088 3.51562 40.2344 4.39004 40.2344 5.46875C40.2344 6.54746 41.1088 7.42188 42.1875 7.42188H44.1406C45.2176 7.42188 46.0938 8.29805 46.0938 9.375V23.0469H42.1875C41.1088 23.0469 40.2344 23.9213 40.2344 25C40.2344 26.0787 41.1088 26.9531 42.1875 26.9531H46.0938V40.625C46.0938 41.702 45.2176 42.5781 44.1406 42.5781H42.1875C41.1088 42.5781 40.2344 43.4525 40.2344 44.5312C40.2344 45.61 41.1088 46.4844 42.1875 46.4844H44.1406C47.3715 46.4844 50 43.8559 50 40.625V9.375C50 6.14414 47.3715 3.51562 44.1406 3.51562Z" fill="url(#paint0_linear_1738_48)"/>
<path d="M36.3281 5.85938C36.3281 2.62852 33.6996 0 30.4688 0H5.85938C2.62852 0 0 2.62852 0 5.85938V13.2812C0 14.7808 0.566894 16.15 1.49678 17.1875C0.566894 18.225 0 19.5942 0 21.0938V28.9062C0 30.4058 0.566894 31.775 1.49678 32.8125C0.566894 33.85 0 35.2192 0 36.7188V44.1406C0 47.3715 2.62852 50 5.85938 50H30.4688C33.6996 50 36.3281 47.3715 36.3281 44.1406V36.7188C36.3281 35.2192 35.7612 33.85 34.8313 32.8125C35.7612 31.775 36.3281 30.4058 36.3281 28.9062V21.0938C36.3281 19.5942 35.7612 18.225 34.8313 17.1875C35.7612 16.15 36.3281 14.7808 36.3281 13.2812V5.85938ZM3.90625 5.85938C3.90625 4.78242 4.78242 3.90625 5.85938 3.90625H30.4688C31.5457 3.90625 32.4219 4.78242 32.4219 5.85938V13.2812C32.4219 14.3582 31.5457 15.2344 30.4688 15.2344H5.85938C4.78242 15.2344 3.90625 14.3582 3.90625 13.2812V5.85938ZM32.4219 44.1406C32.4219 45.2176 31.5457 46.0938 30.4688 46.0938H5.85938C4.78242 46.0938 3.90625 45.2176 3.90625 44.1406V36.7188C3.90625 35.6418 4.78242 34.7656 5.85938 34.7656H20.7031C21.7818 34.7656 22.6562 33.8912 22.6562 32.8125C22.6562 31.7338 21.7818 30.8594 20.7031 30.8594H5.85938C4.78242 30.8594 3.90625 29.9832 3.90625 28.9062V21.0938C3.90625 20.0168 4.78242 19.1406 5.85938 19.1406H30.4688C31.5457 19.1406 32.4219 20.0168 32.4219 21.0938V28.9062C32.4219 29.9832 31.5457 30.8594 30.4688 30.8594H28.5156C27.4369 30.8594 26.5625 31.7338 26.5625 32.8125C26.5625 33.8912 27.4369 34.7656 28.5156 34.7656H30.4688C31.5457 34.7656 32.4219 35.6418 32.4219 36.7188V44.1406Z" fill="white"/>
<path d="M9.76562 11.3281C10.8443 11.3281 11.7188 10.4537 11.7188 9.375C11.7188 8.29632 10.8443 7.42188 9.76562 7.42188C8.68694 7.42188 7.8125 8.29632 7.8125 9.375C7.8125 10.4537 8.68694 11.3281 9.76562 11.3281Z" fill="white"/>
<path d="M9.76562 26.9531C10.8443 26.9531 11.7188 26.0787 11.7188 25C11.7188 23.9213 10.8443 23.0469 9.76562 23.0469C8.68694 23.0469 7.8125 23.9213 7.8125 25C7.8125 26.0787 8.68694 26.9531 9.76562 26.9531Z" fill="white"/>
<path d="M9.76562 42.5781C10.8443 42.5781 11.7188 41.7037 11.7188 40.625C11.7188 39.5463 10.8443 38.6719 9.76562 38.6719C8.68694 38.6719 7.8125 39.5463 7.8125 40.625C7.8125 41.7037 8.68694 42.5781 9.76562 42.5781Z" fill="white"/>
<path d="M22.6562 11.3281H26.5625C27.6412 11.3281 28.5156 10.4537 28.5156 9.375C28.5156 8.29629 27.6412 7.42188 26.5625 7.42188H22.6562C21.5775 7.42188 20.7031 8.29629 20.7031 9.375C20.7031 10.4537 21.5775 11.3281 22.6562 11.3281Z" fill="white"/>
<path d="M26.5625 26.9531C27.6412 26.9531 28.5156 26.0787 28.5156 25C28.5156 23.9213 27.6412 23.0469 26.5625 23.0469H22.6562C21.5775 23.0469 20.7031 23.9213 20.7031 25C20.7031 26.0787 21.5775 26.9531 22.6562 26.9531H26.5625Z" fill="white"/>
<path d="M26.5625 38.6719H22.6562C21.5775 38.6719 20.7031 39.5463 20.7031 40.625C20.7031 41.7037 21.5775 42.5781 22.6562 42.5781H26.5625C27.6412 42.5781 28.5156 41.7037 28.5156 40.625C28.5156 39.5463 27.6412 38.6719 26.5625 38.6719Z" fill="white"/>
</g>
<defs>
<linearGradient id="paint0_linear_1738_48" x1="40.2344" y1="3.51563" x2="50.5822" y2="3.65629" gradientUnits="userSpaceOnUse">
<stop stop-color="#FF5C65"/>
<stop offset="0.53125" stop-color="#FD008B"/>
<stop offset="1" stop-color="#6500FC"/>
</linearGradient>
<clipPath id="clip0_1738_48">
<rect width="50" height="50" fill="white"/>
</clipPath>
</defs>
</svg>
