<svg width="40" height="40" viewBox="0 0 40 40" fill="none" xmlns="http://www.w3.org/2000/svg">
<g clip-path="url(#clip0_1837_373)">
<path d="M20 6.25024C20.863 6.25024 21.5625 5.55071 21.5625 4.68774V1.56274C21.5625 0.699775 20.863 0.000244141 20 0.000244141C19.137 0.000244141 18.4375 0.699775 18.4375 1.56274V4.68774C18.4375 5.55071 19.137 6.25024 20 6.25024Z" fill="white"/>
<path d="M25.5513 6.08538C26.3232 6.47132 27.2617 6.15843 27.6476 5.38663L29.2101 2.26163C29.596 1.48976 29.2832 0.551241 28.5114 0.165303C27.7395 -0.220634 26.801 0.0922567 26.4151 0.864053L24.8526 3.98905C24.4666 4.76093 24.7794 5.69944 25.5513 6.08538Z" fill="white"/>
<path d="M12.3526 5.38665C12.7385 6.15844 13.677 6.47133 14.4489 6.0854C15.2207 5.69946 15.5336 4.76094 15.1476 3.98907L13.5851 0.864068C13.1992 0.0921926 12.2608 -0.22062 11.4888 0.165318C10.717 0.551255 10.4041 1.48977 10.7901 2.26165L12.3526 5.38665Z" fill="white"/>
<path d="M32.377 10.1231C31.4916 9.23782 30.3145 8.75024 29.0625 8.75024H10.9377C9.68556 8.75024 8.50846 9.23782 7.62315 10.1232L1.3732 16.3732C0.487818 17.2585 0.000244141 18.4356 0.000244141 19.6877C0.000244141 20.9369 0.485553 22.1115 1.36703 22.9961C1.36703 22.9961 16.6818 38.6234 16.6855 38.6271C17.5708 39.5125 18.7479 40.0001 20.0001 40.0001C21.2521 40.0001 22.4293 39.5125 23.3146 38.6271C23.3183 38.6234 38.6331 22.9961 38.6331 22.9961C39.5146 22.1115 39.9999 20.9369 39.9999 19.6877C39.9999 18.4356 39.5124 17.2585 38.627 16.3732L32.377 10.1231ZM36.4173 20.7924C36.4136 20.7962 21.1003 36.4219 21.1003 36.4219C20.8057 36.7141 20.4152 36.8749 20.0001 36.8749C19.585 36.8749 19.1947 36.7142 18.9002 36.4222C18.9002 36.4222 3.58654 20.7961 3.58287 20.7924C3.2878 20.4973 3.12522 20.1049 3.12522 19.6876C3.12522 19.2702 3.2878 18.8778 3.58287 18.5827L9.83282 12.3328C10.1279 12.0377 10.5202 11.8751 10.9377 11.8751H29.0625C29.4799 11.8751 29.8723 12.0376 30.1674 12.3328L36.4173 18.5827C36.7124 18.8778 36.875 19.2702 36.875 19.6876C36.875 20.1049 36.7125 20.4973 36.4173 20.7924Z" fill="white"/>
<path d="M32.1876 18.1253H27.0638L26.3783 16.0686C26.1055 15.25 25.2207 14.8075 24.4019 15.0804C23.5832 15.3533 23.1408 16.2382 23.4137 17.0568L23.7698 18.1252H16.2306L16.5866 17.0567C16.8595 16.2381 16.4171 15.3532 15.5985 15.0804C14.7798 14.8075 13.8949 15.25 13.6221 16.0686L12.9365 18.1251H7.81273C6.94977 18.1251 6.25024 18.8246 6.25024 19.6876C6.25024 20.5505 6.94977 21.2501 7.81273 21.2501H12.9365L15.0579 27.6142C15.3308 28.4329 16.2156 28.8752 17.0343 28.6024C17.853 28.3295 18.2954 27.4446 18.0225 26.626L16.2306 21.2501H23.7698L21.9779 26.626C21.705 27.4446 22.1474 28.3295 22.966 28.6024C23.7847 28.8752 24.6696 28.4328 24.9424 27.6142L27.0638 21.2501H32.1876C33.0506 21.2501 33.7501 20.5505 33.7501 19.6876C33.7501 18.8246 33.0506 18.1253 32.1876 18.1253Z" fill="url(#paint0_linear_1837_373)"/>
</g>
<defs>
<linearGradient id="paint0_linear_1837_373" x1="6.25024" y1="14.9998" x2="34.9798" y2="18.4533" gradientUnits="userSpaceOnUse">
<stop stop-color="#FF5C65"/>
<stop offset="0.53125" stop-color="#FD008B"/>
<stop offset="1" stop-color="#6500FC"/>
</linearGradient>
<clipPath id="clip0_1837_373">
<rect width="40" height="40" fill="white"/>
</clipPath>
</defs>
</svg>
