<svg width="50" height="50" viewBox="0 0 50 50" fill="none" xmlns="http://www.w3.org/2000/svg">
<g clip-path="url(#clip0_1734_19)">
<path d="M25 7.81299C26.0787 7.81299 26.9531 6.93857 26.9531 5.85986V1.95361C26.9531 0.874902 26.0787 0.000488281 25 0.000488281C23.9213 0.000488281 23.0469 0.874902 23.0469 1.95361V5.85986C23.0469 6.93857 23.9213 7.81299 25 7.81299Z" fill="white"/>
<path d="M31.939 7.60673C32.9038 8.08915 34.077 7.69804 34.5594 6.73329L36.5125 2.82704C36.9948 1.8622 36.6038 0.689051 35.6391 0.206629C34.6742 -0.275793 33.5011 0.115321 33.0187 1.08007L31.0655 4.98632C30.5831 5.95116 30.9741 7.1243 31.939 7.60673Z" fill="white"/>
<path d="M15.4406 6.73331C15.9231 7.69805 17.0962 8.08917 18.061 7.60675C19.0258 7.12432 19.4169 5.95118 18.9345 4.98634L16.9814 1.08008C16.4989 0.115241 15.326 -0.275775 14.361 0.206647C13.3962 0.689069 13.0051 1.86221 13.4875 2.82706L15.4406 6.73331Z" fill="white"/>
<path d="M40.4711 12.6541C39.3644 11.5475 37.893 10.938 36.328 10.938H13.6719C12.1068 10.938 10.6354 11.5475 9.52876 12.6542L1.71632 20.4666C0.60959 21.5733 0.00012207 23.0447 0.00012207 24.6099C0.00012207 26.1714 0.606758 27.6395 1.7086 28.7454C1.7086 28.7454 20.8521 48.2795 20.8567 48.2841C21.9633 49.3908 23.4347 50.0003 24.9999 50.0003C26.565 50.0003 28.0364 49.3908 29.1431 48.2841C29.1477 48.2794 48.2912 28.7453 48.2912 28.7453C49.3931 27.6395 49.9997 26.1713 49.9997 24.6098C49.9997 23.0446 49.3903 21.5733 48.2835 20.4666L40.4711 12.6541ZM45.5214 25.9907C45.5169 25.9954 26.3752 45.5276 26.3752 45.5276C26.0069 45.8928 25.5189 46.0939 24.9999 46.0939C24.4811 46.0939 23.9932 45.893 23.625 45.528C23.625 45.528 4.483 25.9953 4.47841 25.9907C4.10956 25.6219 3.90634 25.1313 3.90634 24.6097C3.90634 24.088 4.10956 23.5975 4.47841 23.2286L12.2908 15.4162C12.6597 15.0473 13.1501 14.8441 13.6719 14.8441H36.328C36.8496 14.8441 37.3402 15.0472 37.709 15.4162L45.5214 23.2286C45.8903 23.5975 46.0935 24.088 46.0935 24.6097C46.0935 25.1313 45.8904 25.6219 45.5214 25.9907Z" fill="white"/>
<path d="M40.2342 22.6564H33.8295L32.9726 20.0856C32.6315 19.0623 31.5256 18.5092 30.5021 18.8504C29.4787 19.1915 28.9257 20.2975 29.2668 21.3208L29.7119 22.6563H20.2879L20.733 21.3208C21.0741 20.2974 20.5211 19.1914 19.4978 18.8503C18.4744 18.5092 17.3684 19.0623 17.0273 20.0855L16.1703 22.6562H9.76561C8.68691 22.6562 7.8125 23.5306 7.8125 24.6093C7.8125 25.688 8.68691 26.5624 9.76561 26.5624H16.1703L18.8221 34.5175C19.1632 35.541 20.2691 36.0939 21.2926 35.7528C22.3159 35.4117 22.8689 34.3056 22.5278 33.2823L20.2879 26.5624H29.7119L27.472 33.2823C27.1309 34.3056 27.6839 35.4117 28.7073 35.7528C29.7306 36.0939 30.8366 35.5409 31.1777 34.5175L33.8295 26.5624H40.2342C41.3129 26.5624 42.1873 25.688 42.1873 24.6093C42.1873 23.5306 41.3129 22.6564 40.2342 22.6564Z" fill="url(#paint0_linear_1734_19)"/>
</g>
<defs>
<linearGradient id="paint0_linear_1734_19" x1="7.8125" y1="18.7495" x2="43.7244" y2="23.0664" gradientUnits="userSpaceOnUse">
<stop stop-color="#FF5C65"/>
<stop offset="0.53125" stop-color="#FD008B"/>
<stop offset="1" stop-color="#6500FC"/>
</linearGradient>
<clipPath id="clip0_1734_19">
<rect width="50" height="50" fill="white"/>
</clipPath>
</defs>
</svg>
