<svg width="50" height="50" viewBox="0 0 50 50" fill="none" xmlns="http://www.w3.org/2000/svg">
<g clip-path="url(#clip0_1738_35)">
<path d="M36.035 19.1397C34.9563 19.1397 34.0819 18.2653 34.0819 17.1865V7.81389C34.0819 5.66 32.3296 3.90768 30.1757 3.90768H19.7266C17.5727 3.90768 15.8204 5.66 15.8204 7.81389V17.1866C15.8204 18.2653 14.946 19.1398 13.8673 19.1398C12.7886 19.1398 11.9142 18.2653 11.9142 17.1866V7.81389C11.9142 3.50612 15.4188 0.00146484 19.7266 0.00146484H30.1757C34.4835 0.00146484 37.9881 3.50612 37.9881 7.81389V17.1866C37.9881 18.2653 37.1137 19.1397 36.035 19.1397ZM49.1181 14.1842C48.2163 13.5924 47.0054 13.8439 46.4137 14.7458L40.9681 23.0459H8.94564L3.59413 14.7578C3.00898 13.8515 1.8 13.5913 0.893958 14.1764C-0.0121856 14.7615 -0.272535 15.9704 0.312616 16.8766L5.59626 25.0596L3.40956 28.241C3.39901 28.2566 3.38856 28.2721 3.37841 28.2879C2.34219 29.8928 2.26601 31.9317 3.17978 33.6093C3.8117 34.7695 4.84558 35.6257 6.05494 36.0436V42.1862C6.05494 46.494 9.5596 49.9986 13.8674 49.9986H36.0351C40.3429 49.9986 43.8475 46.494 43.8475 42.1862C43.8475 41.1075 42.9731 40.2331 41.8944 40.2331C40.8157 40.2331 39.9413 41.1075 39.9413 42.1862C39.9413 44.3401 38.189 46.0924 36.0351 46.0924H13.8674C11.7135 46.0924 9.96115 44.3401 9.96115 42.1862V34.3738C9.96115 33.8528 9.75305 33.3535 9.38304 32.9867C9.01712 32.6239 8.52279 32.4207 8.00805 32.4207C8.00238 32.4207 7.75122 32.4228 7.75122 32.4228C7.05503 32.4198 6.72144 31.9453 6.61011 31.741C6.49967 31.5382 6.28443 31.0071 6.64781 30.4258L9.03548 26.952H40.867L43.2462 30.4127C43.6198 30.9957 43.405 31.5321 43.2944 31.7369C43.1831 31.9431 42.848 32.4229 42.1443 32.4229H15.8204C14.7417 32.4229 13.8673 33.2973 13.8673 34.376C13.8673 35.4547 14.7417 36.3291 15.8204 36.3291H42.1443C44.0626 36.3291 45.8204 35.2806 46.7318 33.5926C47.6431 31.9048 47.5556 29.8598 46.5032 28.256C46.4955 28.2443 46.4877 28.2325 46.4796 28.2209L44.3127 25.069L49.6797 16.8887C50.2714 15.9868 50.0199 14.7759 49.1181 14.1842Z" fill="url(#paint0_linear_1738_35)"/>
<path d="M28.2226 11.7202H21.6797C20.601 11.7202 19.7266 10.8458 19.7266 9.76707C19.7266 8.68837 20.601 7.81396 21.6797 7.81396H28.2226C29.3013 7.81396 30.1757 8.68837 30.1757 9.76707C30.1757 10.8458 29.3013 11.7202 28.2226 11.7202ZM26.2695 16.6029C26.2695 15.5242 25.3951 14.6498 24.3164 14.6498H21.6797C20.601 14.6498 19.7266 15.5242 19.7266 16.6029C19.7266 17.6816 20.601 18.556 21.6797 18.556H24.3164C25.3951 18.556 26.2695 17.6815 26.2695 16.6029Z" fill="url(#paint1_linear_1738_35)"/>
</g>
<defs>
<linearGradient id="paint0_linear_1738_35" x1="6.10352e-05" y1="0.00146484" x2="52.8017" y2="3.15982" gradientUnits="userSpaceOnUse">
<stop stop-color="#FF5C65"/>
<stop offset="0.53125" stop-color="#FD008B"/>
<stop offset="1" stop-color="#6500FC"/>
</linearGradient>
<linearGradient id="paint1_linear_1738_35" x1="19.7266" y1="7.81396" x2="30.7633" y2="8.45609" gradientUnits="userSpaceOnUse">
<stop stop-color="#FF5C65"/>
<stop offset="0.53125" stop-color="#FD008B"/>
<stop offset="1" stop-color="#6500FC"/>
</linearGradient>
<clipPath id="clip0_1738_35">
<rect width="50" height="50" fill="white"/>
</clipPath>
</defs>
</svg>
