<svg width="30" height="30" viewBox="0 0 30 30" fill="none" xmlns="http://www.w3.org/2000/svg">
<path d="M12.6909 6.94442C12.7546 7.07401 12.7967 7.21278 12.8155 7.35544L13.1635 12.5303L13.3363 15.1314C13.3381 15.3988 13.38 15.6646 13.4608 15.9201C13.6695 16.4157 14.1715 16.7307 14.7176 16.7088L23.0392 16.1644C23.3995 16.1585 23.7475 16.2933 24.0065 16.5391C24.2224 16.744 24.3618 17.012 24.4057 17.3002L24.4204 17.4752C24.0761 22.2436 20.5739 26.2208 15.8154 27.2475C11.0569 28.2742 6.17733 26.1054 3.82589 21.9186C3.14798 20.7023 2.72456 19.3653 2.58048 17.9862C2.52029 17.578 2.49378 17.1656 2.50122 16.7532C2.49379 11.6409 6.13434 7.22121 11.2304 6.15572C11.8438 6.06022 12.445 6.38492 12.6909 6.94442Z" fill="url(#paint0_linear_2250_6399)"/>
<path opacity="0.2" d="M16.0613 3.00102C21.7612 3.14603 26.5517 7.24474 27.4738 12.7654L27.465 12.8061L27.4399 12.8653L27.4434 13.028C27.4303 13.2434 27.3471 13.4507 27.2038 13.6181C27.0545 13.7925 26.8505 13.9113 26.6258 13.9574L26.4888 13.9762L16.8878 14.5983C16.5685 14.6298 16.2505 14.5268 16.013 14.3149C15.8151 14.1384 15.6886 13.9001 15.6528 13.6433L15.0084 4.05633C14.9972 4.02391 14.9972 3.98877 15.0084 3.95635C15.0172 3.69209 15.1335 3.4423 15.3314 3.26279C15.5292 3.08327 15.7921 2.989 16.0613 3.00102Z" fill="white"/>
<defs>
<linearGradient id="paint0_linear_2250_6399" x1="2.5" y1="6.13916" x2="25.6444" y2="7.55974" gradientUnits="userSpaceOnUse">
<stop stop-color="#FF5C65"/>
<stop offset="0.53125" stop-color="#FD008B"/>
<stop offset="1" stop-color="#6500FC"/>
</linearGradient>
</defs>
</svg>
