<svg width="30" height="30" viewBox="0 0 30 30" fill="none" xmlns="http://www.w3.org/2000/svg">
<path d="M12.2291 5.33332C12.3055 5.48882 12.356 5.65534 12.3786 5.82654L12.7962 12.0364L13.0035 15.1576C13.0057 15.4786 13.0561 15.7975 13.153 16.1041C13.4034 16.6989 14.0057 17.0769 14.6611 17.0505L24.647 16.3974C25.0794 16.3902 25.497 16.5519 25.8079 16.8469C26.0669 17.0928 26.2342 17.4144 26.2868 17.7603L26.3045 17.9703C25.8913 23.6924 21.6887 28.465 15.9785 29.697C10.2683 30.929 4.4128 28.3265 1.59106 23.3024C0.777581 21.8428 0.269475 20.2384 0.0965729 18.5835C0.0243429 18.0936 -0.00746177 17.5988 0.00146884 17.1038C-0.00744892 10.9691 4.36121 5.66547 10.4765 4.38688C11.2125 4.27228 11.934 4.66191 12.2291 5.33332Z" fill="#F2994A"/>
<path opacity="0.4" d="M16.3049 0.00122878C23.1447 0.17524 28.8933 5.09368 29.9999 11.7184L29.9893 11.7673L29.9591 11.8384L29.9633 12.0335C29.9476 12.2921 29.8478 12.5408 29.6758 12.7417C29.4966 12.951 29.2518 13.0935 28.9822 13.1489L28.8178 13.1714L17.2967 13.9179C16.9134 13.9557 16.5319 13.8321 16.2469 13.5779C16.0094 13.3661 15.8576 13.0801 15.8147 12.772L15.0413 1.26759C15.0279 1.22869 15.0279 1.18652 15.0413 1.14762C15.0519 0.830508 15.1915 0.53076 15.4289 0.315345C15.6663 0.0999297 15.9818 -0.0132006 16.3049 0.00122878Z" fill="#F2994A"/>
</svg>
