<svg width="50" height="50" viewBox="0 0 50 50" fill="none" xmlns="http://www.w3.org/2000/svg">
<path d="M21.1516 11.574C21.2577 11.79 21.3277 12.0213 21.3591 12.2591L21.9392 20.8839L22.2271 25.2189C22.2301 25.6647 22.3001 26.1077 22.4347 26.5334C22.7825 27.3595 23.6191 27.8845 24.5293 27.8479L38.3986 26.9407C38.9992 26.9308 39.5792 27.1555 40.0109 27.5652C40.3707 27.9066 40.603 28.3533 40.6762 28.8337L40.7007 29.1254C40.1268 37.0727 34.2899 43.7014 26.3591 45.4125C18.4282 47.1236 10.2955 43.509 6.37647 36.5311C5.24663 34.5038 4.54093 32.2755 4.30079 29.9771C4.20047 29.2966 4.15629 28.6094 4.1687 27.922C4.15631 19.4016 10.2239 12.0354 18.7174 10.2595C19.7396 10.1004 20.7417 10.6415 21.1516 11.574Z" fill="white"/>
<path opacity="0.4" d="M26.8125 4.16821C36.3123 4.40989 44.2965 11.2411 45.8333 20.4421L45.8187 20.51L45.7767 20.6087L45.7826 20.8798C45.7608 21.2388 45.6222 21.5843 45.3833 21.8633C45.1344 22.154 44.7944 22.352 44.42 22.4288L44.1917 22.4601L28.19 23.4969C27.6578 23.5494 27.1278 23.3778 26.732 23.0247C26.4021 22.7305 26.1912 22.3334 26.1317 21.9054L25.0576 5.92705C25.0389 5.87302 25.0389 5.81445 25.0576 5.76042C25.0723 5.31999 25.2662 4.90367 25.5959 4.60448C25.9257 4.3053 26.3639 4.14817 26.8125 4.16821Z" fill="white"/>
</svg>
