<svg width="50" height="50" viewBox="0 0 50 50" fill="none" xmlns="http://www.w3.org/2000/svg">
<path d="M21.1519 11.574C21.258 11.79 21.3281 12.0213 21.3595 12.2591L21.9395 20.8839L22.2275 25.2189C22.2305 25.6647 22.3004 26.1077 22.435 26.5334C22.7828 27.3595 23.6194 27.8845 24.5296 27.8479L38.3989 26.9407C38.9995 26.9308 39.5795 27.1555 40.0112 27.5652C40.371 27.9066 40.6033 28.3533 40.6765 28.8337L40.7011 29.1254C40.1271 37.0727 34.2902 43.7014 26.3594 45.4125C18.4286 47.1236 10.2959 43.509 6.3768 36.5311C5.24697 34.5038 4.54126 32.2755 4.30112 29.9771C4.2008 29.2966 4.15663 28.6094 4.16903 27.922C4.15665 19.4016 10.2242 12.0354 18.7177 10.2595C19.7399 10.1004 20.7421 10.6415 21.1519 11.574Z" fill="url(#paint0_linear_2172_3437)"/>
<path opacity="0.2" d="M26.8129 4.16821C36.3126 4.40989 44.2968 11.2411 45.8337 20.4421L45.819 20.51L45.7771 20.6087L45.7829 20.8798C45.7611 21.2388 45.6225 21.5843 45.3836 21.8633C45.1347 22.154 44.7947 22.352 44.4203 22.4288L44.192 22.4601L28.1904 23.4969C27.6581 23.5494 27.1281 23.3778 26.7323 23.0247C26.4025 22.7305 26.1916 22.3334 26.132 21.9054L25.058 5.92705C25.0393 5.87302 25.0393 5.81445 25.058 5.76042C25.0726 5.31999 25.2665 4.90367 25.5963 4.60448C25.926 4.3053 26.3642 4.14817 26.8129 4.16821Z" fill="white"/>
<defs>
<linearGradient id="paint0_linear_2172_3437" x1="4.16699" y1="10.2319" x2="42.7409" y2="12.5996" gradientUnits="userSpaceOnUse">
<stop stop-color="#FF5C65"/>
<stop offset="0.53125" stop-color="#FD008B"/>
<stop offset="1" stop-color="#6500FC"/>
</linearGradient>
</defs>
</svg>
