<svg width="50" height="50" viewBox="0 0 50 50" fill="none" xmlns="http://www.w3.org/2000/svg">
<g clip-path="url(#clip0_1940_366)">
<path d="M47.6369 42.67H2.36309C1.05801 42.67 0 41.612 0 40.3069V2.36309C0 1.05801 1.05801 0 2.36309 0H47.6369C48.942 0 50 1.05801 50 2.36309V40.3069C50 41.612 48.942 42.67 47.6369 42.67Z" fill="url(#paint0_linear_1940_366)"/>
<path d="M0 5.63403H50V20.9497H0V5.63403Z" fill="url(#paint1_linear_1940_366)"/>
<path d="M0 30.5566V40.3068C0 41.6119 1.05801 42.6699 2.36309 42.6699H47.6369C48.942 42.6699 50 41.6119 50 40.3068V30.5566H0Z" fill="url(#paint2_linear_1940_366)"/>
<path d="M47.6371 0H30.9766V42.67H47.6371C48.9422 42.67 50.0002 41.612 50.0002 40.3069V2.36309C50.0002 1.05801 48.9422 0 47.6371 0Z" fill="url(#paint3_linear_1940_366)"/>
<path d="M47.6369 0H2.36309C1.05801 0 0 1.05801 0 2.36309V8.27949H50V2.36309C50 1.05801 48.942 0 47.6369 0Z" fill="url(#paint4_linear_1940_366)"/>
<path d="M47.6371 0H30.9766V8.27949H50.0002V2.36309C50.0002 1.05801 48.9422 0 47.6371 0Z" fill="url(#paint5_linear_1940_366)"/>
<path d="M44.2712 6.85684C45.7717 6.85684 46.9882 5.6404 46.9882 4.13984C46.9882 2.63929 45.7717 1.42285 44.2712 1.42285C42.7706 1.42285 41.5542 2.63929 41.5542 4.13984C41.5542 5.6404 42.7706 6.85684 44.2712 6.85684Z" fill="url(#paint6_linear_1940_366)"/>
<path d="M41.5542 4.13975C41.5542 5.64033 42.7706 6.85674 44.2712 6.85674C45.7718 6.85674 46.9882 5.64033 46.9882 4.13975C46.9882 3.81475 46.931 3.50322 46.8263 3.21436H41.716C41.6114 3.50322 41.5542 3.81475 41.5542 4.13975Z" fill="url(#paint7_linear_1940_366)"/>
<path d="M42.35 6.06094C43.411 7.12197 45.1313 7.12197 46.1924 6.06094C47.2534 4.9999 47.2534 3.27959 46.1924 2.21855C45.9626 1.98877 45.7018 1.80889 45.4235 1.67871L41.8101 5.29219C41.9404 5.57041 42.1202 5.83115 42.35 6.06094Z" fill="url(#paint8_linear_1940_366)"/>
<path d="M36.8239 6.85684C38.3245 6.85684 39.5409 5.6404 39.5409 4.13984C39.5409 2.63929 38.3245 1.42285 36.8239 1.42285C35.3234 1.42285 34.1069 2.63929 34.1069 4.13984C34.1069 5.6404 35.3234 6.85684 36.8239 6.85684Z" fill="url(#paint9_linear_1940_366)"/>
<path d="M34.1069 4.13975C34.1069 5.64033 35.3233 6.85674 36.8239 6.85674C38.3245 6.85674 39.5409 5.64033 39.5409 4.13975C39.5409 3.81475 39.4837 3.50322 39.379 3.21436H34.2688C34.1642 3.50322 34.1069 3.81475 34.1069 4.13975Z" fill="url(#paint10_linear_1940_366)"/>
<path d="M34.9027 6.06094C35.9638 7.12197 37.6841 7.12197 38.7451 6.06094C39.8062 4.9999 39.8062 3.27959 38.7451 2.21855C38.5153 1.98877 38.2545 1.80889 37.9763 1.67871L34.3628 5.29219C34.4931 5.57041 34.6729 5.83115 34.9027 6.06094Z" fill="url(#paint11_linear_1940_366)"/>
<path d="M29.3771 6.85684C30.8777 6.85684 32.0941 5.6404 32.0941 4.13984C32.0941 2.63929 30.8777 1.42285 29.3771 1.42285C27.8766 1.42285 26.6602 2.63929 26.6602 4.13984C26.6602 5.6404 27.8766 6.85684 29.3771 6.85684Z" fill="url(#paint12_linear_1940_366)"/>
<path d="M26.6602 4.13975C26.6602 5.64033 27.8766 6.85674 29.3771 6.85674C30.8777 6.85674 32.0941 5.64033 32.0941 4.13975C32.0941 3.81475 32.0369 3.50322 31.9322 3.21436H26.822C26.7174 3.50322 26.6602 3.81475 26.6602 4.13975Z" fill="url(#paint13_linear_1940_366)"/>
<path d="M27.456 6.06094C28.517 7.12197 30.2373 7.12197 31.2983 6.06094C32.3594 4.9999 32.3594 3.27959 31.2983 2.21855C31.0686 1.98877 30.8077 1.80889 30.5295 1.67871L26.916 5.29219C27.0463 5.57041 27.2262 5.83115 27.456 6.06094Z" fill="url(#paint14_linear_1940_366)"/>
<path d="M8.98096 28.9758C13.026 28.9758 16.3052 25.6967 16.3052 21.6516C16.3052 17.6066 13.026 14.3274 8.98096 14.3274C4.9359 14.3274 1.65674 17.6066 1.65674 21.6516C1.65674 25.6967 4.9359 28.9758 8.98096 28.9758Z" fill="url(#paint15_linear_1940_366)"/>
<path d="M1.65674 21.6516C1.65674 25.6966 4.93594 28.9758 8.98096 28.9758C13.026 28.9758 16.3052 25.6966 16.3052 21.6516C16.3052 20.7755 16.1509 19.9357 15.8688 19.157H2.09316C1.81113 19.9357 1.65674 20.7755 1.65674 21.6516Z" fill="url(#paint16_linear_1940_366)"/>
<path d="M3.80205 26.8307C6.6623 29.691 11.2998 29.691 14.1601 26.8307C17.0203 23.9705 17.0203 19.333 14.1601 16.4727C13.5406 15.8533 12.8376 15.3685 12.0875 15.0173L2.34668 24.7582C2.69785 25.5083 3.18262 26.2113 3.80205 26.8307Z" fill="url(#paint17_linear_1940_366)"/>
<path d="M8.05896 25.1489C6.83064 25.1489 5.67166 24.6738 4.79558 23.8112C4.61375 23.6322 4.6115 23.3396 4.7905 23.1579C4.96951 22.9761 5.26199 22.9738 5.44382 23.1528C6.14597 23.8442 7.07468 24.225 8.05896 24.225C9.04314 24.225 9.97195 23.8442 10.6741 23.1528C10.8558 22.9738 11.1484 22.9761 11.3274 23.1579C11.5064 23.3397 11.5042 23.6322 11.3223 23.8112C10.4463 24.6738 9.28728 25.1489 8.05896 25.1489Z" fill="url(#paint18_linear_1940_366)"/>
<path d="M8.05896 25.1489C6.83064 25.1489 5.67166 24.6738 4.79558 23.8112C4.61375 23.6322 4.6115 23.3396 4.7905 23.1579C4.96951 22.9761 5.26199 22.9738 5.44382 23.1528C6.14597 23.8442 7.07468 24.225 8.05896 24.225C9.04314 24.225 9.97195 23.8442 10.6741 23.1528C10.8558 22.9738 11.1484 22.9761 11.3274 23.1579C11.5064 23.3397 11.5042 23.6322 11.3223 23.8112C10.4463 24.6738 9.28728 25.1489 8.05896 25.1489Z" fill="url(#paint19_linear_1940_366)"/>
<path d="M6.67529 20.5395C6.45166 20.5395 6.27041 20.3583 6.27041 20.1347C6.27041 19.4454 5.71826 18.8846 5.03955 18.8846C4.36084 18.8846 3.80879 19.4454 3.80879 20.1347C3.80879 20.3583 3.62754 20.5395 3.40391 20.5395C3.18027 20.5395 2.99902 20.3583 2.99902 20.1347C2.99902 18.9988 3.91445 18.0747 5.03975 18.0747C6.16504 18.0747 7.08027 18.9988 7.08027 20.1347C7.08027 20.3583 6.89893 20.5395 6.67529 20.5395Z" fill="url(#paint20_linear_1940_366)"/>
<path d="M6.67529 20.5395C6.45166 20.5395 6.27041 20.3583 6.27041 20.1347C6.27041 19.4454 5.71826 18.8846 5.03955 18.8846C4.36084 18.8846 3.80879 19.4454 3.80879 20.1347C3.80879 20.3583 3.62754 20.5395 3.40391 20.5395C3.18027 20.5395 2.99902 20.3583 2.99902 20.1347C2.99902 18.9988 3.91445 18.0747 5.03975 18.0747C6.16504 18.0747 7.08027 18.9988 7.08027 20.1347C7.08027 20.3583 6.89893 20.5395 6.67529 20.5395Z" fill="url(#paint21_linear_1940_366)"/>
<path d="M12.7145 20.5395C12.4908 20.5395 12.3096 20.3583 12.3096 20.1347C12.3096 19.4454 11.7574 18.8846 11.0787 18.8846C10.4 18.8846 9.84785 19.4453 9.84785 20.1347C9.84785 20.3583 9.6666 20.5395 9.44297 20.5395C9.21934 20.5395 9.03809 20.3583 9.03809 20.1347C9.03809 18.9988 9.95352 18.0747 11.0788 18.0747C12.2041 18.0747 13.1195 18.9988 13.1195 20.1347C13.1194 20.3583 12.9381 20.5395 12.7145 20.5395Z" fill="url(#paint22_linear_1940_366)"/>
<path d="M12.7145 20.5395C12.4908 20.5395 12.3096 20.3583 12.3096 20.1347C12.3096 19.4454 11.7574 18.8846 11.0787 18.8846C10.4 18.8846 9.84785 19.4453 9.84785 20.1347C9.84785 20.3583 9.6666 20.5395 9.44297 20.5395C9.21934 20.5395 9.03809 20.3583 9.03809 20.1347C9.03809 18.9988 9.95352 18.0747 11.0788 18.0747C12.2041 18.0747 13.1195 18.9988 13.1195 20.1347C13.1194 20.3583 12.9381 20.5395 12.7145 20.5395Z" fill="url(#paint23_linear_1940_366)"/>
<path d="M41.019 28.9758C45.0641 28.9758 48.3433 25.6967 48.3433 21.6516C48.3433 17.6066 45.0641 14.3274 41.019 14.3274C36.974 14.3274 33.6948 17.6066 33.6948 21.6516C33.6948 25.6967 36.974 28.9758 41.019 28.9758Z" fill="url(#paint24_linear_1940_366)"/>
<path d="M41.019 28.9758C45.0641 28.9758 48.3433 25.6967 48.3433 21.6516C48.3433 17.6066 45.0641 14.3274 41.019 14.3274C36.974 14.3274 33.6948 17.6066 33.6948 21.6516C33.6948 25.6967 36.974 28.9758 41.019 28.9758Z" fill="url(#paint25_linear_1940_366)"/>
<path d="M41.019 28.9758C45.0641 28.9758 48.3433 25.6967 48.3433 21.6516C48.3433 17.6066 45.0641 14.3274 41.019 14.3274C36.974 14.3274 33.6948 17.6066 33.6948 21.6516C33.6948 25.6967 36.974 28.9758 41.019 28.9758Z" fill="url(#paint26_linear_1940_366)"/>
<path d="M41.8988 24.1216C43.1271 24.1216 44.2861 24.5967 45.1622 25.4593C45.344 25.6383 45.3463 25.9309 45.1673 26.1126C44.9883 26.2944 44.6958 26.2967 44.5139 26.1177C43.8118 25.4263 42.8831 25.0455 41.8988 25.0455C40.9146 25.0455 39.9858 25.4263 39.2837 26.1177C39.1019 26.2967 38.8094 26.2943 38.6303 26.1126C38.4513 25.9308 38.4536 25.6383 38.6354 25.4593C39.5115 24.5967 40.6705 24.1216 41.8988 24.1216Z" fill="url(#paint27_linear_1940_366)"/>
<path d="M46.7189 20.1133C46.4953 20.1133 46.3141 20.2945 46.3141 20.5182C46.3141 21.2074 45.7619 21.7683 45.0832 21.7683C44.4045 21.7683 43.8523 21.2075 43.8523 20.5182C43.8523 20.2945 43.6711 20.1133 43.4474 20.1133C43.2237 20.1133 43.0425 20.2945 43.0425 20.5182C43.0425 21.654 43.9579 22.5781 45.0832 22.5781C46.2084 22.5781 47.1239 21.654 47.1239 20.5182C47.1239 20.2945 46.9426 20.1133 46.7189 20.1133Z" fill="url(#paint28_linear_1940_366)"/>
<path d="M40.6798 20.1133C40.4562 20.1133 40.2749 20.2945 40.2749 20.5182C40.2749 21.2074 39.7228 21.7683 39.044 21.7683C38.3653 21.7683 37.8132 21.2075 37.8132 20.5182C37.8132 20.2945 37.6319 20.1133 37.4083 20.1133C37.1847 20.1133 37.0034 20.2945 37.0034 20.5182C37.0034 21.654 37.9188 22.5781 39.0441 22.5781C40.1694 22.5781 41.0849 21.654 41.0849 20.5182C41.0848 20.2945 40.9034 20.1133 40.6798 20.1133Z" fill="url(#paint29_linear_1940_366)"/>
<path d="M25 28.9758C29.0451 28.9758 32.3242 25.6967 32.3242 21.6516C32.3242 17.6066 29.0451 14.3274 25 14.3274C20.9549 14.3274 17.6758 17.6066 17.6758 21.6516C17.6758 25.6967 20.9549 28.9758 25 28.9758Z" fill="url(#paint30_linear_1940_366)"/>
<path d="M25 28.9758C29.0451 28.9758 32.3242 25.6967 32.3242 21.6516C32.3242 17.6066 29.0451 14.3274 25 14.3274C20.9549 14.3274 17.6758 17.6066 17.6758 21.6516C17.6758 25.6967 20.9549 28.9758 25 28.9758Z" fill="url(#paint31_linear_1940_366)"/>
<path d="M25 28.9758C29.0451 28.9758 32.3242 25.6967 32.3242 21.6516C32.3242 17.6066 29.0451 14.3274 25 14.3274C20.9549 14.3274 17.6758 17.6066 17.6758 21.6516C17.6758 25.6967 20.9549 28.9758 25 28.9758Z" fill="url(#paint32_linear_1940_366)"/>
<path d="M21.9806 21.9856C21.2874 21.9856 20.7256 21.4237 20.7256 20.7305V20.0869C20.7256 19.3937 21.2875 18.8318 21.9806 18.8318C22.6737 18.8318 23.2356 19.3937 23.2356 20.0869V20.7305C23.2355 21.4237 22.6737 21.9856 21.9806 21.9856Z" fill="url(#paint33_linear_1940_366)"/>
<path d="M28.0197 21.9856C27.3266 21.9856 26.7646 21.4237 26.7646 20.7305V20.0869C26.7646 19.3937 27.3266 18.8318 28.0197 18.8318C28.7129 18.8318 29.2747 19.3937 29.2747 20.0869V20.7305C29.2748 21.4237 28.7129 21.9856 28.0197 21.9856Z" fill="url(#paint34_linear_1940_366)"/>
<path d="M27.269 25.4167H22.7315C22.4647 25.4167 22.2485 25.2005 22.2485 24.9337C22.2485 24.6669 22.4647 24.4507 22.7315 24.4507H27.269C27.5358 24.4507 27.7521 24.6669 27.7521 24.9337C27.7521 25.2004 27.5358 25.4167 27.269 25.4167Z" fill="url(#paint35_linear_1940_366)"/>
<path d="M39.0928 42.6698L26.79 30.2839H25.376V42.6698H39.0928Z" fill="url(#paint36_linear_1940_366)"/>
<path d="M23.2703 30.1099L16.2217 23.0613V30.1099H23.2703Z" fill="url(#paint37_linear_1940_366)"/>
<path d="M27.352 31.5903V38.7163C27.352 39.2153 27.2883 39.7099 27.1657 40.189C27.042 40.6689 26.8584 41.1325 26.6175 41.5698C26.3257 42.0979 26.173 42.6906 26.173 43.2934V45.1777H14.0765V44.266C14.0765 42.5798 13.4756 40.9453 12.373 39.669C11.4248 38.5719 10.3304 37.6037 9.11323 36.7983C8.92866 36.6756 8.75776 36.5684 8.606 36.4802C7.99418 36.1221 7.70424 35.413 7.8642 34.7476C7.88696 34.6521 7.91879 34.5566 7.96147 34.4631C8.32778 33.6531 9.29135 33.3022 10.0914 33.6922C10.9277 34.1004 11.7404 34.5558 12.5266 35.0539L13.0893 35.4402V24.039C13.0893 23.119 13.9156 22.37 14.8301 22.3481C15.7664 22.3254 16.5545 23.1153 16.5727 24.0517V29.7322C16.7136 29.0541 17.5654 28.5678 18.5017 28.6759C19.1844 28.7541 19.7843 29.0022 20.2297 29.3576C20.5933 29.0968 21.1106 28.9586 21.6551 29.0213C22.3387 29.1004 22.9377 29.3485 23.3831 29.703C23.7477 29.4421 24.264 29.304 24.8085 29.3667C26.272 29.5359 27.352 30.4804 27.352 31.5903Z" fill="url(#paint38_linear_1940_366)"/>
<path d="M24.8086 29.3667C24.2641 29.304 23.7478 29.4422 23.3832 29.703C22.9378 29.3485 22.3388 29.1003 21.6552 29.0213C21.1106 28.9586 20.5935 29.0968 20.2298 29.3576C19.9276 29.1165 19.5532 28.9266 19.1313 28.8037V45.1775H26.173V43.2932C26.173 42.6904 26.3258 42.0978 26.6176 41.5696C26.8585 41.1324 27.0421 40.6688 27.1657 40.1888C27.2885 39.7097 27.352 39.2152 27.352 38.7161V31.5901C27.352 30.4803 26.2721 29.5358 24.8086 29.3667Z" fill="url(#paint39_linear_1940_366)"/>
<path d="M24.1987 31.2445V33.6344H21.0444V30.8991C21.0444 30.3437 20.7744 29.8301 20.3218 29.4338C20.2918 29.4074 20.2618 29.3819 20.23 29.3574C20.5945 29.0966 21.1108 28.9584 21.6554 29.0211C22.3871 29.1057 23.0234 29.3838 23.4762 29.7802C23.9287 30.1756 24.1987 30.69 24.1987 31.2445Z" fill="url(#paint40_linear_1940_366)"/>
<path d="M27.3521 31.5902V33.6346H24.1987V31.2448C24.1987 30.653 23.8915 30.1084 23.3833 29.7031C23.7479 29.4431 24.2642 29.304 24.8087 29.3667C26.2722 29.5357 27.3521 30.4802 27.3521 31.5902Z" fill="url(#paint41_linear_1940_366)"/>
<path d="M18.5013 28.6757C17.5732 28.5686 16.7278 29.0459 16.5758 29.7145L16.5725 29.7312C16.5724 29.7315 16.5724 29.7319 16.5723 29.7323V33.6345H21.0444V30.899C21.0445 29.7887 19.9645 28.8444 18.5013 28.6757Z" fill="url(#paint42_linear_1940_366)"/>
<path d="M13.0892 35.4409L13.089 35.4403L12.5269 35.0536C11.7402 34.5555 10.9277 34.1005 10.091 33.6919C9.29167 33.3016 8.32742 33.6528 7.96111 34.4631C7.91863 34.5565 7.88679 34.6518 7.86404 34.7474C7.70447 35.413 7.99431 36.122 8.60603 36.4796C8.75779 36.5682 8.92868 36.6755 9.11325 36.7977C10.6508 37.8155 11.9908 39.0937 13.0893 40.5623L13.0892 35.4409Z" fill="url(#paint43_linear_1940_366)"/>
<path d="M16.5728 24.0517V33.6347H13.0894V24.039C13.0894 23.119 13.9156 22.37 14.8302 22.3481C15.7664 22.3254 16.5546 23.1153 16.5728 24.0517Z" fill="url(#paint44_linear_1940_366)"/>
<path d="M11.1167 38.373C11.5591 38.7816 11.9793 39.2135 12.3729 39.6689C13.6734 41.1743 14.276 43.1778 14.0179 45.1771C14.0179 45.1774 14.0181 45.1777 14.0185 45.1777H26.1729V43.2934C26.1729 42.6906 26.3257 42.0979 26.6175 41.5698C26.8584 41.1326 27.042 40.6689 27.1656 40.189C27.2884 39.7099 27.352 39.2154 27.352 38.7163V38.373H11.1167Z" fill="url(#paint45_linear_1940_366)"/>
<path d="M27.1408 48.9421V45.1603C27.1408 44.5761 26.6673 44.1025 26.0831 44.1025H14.2013C13.6171 44.1025 13.1436 44.5761 13.1436 45.1603V48.9421C13.1436 49.5263 13.6171 49.9998 14.2013 49.9998H26.0831C26.6673 49.9998 27.1408 49.5263 27.1408 48.9421Z" fill="url(#paint46_linear_1940_366)"/>
<path d="M26.0828 44.1025H18.0308V49.9998H26.0828C26.667 49.9998 27.1405 49.5263 27.1405 48.9421V45.1603C27.1405 44.5761 26.667 44.1025 26.0828 44.1025Z" fill="url(#paint47_linear_1940_366)"/>
</g>
<defs>
<linearGradient id="paint0_linear_1940_366" x1="9.92715" y1="6.26211" x2="43.2791" y2="39.6142" gradientUnits="userSpaceOnUse">
<stop stop-color="#F5FBFF"/>
<stop offset="1" stop-color="#D8ECFE"/>
</linearGradient>
<linearGradient id="paint1_linear_1940_366" x1="25" y1="16.0765" x2="25" y2="8.35688" gradientUnits="userSpaceOnUse">
<stop stop-color="#B3DAFE" stop-opacity="0"/>
<stop offset="0.4315" stop-color="#B1D9FE" stop-opacity="0.432"/>
<stop offset="0.6657" stop-color="#A9D6FE" stop-opacity="0.666"/>
<stop offset="0.852" stop-color="#9BD0FE" stop-opacity="0.852"/>
<stop offset="1" stop-color="#8AC9FE"/>
</linearGradient>
<linearGradient id="paint2_linear_1940_366" x1="25" y1="37.4961" x2="25" y2="42.3536" gradientUnits="userSpaceOnUse">
<stop stop-color="#B3DAFE" stop-opacity="0"/>
<stop offset="0.4315" stop-color="#B1D9FE" stop-opacity="0.432"/>
<stop offset="0.6657" stop-color="#A9D6FE" stop-opacity="0.666"/>
<stop offset="0.852" stop-color="#9BD0FE" stop-opacity="0.852"/>
<stop offset="1" stop-color="#8AC9FE"/>
</linearGradient>
<linearGradient id="paint3_linear_1940_366" x1="44.0645" y1="21.335" x2="49.4389" y2="21.335" gradientUnits="userSpaceOnUse">
<stop stop-color="#B3DAFE" stop-opacity="0"/>
<stop offset="0.4315" stop-color="#B1D9FE" stop-opacity="0.432"/>
<stop offset="0.6657" stop-color="#A9D6FE" stop-opacity="0.666"/>
<stop offset="0.852" stop-color="#9BD0FE" stop-opacity="0.852"/>
<stop offset="1" stop-color="#8AC9FE"/>
</linearGradient>
<linearGradient id="paint4_linear_1940_366" x1="23.6933" y1="-4.90195" x2="26.0603" y2="13.4768" gradientUnits="userSpaceOnUse">
<stop stop-color="#B3DAFE"/>
<stop offset="1" stop-color="#0182FC"/>
</linearGradient>
<linearGradient id="paint5_linear_1940_366" x1="43.5075" y1="4.13975" x2="50.0647" y2="4.13975" gradientUnits="userSpaceOnUse">
<stop stop-color="#314DC9" stop-opacity="0"/>
<stop offset="0.2761" stop-color="#304BC4" stop-opacity="0.276"/>
<stop offset="0.5628" stop-color="#2B45B8" stop-opacity="0.563"/>
<stop offset="0.8535" stop-color="#243BA3" stop-opacity="0.854"/>
<stop offset="1" stop-color="#1F3596"/>
</linearGradient>
<linearGradient id="paint6_linear_1940_366" x1="41.5542" y1="1.42285" x2="47.2927" y2="1.76608" gradientUnits="userSpaceOnUse">
<stop stop-color="#FF5C65"/>
<stop offset="0.53125" stop-color="#FD008B"/>
<stop offset="1" stop-color="#6500FC"/>
</linearGradient>
<linearGradient id="paint7_linear_1940_366" x1="44.2359" y1="4.53418" x2="44.0296" y2="6.83643" gradientUnits="userSpaceOnUse">
<stop stop-color="#FE0364" stop-opacity="0"/>
<stop offset="0.2343" stop-color="#F90362" stop-opacity="0.234"/>
<stop offset="0.5173" stop-color="#EA035B" stop-opacity="0.517"/>
<stop offset="0.8243" stop-color="#D20250" stop-opacity="0.824"/>
<stop offset="1" stop-color="#C00148"/>
</linearGradient>
<linearGradient id="paint8_linear_1940_366" x1="44.7873" y1="4.45293" x2="46.4163" y2="5.44121" gradientUnits="userSpaceOnUse">
<stop stop-color="#FE0364" stop-opacity="0"/>
<stop offset="0.2343" stop-color="#F90362" stop-opacity="0.234"/>
<stop offset="0.5173" stop-color="#EA035B" stop-opacity="0.517"/>
<stop offset="0.8243" stop-color="#D20250" stop-opacity="0.824"/>
<stop offset="1" stop-color="#C00148"/>
</linearGradient>
<linearGradient id="paint9_linear_1940_366" x1="35.4104" y1="2.72627" x2="37.8228" y2="5.13867" gradientUnits="userSpaceOnUse">
<stop stop-color="#FEF0AE"/>
<stop offset="1" stop-color="#FAC600"/>
</linearGradient>
<linearGradient id="paint10_linear_1940_366" x1="36.7886" y1="4.53418" x2="36.5823" y2="6.83643" gradientUnits="userSpaceOnUse">
<stop stop-color="#FE9738" stop-opacity="0"/>
<stop offset="1" stop-color="#FE9738"/>
</linearGradient>
<linearGradient id="paint11_linear_1940_366" x1="37.34" y1="4.45293" x2="38.969" y2="5.44121" gradientUnits="userSpaceOnUse">
<stop stop-color="#FE9738" stop-opacity="0"/>
<stop offset="1" stop-color="#FE9738"/>
</linearGradient>
<linearGradient id="paint12_linear_1940_366" x1="27.9636" y1="2.72627" x2="30.376" y2="5.13867" gradientUnits="userSpaceOnUse">
<stop stop-color="#C9F6B0"/>
<stop offset="1" stop-color="#0BB494"/>
</linearGradient>
<linearGradient id="paint13_linear_1940_366" x1="29.3418" y1="4.53418" x2="29.1355" y2="6.83643" gradientUnits="userSpaceOnUse">
<stop stop-color="#00A887" stop-opacity="0"/>
<stop offset="0.3602" stop-color="#01A58C" stop-opacity="0.36"/>
<stop offset="0.7945" stop-color="#069C9A" stop-opacity="0.795"/>
<stop offset="1" stop-color="#0996A4"/>
</linearGradient>
<linearGradient id="paint14_linear_1940_366" x1="29.8933" y1="4.45293" x2="31.5223" y2="5.44121" gradientUnits="userSpaceOnUse">
<stop stop-color="#00A887" stop-opacity="0"/>
<stop offset="0.3602" stop-color="#01A58C" stop-opacity="0.36"/>
<stop offset="0.7945" stop-color="#069C9A" stop-opacity="0.795"/>
<stop offset="1" stop-color="#0996A4"/>
</linearGradient>
<linearGradient id="paint15_linear_1940_366" x1="5.17031" y1="17.8409" x2="11.6733" y2="24.344" gradientUnits="userSpaceOnUse">
<stop stop-color="#FEF0AE"/>
<stop offset="1" stop-color="#FAC600"/>
</linearGradient>
<linearGradient id="paint16_linear_1940_366" x1="8.88574" y1="22.7148" x2="8.32949" y2="28.9209" gradientUnits="userSpaceOnUse">
<stop stop-color="#FE9738" stop-opacity="0"/>
<stop offset="1" stop-color="#FE9738"/>
</linearGradient>
<linearGradient id="paint17_linear_1940_366" x1="10.3724" y1="22.496" x2="14.7636" y2="25.16" gradientUnits="userSpaceOnUse">
<stop stop-color="#FE9738" stop-opacity="0"/>
<stop offset="1" stop-color="#FE9738"/>
</linearGradient>
<linearGradient id="paint18_linear_1940_366" x1="8.05896" y1="24.3108" x2="8.05896" y2="24.9475" gradientUnits="userSpaceOnUse">
<stop stop-color="#5A5A5A"/>
<stop offset="1" stop-color="#444444"/>
</linearGradient>
<linearGradient id="paint19_linear_1940_366" x1="8.05896" y1="24.7352" x2="8.05896" y2="23.1983" gradientUnits="userSpaceOnUse">
<stop stop-color="#433F43" stop-opacity="0"/>
<stop offset="1" stop-color="#1A1A1A"/>
</linearGradient>
<linearGradient id="paint20_linear_1940_366" x1="4.43555" y1="18.1666" x2="5.154" y2="20.3477" gradientUnits="userSpaceOnUse">
<stop stop-color="#5A5A5A"/>
<stop offset="1" stop-color="#444444"/>
</linearGradient>
<linearGradient id="paint21_linear_1940_366" x1="5.03955" y1="19.6605" x2="5.03955" y2="18.1904" gradientUnits="userSpaceOnUse">
<stop stop-color="#433F43" stop-opacity="0"/>
<stop offset="1" stop-color="#1A1A1A"/>
</linearGradient>
<linearGradient id="paint22_linear_1940_366" x1="10.4747" y1="18.1666" x2="11.1932" y2="20.3477" gradientUnits="userSpaceOnUse">
<stop stop-color="#5A5A5A"/>
<stop offset="1" stop-color="#444444"/>
</linearGradient>
<linearGradient id="paint23_linear_1940_366" x1="11.0787" y1="19.6605" x2="11.0787" y2="18.1904" gradientUnits="userSpaceOnUse">
<stop stop-color="#433F43" stop-opacity="0"/>
<stop offset="1" stop-color="#1A1A1A"/>
</linearGradient>
<linearGradient id="paint24_linear_1940_366" x1="28.0547" y1="8.68726" x2="47.2733" y2="27.9059" gradientUnits="userSpaceOnUse">
<stop stop-color="#B3DAFE" stop-opacity="0"/>
<stop offset="0.4315" stop-color="#B1D9FE" stop-opacity="0.432"/>
<stop offset="0.6657" stop-color="#A9D6FE" stop-opacity="0.666"/>
<stop offset="0.852" stop-color="#9BD0FE" stop-opacity="0.852"/>
<stop offset="1" stop-color="#8AC9FE"/>
</linearGradient>
<linearGradient id="paint25_linear_1940_366" x1="45.6345" y1="21.6516" x2="33.3818" y2="21.6516" gradientUnits="userSpaceOnUse">
<stop stop-color="#B3DAFE" stop-opacity="0"/>
<stop offset="0.4315" stop-color="#B1D9FE" stop-opacity="0.432"/>
<stop offset="0.6657" stop-color="#A9D6FE" stop-opacity="0.666"/>
<stop offset="0.852" stop-color="#9BD0FE" stop-opacity="0.852"/>
<stop offset="1" stop-color="#8AC9FE"/>
</linearGradient>
<linearGradient id="paint26_linear_1940_366" x1="44.136" y1="24.7686" x2="35.1923" y2="15.8249" gradientUnits="userSpaceOnUse">
<stop stop-color="#B3DAFE" stop-opacity="0"/>
<stop offset="0.4315" stop-color="#B1D9FE" stop-opacity="0.432"/>
<stop offset="0.6657" stop-color="#A9D6FE" stop-opacity="0.666"/>
<stop offset="0.852" stop-color="#9BD0FE" stop-opacity="0.852"/>
<stop offset="1" stop-color="#8AC9FE"/>
</linearGradient>
<linearGradient id="paint27_linear_1940_366" x1="35.6397" y1="14.1839" x2="42.0793" y2="26.1231" gradientUnits="userSpaceOnUse">
<stop stop-color="#B3DAFE" stop-opacity="0"/>
<stop offset="0.4315" stop-color="#B1D9FE" stop-opacity="0.432"/>
<stop offset="0.6657" stop-color="#A9D6FE" stop-opacity="0.666"/>
<stop offset="0.852" stop-color="#9BD0FE" stop-opacity="0.852"/>
<stop offset="1" stop-color="#8AC9FE"/>
</linearGradient>
<linearGradient id="paint28_linear_1940_366" x1="40.9477" y1="12.5761" x2="45.4031" y2="21.3478" gradientUnits="userSpaceOnUse">
<stop stop-color="#B3DAFE" stop-opacity="0"/>
<stop offset="0.4315" stop-color="#B1D9FE" stop-opacity="0.432"/>
<stop offset="0.6657" stop-color="#A9D6FE" stop-opacity="0.666"/>
<stop offset="0.852" stop-color="#9BD0FE" stop-opacity="0.852"/>
<stop offset="1" stop-color="#8AC9FE"/>
</linearGradient>
<linearGradient id="paint29_linear_1940_366" x1="36.0662" y1="14.4051" x2="39.3729" y2="21.4016" gradientUnits="userSpaceOnUse">
<stop stop-color="#B3DAFE" stop-opacity="0"/>
<stop offset="0.4315" stop-color="#B1D9FE" stop-opacity="0.432"/>
<stop offset="0.6657" stop-color="#A9D6FE" stop-opacity="0.666"/>
<stop offset="0.852" stop-color="#9BD0FE" stop-opacity="0.852"/>
<stop offset="1" stop-color="#8AC9FE"/>
</linearGradient>
<linearGradient id="paint30_linear_1940_366" x1="7.61865" y1="4.27026" x2="31.1593" y2="27.8109" gradientUnits="userSpaceOnUse">
<stop stop-color="#B3DAFE" stop-opacity="0"/>
<stop offset="0.4315" stop-color="#B1D9FE" stop-opacity="0.432"/>
<stop offset="0.6657" stop-color="#A9D6FE" stop-opacity="0.666"/>
<stop offset="0.852" stop-color="#9BD0FE" stop-opacity="0.852"/>
<stop offset="1" stop-color="#8AC9FE"/>
</linearGradient>
<linearGradient id="paint31_linear_1940_366" x1="25.585" y1="21.6516" x2="17.2299" y2="21.6516" gradientUnits="userSpaceOnUse">
<stop stop-color="#B3DAFE" stop-opacity="0"/>
<stop offset="0.4315" stop-color="#B1D9FE" stop-opacity="0.432"/>
<stop offset="0.6657" stop-color="#A9D6FE" stop-opacity="0.666"/>
<stop offset="0.852" stop-color="#9BD0FE" stop-opacity="0.852"/>
<stop offset="1" stop-color="#8AC9FE"/>
</linearGradient>
<linearGradient id="paint32_linear_1940_366" x1="26.7631" y1="23.4147" x2="19.6724" y2="16.324" gradientUnits="userSpaceOnUse">
<stop stop-color="#B3DAFE" stop-opacity="0"/>
<stop offset="0.4315" stop-color="#B1D9FE" stop-opacity="0.432"/>
<stop offset="0.6657" stop-color="#A9D6FE" stop-opacity="0.666"/>
<stop offset="0.852" stop-color="#9BD0FE" stop-opacity="0.852"/>
<stop offset="1" stop-color="#8AC9FE"/>
</linearGradient>
<linearGradient id="paint33_linear_1940_366" x1="16.7551" y1="15.1833" x2="22.9076" y2="21.3358" gradientUnits="userSpaceOnUse">
<stop stop-color="#B3DAFE" stop-opacity="0"/>
<stop offset="0.4315" stop-color="#B1D9FE" stop-opacity="0.432"/>
<stop offset="0.6657" stop-color="#A9D6FE" stop-opacity="0.666"/>
<stop offset="0.852" stop-color="#9BD0FE" stop-opacity="0.852"/>
<stop offset="1" stop-color="#8AC9FE"/>
</linearGradient>
<linearGradient id="paint34_linear_1940_366" x1="22.6264" y1="14.8366" x2="28.9267" y2="21.3458" gradientUnits="userSpaceOnUse">
<stop stop-color="#B3DAFE" stop-opacity="0"/>
<stop offset="0.4315" stop-color="#B1D9FE" stop-opacity="0.432"/>
<stop offset="0.6657" stop-color="#A9D6FE" stop-opacity="0.666"/>
<stop offset="0.852" stop-color="#9BD0FE" stop-opacity="0.852"/>
<stop offset="1" stop-color="#8AC9FE"/>
</linearGradient>
<linearGradient id="paint35_linear_1940_366" x1="24.4008" y1="19.3175" x2="25.0622" y2="25.5133" gradientUnits="userSpaceOnUse">
<stop stop-color="#B3DAFE" stop-opacity="0"/>
<stop offset="0.4315" stop-color="#B1D9FE" stop-opacity="0.432"/>
<stop offset="0.6657" stop-color="#A9D6FE" stop-opacity="0.666"/>
<stop offset="0.852" stop-color="#9BD0FE" stop-opacity="0.852"/>
<stop offset="1" stop-color="#8AC9FE"/>
</linearGradient>
<linearGradient id="paint36_linear_1940_366" x1="37.7936" y1="37.0361" x2="25.4019" y2="36.4444" gradientUnits="userSpaceOnUse">
<stop stop-color="#B3DAFE" stop-opacity="0"/>
<stop offset="0.4315" stop-color="#B1D9FE" stop-opacity="0.432"/>
<stop offset="0.6657" stop-color="#A9D6FE" stop-opacity="0.666"/>
<stop offset="0.852" stop-color="#9BD0FE" stop-opacity="0.852"/>
<stop offset="1" stop-color="#8AC9FE"/>
</linearGradient>
<linearGradient id="paint37_linear_1940_366" x1="21.6865" y1="26.5856" x2="16.1163" y2="26.5856" gradientUnits="userSpaceOnUse">
<stop stop-color="#B3DAFE" stop-opacity="0"/>
<stop offset="0.4315" stop-color="#B1D9FE" stop-opacity="0.432"/>
<stop offset="0.6657" stop-color="#A9D6FE" stop-opacity="0.666"/>
<stop offset="0.852" stop-color="#9BD0FE" stop-opacity="0.852"/>
<stop offset="1" stop-color="#8AC9FE"/>
</linearGradient>
<linearGradient id="paint38_linear_1940_366" x1="10.5229" y1="27.5059" x2="37.0192" y2="54.8368" gradientUnits="userSpaceOnUse">
<stop stop-color="#FFDFCF"/>
<stop offset="1" stop-color="#FFA78F"/>
</linearGradient>
<linearGradient id="paint39_linear_1940_366" x1="23.9321" y1="37.4901" x2="28.1313" y2="37.9567" gradientUnits="userSpaceOnUse">
<stop stop-color="#F89580" stop-opacity="0"/>
<stop offset="0.2859" stop-color="#EE8E79" stop-opacity="0.287"/>
<stop offset="0.7624" stop-color="#D57B65" stop-opacity="0.765"/>
<stop offset="0.9972" stop-color="#C5715A"/>
</linearGradient>
<linearGradient id="paint40_linear_1940_366" x1="20.9795" y1="30.3256" x2="19.8455" y2="29.1105" gradientUnits="userSpaceOnUse">
<stop stop-color="#F89580" stop-opacity="0"/>
<stop offset="0.2859" stop-color="#EE8E79" stop-opacity="0.287"/>
<stop offset="0.7624" stop-color="#D57B65" stop-opacity="0.765"/>
<stop offset="0.9972" stop-color="#C5715A"/>
</linearGradient>
<linearGradient id="paint41_linear_1940_366" x1="24.2025" y1="30.6646" x2="22.8307" y2="29.2927" gradientUnits="userSpaceOnUse">
<stop stop-color="#F89580" stop-opacity="0"/>
<stop offset="0.2859" stop-color="#EE8E79" stop-opacity="0.287"/>
<stop offset="0.7624" stop-color="#D57B65" stop-opacity="0.765"/>
<stop offset="0.9972" stop-color="#C5715A"/>
</linearGradient>
<linearGradient id="paint42_linear_1940_366" x1="17.6834" y1="30.8245" x2="14.9617" y2="28.2972" gradientUnits="userSpaceOnUse">
<stop stop-color="#F89580" stop-opacity="0"/>
<stop offset="0.2859" stop-color="#EE8E79" stop-opacity="0.287"/>
<stop offset="0.7624" stop-color="#D57B65" stop-opacity="0.765"/>
<stop offset="0.9972" stop-color="#C5715A"/>
</linearGradient>
<linearGradient id="paint43_linear_1940_366" x1="11.4794" y1="36.231" x2="12.8288" y2="34.4662" gradientUnits="userSpaceOnUse">
<stop stop-color="#F89580" stop-opacity="0"/>
<stop offset="0.2859" stop-color="#EE8E79" stop-opacity="0.287"/>
<stop offset="0.7624" stop-color="#D57B65" stop-opacity="0.765"/>
<stop offset="0.9972" stop-color="#C5715A"/>
</linearGradient>
<linearGradient id="paint44_linear_1940_366" x1="15.4743" y1="28.0251" x2="18.4876" y2="27.3447" gradientUnits="userSpaceOnUse">
<stop stop-color="#F89580" stop-opacity="0"/>
<stop offset="0.2859" stop-color="#EE8E79" stop-opacity="0.287"/>
<stop offset="0.7624" stop-color="#D57B65" stop-opacity="0.765"/>
<stop offset="0.9972" stop-color="#C5715A"/>
</linearGradient>
<linearGradient id="paint45_linear_1940_366" x1="19.2343" y1="41.9695" x2="19.2343" y2="44.9844" gradientUnits="userSpaceOnUse">
<stop stop-color="#F89580" stop-opacity="0"/>
<stop offset="0.2859" stop-color="#EE8E79" stop-opacity="0.287"/>
<stop offset="0.7624" stop-color="#D57B65" stop-opacity="0.765"/>
<stop offset="0.9972" stop-color="#C5715A"/>
</linearGradient>
<linearGradient id="paint46_linear_1940_366" x1="20.1935" y1="45.2041" x2="20.0542" y2="50.2165" gradientUnits="userSpaceOnUse">
<stop stop-color="#C9F6B0"/>
<stop offset="1" stop-color="#0BB494"/>
</linearGradient>
<linearGradient id="paint47_linear_1940_366" x1="24.7813" y1="47.0512" x2="27.5256" y2="47.0512" gradientUnits="userSpaceOnUse">
<stop stop-color="#00A887" stop-opacity="0"/>
<stop offset="0.3602" stop-color="#01A58C" stop-opacity="0.36"/>
<stop offset="0.7945" stop-color="#069C9A" stop-opacity="0.795"/>
<stop offset="1" stop-color="#0996A4"/>
</linearGradient>
<clipPath id="clip0_1940_366">
<rect width="50" height="50" fill="white"/>
</clipPath>
</defs>
</svg>
