<svg width="50" height="50" viewBox="0 0 50 50" fill="none" xmlns="http://www.w3.org/2000/svg">
<g clip-path="url(#clip0_2170_719)">
<path d="M13.2812 46.0938H19.4766C20.2828 48.367 22.4538 50 25 50C27.5462 50 29.7171 48.367 30.5234 46.0938H36.7188C37.7975 46.0938 38.6719 45.2193 38.6719 44.1406C38.6719 43.0619 37.7975 42.1875 36.7188 42.1875H30.5234C29.934 40.5256 28.6151 39.2066 26.9531 38.6172V33.2031C26.9531 32.1244 26.0787 31.25 25 31.25C23.9213 31.25 23.0469 32.1244 23.0469 33.2031V38.6172C21.385 39.2066 20.066 40.5255 19.4766 42.1875H13.2812C12.2025 42.1875 11.3281 43.0619 11.3281 44.1406C11.3281 45.2193 12.2025 46.0938 13.2812 46.0938ZM25 42.1875C26.077 42.1875 26.9531 43.0637 26.9531 44.1406C26.9531 45.2176 26.077 46.0938 25 46.0938C23.923 46.0938 23.0469 45.2176 23.0469 44.1406C23.0469 43.0637 23.923 42.1875 25 42.1875Z" fill="white"/>
<path d="M5.85938 35.1562H17.1875C18.2662 35.1562 19.1406 34.2818 19.1406 33.2031C19.1406 32.1244 18.2662 31.25 17.1875 31.25H5.85938C4.78242 31.25 3.90625 30.3738 3.90625 29.2969V25.3906C3.90625 24.3137 4.78242 23.4375 5.85938 23.4375H7.8125V25.3906C7.8125 26.4693 8.68691 27.3438 9.76562 27.3438C10.8443 27.3438 11.7188 26.4693 11.7188 25.3906V23.4375H15.625V25.3906C15.625 26.4693 16.4994 27.3438 17.5781 27.3438C18.6568 27.3438 19.5312 26.4693 19.5312 25.3906V23.4375H44.1406C45.2176 23.4375 46.0938 24.3137 46.0938 25.3906V29.2969C46.0938 30.3738 45.2176 31.25 44.1406 31.25H32.8125C31.7338 31.25 30.8594 32.1244 30.8594 33.2031C30.8594 34.2818 31.7338 35.1562 32.8125 35.1562H44.1406C47.3715 35.1562 50 32.5277 50 29.2969V25.3906C50 22.1598 47.3715 19.5312 44.1406 19.5312H26.9531V15.625H44.1406C47.3715 15.625 50 12.9965 50 9.76562V5.85938C50 2.62852 47.3715 0 44.1406 0H5.85938C2.62852 0 0 2.62852 0 5.85938V9.76562C0 12.9965 2.62852 15.625 5.85938 15.625H23.0469V19.5312H5.85938C2.62852 19.5312 0 22.1598 0 25.3906V29.2969C0 32.5277 2.62852 35.1562 5.85938 35.1562ZM3.90625 9.76562V5.85938C3.90625 4.78242 4.78242 3.90625 5.85938 3.90625H7.8125V5.85938C7.8125 6.93809 8.68691 7.8125 9.76562 7.8125C10.8443 7.8125 11.7188 6.93809 11.7188 5.85938V3.90625H15.625V5.85938C15.625 6.93809 16.4994 7.8125 17.5781 7.8125C18.6568 7.8125 19.5312 6.93809 19.5312 5.85938V3.90625H44.1406C45.2176 3.90625 46.0938 4.78242 46.0938 5.85938V9.76562C46.0938 10.8426 45.2176 11.7188 44.1406 11.7188H5.85938C4.78242 11.7188 3.90625 10.8426 3.90625 9.76562Z" fill="white"/>
</g>
<defs>
<clipPath id="clip0_2170_719">
<rect width="50" height="50" fill="white"/>
</clipPath>
</defs>
</svg>
