<svg width="40" height="40" viewBox="0 0 40 40" fill="none" xmlns="http://www.w3.org/2000/svg">
<g clip-path="url(#clip0_1837_368)">
<path d="M5.78125 40.4062C2.59344 40.4062 0 37.8128 0 34.625V19.7812C0 16.5934 2.59344 14 5.78125 14C8.96906 14 11.5625 16.5934 11.5625 19.7812V34.625C11.5625 37.8128 8.96906 40.4062 5.78125 40.4062ZM5.78125 17.125C4.31656 17.125 3.125 18.3166 3.125 19.7812V34.625C3.125 36.0897 4.31656 37.2812 5.78125 37.2812C7.24594 37.2812 8.4375 36.0897 8.4375 34.625V19.7812C8.4375 18.3166 7.24594 17.125 5.78125 17.125ZM20 40.4062C16.8122 40.4062 14.2188 37.8128 14.2188 34.625V28.2188C14.2188 25.0309 16.8122 22.4375 20 22.4375C23.1878 22.4375 25.7812 25.0309 25.7812 28.2188V34.625C25.7812 37.8128 23.1878 40.4062 20 40.4062ZM20 25.5625C18.5353 25.5625 17.3438 26.7541 17.3438 28.2188V34.625C17.3438 36.0897 18.5353 37.2812 20 37.2812C21.4647 37.2812 22.6562 36.0897 22.6562 34.625V28.2188C22.6562 26.7541 21.4647 25.5625 20 25.5625ZM34.2188 40.4062C31.0309 40.4062 28.4375 37.8128 28.4375 34.625V20.9531C28.4375 17.7653 31.0309 15.1719 34.2188 15.1719C37.4066 15.1719 40 17.7653 40 20.9531V34.625C40 37.8128 37.4066 40.4062 34.2188 40.4062ZM34.2188 18.2969C32.7541 18.2969 31.5625 19.4884 31.5625 20.9531V34.625C31.5625 36.0897 32.7541 37.2812 34.2188 37.2812C35.6834 37.2812 36.875 36.0897 36.875 34.625V20.9531C36.875 19.4885 35.6834 18.2969 34.2188 18.2969Z" fill="white"/>
<path d="M21.4775 19.0586C20.2857 19.0586 19.0883 18.6726 18.0901 17.8831C18.0622 17.861 8.08832 8.80227 8.08832 8.80227C7.20067 8.12797 5.96832 8.16992 5.12832 8.905L2.66129 11.3452C2.0477 11.9521 1.05832 11.9466 0.451684 11.3332C-0.155269 10.7196 -0.149801 9.73031 0.463715 9.12352C0.463715 9.12352 2.99598 6.61961 3.01434 6.60305C5.00207 4.81531 7.96676 4.72148 10.0636 6.37977C10.0915 6.40188 20.0654 15.4606 20.0654 15.4606C21.0311 16.1939 22.41 16.0667 23.2245 15.1616C23.2343 15.1508 23.2442 15.1401 23.2543 15.1295L31.9152 6.03203C32.5102 5.40703 33.4992 5.38266 34.1242 5.97773C34.7492 6.57273 34.7736 7.56172 34.1785 8.1868L25.5316 17.2695C24.4593 18.4507 22.9729 19.0585 21.4775 19.0586ZM40 8.90625V4.6875C40 2.10281 37.8971 0 35.3125 0H31.0937C30.2307 0 29.5312 0.699531 29.5312 1.5625C29.5312 2.42547 30.2307 3.125 31.0937 3.125H35.3125C36.174 3.125 36.875 3.82594 36.875 4.6875V8.90625C36.875 9.76922 37.5745 10.4688 38.4375 10.4688C39.3004 10.4688 40 9.76922 40 8.90625Z" fill="url(#paint0_linear_1837_368)"/>
</g>
<defs>
<linearGradient id="paint0_linear_1837_368" x1="0" y1="0" x2="41.7348" y2="5.23909" gradientUnits="userSpaceOnUse">
<stop stop-color="#FF5C65"/>
<stop offset="0.53125" stop-color="#FD008B"/>
<stop offset="1" stop-color="#6500FC"/>
</linearGradient>
<clipPath id="clip0_1837_368">
<rect width="40" height="40" fill="white"/>
</clipPath>
</defs>
</svg>
