<svg width="50" height="50" viewBox="0 0 50 50" fill="none" xmlns="http://www.w3.org/2000/svg">
<g clip-path="url(#clip0_1734_14)">
<path d="M7.22656 50C3.2418 50 0 46.7582 0 42.7734V24.2188C0 20.234 3.2418 16.9922 7.22656 16.9922C11.2113 16.9922 14.4531 20.234 14.4531 24.2188V42.7734C14.4531 46.7582 11.2113 50 7.22656 50ZM7.22656 20.8984C5.3957 20.8984 3.90625 22.3879 3.90625 24.2188V42.7734C3.90625 44.6043 5.3957 46.0938 7.22656 46.0938C9.05742 46.0938 10.5469 44.6043 10.5469 42.7734V24.2188C10.5469 22.388 9.05742 20.8984 7.22656 20.8984ZM25 50C21.0152 50 17.7734 46.7582 17.7734 42.7734V34.7656C17.7734 30.7809 21.0152 27.5391 25 27.5391C28.9848 27.5391 32.2266 30.7809 32.2266 34.7656V42.7734C32.2266 46.7582 28.9848 50 25 50ZM25 31.4453C23.1691 31.4453 21.6797 32.9348 21.6797 34.7656V42.7734C21.6797 44.6043 23.1691 46.0938 25 46.0938C26.8309 46.0938 28.3203 44.6043 28.3203 42.7734V34.7656C28.3203 32.9349 26.8309 31.4453 25 31.4453ZM42.7734 50C38.7887 50 35.5469 46.7582 35.5469 42.7734V25.6836C35.5469 21.6988 38.7887 18.457 42.7734 18.457C46.7582 18.457 50 21.6988 50 25.6836V42.7734C50 46.7582 46.7582 50 42.7734 50ZM42.7734 22.3633C40.9426 22.3633 39.4531 23.8527 39.4531 25.6836V42.7734C39.4531 44.6043 40.9426 46.0938 42.7734 46.0938C44.6043 46.0938 46.0938 44.6043 46.0938 42.7734V25.6836C46.0938 23.8528 44.6043 22.3633 42.7734 22.3633Z" fill="white"/>
<path d="M26.847 23.8232C25.3572 23.8232 23.8605 23.3407 22.6127 22.3539C22.5778 22.3263 10.1105 11.0028 10.1105 11.0028C9.0009 10.16 7.46047 10.2124 6.41047 11.1313L3.32668 14.1815C2.55968 14.9401 1.32297 14.9333 0.564666 14.1665C-0.194026 13.3995 -0.18719 12.1629 0.579705 11.4044C0.579705 11.4044 3.74504 8.27451 3.76799 8.25381C6.25265 6.01914 9.95851 5.90186 12.5796 7.97471C12.6145 8.00234 25.0818 19.3258 25.0818 19.3258C26.289 20.2424 28.0126 20.0834 29.0307 18.9521C29.0429 18.9385 29.0553 18.9251 29.0679 18.9119L39.8941 7.54004C40.6378 6.75879 41.874 6.72832 42.6553 7.47217C43.4365 8.21592 43.467 9.45215 42.7232 10.2335L31.9146 21.5869C30.5741 23.0634 28.7161 23.8231 26.847 23.8232ZM50 11.1328V5.85938C50 2.62852 47.3715 0 44.1406 0H38.8672C37.7885 0 36.9141 0.874414 36.9141 1.95312C36.9141 3.03184 37.7885 3.90625 38.8672 3.90625H44.1406C45.2176 3.90625 46.0938 4.78242 46.0938 5.85938V11.1328C46.0938 12.2115 46.9682 13.0859 48.0469 13.0859C49.1256 13.0859 50 12.2115 50 11.1328Z" fill="url(#paint0_linear_1734_14)"/>
</g>
<defs>
<linearGradient id="paint0_linear_1734_14" x1="6.10352e-05" y1="0" x2="52.1685" y2="6.54887" gradientUnits="userSpaceOnUse">
<stop stop-color="#FF5C65"/>
<stop offset="0.53125" stop-color="#FD008B"/>
<stop offset="1" stop-color="#6500FC"/>
</linearGradient>
<clipPath id="clip0_1734_14">
<rect width="50" height="50" fill="white"/>
</clipPath>
</defs>
</svg>
