<svg width="29" height="33" viewBox="0 0 29 33" fill="none" xmlns="http://www.w3.org/2000/svg">
<path fill-rule="evenodd" clip-rule="evenodd" d="M14.416 0.147461C21.9977 0.147461 28.166 6.36246 28.166 14.0025C28.166 23.3941 17.406 32.6475 14.416 32.6475C11.426 32.6475 0.666016 23.3941 0.666016 14.0025C0.666016 6.36246 6.83435 0.147461 14.416 0.147461ZM14.416 2.64746C8.21268 2.64746 3.16602 7.74246 3.16602 14.0025C3.16602 21.9675 12.5393 29.7275 14.416 30.1408C16.2927 29.7258 25.666 21.9658 25.666 14.0025C25.666 7.74246 20.6193 2.64746 14.416 2.64746ZM14.4177 8.48079C17.4043 8.48079 19.8343 10.9108 19.8343 13.8991C19.8343 16.8858 17.4043 19.3141 14.4177 19.3141C11.431 19.3141 9.00102 16.8858 9.00102 13.8991C9.00102 10.9108 11.431 8.48079 14.4177 8.48079ZM14.4177 10.9808C12.8093 10.9808 11.501 12.2891 11.501 13.8991C11.501 15.5075 12.8093 16.8141 14.4177 16.8141C16.026 16.8141 17.3343 15.5075 17.3343 13.8991C17.3343 12.2891 16.026 10.9808 14.4177 10.9808Z" fill="url(#paint0_linear_3351_465)"/>
<defs>
<linearGradient id="paint0_linear_3351_465" x1="0.666016" y1="0.147461" x2="29.7364" y2="1.61872" gradientUnits="userSpaceOnUse">
<stop stop-color="#FF5C65"/>
<stop offset="0.53125" stop-color="#FD008B"/>
<stop offset="1" stop-color="#6500FC"/>
</linearGradient>
</defs>
</svg>
