<svg width="37" height="33" viewBox="0 0 37 33" fill="none" xmlns="http://www.w3.org/2000/svg">
<path fill-rule="evenodd" clip-rule="evenodd" d="M26.7643 0.147461C32.3143 0.147461 36.4993 4.67579 36.4993 10.6808V22.1275C36.4993 25.2008 35.4127 27.9775 33.4377 29.9475C31.666 31.7125 29.3677 32.6475 26.791 32.6475H10.3693C7.79768 32.6475 5.50102 31.7141 3.72768 29.9475C1.75268 27.9775 0.666016 25.2008 0.666016 22.1275V10.6808C0.666016 4.67579 4.85102 0.147461 10.401 0.147461H26.7643ZM26.7643 2.64746H10.401C6.20935 2.64746 3.16602 6.02579 3.16602 10.6808V22.1275C3.16602 24.5325 3.99268 26.6808 5.49268 28.1758C6.78602 29.4675 8.47435 30.1475 10.3743 30.1475H26.7643C26.7677 30.1441 26.781 30.1475 26.791 30.1475C28.6927 30.1475 30.3793 29.4675 31.6727 28.1758C33.1743 26.6808 33.9993 24.5325 33.9993 22.1275V10.6808C33.9993 6.02579 30.956 2.64746 26.7643 2.64746ZM29.391 10.3621C29.826 10.8971 29.7443 11.6838 29.2093 12.1205L21.8027 18.1405C20.866 18.8838 19.746 19.2555 18.6277 19.2555C17.5127 19.2555 16.401 18.8871 15.471 18.1505L7.99602 12.1238C7.45768 11.6905 7.37435 10.9021 7.80602 10.3655C8.24102 9.83046 9.02768 9.74546 9.56435 10.1771L17.0327 16.1971C17.971 16.9405 19.2927 16.9405 20.2377 16.1905L27.631 10.1805C28.1677 9.74213 28.9543 9.82546 29.391 10.3621Z" fill="url(#paint0_linear_1869_405)"/>
<defs>
<linearGradient id="paint0_linear_1869_405" x1="0.666016" y1="0.147461" x2="38.4782" y2="2.64105" gradientUnits="userSpaceOnUse">
<stop stop-color="#FF5C65"/>
<stop offset="0.53125" stop-color="#FD008B"/>
<stop offset="1" stop-color="#6500FC"/>
</linearGradient>
</defs>
</svg>
