<svg width="50" height="50" viewBox="0 0 50 50" fill="none" xmlns="http://www.w3.org/2000/svg">
<g clip-path="url(#clip0_1940_336)">
<path d="M27.1112 10.4886L18.5296 4.89502H10.5961L2.0145 10.4877C0.758718 11.3066 0.00195312 12.705 0.00195312 14.2037V45.5652C0.00195312 46.9836 0.665777 48.2459 1.70225 49.0576C2.4547 49.6475 3.40568 50 4.43676 50H24.689C25.7444 50 26.7133 49.6328 27.4732 49.0175C28.4822 48.2048 29.1249 46.9605 29.1249 45.5652V14.2037C29.1249 12.705 28.3672 11.3066 27.1112 10.4886ZM14.5634 15.0829C12.7787 15.0818 11.3318 13.6348 11.3318 11.8512C11.3328 10.0665 12.7798 8.61953 14.5634 8.61953C16.3471 8.61953 17.794 10.0665 17.7951 11.8512C17.7951 13.6348 16.3481 15.0818 14.5634 15.0829Z" fill="url(#paint0_linear_1940_336)"/>
<path d="M5.1397 23.8028C11.6518 23.8028 17.0141 18.8839 17.7163 12.5592C17.3932 14.0025 16.1047 15.0821 14.5634 15.083C12.7787 15.0819 11.3318 13.6349 11.3318 11.8513C11.3328 10.0666 12.7798 8.61963 14.5634 8.61963C16.268 8.61963 17.6642 9.94149 17.7856 11.6165C17.7913 11.4607 17.7951 11.3044 17.7951 11.1473C17.7951 8.87316 17.1948 6.73943 16.1447 4.89502H10.5962L2.0146 10.4877C0.758718 11.3067 0.00195312 12.7051 0.00195312 14.2038V22.7156C1.57205 23.414 3.31038 23.8028 5.1397 23.8028Z" fill="url(#paint1_linear_1940_336)"/>
<path d="M4.63086 20.6025V50H24.6888C25.7442 50 26.7131 49.6327 27.473 49.0174C28.4819 48.2048 29.1247 46.9605 29.1247 45.5652V20.6025H4.63086Z" fill="url(#paint2_linear_1940_336)"/>
<path d="M0.00195312 39.2356V45.5652C0.00195312 46.9836 0.665777 48.2459 1.70225 49.0576C2.4547 49.6475 3.40568 50 4.43676 50H24.689C25.7444 50 26.7133 49.6328 27.4732 49.0175C28.4822 48.2048 29.1249 46.9605 29.1249 45.5652V39.2356H0.00195312Z" fill="url(#paint3_linear_1940_336)"/>
<path d="M48.6987 25.3941L26.5226 3.21803C25.463 2.15842 23.9392 1.70528 22.4721 2.0147L10.6448 4.50842C8.9248 4.87038 7.58195 6.21322 7.21999 7.93323L4.72637 19.7603C4.41695 21.2274 4.87009 22.7513 5.9297 23.8109L28.1058 45.987C29.1087 46.9899 30.4709 47.4126 31.7778 47.2538C32.727 47.1391 33.6484 46.7165 34.3778 45.987L48.6986 31.6662C49.4446 30.9202 49.8702 29.9752 49.9724 29.0026C50.1106 27.7151 49.6851 26.3806 48.6987 25.3941ZM16.8478 14.1362C15.5851 15.3974 13.5391 15.3974 12.2777 14.1362C11.0165 12.8734 11.0165 10.8274 12.2777 9.56607C13.5391 8.30479 15.5851 8.30479 16.8478 9.56607C18.1091 10.8274 18.1091 12.8735 16.8478 14.1362Z" fill="url(#paint4_linear_1940_336)"/>
<path d="M15.667 14.8843V33.5482L5.92987 23.811C4.87026 22.7514 4.41644 21.2274 4.72673 19.7603L6.05546 13.4553H11.7578C11.896 13.6991 12.0703 13.9282 12.2781 14.136C13.1943 15.0522 14.5241 15.2991 15.667 14.8843Z" fill="url(#paint5_linear_1940_336)"/>
<path d="M49.9723 29.0025C49.8701 29.975 49.4446 30.92 48.6986 31.666L34.3777 45.9869C33.6483 46.7163 32.7269 47.1391 31.7777 47.2538L22.6583 38.1343C22.1209 37.8345 21.8018 37.2682 21.8018 36.7445C21.8018 36.5636 21.8625 36.3508 21.9537 36.1698L32.5831 14.3349C32.8249 13.8196 33.3098 13.5779 33.8541 13.5779C34.4799 13.5779 35.1541 13.9246 35.465 14.4952L49.9723 29.0025Z" fill="url(#paint6_linear_1940_336)"/>
<path d="M44.7726 35.5925L36.2417 44.1234L18.5541 26.4357C17.6935 25.7933 17.1685 24.7544 17.1685 23.2085V18.9078C17.1685 15.9099 19.1371 14.8198 21.7108 14.8198C23.3217 14.8198 24.7129 15.2578 25.5183 16.3382L44.7726 35.5925Z" fill="url(#paint7_linear_1940_336)"/>
<path d="M46.8489 33.5161L38.3181 42.0469L32.4287 36.1562C31.568 35.5137 31.043 34.4763 31.043 32.9289V28.6282C31.043 25.6303 33.0116 24.5403 35.5854 24.5403C37.1963 24.5403 38.5875 24.9782 39.3915 26.06L46.8489 33.5161Z" fill="url(#paint8_linear_1940_336)"/>
<path d="M17.0459 23.0852V18.7849C17.0459 15.7868 19.0143 14.6966 21.5883 14.6966C24.1322 14.6966 26.131 15.7868 26.131 18.7849V23.0852C26.131 26.0832 24.1322 27.1734 21.5883 27.1734C19.0143 27.1734 17.0459 26.0832 17.0459 23.0852ZM23.1026 18.7849C23.1026 17.7856 22.5272 17.3313 21.5883 17.3313C20.6496 17.3313 20.1045 17.7856 20.1045 18.7849V23.0852C20.1045 24.0845 20.6495 24.5388 21.5883 24.5388C22.5273 24.5388 23.1026 24.0845 23.1026 23.0852V18.7849ZM35.5187 15.0601C35.5187 15.2418 35.4885 15.4538 35.3976 15.6356L24.7379 37.4699C24.5259 37.9242 23.9505 38.2269 23.3751 38.2269C22.3455 38.2269 21.6791 37.3791 21.6791 36.6219C21.6791 36.4403 21.7398 36.2282 21.8306 36.0466L32.46 14.2122C32.7024 13.6974 33.1869 13.4551 33.732 13.4551C34.5799 13.455 35.5187 14.091 35.5187 15.0601ZM30.946 32.8364V28.5362C30.946 25.5381 32.9144 24.4479 35.4884 24.4479C38.0323 24.4479 40.0309 25.5381 40.0309 28.5362V32.8364C40.0309 35.8345 38.0323 36.9247 35.4884 36.9247C32.9144 36.9247 30.946 35.8345 30.946 32.8364ZM37.0026 28.5362C37.0026 27.5368 36.4272 27.0825 35.4884 27.0825C34.5497 27.0825 34.0045 27.5368 34.0045 28.5362V32.8364C34.0045 33.8358 34.5497 34.29 35.4884 34.29C36.4272 34.29 37.0026 33.8358 37.0026 32.8364V28.5362Z" fill="url(#paint9_linear_1940_336)"/>
<path d="M16.8486 9.56618C16.1848 8.90441 15.3067 8.5899 14.438 8.62373C14.1267 10.3398 12.9521 11.7573 11.3816 12.4095C10.7842 12.6576 10.1288 12.7947 9.44177 12.7947C8.3051 12.7947 7.25392 12.419 6.40745 11.7868C5.16735 10.859 4.36314 9.37941 4.36314 7.71608C4.36314 4.91608 6.64069 2.63853 9.44177 2.63853C10.7906 2.63853 12.017 3.16628 12.9268 4.02745L15.8439 3.41216C14.456 1.3551 12.1034 0 9.44177 0C5.18628 0 1.72461 3.46069 1.72461 7.71608C1.72461 10.667 3.38902 13.237 5.82912 14.534C6.90775 15.1081 8.13726 15.4332 9.44177 15.4332C10.6819 15.4332 11.8544 15.1387 12.8929 14.6164C14.8644 13.6275 16.3558 11.8164 16.9151 9.63696C16.8939 9.61265 16.8718 9.58941 16.8486 9.56618Z" fill="url(#paint10_linear_1940_336)"/>
<path d="M14.4376 8.62379C14.1262 10.3399 12.9516 11.7573 11.3811 12.4096C10.7838 12.6576 10.1284 12.7948 9.44135 12.7948C9.16586 12.7948 8.89556 12.7723 8.63184 12.7299V15.3904C8.89801 15.4182 9.16791 15.4333 9.44135 15.4333C10.6814 15.4333 11.854 15.1388 12.8925 14.6164C14.864 13.6275 16.3554 11.8164 16.9147 9.63702C16.8936 9.61271 16.8714 9.58947 16.8482 9.56634C16.1843 8.90457 15.3062 8.59006 14.4376 8.62379Z" fill="url(#paint11_linear_1940_336)"/>
<path d="M9.44135 0C9.16791 0 8.89801 0.0148039 8.63184 0.0426471V2.70373C8.89556 2.66137 9.16576 2.63853 9.44135 2.63853C10.7902 2.63853 12.0165 3.16628 12.9263 4.02745L15.8435 3.41216C14.4556 1.3551 12.103 0 9.44135 0Z" fill="url(#paint12_linear_1940_336)"/>
</g>
<defs>
<linearGradient id="paint0_linear_1940_336" x1="2.18078" y1="17.5025" x2="30.4551" y2="45.7768" gradientUnits="userSpaceOnUse">
<stop stop-color="#FEE45A"/>
<stop offset="1" stop-color="#FEA613"/>
</linearGradient>
<linearGradient id="paint1_linear_1940_336" x1="3.10313" y1="21.0511" x2="13.8682" y2="8.28071" gradientUnits="userSpaceOnUse">
<stop stop-color="#FEA613" stop-opacity="0"/>
<stop offset="1" stop-color="#E94444"/>
</linearGradient>
<linearGradient id="paint2_linear_1940_336" x1="9.25243" y1="38.1727" x2="19.912" y2="33.0013" gradientUnits="userSpaceOnUse">
<stop stop-color="#FEA613" stop-opacity="0"/>
<stop offset="1" stop-color="#E94444"/>
</linearGradient>
<linearGradient id="paint3_linear_1940_336" x1="14.5634" y1="45.563" x2="14.5634" y2="50.8443" gradientUnits="userSpaceOnUse">
<stop stop-color="#FEA613" stop-opacity="0"/>
<stop offset="1" stop-color="#E94444"/>
</linearGradient>
<linearGradient id="paint4_linear_1940_336" x1="9.71999" y1="7.00832" x2="51.9785" y2="49.2669" gradientUnits="userSpaceOnUse">
<stop stop-color="#8AC9FE"/>
<stop offset="1" stop-color="#814AA0"/>
</linearGradient>
<linearGradient id="paint5_linear_1940_336" x1="11.6722" y1="20.6437" x2="3.61722" y2="13.4399" gradientUnits="userSpaceOnUse">
<stop stop-color="#5B3374" stop-opacity="0"/>
<stop offset="1" stop-color="#5B3374"/>
</linearGradient>
<linearGradient id="paint6_linear_1940_336" x1="40.0456" y1="33.9078" x2="22.4313" y2="25.1351" gradientUnits="userSpaceOnUse">
<stop stop-color="#5B3374" stop-opacity="0"/>
<stop offset="1" stop-color="#5B3374"/>
</linearGradient>
<linearGradient id="paint7_linear_1940_336" x1="27.1118" y1="28.2025" x2="15.3026" y2="22.4863" gradientUnits="userSpaceOnUse">
<stop stop-color="#5B3374" stop-opacity="0"/>
<stop offset="1" stop-color="#5B3374"/>
</linearGradient>
<linearGradient id="paint8_linear_1940_336" x1="44.5286" y1="36.5926" x2="29.6773" y2="29.4088" gradientUnits="userSpaceOnUse">
<stop stop-color="#5B3374" stop-opacity="0"/>
<stop offset="1" stop-color="#5B3374"/>
</linearGradient>
<linearGradient id="paint9_linear_1940_336" x1="17.0459" y1="25.841" x2="26.131" y2="25.841" gradientUnits="userSpaceOnUse">
<stop stop-color="#EAF6FF"/>
<stop offset="1" stop-color="#B3DAFE"/>
</linearGradient>
<linearGradient id="paint10_linear_1940_336" x1="1.72461" y1="0" x2="17.7681" y2="0.944501" gradientUnits="userSpaceOnUse">
<stop stop-color="#FF5C65"/>
<stop offset="0.53125" stop-color="#FD008B"/>
<stop offset="1" stop-color="#6500FC"/>
</linearGradient>
<linearGradient id="paint11_linear_1940_336" x1="8.63184" y1="8.62134" x2="17.3639" y2="9.2564" gradientUnits="userSpaceOnUse">
<stop stop-color="#FF5C65"/>
<stop offset="0.53125" stop-color="#FD008B"/>
<stop offset="1" stop-color="#6500FC"/>
</linearGradient>
<linearGradient id="paint12_linear_1940_336" x1="8.63184" y1="0" x2="16.1882" y2="0.809293" gradientUnits="userSpaceOnUse">
<stop stop-color="#FF5C65"/>
<stop offset="0.53125" stop-color="#FD008B"/>
<stop offset="1" stop-color="#6500FC"/>
</linearGradient>
<clipPath id="clip0_1940_336">
<rect width="50" height="50" fill="white"/>
</clipPath>
</defs>
</svg>
