<svg width="24" height="16" viewBox="0 0 24 16" fill="none" xmlns="http://www.w3.org/2000/svg">
<path d="M4.94999 10.4302C4.455 11.6752 3.67501 12.9052 2.63251 14.0902C2.30251 14.4652 2.25751 15.0052 2.5275 15.4252C2.73752 15.7552 3.08249 15.9352 3.45749 15.9352C3.5625 15.9352 3.66751 15.9277 3.77252 15.8902C5.97748 15.2452 11.13 12.9577 11.2725 5.6227C11.325 2.79523 9.25502 0.365233 6.5625 0.0877333C5.07001 -0.0622742 3.58502 0.425196 2.4825 1.4152C1.38002 2.41272 0.75 3.83773 0.75 5.32272C0.75 7.79771 2.50502 9.96523 4.94999 10.4302Z" fill="white"/>
<path d="M18.5326 0.0877333C17.0475 -0.0622742 15.5626 0.425196 14.4601 1.4152C13.3576 2.41272 12.7275 3.83773 12.7275 5.32272C12.7275 7.79771 14.4826 9.96522 16.9276 10.4302C16.4325 11.6752 15.6526 12.9052 14.61 14.0902C14.28 14.4652 14.235 15.0052 14.5051 15.4252C14.7151 15.7552 15.0601 15.9352 15.4351 15.9352C15.54 15.9352 15.6451 15.9277 15.7501 15.8902C17.9551 15.2452 23.1076 12.9577 23.2501 5.62269V5.51773C23.2501 2.73521 21.2026 0.365233 18.5326 0.0877333Z" fill="white"/>
</svg>
