<svg width="50" height="50" viewBox="0 0 50 50" fill="none" xmlns="http://www.w3.org/2000/svg">
<g clip-path="url(#clip0_1940_310)">
<path d="M27.7236 22.2888C22.6273 17.1925 22.6273 8.92995 27.7236 3.83368C32.7976 -1.24044 40.959 -1.28348 46.0836 3.73946C49.9541 7.53309 50.9556 13.1304 49.0897 17.8585C48.7774 18.6497 48.6975 19.5135 48.8568 20.349L49.6347 24.4289C49.7834 25.209 49.0989 25.8935 48.3188 25.7448L44.239 24.9669C43.406 24.8081 42.5443 24.8852 41.7557 25.1969C37.0651 27.0513 31.5172 26.0824 27.7236 22.2888Z" fill="url(#paint0_linear_1940_310)"/>
<path d="M48.8649 24.9752C48.9183 24.9218 49.038 24.7734 48.9956 24.5505L48.2176 20.4706C48.0347 19.5112 48.1269 18.5253 48.4845 17.6196C50.3198 12.9693 49.1985 7.70335 45.628 4.20375C43.2728 1.89532 40.1688 0.633354 36.8875 0.650315C33.6067 0.667276 30.5151 1.9612 28.183 4.29326C28.1829 4.29335 28.1831 4.29316 28.183 4.29326C23.3485 9.12786 23.3485 16.9942 28.183 21.8287C31.6809 25.3266 36.9145 26.4112 41.5162 24.5919C42.4163 24.236 43.3999 24.1447 44.3604 24.3279L48.4402 25.1058C48.663 25.1484 48.8113 25.0286 48.8649 24.9752Z" fill="url(#paint1_linear_1940_310)"/>
<path d="M35.2554 15.1677V25.9996C37.4391 26.2839 39.681 26.017 41.7552 25.1969C42.5437 24.8852 43.4056 24.8081 44.2384 24.9669L45.2467 25.1592L35.2554 15.1677Z" fill="url(#paint2_linear_1940_310)"/>
<path d="M35.0467 43.9878C43.0643 35.9701 43.0643 22.9711 35.0467 14.9535C27.064 6.97062 14.2243 6.90287 6.16196 14.8052C0.0727407 20.7735 -1.50295 29.5795 1.43254 37.0178C1.92372 38.2625 2.04951 39.6215 1.79892 40.9359L0.575192 47.3546C0.341172 48.582 1.41813 49.6589 2.64539 49.4248L9.06392 48.201C10.3743 47.9512 11.7302 48.0724 12.9707 48.5629C20.3501 51.4803 29.0783 49.9561 35.0467 43.9878Z" fill="url(#paint3_linear_1940_310)"/>
<path d="M1.77059 47.2693C1.68657 47.1853 1.49814 46.9517 1.565 46.6011L2.78893 40.1825C3.07667 38.6731 2.93157 37.122 2.36912 35.6971C-0.518232 28.3811 1.24579 20.0963 6.86304 14.5907C10.5683 10.9589 15.4518 8.9736 20.6139 9.00027C25.7754 9.02693 30.6393 11.0626 34.3082 14.7315C34.3084 14.7317 34.3081 14.7314 34.3083 14.7316C41.9142 22.3376 41.9142 34.7133 34.3083 42.3192C28.8054 47.8221 20.5716 49.5286 13.332 46.6663C11.9158 46.1064 10.3685 45.9629 8.85746 46.2509L2.43883 47.4748C2.08814 47.5417 1.85471 47.3534 1.77059 47.2693Z" fill="url(#paint4_linear_1940_310)"/>
<path d="M30.5486 47.396C28.6059 48.4832 26.5248 49.2298 24.3908 49.636L17.5569 42.8021C16.9642 42.2104 16.6689 41.5148 16.6689 40.7171C16.6689 39.8938 16.9652 39.1913 17.5598 38.6125C18.1544 38.0336 18.8609 37.7441 19.6801 37.7441C20.5043 37.7441 21.2058 38.0404 21.7847 38.6321L30.5486 47.396Z" fill="url(#paint5_linear_1940_310)"/>
<path d="M40.9325 31.761C40.4341 36.2273 38.4717 40.5631 35.0464 43.9874C33.7267 45.3071 32.2726 46.409 30.7283 47.295L17.9818 34.5474C17.6727 34.1922 17.5177 33.5202 17.5177 32.5312C17.5177 30.6758 18.0436 29.098 19.0886 27.795L13.3261 22.0276C12.8512 21.642 12.6138 21.1013 12.6138 20.4058C12.6138 19.1705 13.2829 17.9989 14.6222 16.8921C15.9605 15.7854 17.8267 15.2319 20.2208 15.2319C22.6659 15.2319 24.6479 15.8373 26.1678 17.0461C26.4111 17.2405 36.215 27.0414 40.9325 31.761Z" fill="url(#paint6_linear_1940_310)"/>
<path d="M40.9327 31.761C40.4343 36.2274 38.472 40.5632 35.0467 43.9875C33.727 45.3072 32.2728 46.4091 30.7285 47.295L18.0762 34.6417C18.3971 34.9341 18.919 35.0794 19.6422 35.0794C21.161 35.0794 21.9205 34.5525 21.9205 33.4957C21.9205 32.6725 21.9519 32.0612 22.0167 31.6619C22.0805 31.2636 22.2737 30.7995 22.5966 30.2726C22.9174 29.7448 23.4149 29.2099 24.087 28.6694C26.9923 26.4303 28.4464 24.0746 28.4464 21.6029C28.4464 20.2489 28.0294 19.0655 27.1964 18.051C29.872 20.7001 37.0895 27.9167 40.9327 31.761Z" fill="url(#paint7_linear_1940_310)"/>
<path d="M12.6138 20.4061C12.6138 19.1706 13.2831 17.9994 14.6217 16.8923C15.9599 15.7858 17.8267 15.2319 20.2209 15.2319C22.6661 15.2319 24.6482 15.8371 26.1673 17.0466C27.686 18.2569 28.4457 19.7757 28.4457 21.6031C28.4457 24.0745 26.9922 26.4301 24.0866 28.6697C23.4144 29.2104 22.9172 29.7447 22.5957 30.2722C22.2734 30.8001 22.0804 31.2633 22.0164 31.6621C21.9517 32.0616 21.9198 32.6728 21.9198 33.4963C21.9198 34.5523 21.1603 35.0796 19.6416 35.0796C18.8435 35.0796 18.2901 34.9022 17.9812 34.5474C17.6724 34.1926 17.5179 33.5206 17.5179 32.5311C17.5179 30.1478 18.38 28.2208 20.1051 26.7498C20.1823 26.6737 20.5164 26.4075 21.1091 25.9514C21.7008 25.4955 22.113 25.1526 22.3447 24.9246C22.5763 24.6963 22.8333 24.3479 23.1169 23.8783C23.3998 23.4089 23.5417 22.9335 23.5417 22.4519C23.5417 21.6152 23.2206 20.975 22.5794 20.5311C21.9378 20.0875 21.1042 19.8656 20.0783 19.8656C19.2059 19.8656 18.4879 20.0077 17.9237 20.2926C17.3591 20.5773 16.9873 20.8924 16.8077 21.2362C16.6277 21.5808 16.3839 21.895 16.0763 22.1799C15.7688 22.4648 15.3838 22.6069 14.9222 22.6069C14.332 22.6069 13.7999 22.414 13.3255 22.0278C12.851 21.6419 12.6138 21.1012 12.6138 20.4061ZM16.6685 40.717C16.6685 39.8936 16.9653 39.1918 17.56 38.6127C18.1545 38.0336 18.8608 37.7438 19.6803 37.7438C20.504 37.7438 21.2055 38.0402 21.7847 38.6319C22.364 39.2244 22.6537 39.9194 22.6537 40.717C22.6537 41.5154 22.364 42.2103 21.7847 42.8023C21.2055 43.3948 20.504 43.6905 19.6803 43.6905C18.856 43.6905 18.1484 43.3948 17.5566 42.8023C16.964 42.2103 16.6685 41.5154 16.6685 40.717Z" fill="url(#paint8_linear_1940_310)"/>
</g>
<defs>
<linearGradient id="paint0_linear_1940_310" x1="33.8724" y1="7.19437" x2="44.2646" y2="26.9983" gradientUnits="userSpaceOnUse">
<stop stop-color="#18CFFC"/>
<stop offset="1" stop-color="#4A98F7"/>
</linearGradient>
<linearGradient id="paint1_linear_1940_310" x1="39.9044" y1="18.5225" x2="28.826" y2="-1.96772" gradientUnits="userSpaceOnUse">
<stop stop-color="#18CFFC" stop-opacity="0"/>
<stop offset="1" stop-color="#65E1DC"/>
</linearGradient>
<linearGradient id="paint2_linear_1940_310" x1="47.5809" y1="32.9092" x2="33.3708" y2="18.6991" gradientUnits="userSpaceOnUse">
<stop stop-color="#0469BC" stop-opacity="0"/>
<stop offset="1" stop-color="#0469BC"/>
</linearGradient>
<linearGradient id="paint3_linear_1940_310" x1="20.531" y1="11.9445" x2="20.531" y2="69.8679" gradientUnits="userSpaceOnUse">
<stop stop-color="#F9F7FC"/>
<stop offset="1" stop-color="#F0DDFC"/>
</linearGradient>
<linearGradient id="paint4_linear_1940_310" x1="18.5604" y1="31.507" x2="6.39373" y2="14.4345" gradientUnits="userSpaceOnUse">
<stop stop-color="white" stop-opacity="0"/>
<stop offset="1" stop-color="white"/>
</linearGradient>
<linearGradient id="paint5_linear_1940_310" x1="26.1627" y1="47.6097" x2="18.2151" y2="38.1903" gradientUnits="userSpaceOnUse">
<stop stop-color="#F0DDFC" stop-opacity="0"/>
<stop offset="0.2085" stop-color="#DFCDF1" stop-opacity="0.209"/>
<stop offset="0.6167" stop-color="#B5A4D3" stop-opacity="0.617"/>
<stop offset="1" stop-color="#8779B3"/>
</linearGradient>
<linearGradient id="paint6_linear_1940_310" x1="24.0335" y1="26.5804" x2="14.3198" y2="14.8062" gradientUnits="userSpaceOnUse">
<stop stop-color="#F0DDFC" stop-opacity="0"/>
<stop offset="0.2085" stop-color="#DFCDF1" stop-opacity="0.209"/>
<stop offset="0.6167" stop-color="#B5A4D3" stop-opacity="0.617"/>
<stop offset="1" stop-color="#8779B3"/>
</linearGradient>
<linearGradient id="paint7_linear_1940_310" x1="32.1558" y1="35.1444" x2="20.8722" y2="26.4119" gradientUnits="userSpaceOnUse">
<stop stop-color="#F0DDFC" stop-opacity="0"/>
<stop offset="0.2085" stop-color="#DFCDF1" stop-opacity="0.209"/>
<stop offset="0.6167" stop-color="#B5A4D3" stop-opacity="0.617"/>
<stop offset="1" stop-color="#8779B3"/>
</linearGradient>
<linearGradient id="paint8_linear_1940_310" x1="12.6138" y1="15.2319" x2="29.3741" y2="15.7896" gradientUnits="userSpaceOnUse">
<stop stop-color="#FF5C65"/>
<stop offset="0.53125" stop-color="#FD008B"/>
<stop offset="1" stop-color="#6500FC"/>
</linearGradient>
<clipPath id="clip0_1940_310">
<rect width="50" height="50" fill="white"/>
</clipPath>
</defs>
</svg>
