<svg width="44" height="45" viewBox="0 0 44 45" fill="none" xmlns="http://www.w3.org/2000/svg">
<path d="M19.5938 10.2559C20.0684 10.2559 20.4531 9.87103 20.4531 9.39648V6.64648C20.4531 4.27719 18.5255 2.34961 16.1562 2.34961H4.29688C1.92758 2.34961 0 4.27719 0 6.64648V16.958C0 19.3273 1.92758 21.2548 4.29688 21.2548H9.85634C9.66075 27.6749 7.22485 31.0123 2.42627 31.4489C1.98361 31.4892 1.64476 31.8603 1.64476 32.3048V40.8496C1.64476 41.0859 1.74204 41.3118 1.91374 41.4741C2.07376 41.6253 2.28508 41.709 2.50405 41.709C2.52012 41.709 2.53627 41.7086 2.55234 41.7076C8.47412 41.3745 12.9947 39.3365 15.9886 35.6501C18.951 32.0024 20.4531 26.6724 20.4531 19.808V16.7298C20.4531 16.2552 20.0684 15.8704 19.5938 15.8704C19.1191 15.8704 18.7344 16.2552 18.7344 16.7298V19.808C18.7344 32.4102 13.704 39.0005 3.36359 39.9257V33.0648C5.97704 32.6583 7.99855 31.4418 9.37982 29.4416C10.845 27.3197 11.5879 24.2762 11.5879 20.3955C11.5879 19.9209 11.2032 19.5361 10.7285 19.5361H4.29688C2.8753 19.5361 1.71875 18.3795 1.71875 16.958V6.64648C1.71875 5.22491 2.8753 4.06836 4.29688 4.06836H16.1562C17.5778 4.06836 18.7344 5.22491 18.7344 6.64648V9.39648C18.7344 9.87103 19.1191 10.2559 19.5938 10.2559Z" fill="url(#paint0_linear_1854_4148)"/>
<path d="M39.7031 2.34961H27.8438C25.4745 2.34961 23.5469 4.27719 23.5469 6.64648V16.958C23.5469 19.3273 25.4745 21.2548 27.8438 21.2548H33.4032C33.2076 27.6749 30.7717 31.0123 25.9731 31.4489C25.5306 31.4892 25.1916 31.8603 25.1916 32.3048V40.8496C25.1916 41.0859 25.2889 41.3118 25.4606 41.4741C25.6206 41.6254 25.832 41.709 26.0509 41.709C26.067 41.709 26.0831 41.7086 26.0992 41.7076C32.021 41.3745 36.5416 39.3365 39.5355 35.6501C42.4979 32.0025 44 26.6724 44 19.808V6.64648C44 4.27719 42.0724 2.34961 39.7031 2.34961ZM42.2812 19.808C42.2812 32.4102 37.2509 39.0005 26.9104 39.9257V33.0648C29.5239 32.6583 31.5454 31.4418 32.9266 29.4416C34.3918 27.3198 35.1347 24.2763 35.1347 20.3955C35.1347 19.9209 34.7499 19.5361 34.2753 19.5361H27.8438C26.4222 19.5361 25.2656 18.3795 25.2656 16.958V6.64648C25.2656 5.22491 26.4222 4.06836 27.8438 4.06836H38.1562V10.4307C38.1562 10.9052 38.541 11.29 39.0156 11.29C39.4903 11.29 39.875 10.9052 39.875 10.4307V4.07472C41.2167 4.16358 42.2812 5.28274 42.2812 6.64648V19.808Z" fill="url(#paint1_linear_1854_4148)"/>
<path d="M39.0156 12.5547C38.541 12.5547 38.1562 12.9437 38.1562 13.4183C38.1562 13.8928 38.541 14.2776 39.0156 14.2776C39.4902 14.2776 39.875 13.8928 39.875 13.4183V13.4098C39.875 12.9352 39.4903 12.5547 39.0156 12.5547Z" fill="url(#paint2_linear_1854_4148)"/>
<path d="M19.5938 12.2041C19.1191 12.2041 18.7344 12.5889 18.7344 13.0635V13.0814C18.7344 13.556 19.1191 13.9408 19.5938 13.9408C20.0684 13.9408 20.4531 13.556 20.4531 13.0814V13.0635C20.4531 12.5889 20.0684 12.2041 19.5938 12.2041Z" fill="url(#paint3_linear_1854_4148)"/>
<defs>
<linearGradient id="paint0_linear_1854_4148" x1="0" y1="2.34961" x2="21.6555" y2="3.02269" gradientUnits="userSpaceOnUse">
<stop stop-color="#FF5C65"/>
<stop offset="0.53125" stop-color="#FD008B"/>
<stop offset="1" stop-color="#6500FC"/>
</linearGradient>
<linearGradient id="paint1_linear_1854_4148" x1="23.5469" y1="2.34961" x2="45.2024" y2="3.02269" gradientUnits="userSpaceOnUse">
<stop stop-color="#FF5C65"/>
<stop offset="0.53125" stop-color="#FD008B"/>
<stop offset="1" stop-color="#6500FC"/>
</linearGradient>
<linearGradient id="paint2_linear_1854_4148" x1="38.1562" y1="12.5547" x2="39.9713" y2="12.663" gradientUnits="userSpaceOnUse">
<stop stop-color="#FF5C65"/>
<stop offset="0.53125" stop-color="#FD008B"/>
<stop offset="1" stop-color="#6500FC"/>
</linearGradient>
<linearGradient id="paint3_linear_1854_4148" x1="18.7344" y1="12.2041" x2="20.5496" y2="12.3115" gradientUnits="userSpaceOnUse">
<stop stop-color="#FF5C65"/>
<stop offset="0.53125" stop-color="#FD008B"/>
<stop offset="1" stop-color="#6500FC"/>
</linearGradient>
</defs>
</svg>
