<svg width="53" height="40" viewBox="0 0 53 40" fill="none" xmlns="http://www.w3.org/2000/svg">
<path d="M48.3395 4.63959C46.7936 2.94673 44.95 1.69295 42.8098 0.877699C41.2639 0.31355 39.6583 0 38.0528 0C33.2365 0 28.8362 2.50755 26.22 6.58303C25.8036 5.89337 25.3282 5.26622 24.7335 4.63961C23.1876 2.94675 21.344 1.69297 19.2038 0.877722C17.6579 0.313572 16.0523 2.22077e-05 14.4468 2.22077e-05C8.32228 2.22077e-05 2.85185 4.07494 0.830169 10.1564C-0.418728 13.9808 -0.23992 18.1187 1.42495 21.7549C3.08986 25.3912 6.00357 28.1498 9.6307 29.5291C10.3441 29.7797 11.0579 30.0307 11.8307 30.1562C10.7008 32.0996 9.33329 33.9181 7.66848 35.5479C7.0737 36.1121 6.71701 36.9272 6.77673 37.7425C6.83605 38.4947 7.19316 39.1843 7.78752 39.5604C8.20395 39.811 8.61996 39.9995 9.15502 39.9995C9.51173 39.9995 9.80912 39.9369 10.1658 39.8114C14.0306 38.244 17.7175 35.6109 20.8688 32.1627C22.2363 30.6579 24.0203 28.5889 25.5068 26.0813C25.8635 25.5172 26.1609 24.89 26.4583 24.2634C28.1824 26.7085 30.5014 28.5264 33.2369 29.5296C33.9503 29.7802 34.664 30.0312 35.4368 30.1568C34.3069 32.1002 32.9394 33.9187 31.2746 35.5485C30.6798 36.1126 30.3232 36.9278 30.3829 37.743C30.4422 38.4952 30.7993 39.1849 31.3937 39.5609C31.8101 39.8115 32.2261 40 32.7612 40C33.1179 40 33.4153 39.9375 33.772 39.812C37.6367 38.2446 41.3236 35.6114 44.475 32.1632C45.8425 30.6585 47.6264 28.5894 49.1129 26.0819C50.2428 24.2009 51.0752 22.2575 51.6103 20.1885C53.2155 14.6078 51.9666 8.65159 48.3394 4.63914L48.3395 4.63959ZM48.2801 19.122C47.8044 20.8774 47.091 22.5073 46.1395 24.1377C44.8314 26.3322 43.2855 28.1501 41.9176 29.592C40.6094 31.0338 39.1822 32.3506 37.6364 33.4163C38.4688 32.0995 39.1823 30.7832 39.777 29.3414C40.0146 28.7773 39.9553 28.0876 39.6579 27.5235C39.3605 27.0219 38.7662 26.7083 38.1714 26.7083C36.8633 26.7083 35.6148 26.5203 34.4252 26.0812C31.6898 25.078 29.49 23.0091 28.2415 20.2509C28.1822 20.1253 28.1822 20.0628 28.1225 19.9373C26.9926 17.2417 26.8736 14.295 27.7658 11.4733C27.8251 11.2227 27.9441 11.0343 28.0034 10.7837C29.7284 6.52067 33.6525 3.762 38.0529 3.762C39.3018 3.762 40.4909 4.01259 41.68 4.38913C43.2856 4.95327 44.6531 5.95649 45.8422 7.21026C48.5178 10.2195 49.4693 14.7961 48.2802 19.1222L48.2801 19.122ZM22.5334 24.0746C21.2253 26.2692 19.6794 28.0871 18.3115 29.5289C17.0033 30.9708 15.5761 32.2876 14.0303 33.3533C14.8627 32.0365 15.5762 30.7201 16.1709 29.2784C16.4085 28.7142 16.3492 28.0246 16.0518 27.4605C15.7545 26.9589 15.1601 26.6453 14.5653 26.6453C13.2572 26.6453 12.0087 26.4573 10.8192 26.0182C8.08372 25.015 5.88387 22.9461 4.6354 20.1878C3.3865 17.4292 3.20823 14.2944 4.15966 11.4108C5.70554 6.83425 9.80836 3.76211 14.4463 3.76211C15.6952 3.76211 16.8844 4.0127 18.0735 4.38924C19.679 4.95339 21.0465 5.9566 22.2356 7.21037C23.1274 8.21359 23.8412 9.4049 24.3762 10.7212C23.4845 13.7933 23.4845 16.9906 24.4356 19.9998C23.9009 21.4417 23.3065 22.7585 22.5334 24.0747V24.0746Z" fill="url(#paint0_linear_2292_1107)"/>
<defs>
<linearGradient id="paint0_linear_2292_1107" x1="0.015625" y1="0" x2="55.0889" y2="4.30555" gradientUnits="userSpaceOnUse">
<stop stop-color="#FF5C65"/>
<stop offset="0.53125" stop-color="#FD008B"/>
<stop offset="1" stop-color="#6500FC"/>
</linearGradient>
</defs>
</svg>
