<svg width="60" height="44" viewBox="0 0 60 44" fill="none" xmlns="http://www.w3.org/2000/svg">
<path d="M13.3067 0.823242C5.96978 0.823242 0.00146484 6.79156 0.00146484 14.1286C0.00146484 21.2066 5.55596 27.0118 12.535 27.4129C12.6558 28.7175 12.5652 32.2689 9.16215 37.209C8.9049 37.5817 8.95159 38.0843 9.27109 38.4038C10.6637 39.7963 11.5243 40.6734 12.1266 41.2868C12.915 42.0888 13.2748 42.455 13.8012 42.9329C13.9797 43.0949 14.2049 43.1764 14.4311 43.1764C14.6507 43.1764 14.8696 43.0995 15.0463 42.9466C20.9762 37.7867 27.5634 27.1254 26.6103 14.0608C26.0519 6.39059 20.4571 0.823242 13.3067 0.823242ZM14.4402 40.9581C14.1848 40.7064 13.8936 40.4097 13.4642 39.973C12.9424 39.4411 12.2265 38.7123 11.1407 37.6228C15.2706 31.259 14.4905 26.7263 14.1491 26.0762C13.987 25.7677 13.6547 25.5598 13.3067 25.5598C7.00431 25.5598 1.87646 20.432 1.87646 14.1286C1.87646 7.82609 7.00431 2.69824 13.3067 2.69824C19.4463 2.69824 24.2547 7.53406 24.7408 14.1963C25.812 28.8906 17.0788 38.4312 14.4402 40.9581Z" fill="white"/>
<path d="M59.9066 14.0608V14.0599C59.3463 6.39059 53.7506 0.823242 46.6022 0.823242C39.2651 0.823242 33.2959 6.79156 33.2959 14.1286C33.2959 21.2066 38.8513 27.0118 45.8313 27.4129C45.9521 28.7166 45.8605 32.2661 42.4567 37.209C42.1994 37.5817 42.2461 38.0843 42.5656 38.4038C43.9526 39.7908 44.8114 40.6661 45.4138 41.2785C46.2057 42.086 46.5674 42.4541 47.0966 42.9338C47.2751 43.0949 47.5012 43.1764 47.7265 43.1764C47.9462 43.1764 48.165 43.0995 48.3416 42.9457C54.2715 37.7858 60.8588 27.1245 59.9066 14.0608ZM47.7355 40.9581C47.4783 40.7045 47.1845 40.4061 46.7514 39.9648C46.2296 39.4337 45.5164 38.7069 44.4351 37.6228C48.5651 31.2581 47.786 26.7263 47.4454 26.0762C47.2833 25.7686 46.9501 25.5598 46.6022 25.5598C40.2987 25.5598 35.1709 20.432 35.1709 14.1286C35.1709 7.82609 40.2987 2.69824 46.6022 2.69824C52.7408 2.69824 57.5501 7.53406 58.0371 14.1972V14.1963C59.1073 28.8887 50.3741 38.4312 47.7355 40.9581Z" fill="white"/>
</svg>
