<svg width="50" height="50" viewBox="0 0 50 50" fill="none" xmlns="http://www.w3.org/2000/svg">
<g clip-path="url(#clip0_1940_354)">
<path d="M40.9192 35.3725L25.6924 7.14299C24.8051 5.49771 22.7521 4.88354 21.1072 5.77084L20.7425 5.96768C19.2986 6.74626 17.4969 6.20724 16.7184 4.76338C14.9449 1.47549 10.8418 0.247919 7.55431 2.02137C4.26642 3.79483 3.03885 7.89754 4.81193 11.1854C5.59089 12.6293 5.05187 14.431 3.60801 15.2096L3.24332 15.4064C1.59804 16.2937 0.983874 18.3464 1.87117 19.9917L17.0983 48.2216C17.9856 49.8665 20.0387 50.481 21.6836 49.5937L39.5474 39.9582C41.1927 39.0709 41.8069 37.0178 40.9192 35.3725ZM8.23486 8.15999C7.62794 7.03465 8.04794 5.63046 9.17327 5.02354C10.2986 4.41662 11.7032 4.83662 12.3101 5.96196C12.917 7.08729 12.4966 8.49149 11.3713 9.09879C10.246 9.7057 8.84177 9.28532 8.23486 8.15999Z" fill="url(#paint0_linear_1940_354)"/>
<path d="M47.7468 25.3953L25.0669 2.71539C23.7451 1.3936 21.602 1.3936 20.2806 2.71539L19.9876 3.00836C18.8275 4.16803 16.9469 4.16803 15.7872 3.00836C13.1456 0.36668 8.86279 0.36668 6.22149 3.00836C3.57981 5.64966 3.57981 9.93242 6.22149 12.5737C7.38154 13.7338 7.38154 15.6144 6.22149 16.7741L5.92853 17.0671C4.60673 18.3888 4.60673 20.5319 5.92853 21.8534L28.6088 44.5337C29.9302 45.8555 32.0733 45.8555 33.3951 44.5337L47.7472 30.1816C49.0686 28.8602 49.0686 26.7171 47.7468 25.3953ZM8.63315 8.69417C7.72906 7.79009 7.72906 6.3241 8.63315 5.42001C9.53723 4.51593 11.0032 4.51593 11.9073 5.42001C12.8114 6.3241 12.8114 7.79009 11.9073 8.69417C11.0032 9.59825 9.53723 9.59825 8.63315 8.69417Z" fill="url(#paint1_linear_1940_354)"/>
<path d="M28.9143 39.3235L10.965 21.3742C9.76492 20.1745 9.76492 18.229 10.965 17.0292L20.2424 7.75188C21.4421 6.55178 23.3876 6.55178 24.5873 7.75188L42.537 25.7012C43.7367 26.9009 43.7367 28.8464 42.537 30.0461L33.2597 39.3235C32.0595 40.5236 30.114 40.5236 28.9143 39.3235Z" fill="url(#paint2_linear_1940_354)"/>
<path d="M42.3228 30.26L25.1704 13.108C24.8286 12.7658 24.4666 12.4797 24.0855 12.2489C23.704 12.0181 23.2909 11.8469 22.8461 11.7351C22.4009 11.6233 21.9424 11.6409 21.4701 11.7873C20.9979 11.9334 20.5516 12.2169 20.1312 12.6373C19.6032 13.1652 19.2969 13.7378 19.2115 14.3558C19.126 14.9741 19.1863 15.5616 19.3923 16.1193C19.5979 16.677 19.8138 17.2202 20.0396 17.7501C20.2651 18.2796 20.3833 18.8052 20.394 19.3275C20.4043 19.8497 20.2178 20.3029 19.8344 20.6863C19.7016 20.8194 19.5643 20.9251 19.4236 21.0098C19.3949 20.9014 19.3549 20.8167 19.3003 20.7622L15.9873 17.4491C15.8442 17.3061 15.6413 17.2546 15.3788 17.2942C15.1164 17.3339 14.9096 17.4297 14.7589 17.5803C14.4328 17.9065 14.3729 18.4791 14.58 19.2977C14.7864 20.1167 15.2556 20.8919 15.9873 21.6235L33.4735 39.1098L42.3228 30.26Z" fill="url(#paint3_linear_1940_354)"/>
<path d="M14.7587 17.5805C14.9097 17.4294 15.1165 17.3341 15.3789 17.294C15.641 17.2543 15.8439 17.3062 15.9874 17.4493C16.0747 17.5366 16.1289 17.693 16.1503 17.9181C16.1716 18.1432 16.1831 18.3747 16.1838 18.612C16.185 18.8493 16.2556 19.1403 16.3963 19.4848C16.5371 19.8293 16.7583 20.1524 17.0605 20.4545C17.5136 20.9077 17.9855 21.1636 18.4753 21.222C18.9655 21.2808 19.4187 21.1018 19.8341 20.6864C20.2179 20.3027 20.4044 19.8499 20.3937 19.3276C20.3831 18.8054 20.2648 18.2794 20.0394 17.7499C19.8135 17.2204 19.598 16.6768 19.392 16.1195C19.1864 15.5618 19.1261 14.9739 19.2116 14.3559C19.2966 13.7376 19.6033 13.165 20.1309 12.6374C20.5513 12.217 20.9976 11.9336 21.4702 11.7871C21.9425 11.6406 22.401 11.6235 22.8458 11.7352C23.2906 11.8466 23.7038 12.0179 24.0852 12.2491C24.4667 12.4795 24.8283 12.766 25.1705 13.1078C25.3853 13.3225 25.5958 13.5609 25.803 13.823C26.0097 14.0851 26.197 14.3628 26.3649 14.6565C26.5324 14.9499 26.6331 15.231 26.6663 15.5003C26.6991 15.7693 26.6411 15.9783 26.4919 16.1279C26.3424 16.2774 26.144 16.38 25.8968 16.4365C25.6496 16.4933 25.4463 16.4418 25.2872 16.2827C25.2079 16.2034 25.1381 16.0581 25.0793 15.8467C25.0198 15.6354 24.9149 15.379 24.7642 15.0765C24.6136 14.7736 24.3912 14.4753 24.0971 14.1812C23.6439 13.728 23.1918 13.456 22.7421 13.3656C22.2916 13.2752 21.8826 13.4141 21.5149 13.7818C21.2753 14.0214 21.1407 14.2991 21.112 14.6142C21.0834 14.9289 21.1262 15.2558 21.241 15.5942C21.3554 15.9329 21.4981 16.2949 21.6686 16.6814C21.8387 17.0674 21.9894 17.4695 22.1199 17.888C22.2504 18.3061 22.3347 18.7226 22.3736 19.1369C22.4121 19.5512 22.3392 19.9941 22.1546 20.4648C21.97 20.9359 21.6617 21.3872 21.2303 21.8186C20.4086 22.6403 19.5339 23.018 18.6066 22.9516C17.6792 22.8848 16.806 22.4423 15.987 21.6233C15.2553 20.892 14.7865 20.1169 14.5798 19.2979C14.373 18.4792 14.4329 17.9067 14.7587 17.5805Z" fill="url(#paint4_linear_1940_354)"/>
<path d="M42.2869 30.2961L29.273 17.2822C29.1219 17.1312 28.953 17.0377 28.766 17.0019C28.5791 16.9664 28.4223 17.0122 28.2949 17.1392L20.4115 25.0226C20.2844 25.1497 20.2387 25.3068 20.2745 25.4938C20.31 25.6807 20.4038 25.8493 20.5549 26.0003L33.5687 39.0142L42.2869 30.2961Z" fill="url(#paint5_linear_1940_354)"/>
<path d="M20.4115 25.0226L28.2949 17.1392C28.4219 17.0122 28.5791 16.9664 28.766 17.0019C28.953 17.0377 29.1219 17.1312 29.273 17.2822L33.5188 21.528C33.6538 21.663 33.7015 21.8225 33.6618 22.0052C33.6221 22.1883 33.5306 22.3508 33.3875 22.4943C33.2285 22.6533 33.0557 22.7506 32.8687 22.7865C32.6818 22.8219 32.525 22.7762 32.3976 22.6491L28.8557 19.1068L26.1244 21.8381L27.9611 23.6749C28.0882 23.8019 28.1397 23.953 28.116 24.1281C28.092 24.3028 28.0088 24.4619 27.8658 24.6049C27.7384 24.7323 27.5892 24.8098 27.4183 24.8376C27.2474 24.8655 27.0944 24.8117 26.959 24.6766L25.1226 22.8399L22.3795 25.583L25.9218 29.125C26.0488 29.2524 26.0942 29.4092 26.0587 29.5961C26.0229 29.783 25.9256 29.9562 25.7665 30.1149C25.6235 30.2583 25.4606 30.3495 25.2775 30.3895C25.0948 30.4292 24.9357 30.3811 24.8007 30.2461L20.5549 26.0003C20.4034 25.8493 20.31 25.6803 20.2745 25.4938C20.2387 25.3068 20.2844 25.1497 20.4115 25.0226Z" fill="url(#paint6_linear_1940_354)"/>
<path d="M42.2826 30.3003L37.4311 25.44C36.6201 24.629 35.7572 24.1956 34.8428 24.1403C33.9284 24.0846 33.0141 24.5141 32.1001 25.4281L28.6294 28.8987C27.7151 29.8131 27.2855 30.7275 27.3412 31.6419C27.3969 32.5563 27.8303 33.4188 28.6413 34.2298L33.5012 39.0821L42.2826 30.3003Z" fill="url(#paint7_linear_1940_354)"/>
<path d="M28.293 28.7636L31.7636 25.293C32.6776 24.3786 33.5924 23.9491 34.5068 24.0048C35.4208 24.0605 36.2837 24.4938 37.0947 25.3048C37.9057 26.1158 38.3409 26.9806 38.4008 27.8988C38.4603 28.817 38.0327 29.7337 37.1187 30.6477L33.6481 34.1183C32.7337 35.0327 31.8174 35.4603 30.8988 35.4004C29.9806 35.3409 29.1162 34.9057 28.3048 34.0947C27.4938 33.2837 27.0605 32.4208 27.0048 31.5068C26.9491 30.5924 27.3786 29.678 28.293 28.7636ZM29.5572 30.0278C28.5314 31.0536 28.4876 32.0351 29.426 32.9735C29.8792 33.4267 30.356 33.6495 30.8573 33.6415C31.3577 33.6335 31.8666 33.3714 32.3835 32.8545L35.8541 29.3839C36.371 28.867 36.6331 28.3581 36.6415 27.8573C36.6491 27.3564 36.4267 26.8792 35.9735 26.426C35.0355 25.4876 34.0536 25.5314 33.0278 26.5572L29.5572 30.0278Z" fill="url(#paint8_linear_1940_354)"/>
<path d="M11.6676 1.02686L19.3172 8.67647L17.2218 10.7719L11.6504 5.20052L11.6676 1.02686Z" fill="url(#paint9_linear_1940_354)"/>
<path d="M10.1191 6.18897C9.19133 6.18897 8.43945 5.43709 8.43945 4.50936V1.67999C8.43945 0.752259 9.19133 0 10.1191 0C11.0468 0 11.7991 0.752259 11.7991 1.67999V4.50936C11.7991 5.43709 11.0472 6.18897 10.1191 6.18897Z" fill="url(#paint10_linear_1940_354)"/>
</g>
<defs>
<linearGradient id="paint0_linear_1940_354" x1="11.6497" y1="31.2999" x2="14.1367" y2="29.1338" gradientUnits="userSpaceOnUse">
<stop stop-color="#FFC738"/>
<stop offset="0.4286" stop-color="#FFBB23"/>
<stop offset="1" stop-color="#FFA700"/>
</linearGradient>
<linearGradient id="paint1_linear_1940_354" x1="26.4892" y1="7.32004" x2="26.4892" y2="44.3867" gradientUnits="userSpaceOnUse">
<stop stop-color="#00E7B2"/>
<stop offset="0.2459" stop-color="#05E5B1"/>
<stop offset="0.5301" stop-color="#13DDAC"/>
<stop offset="0.8322" stop-color="#2AD1A5"/>
<stop offset="1" stop-color="#3AC9A0"/>
</linearGradient>
<linearGradient id="paint2_linear_1940_354" x1="26.7509" y1="36.3455" x2="26.7509" y2="9.66033" gradientUnits="userSpaceOnUse">
<stop stop-color="#00E7B2"/>
<stop offset="0.2459" stop-color="#05E5B1"/>
<stop offset="0.5301" stop-color="#13DDAC"/>
<stop offset="0.8322" stop-color="#2AD1A5"/>
<stop offset="1" stop-color="#3AC9A0"/>
</linearGradient>
<linearGradient id="paint3_linear_1940_354" x1="24.7452" y1="21.5321" x2="17.6684" y2="14.4553" gradientUnits="userSpaceOnUse">
<stop stop-color="#3AC9A0" stop-opacity="0"/>
<stop offset="0.0351" stop-color="#38C69D" stop-opacity="0.035294"/>
<stop offset="0.4167" stop-color="#23AA82" stop-opacity="0.415686"/>
<stop offset="0.7511" stop-color="#169971" stop-opacity="0.752941"/>
<stop offset="1" stop-color="#11936B"/>
</linearGradient>
<linearGradient id="paint4_linear_1940_354" x1="20.709" y1="16.9851" x2="12.9074" y2="24.7866" gradientUnits="userSpaceOnUse">
<stop stop-color="#3B395F"/>
<stop offset="0.0633" stop-color="#37355A"/>
<stop offset="0.4033" stop-color="#232543"/>
<stop offset="0.7232" stop-color="#171B35"/>
<stop offset="1" stop-color="#131830"/>
</linearGradient>
<linearGradient id="paint5_linear_1940_354" x1="31.3937" y1="28.1212" x2="22.6188" y2="19.3463" gradientUnits="userSpaceOnUse">
<stop stop-color="#3AC9A0" stop-opacity="0"/>
<stop offset="0.0351" stop-color="#38C69D" stop-opacity="0.035294"/>
<stop offset="0.4167" stop-color="#23AA82" stop-opacity="0.415686"/>
<stop offset="0.7511" stop-color="#169971" stop-opacity="0.752941"/>
<stop offset="1" stop-color="#11936B"/>
</linearGradient>
<linearGradient id="paint6_linear_1940_354" x1="27.1907" y1="23.467" x2="19.3891" y2="31.2685" gradientUnits="userSpaceOnUse">
<stop stop-color="#3B395F"/>
<stop offset="0.0633" stop-color="#37355A"/>
<stop offset="0.4033" stop-color="#232543"/>
<stop offset="0.7232" stop-color="#171B35"/>
<stop offset="1" stop-color="#131830"/>
</linearGradient>
<linearGradient id="paint7_linear_1940_354" x1="38.0773" y1="34.876" x2="29.6561" y2="26.4548" gradientUnits="userSpaceOnUse">
<stop stop-color="#3AC9A0" stop-opacity="0"/>
<stop offset="0.0351" stop-color="#38C69D" stop-opacity="0.035294"/>
<stop offset="0.4167" stop-color="#23AA82" stop-opacity="0.415686"/>
<stop offset="0.7511" stop-color="#169971" stop-opacity="0.752941"/>
<stop offset="1" stop-color="#11936B"/>
</linearGradient>
<linearGradient id="paint8_linear_1940_354" x1="32.9669" y1="29.4442" x2="25.1653" y2="37.2457" gradientUnits="userSpaceOnUse">
<stop stop-color="#3B395F"/>
<stop offset="0.0633" stop-color="#37355A"/>
<stop offset="0.4033" stop-color="#232543"/>
<stop offset="0.7232" stop-color="#171B35"/>
<stop offset="1" stop-color="#131830"/>
</linearGradient>
<linearGradient id="paint9_linear_1940_354" x1="15.1616" y1="6.18748" x2="8.12167" y2="3.35948" gradientUnits="userSpaceOnUse">
<stop stop-color="#3AC9A0" stop-opacity="0"/>
<stop offset="0.0351" stop-color="#38C69D" stop-opacity="0.035294"/>
<stop offset="0.4167" stop-color="#23AA82" stop-opacity="0.415686"/>
<stop offset="0.7511" stop-color="#169971" stop-opacity="0.752941"/>
<stop offset="1" stop-color="#11936B"/>
</linearGradient>
<linearGradient id="paint10_linear_1940_354" x1="8.43945" y1="0" x2="11.9963" y2="0.115483" gradientUnits="userSpaceOnUse">
<stop stop-color="#FF5C65"/>
<stop offset="0.53125" stop-color="#FD008B"/>
<stop offset="1" stop-color="#6500FC"/>
</linearGradient>
<clipPath id="clip0_1940_354">
<rect width="50" height="50" fill="white"/>
</clipPath>
</defs>
</svg>
