<svg width="50" height="50" viewBox="0 0 50 50" fill="none" xmlns="http://www.w3.org/2000/svg">
<path d="M44.1406 23.0469C47.3715 23.0469 50 20.4184 50 17.1875V9.375C50 6.14414 47.3715 3.51562 44.1406 3.51562H5.85938C2.62852 3.51562 0 6.14414 0 9.375V17.1875C0 20.4184 2.62852 23.0469 5.85938 23.0469H7.8125V26.9531H5.85938C2.62852 26.9531 0 29.5816 0 32.8125V40.625C0 43.8559 2.62852 46.4844 5.85938 46.4844H44.1406C47.3715 46.4844 50 43.8559 50 40.625V32.8125C50 29.5816 47.3715 26.9531 44.1406 26.9531H42.1875V23.0469H44.1406ZM46.0938 32.8125V40.625C46.0938 41.702 45.2176 42.5781 44.1406 42.5781H5.85938C4.78242 42.5781 3.90625 41.702 3.90625 40.625V32.8125C3.90625 31.7355 4.78242 30.8594 5.85938 30.8594H44.1406C45.2176 30.8594 46.0938 31.7355 46.0938 32.8125ZM11.7188 26.9531V23.0469H32.4219C33.5006 23.0469 34.375 22.1725 34.375 21.0938C34.375 20.015 33.5006 19.1406 32.4219 19.1406H5.85938C4.78242 19.1406 3.90625 18.2645 3.90625 17.1875V9.375C3.90625 8.29805 4.78242 7.42188 5.85938 7.42188H44.1406C45.2176 7.42188 46.0938 8.29805 46.0938 9.375V17.1875C46.0938 18.2645 45.2176 19.1406 44.1406 19.1406H40.2344C39.1557 19.1406 38.2812 20.015 38.2812 21.0938V26.9531H11.7188Z" fill="url(#paint0_linear_1738_73)"/>
<path d="M24.6094 11.3281H9.76562C8.68691 11.3281 7.8125 12.2025 7.8125 13.2812C7.8125 14.36 8.68691 15.2344 9.76562 15.2344H24.6094C25.6881 15.2344 26.5625 14.36 26.5625 13.2812C26.5625 12.2025 25.6881 11.3281 24.6094 11.3281Z" fill="url(#paint1_linear_1738_73)"/>
<path d="M32.4219 15.2344C33.5006 15.2344 34.375 14.3599 34.375 13.2812C34.375 12.2026 33.5006 11.3281 32.4219 11.3281C31.3432 11.3281 30.4688 12.2026 30.4688 13.2812C30.4688 14.3599 31.3432 15.2344 32.4219 15.2344Z" fill="url(#paint2_linear_1738_73)"/>
<path d="M40.2344 15.2344C41.3131 15.2344 42.1875 14.3599 42.1875 13.2812C42.1875 12.2026 41.3131 11.3281 40.2344 11.3281C39.1557 11.3281 38.2812 12.2026 38.2812 13.2812C38.2812 14.3599 39.1557 15.2344 40.2344 15.2344Z" fill="url(#paint3_linear_1738_73)"/>
<path d="M40.2344 38.6719C41.3131 38.6719 42.1875 37.7974 42.1875 36.7188C42.1875 35.6401 41.3131 34.7656 40.2344 34.7656C39.1557 34.7656 38.2812 35.6401 38.2812 36.7188C38.2812 37.7974 39.1557 38.6719 40.2344 38.6719Z" fill="url(#paint4_linear_1738_73)"/>
<path d="M32.4219 38.6719C33.5006 38.6719 34.375 37.7974 34.375 36.7188C34.375 35.6401 33.5006 34.7656 32.4219 34.7656C31.3432 34.7656 30.4688 35.6401 30.4688 36.7188C30.4688 37.7974 31.3432 38.6719 32.4219 38.6719Z" fill="url(#paint5_linear_1738_73)"/>
<path d="M24.6094 38.6719H9.76562C8.68691 38.6719 7.8125 37.7975 7.8125 36.7188C7.8125 35.64 8.68691 34.7656 9.76562 34.7656H24.6094C25.6881 34.7656 26.5625 35.64 26.5625 36.7188C26.5625 37.7975 25.6881 38.6719 24.6094 38.6719Z" fill="url(#paint6_linear_1738_73)"/>
<defs>
<linearGradient id="paint0_linear_1738_73" x1="0" y1="3.51563" x2="52.7352" y2="7.18597" gradientUnits="userSpaceOnUse">
<stop stop-color="#FF5C65"/>
<stop offset="0.53125" stop-color="#FD008B"/>
<stop offset="1" stop-color="#6500FC"/>
</linearGradient>
<linearGradient id="paint1_linear_1738_73" x1="7.8125" y1="11.3281" x2="26.1708" y2="16.5988" gradientUnits="userSpaceOnUse">
<stop stop-color="#FF5C65"/>
<stop offset="0.53125" stop-color="#FD008B"/>
<stop offset="1" stop-color="#6500FC"/>
</linearGradient>
<linearGradient id="paint2_linear_1738_73" x1="30.4688" y1="11.3281" x2="34.5939" y2="11.5749" gradientUnits="userSpaceOnUse">
<stop stop-color="#FF5C65"/>
<stop offset="0.53125" stop-color="#FD008B"/>
<stop offset="1" stop-color="#6500FC"/>
</linearGradient>
<linearGradient id="paint3_linear_1738_73" x1="38.2813" y1="11.3281" x2="42.4064" y2="11.5749" gradientUnits="userSpaceOnUse">
<stop stop-color="#FF5C65"/>
<stop offset="0.53125" stop-color="#FD008B"/>
<stop offset="1" stop-color="#6500FC"/>
</linearGradient>
<linearGradient id="paint4_linear_1738_73" x1="38.2813" y1="34.7656" x2="42.4064" y2="35.0124" gradientUnits="userSpaceOnUse">
<stop stop-color="#FF5C65"/>
<stop offset="0.53125" stop-color="#FD008B"/>
<stop offset="1" stop-color="#6500FC"/>
</linearGradient>
<linearGradient id="paint5_linear_1738_73" x1="30.4688" y1="34.7656" x2="34.5939" y2="35.0124" gradientUnits="userSpaceOnUse">
<stop stop-color="#FF5C65"/>
<stop offset="0.53125" stop-color="#FD008B"/>
<stop offset="1" stop-color="#6500FC"/>
</linearGradient>
<linearGradient id="paint6_linear_1738_73" x1="7.8125" y1="34.7656" x2="26.1708" y2="40.0363" gradientUnits="userSpaceOnUse">
<stop stop-color="#FF5C65"/>
<stop offset="0.53125" stop-color="#FD008B"/>
<stop offset="1" stop-color="#6500FC"/>
</linearGradient>
</defs>
</svg>
