<svg width="30" height="30" viewBox="0 0 30 30" fill="none" xmlns="http://www.w3.org/2000/svg">
<path opacity="0.2" d="M26.5377 17.9627C26.295 17.5877 25.95 17.2127 25.5029 16.9752C25.1452 16.8002 24.9153 16.5127 24.7109 16.1752C24.0594 15.1002 24.4427 13.6877 25.5285 13.0502C26.8059 12.3377 27.2147 10.7502 26.4738 9.51274L25.6179 8.03774C24.8898 6.80024 23.2929 6.36274 22.0283 7.08774C20.9041 7.68774 19.4606 7.28774 18.8091 6.22524C18.6047 5.87524 18.4897 5.50024 18.5153 5.12524C18.5536 4.63774 18.4003 4.17524 18.1704 3.80024C17.6977 3.02524 16.8418 2.50024 15.8965 2.50024H14.0953C13.1628 2.52524 12.3069 3.02524 11.8343 3.80024C11.5915 4.17524 11.451 4.63774 11.4766 5.12524C11.5021 5.50024 11.3871 5.87524 11.1828 6.22524C10.5313 7.28774 9.08774 7.68774 7.97636 7.08774C6.69892 6.36274 5.11488 6.80024 4.37396 8.03774L3.51807 9.51274C2.78993 10.7502 3.19871 12.3377 4.46338 13.0502C5.54921 13.6877 5.93245 15.1002 5.29372 16.1752C5.07656 16.5127 4.84662 16.8002 4.48893 16.9752C4.0546 17.2127 3.67137 17.5877 3.46698 17.9627C2.99432 18.7377 3.01987 19.7127 3.49252 20.5252L4.37396 22.0252C4.84662 22.8252 5.72806 23.3252 6.64782 23.3252C7.08215 23.3252 7.59313 23.2002 8.00191 22.9502C8.32127 22.7377 8.70451 22.6627 9.12606 22.6627C10.3907 22.6627 11.451 23.7002 11.4766 24.9377C11.4766 26.3752 12.6518 27.5002 14.1337 27.5002H15.871C17.34 27.5002 18.5153 26.3752 18.5153 24.9377C18.5536 23.7002 19.6139 22.6627 20.8786 22.6627C21.2874 22.6627 21.6706 22.7377 22.0027 22.9502C22.4115 23.2002 22.9097 23.3252 23.3568 23.3252C24.2638 23.3252 25.1452 22.8252 25.6179 22.0252L26.5121 20.5252C26.972 19.6877 27.0103 18.7377 26.5377 17.9627Z" fill="white"/>
<path d="M15.0156 18.5381C13.0101 18.5381 11.3877 16.9756 11.3877 15.0131C11.3877 13.0506 13.0101 11.4756 15.0156 11.4756C17.0212 11.4756 18.6053 13.0506 18.6053 15.0131C18.6053 16.9756 17.0212 18.5381 15.0156 18.5381Z" fill="url(#paint0_linear_2250_6394)"/>
<defs>
<linearGradient id="paint0_linear_2250_6394" x1="11.3877" y1="11.4756" x2="19.0085" y2="11.9414" gradientUnits="userSpaceOnUse">
<stop stop-color="#FF5C65"/>
<stop offset="0.53125" stop-color="#FD008B"/>
<stop offset="1" stop-color="#6500FC"/>
</linearGradient>
</defs>
</svg>
