<svg width="50" height="50" viewBox="0 0 50 50" fill="none" xmlns="http://www.w3.org/2000/svg">
<path d="M25.0249 30.8963C21.6823 30.8963 18.9784 28.2922 18.9784 25.0213C18.9784 21.7505 21.6823 19.1255 25.0249 19.1255C28.3676 19.1255 31.0077 21.7505 31.0077 25.0213C31.0077 28.2922 28.3676 30.8963 25.0249 30.8963Z" fill="white"/>
<path opacity="0.4" d="M44.2292 29.9378C43.8247 29.3128 43.2499 28.6878 42.5047 28.292C41.9085 28.0003 41.5253 27.5212 41.1847 26.9587C40.0988 25.167 40.7375 22.8128 42.5473 21.7503C44.6763 20.5628 45.3576 17.917 44.1228 15.8545L42.6963 13.3962C41.4827 11.3337 38.8214 10.6045 36.7136 11.8128C34.84 12.8128 32.4341 12.1462 31.3483 10.3753C31.0077 9.79199 30.816 9.16699 30.8586 8.54199C30.9225 7.72949 30.667 6.95866 30.2838 6.33366C29.496 5.04199 28.0695 4.16699 26.494 4.16699H23.492C21.9378 4.20866 20.5113 5.04199 19.7235 6.33366C19.319 6.95866 19.0848 7.72949 19.1274 8.54199C19.17 9.16699 18.9784 9.79199 18.6377 10.3753C17.5519 12.1462 15.146 12.8128 13.2937 11.8128C11.1647 10.6045 8.5246 11.3337 7.28973 13.3962L5.86325 15.8545C4.64968 17.917 5.33098 20.5628 7.43877 21.7503C9.24849 22.8128 9.88721 25.167 8.82267 26.9587C8.46073 27.5212 8.07749 28.0003 7.48135 28.292C6.75747 28.6878 6.11874 29.3128 5.77809 29.9378C4.99033 31.2295 5.03291 32.8545 5.82067 34.2087L7.28973 36.7087C8.07749 38.042 9.54656 38.8753 11.0795 38.8753C11.8034 38.8753 12.655 38.667 13.3363 38.2503C13.8686 37.8962 14.5073 37.7712 15.2099 37.7712C17.3177 37.7712 19.0848 39.5003 19.1274 41.5628C19.1274 43.9587 21.0862 45.8337 23.5559 45.8337H26.4514C28.8999 45.8337 30.8586 43.9587 30.8586 41.5628C30.9225 39.5003 32.6896 37.7712 34.7974 37.7712C35.4787 37.7712 36.1174 37.8962 36.671 38.2503C37.3523 38.667 38.1827 38.8753 38.9278 38.8753C40.4395 38.8753 41.9085 38.042 42.6963 36.7087L44.1867 34.2087C44.9531 32.8128 45.017 31.2295 44.2292 29.9378Z" fill="white"/>
</svg>
