<svg width="40" height="42" viewBox="0 0 40 42" fill="none" xmlns="http://www.w3.org/2000/svg">
<path opacity="0.2" d="M39.2291 25.9378C38.8246 25.3128 38.2497 24.6878 37.5046 24.292C36.9084 24.0003 36.5252 23.5212 36.1845 22.9587C35.0987 21.167 35.7374 18.8128 37.5471 17.7503C39.6762 16.5628 40.3575 13.917 39.1227 11.8545L37.6962 9.39616C36.4826 7.33366 33.8213 6.60449 31.7135 7.81283C29.8399 8.81283 27.434 8.14616 26.3482 6.37533C26.0075 5.79199 25.8159 5.16699 25.8585 4.54199C25.9224 3.72949 25.6669 2.95866 25.2837 2.33366C24.4959 1.04199 23.0694 0.166992 21.4939 0.166992H18.4919C16.9377 0.208659 15.5112 1.04199 14.7234 2.33366C14.3189 2.95866 14.0847 3.72949 14.1273 4.54199C14.1699 5.16699 13.9782 5.79199 13.6376 6.37533C12.5518 8.14616 10.1459 8.81283 8.29361 7.81283C6.16453 6.60449 3.52448 7.33366 2.28961 9.39616L0.863131 11.8545C-0.350444 13.917 0.330861 16.5628 2.43865 17.7503C4.24836 18.8128 4.88709 21.167 3.82255 22.9587C3.46061 23.5212 3.07737 24.0003 2.48123 24.292C1.75734 24.6878 1.11862 25.3128 0.777968 25.9378C-0.00979125 27.2295 0.0327903 28.8545 0.820549 30.2087L2.28961 32.7087C3.07737 34.042 4.54643 34.8753 6.07937 34.8753C6.80326 34.8753 7.65489 34.667 8.33619 34.2503C8.86846 33.8962 9.50719 33.7712 10.2098 33.7712C12.3176 33.7712 14.0847 35.5003 14.1273 37.5628C14.1273 39.9587 16.086 41.8337 18.5558 41.8337H21.4513C23.8998 41.8337 25.8585 39.9587 25.8585 37.5628C25.9224 35.5003 27.6895 33.7712 29.7973 33.7712C30.4786 33.7712 31.1173 33.8962 31.6709 34.2503C32.3522 34.667 33.1825 34.8753 33.9277 34.8753C35.4394 34.8753 36.9084 34.042 37.6962 32.7087L39.1865 30.2087C39.953 28.8128 40.0169 27.2295 39.2291 25.9378Z" fill="white"/>
<path d="M20.0251 26.8963C16.6824 26.8963 13.9785 24.2922 13.9785 21.0213C13.9785 17.7505 16.6824 15.1255 20.0251 15.1255C23.3677 15.1255 26.0078 17.7505 26.0078 21.0213C26.0078 24.2922 23.3677 26.8963 20.0251 26.8963Z" fill="url(#paint0_linear_2172_3433)"/>
<defs>
<linearGradient id="paint0_linear_2172_3433" x1="13.9785" y1="15.1255" x2="26.6798" y2="15.9019" gradientUnits="userSpaceOnUse">
<stop stop-color="#FF5C65"/>
<stop offset="0.53125" stop-color="#FD008B"/>
<stop offset="1" stop-color="#6500FC"/>
</linearGradient>
</defs>
</svg>
