<svg width="50" height="50" viewBox="0 0 50 50" fill="none" xmlns="http://www.w3.org/2000/svg">
<path opacity="0.2" d="M25.1806 45.8332C24.9226 45.8332 24.6646 45.7739 24.4318 45.6534L16.9296 41.7699C14.8007 40.6667 13.1354 39.4287 11.835 37.9864C8.98892 34.8322 7.40541 30.7832 7.38024 26.583L7.29207 12.7587C7.28166 11.1632 8.31147 9.73115 9.85094 9.19182L23.6265 4.38898C24.4444 4.09685 25.3568 4.09276 26.1894 4.37468L40.0174 9.01409C41.5652 9.53094 42.6118 10.9528 42.6202 12.5463L42.7083 26.3807C42.7356 30.5748 41.2066 34.6402 38.4045 37.8291C37.1188 39.2918 35.4682 40.5482 33.3603 41.6718L25.9252 45.6432C25.6945 45.7678 25.4386 45.8311 25.1806 45.8332Z" fill="white"/>
<path d="M22.5756 30.0731C22.1729 30.0751 21.7702 29.93 21.4598 29.6318L17.4664 25.7911C16.8498 25.1946 16.8435 24.2263 17.4538 23.6257C18.0642 23.023 19.0604 23.0169 19.6792 23.6114L22.5525 26.3733L29.5682 19.4561C30.1807 18.8535 31.1769 18.8473 31.7935 19.4418C32.4123 20.0383 32.4186 21.0087 31.8082 21.6073L23.6851 29.6175C23.3789 29.9198 22.9783 30.071 22.5756 30.0731Z" fill="url(#paint0_linear_2172_3442)"/>
<defs>
<linearGradient id="paint0_linear_2172_3442" x1="17" y1="19" x2="33.0655" y2="20.3244" gradientUnits="userSpaceOnUse">
<stop stop-color="#FF5C65"/>
<stop offset="0.53125" stop-color="#FD008B"/>
<stop offset="1" stop-color="#6500FC"/>
</linearGradient>
</defs>
</svg>
