<svg width="30" height="30" viewBox="0 0 30 30" fill="none" xmlns="http://www.w3.org/2000/svg">
<path opacity="0.2" d="M15.1082 27.5C14.9534 27.5 14.7986 27.4645 14.6589 27.3921L10.1575 25.062C8.88024 24.4001 7.88105 23.6573 7.10083 22.7919C5.39316 20.8994 4.44305 18.47 4.42795 15.9499L4.37505 7.65533C4.3688 6.69803 4.98669 5.83879 5.91037 5.51519L14.1757 2.63349C14.6665 2.4582 15.2139 2.45575 15.7135 2.62491L24.0102 5.40855C24.9389 5.71866 25.5669 6.57178 25.5719 7.52785L25.6248 15.8285C25.6411 18.345 24.7238 20.7842 23.0425 22.6976C22.2711 23.5752 21.2807 24.329 20.016 25.0032L15.5549 27.386C15.4165 27.4608 15.2629 27.4988 15.1082 27.5Z" fill="white"/>
<path d="M14.1491 17.9012C13.9075 17.9024 13.6658 17.8153 13.4796 17.6364L11.0836 15.332C10.7136 14.9741 10.7098 14.3931 11.076 14.0327C11.4422 13.6711 12.04 13.6674 12.4112 14.0241L14.1352 15.6813L18.3447 11.531C18.7121 11.1694 19.3099 11.1657 19.6798 11.5224C20.0511 11.8803 20.0548 12.4625 19.6886 12.8217L14.8148 17.6278C14.6311 17.8092 14.3907 17.8999 14.1491 17.9012Z" fill="url(#paint0_linear_2250_6404)"/>
<defs>
<linearGradient id="paint0_linear_2250_6404" x1="10.8037" y1="11.2573" x2="20.443" y2="12.052" gradientUnits="userSpaceOnUse">
<stop stop-color="#FF5C65"/>
<stop offset="0.53125" stop-color="#FD008B"/>
<stop offset="1" stop-color="#6500FC"/>
</linearGradient>
</defs>
</svg>
