<svg width="50" height="50" viewBox="0 0 50 50" fill="none" xmlns="http://www.w3.org/2000/svg">
<path opacity="0.4" d="M25.1804 45.8332C24.9224 45.8332 24.6644 45.7739 24.4316 45.6534L16.9293 41.7699C14.8005 40.6667 13.1352 39.4287 11.8348 37.9864C8.98868 34.8322 7.40516 30.7832 7.38 26.583L7.29183 12.7587C7.28142 11.1632 8.31123 9.73115 9.85069 9.19182L23.6262 4.38898C24.4442 4.09685 25.3565 4.09276 26.1892 4.37468L40.0171 9.01409C41.565 9.53094 42.6116 10.9528 42.62 12.5463L42.7081 26.3807C42.7353 30.5748 41.2063 34.6402 38.4043 37.8291C37.1186 39.2918 35.4679 40.5482 33.3601 41.6718L25.9249 45.6432C25.6942 45.7678 25.4383 45.8311 25.1804 45.8332Z" fill="white"/>
<path d="M23.5817 29.8353C23.179 29.8373 22.7763 29.6922 22.4659 29.394L18.4725 25.5533C17.8558 24.9568 17.8496 23.9885 18.4599 23.3879C19.0702 22.7852 20.0665 22.7791 20.6852 23.3736L23.5586 26.1356L30.5743 19.2183C31.1867 18.6157 32.183 18.6095 32.7996 19.204C33.4183 19.8005 33.4246 20.7709 32.8143 21.3695L24.6912 29.3797C24.385 29.682 23.9844 29.8332 23.5817 29.8353Z" fill="white"/>
</svg>
