<svg width="40" height="40" viewBox="0 0 40 40" fill="none" xmlns="http://www.w3.org/2000/svg">
<g clip-path="url(#clip0_1837_361)">
<path d="M11.1954 35.4379C13.0274 33.6059 13.0274 30.6408 11.1954 28.8088C9.36351 26.9768 6.3984 26.9768 4.5664 28.8088C4.11515 29.2601 3.38516 30.2582 1.73199 34.0021C0.855906 35.9861 0.143339 37.7879 0.113418 37.8637C-0.11525 38.4426 0.0216226 39.1022 0.46185 39.5424C0.901999 39.9826 1.5616 40.1195 2.14057 39.8908C2.21635 39.8609 4.01812 39.1483 6.00215 38.2723C9.74608 36.6191 10.7442 35.8891 11.1954 35.4379ZM6.77605 31.0185C7.38674 30.4079 8.37509 30.4078 8.9857 31.0185C9.59624 31.629 9.59639 32.6171 8.98601 33.2277C8.57321 33.6279 6.67863 34.5618 4.4721 35.5318C5.4424 33.3249 6.37629 31.4305 6.77605 31.0185Z" fill="url(#paint0_linear_1837_361)"/>
<path d="M33.8872 18.2853C34.6503 18.6882 35.5956 18.3961 35.9984 17.6329C37.9724 13.8935 39.2702 9.62767 39.9367 5.45211C40.1753 3.95799 39.6824 2.42982 38.6183 1.36436C37.5546 0.299457 36.0922 -0.176395 34.6059 0.0589924C27.9376 1.11484 21.1265 3.72284 16.1671 8.3873C12.5729 8.04246 8.92731 8.83862 5.82111 10.6607C4.5491 11.4068 3.71208 12.6738 3.52466 14.1367C3.33826 15.5911 3.82474 17.0186 4.85925 18.0531L21.9512 35.145C22.9862 36.1799 24.4134 36.6658 25.8674 36.4796C27.3303 36.2922 28.5973 35.4552 29.3436 34.1832C31.296 30.8548 32.0707 26.9062 31.5247 23.0647C31.4414 22.4786 31.0339 21.9899 30.4724 21.8025C29.9108 21.6151 29.2914 21.7612 28.8729 22.1797C26.3888 24.6638 23.1874 26.6597 19.3463 28.1208L11.8834 20.658C13.3446 16.8168 15.3405 13.6153 17.8245 11.1313C20.6556 8.30027 24.1101 6.42796 27.3523 5.19149L34.818 12.6572C34.3757 13.8185 33.853 15.003 33.2347 16.1741C32.8319 16.9372 33.124 17.8825 33.8872 18.2853ZM28.5243 26.6277C28.3544 28.7284 27.7173 30.7794 26.6481 32.602C26.3952 33.0329 25.966 33.3165 25.4701 33.38C24.9828 33.4424 24.5057 33.2803 24.1607 32.9354L21.7482 30.5228C24.2758 29.4507 26.5411 28.1484 28.5243 26.6277ZM9.48199 18.2565L7.0689 15.8434C6.72383 15.4984 6.5618 15.0211 6.62422 14.5339C6.68774 14.0381 6.97133 13.6089 7.40218 13.3561C9.22535 12.2867 11.2767 11.6501 13.3775 11.48C11.8566 13.4632 10.5541 15.7288 9.48199 18.2565ZM30.6822 4.10205C32.3641 3.63691 33.8848 3.33707 35.0946 3.14551C35.7599 3.04012 36.2026 3.36793 36.407 3.57261C36.7715 3.93753 36.9332 4.44299 36.8508 4.95946C36.6538 6.19358 36.3552 7.69137 35.9052 9.32502L30.6822 4.10205Z" fill="white"/>
<path d="M22.2438 11.1315C20.4161 12.9591 20.4161 15.9328 22.2438 17.7605C24.0714 19.5881 27.0452 19.5881 28.8728 17.7605C30.7047 15.9286 30.7048 12.9634 28.8728 11.1315C27.0453 9.30384 24.0714 9.30384 22.2438 11.1315ZM26.6632 15.5508C26.054 16.1599 25.0627 16.1601 24.4534 15.5508C23.8442 14.9416 23.8442 13.9503 24.4534 13.3411C25.0626 12.7319 26.0539 12.7319 26.6632 13.3411C27.2738 13.9518 27.2738 14.9401 26.6632 15.5508Z" fill="white"/>
</g>
<defs>
<linearGradient id="paint0_linear_1837_361" x1="0.00415039" y1="27.4348" x2="13.2735" y2="28.2285" gradientUnits="userSpaceOnUse">
<stop stop-color="#FF5C65"/>
<stop offset="0.53125" stop-color="#FD008B"/>
<stop offset="1" stop-color="#6500FC"/>
</linearGradient>
<clipPath id="clip0_1837_361">
<rect width="40" height="40" fill="white"/>
</clipPath>
</defs>
</svg>
