<svg width="50" height="50" viewBox="0 0 50 50" fill="none" xmlns="http://www.w3.org/2000/svg">
<g clip-path="url(#clip0_1734_7)">
<path d="M13.9944 44.2973C16.2843 42.0073 16.2844 38.301 13.9944 36.011C11.7045 33.721 7.99812 33.721 5.70812 36.011C5.14406 36.575 4.23158 37.8227 2.16511 42.5026C1.07001 44.9826 0.179296 47.2348 0.141895 47.3295C-0.143941 48.0532 0.0271503 48.8776 0.577435 49.4279C1.12762 49.9782 1.95212 50.1493 2.67584 49.8635C2.77056 49.8261 5.02278 48.9354 7.50281 47.8403C12.1827 45.7738 13.4304 44.8613 13.9944 44.2973ZM8.47018 38.773C9.23355 38.0098 10.469 38.0097 11.2322 38.773C11.9954 39.5362 11.9956 40.7713 11.2326 41.5346C10.7166 42.0348 8.34841 43.2022 5.59025 44.4147C6.80312 41.6561 7.97048 39.2881 8.47018 38.773Z" fill="white"/>
<path d="M42.359 22.8566C43.313 23.3602 44.4945 22.9951 44.998 22.0412C47.4656 17.3668 49.0878 12.0346 49.921 6.81514C50.2191 4.94749 49.603 3.03727 48.2729 1.70545C46.9433 0.374322 45.1153 -0.220493 43.2574 0.0737405C34.9221 1.39354 26.4082 4.65355 20.209 10.4841C15.7162 10.0531 11.1592 11.0483 7.27645 13.3259C5.68644 14.2585 4.64016 15.8422 4.40589 17.6709C4.17289 19.4889 4.78098 21.2732 6.07412 22.5664L27.439 43.9313C28.7328 45.2249 30.5168 45.8323 32.3343 45.5995C34.1629 45.3652 35.7467 44.319 36.6795 42.7289C39.1201 38.5685 40.0884 33.6327 39.4059 28.8309C39.3018 28.0982 38.7925 27.4874 38.0905 27.2531C37.3886 27.0189 36.6144 27.2014 36.0911 27.7247C32.9861 30.8297 28.9843 33.3246 24.1829 35.151L14.8544 25.8225C16.6808 21.021 19.1757 17.0192 22.2807 13.9141C25.8195 10.3753 30.1377 8.03495 34.1905 6.48936L43.5226 15.8214C42.9696 17.2731 42.3163 18.7537 41.5435 20.2177C41.04 21.1716 41.4051 22.3531 42.359 22.8566ZM35.6555 33.2846C35.443 35.9105 34.6466 38.4742 33.3101 40.7525C32.9941 41.2912 32.4575 41.6457 31.8377 41.7249C31.2286 41.803 30.6321 41.6003 30.201 41.1692L27.1853 38.1535C30.3448 36.8134 33.1764 35.1855 35.6555 33.2846ZM11.8526 22.8207L8.83619 19.8043C8.40485 19.373 8.20231 18.7764 8.28034 18.1674C8.35973 17.5477 8.71422 17.0111 9.25279 16.6952C11.5318 15.3584 14.096 14.5626 16.7219 14.35C14.8209 16.829 13.1927 19.661 11.8526 22.8207ZM38.3528 5.12757C40.4551 4.54613 42.3561 4.17133 43.8684 3.93188C44.7 3.80015 45.2533 4.20991 45.5089 4.46576C45.9644 4.92191 46.1666 5.55373 46.0635 6.19933C45.8173 7.74198 45.444 9.61422 44.8815 11.6563L38.3528 5.12757Z" fill="white"/>
<path d="M27.8048 13.9141C25.5203 16.1986 25.5203 19.9157 27.8048 22.2004C30.0894 24.4849 33.8066 24.4849 36.0911 22.2004C38.381 19.9105 38.3811 16.204 36.0911 13.9141C33.8067 11.6296 30.0894 11.6296 27.8048 13.9141ZM33.3291 19.4382C32.5676 20.1996 31.3285 20.1998 30.5669 19.4382C29.8054 18.6767 29.8054 17.4377 30.5669 16.6762C31.3284 15.9146 32.5675 15.9146 33.3291 16.6762C34.0923 17.4395 34.0923 18.6749 33.3291 19.4382Z" fill="white"/>
</g>
<defs>
<clipPath id="clip0_1734_7">
<rect width="50" height="50" fill="white"/>
</clipPath>
</defs>
</svg>
