<svg width="30" height="24" viewBox="0 0 30 24" fill="none" xmlns="http://www.w3.org/2000/svg">
<path opacity="0.4" d="M17.6257 8.55449V5.52472C17.0309 5.52472 16.5377 5.04559 16.5377 4.46782V0.86028C16.5377 0.379745 16.146 0.000671387 15.6528 0.000671387H5.68665C2.55319 0.000671387 0 2.47945 0 5.52472V9.17312C0 9.45637 0.116054 9.72412 0.319149 9.9214C0.522244 10.1173 0.797872 10.23 1.08801 10.23C2.19052 10.23 3.03192 10.991 3.03192 11.9915C3.03192 13.0357 2.17602 13.8672 1.10251 13.8798C0.507737 13.8798 0 14.2885 0 14.8804V18.4893C0 21.5332 2.55319 23.9993 5.67215 23.9993H15.6528C16.146 23.9993 16.5377 23.6174 16.5377 23.1397V20.0944C16.5377 19.5039 17.0309 19.0375 17.6257 19.0375V16.3051C17.0309 16.3051 16.5377 15.8245 16.5377 15.2482V9.61138C16.5377 9.03361 17.0309 8.55449 17.6257 8.55449Z" fill="#56CCF2"/>
<path d="M26.9678 11.9922C26.9678 13.0351 27.8383 13.8665 28.8972 13.8806C29.492 13.8806 29.9998 14.2892 29.9998 14.867V18.4886C29.9998 21.5339 27.4611 24 24.3276 24H19.5984C19.1197 24 18.7135 23.6181 18.7135 23.139V20.0951C18.7135 19.5033 18.2348 19.0382 17.6255 19.0382V16.3058C18.2348 16.3058 18.7135 15.8253 18.7135 15.2489V9.61212C18.7135 9.03294 18.2348 8.55522 17.6255 8.55522V5.52404C18.2348 5.52404 18.7135 5.04492 18.7135 4.46715V0.861018C18.7135 0.380483 19.1197 0 19.5984 0H24.3276C27.4611 0 29.9998 2.46609 29.9998 5.50995V9.06112C29.9998 9.34296 29.8837 9.61212 29.6806 9.808C29.4775 10.0053 29.2019 10.118 28.9118 10.118C27.8383 10.118 26.9678 10.9649 26.9678 11.9922Z" fill="#56CCF2"/>
</svg>
